<svg width="270" height="271" viewBox="0 0 270 271" fill="none" xmlns="http://www.w3.org/2000/svg">
<rect y="0.500122" width="270" height="270" rx="10" fill="#F2F7FF"/>
<path d="M12 244.5V135.5V26.5H258.684V244.5H12Z" fill="#F2F7FF"/>
<path fill-rule="evenodd" clip-rule="evenodd" d="M204.025 30.6751C202.431 30.7707 199.499 31.2488 197.491 31.6631C195.483 32.1093 193.571 32.5555 193.252 32.683C192.965 32.7786 192.679 33.0336 192.647 33.2248C192.615 33.4479 192.965 33.4798 193.667 33.3523C194.272 33.2567 195.42 33.0336 196.216 32.8423C197.013 32.6511 198.224 32.3324 198.925 32.1412C199.658 31.9181 202.113 31.7587 204.662 31.7587C208.327 31.7906 209.539 31.9181 211.355 32.4918C212.598 32.8742 214.224 33.5754 215.02 34.0853C215.817 34.5953 217.347 35.8701 218.463 36.9537C219.546 38.0374 220.949 39.6947 221.554 40.619C222.16 41.5114 223.371 43.2005 224.263 44.3479C225.124 45.4953 225.857 46.5789 225.857 46.7383C225.857 46.8976 226.175 47.5669 226.558 48.1725C226.94 48.778 227.514 50.0847 227.865 51.0409C228.183 51.997 228.566 53.6543 228.693 54.7061C228.853 55.7578 229.363 58.0526 229.841 59.8055C230.319 61.5584 231.307 64.2675 232.04 65.8611C232.932 67.7415 233.92 69.3032 234.972 70.3549C235.864 71.3111 237.203 72.2991 238.127 72.6815C239.02 73.064 240.294 73.7014 240.996 74.052C241.697 74.4345 242.908 75.1994 243.705 75.7412C244.788 76.5061 245.426 77.3347 246.35 79.1195C247.529 81.4143 247.561 81.6055 247.689 85.5576C247.848 89.3184 247.816 89.6371 247.211 90.1789C246.86 90.4657 246.477 91.2307 246.382 91.8362C246.254 92.4418 246.063 93.0792 245.936 93.2704C245.808 93.4616 245.234 94.7365 244.693 96.1388C244.151 97.5412 243.705 98.9435 243.705 99.2622C243.705 99.5491 243.322 100.983 242.812 102.386C242.143 104.394 241.729 105.127 240.996 105.636C240.486 105.987 239.53 106.752 238.924 107.326C238.318 107.899 236.82 108.887 235.577 109.557C233.952 110.385 232.773 110.768 231.307 110.927C230.096 111.023 229.235 111.278 229.171 111.533C229.076 111.82 228.311 111.883 226.08 111.724C224.486 111.628 222.574 111.405 221.873 111.246C221.172 111.055 218.463 110.959 215.881 111.023C213.268 111.086 211.068 111.214 211.005 111.373C210.941 111.501 210.654 111.596 210.399 111.596C210.144 111.596 209.539 111.851 209.029 112.202C208.551 112.521 207.021 113.126 205.618 113.509C204.184 113.891 202.176 114.752 201.061 115.453C199.977 116.122 198.894 116.696 198.67 116.696C198.479 116.696 197.651 117.238 196.854 117.875C196.057 118.513 195.069 119.437 194.623 119.915C194.177 120.361 193.38 120.998 192.87 121.253C192.36 121.54 191.563 122.018 191.149 122.337C190.734 122.656 190.384 123.198 190.352 123.548C190.32 123.899 189.97 124.632 189.587 125.142C189.173 125.652 188.854 126.194 188.886 126.353C188.886 126.48 188.95 126.576 189.045 126.576C189.141 126.576 189.97 125.811 190.894 124.887C191.786 123.963 192.997 122.879 193.507 122.433C194.017 121.986 195.101 121.126 195.898 120.52C196.694 119.883 197.906 119.054 198.607 118.64C199.308 118.226 201.156 117.333 202.75 116.664C204.344 115.995 205.714 115.517 205.873 115.58C206.001 115.676 206.543 115.517 207.053 115.262C207.563 115.007 208.009 114.656 208.009 114.465C208.009 114.274 208.327 113.987 208.742 113.796C209.124 113.572 209.889 113.381 210.399 113.349C210.909 113.286 212.216 113.031 213.268 112.744C214.319 112.457 216.04 112.234 217.092 112.234C218.144 112.234 219.514 112.393 220.12 112.584C220.725 112.776 221.745 113.158 222.351 113.445C222.956 113.7 224.55 114.019 225.92 114.114C228.056 114.274 228.438 114.242 229.012 113.668C229.649 113.094 229.713 113.094 229.681 113.604C229.681 113.966 229.979 114.178 230.574 114.242C231.052 114.306 232.518 114.21 233.825 114.051C235.131 113.891 236.502 113.541 236.852 113.317C237.203 113.063 237.713 112.871 237.968 112.871C238.223 112.871 239.083 112.138 239.88 111.246C240.677 110.353 241.792 108.76 242.366 107.676C242.972 106.593 243.768 105.19 244.183 104.585C244.597 103.979 245.171 102.896 245.426 102.194C245.713 101.493 246.446 99.1347 247.083 96.9356C247.72 94.7365 248.453 92.2505 248.677 91.3581C248.932 90.4976 249.187 88.3941 249.25 86.7368C249.314 84.8245 249.187 83.0716 248.9 81.9561C248.677 81 248.039 79.3426 247.529 78.2909C247.019 77.2391 246.35 76.0918 246.031 75.7412C245.713 75.3906 244.884 74.7213 244.183 74.2432C243.482 73.7652 241.697 72.809 240.199 72.1078C238.701 71.4385 237.012 70.4505 236.406 69.9725C235.832 69.4625 234.876 68.2514 234.303 67.2953C233.761 66.3391 232.932 64.5225 232.454 63.3114C231.976 62.1002 231.307 59.8692 230.924 58.3713C230.574 56.8733 230 54.9611 229.681 54.0687C229.363 53.2081 228.661 51.0409 228.088 49.288C227.546 47.535 226.94 45.814 226.749 45.4634C226.558 45.1128 225.506 43.6786 224.454 42.2763C223.371 40.8739 222.223 39.3122 221.873 38.7704C221.554 38.2605 220.311 36.89 219.164 35.7426C218.016 34.5953 216.391 33.2885 215.499 32.8105C214.638 32.3643 212.821 31.695 211.515 31.3444C210.208 30.9938 208.614 30.6432 208.009 30.5795C207.403 30.5157 205.618 30.5476 204.025 30.6751ZM187.133 35.3921C185.38 36.0614 183.149 36.7625 182.193 36.9856C181.237 37.1768 179.452 37.7187 178.209 38.1649C176.966 38.6111 175.532 39.0891 175.022 39.2485C174.512 39.376 173.428 39.7584 172.632 40.109C171.835 40.4596 170.401 41.0014 169.444 41.3201C168.488 41.6388 166.225 42.595 164.409 43.4874C162.592 44.3798 160.903 45.3997 160.648 45.7502C160.393 46.1327 159.501 46.5789 158.672 46.802C157.843 47.0251 156.058 47.1845 154.72 47.2163C153.349 47.2163 151.118 46.9932 149.78 46.7383C147.995 46.3877 146.688 45.8777 145.222 44.9853C144.075 44.2842 142.768 43.3918 142.29 42.9774C141.812 42.595 141.302 41.9257 141.143 41.4795C140.983 41.0333 140.25 40.364 139.453 39.9497C138.338 39.376 137.191 39.1529 134.003 38.9298L129.924 38.6111C126.45 40.0771 125.366 40.5233 125.239 40.5233C125.08 40.5233 124.346 40.8421 123.55 41.2245C122.753 41.607 120.618 43.1368 118.801 44.6347C116.984 46.1327 115.423 47.535 115.295 47.7263C115.199 47.9175 114.881 48.2043 114.594 48.3637C114.307 48.523 113.51 49.3836 112.809 50.2441C112.108 51.1365 111.184 52.4751 110.706 53.2719C110.259 54.0687 109.239 55.726 108.411 56.9371C107.614 58.1482 106.785 59.7418 106.594 60.4429C106.403 61.1441 105.829 62.9926 105.319 64.5862C104.618 66.6578 104.299 68.5383 104.044 71.4385C103.885 73.6377 103.662 75.6456 103.534 75.9005C103.439 76.1555 103.311 76.6654 103.28 77.016C103.216 77.3666 103.12 78.1953 103.088 78.8646C103.025 79.502 102.897 80.0438 102.77 80.0438C102.61 80.0438 102.546 80.4263 102.578 80.9362C102.61 81.4143 102.419 83.1035 102.196 84.6652C101.973 86.2268 101.59 87.916 101.367 88.426C101.112 88.904 100.921 89.6052 100.921 90.0195C100.889 90.4657 100.029 91.5812 98.4351 93.1111C97.0965 94.4497 95.2798 95.8839 94.3874 96.3619C93.5269 96.84 91.9014 97.6687 90.8178 98.2105C89.7023 98.7204 88.4275 99.1666 87.9494 99.1666C87.312 99.1666 86.9295 99.3897 86.6745 99.9634C86.4515 100.41 86.2602 100.856 86.2602 101.015C86.2602 101.143 86.9933 101.621 87.9175 102.099C88.8418 102.577 90.7541 103.278 92.1564 103.66C93.5588 104.043 95.8535 104.457 97.2558 104.553L99.8055 104.744C99.9649 106.72 99.8693 108.282 99.6462 109.525C99.4231 110.768 99.0088 112.744 98.69 113.987C98.3713 115.23 97.9251 116.664 97.7339 117.174C97.5427 117.684 97.0965 118.736 96.7459 119.501C96.4272 120.234 96.1403 121.158 96.1403 121.572C96.1403 121.955 96.0447 122.401 95.9172 122.528C95.7898 122.688 95.6623 122.911 95.6623 123.006C95.6304 123.134 95.5348 123.963 95.3754 124.823C95.2479 125.715 94.9292 127.15 94.6743 128.01C94.4193 128.903 94.2281 130.496 94.2281 131.612C94.2281 133.365 94.1643 133.588 93.5906 133.588C93.24 133.588 92.1245 133.811 91.1365 134.098C90.1167 134.384 88.4275 134.799 87.3757 135.054C86.324 135.309 84.2523 135.882 82.7544 136.36C81.2564 136.807 79.1529 137.603 78.0693 138.082C76.4757 138.815 75.2965 139.771 72.4918 142.607C70.5476 144.551 68.476 146.91 67.8705 147.77C67.2968 148.663 66.8187 149.46 66.8187 149.619C66.8187 149.746 66.3406 150.607 65.7351 151.531C65.1614 152.424 64.524 153.698 64.3327 154.304C64.1415 154.91 63.5997 157.427 63.1535 159.882C62.3886 163.993 62.3567 164.598 62.7073 167.531C62.8985 169.284 63.1216 172.025 63.2172 173.586C63.3766 176.04 63.3129 176.71 62.7392 178.303C62.3567 179.291 61.9105 180.12 61.7193 180.12C61.5281 180.12 61.4006 180.343 61.4006 180.598C61.4006 180.853 60.5082 182 59.4245 183.148C58.2772 184.295 57.0661 185.251 56.6199 185.347C56.1737 185.41 54.612 185.984 53.114 186.59C51.6161 187.195 49.3851 188.056 48.174 188.502C46.9629 188.98 45.433 189.713 44.8275 190.127C44.2219 190.574 43.0108 191.434 42.1184 192.008C41.2579 192.613 39.6962 194.048 38.7082 195.195C37.0509 197.107 36.7321 197.713 35.7441 200.932C35.1386 202.876 34.5012 205.713 34.3099 207.21C34.1506 208.708 34.0868 211.003 34.1506 212.31C34.1824 213.617 34.4055 215.911 34.6286 217.409C34.8517 218.907 35.3617 220.883 35.776 221.808C36.1903 222.7 36.5409 223.56 36.5409 223.72C36.5409 223.847 37.1465 225.09 37.9114 226.493C38.6444 227.895 39.7281 229.68 40.2699 230.477C40.8117 231.273 41.8316 232.484 42.5327 233.186C43.2339 233.887 44.4769 235.034 45.3374 235.735C46.1979 236.436 47.7596 237.456 48.8114 237.966C49.8631 238.476 50.9149 239.082 51.138 239.305C51.3292 239.528 51.8392 239.815 52.2535 239.91C52.636 240.038 53.1778 240.293 53.4327 240.516C53.6877 240.771 55.09 241.249 56.5561 241.6C58.819 242.173 59.552 242.237 62.1336 241.982C63.9822 241.791 66.3725 241.249 68.5716 240.516C70.7389 239.815 73.1611 238.699 74.9459 237.648C76.5076 236.691 78.3243 235.417 78.9298 234.843C79.5354 234.237 81.0014 233.026 82.2126 232.102C83.3918 231.21 84.4754 230.477 84.6667 230.477C84.8579 230.477 85.081 230.285 85.2403 230.094C85.3678 229.871 86.2602 229.042 87.2164 228.246C88.1725 227.481 90.4672 226.046 92.3158 225.058C94.4512 223.943 96.0129 223.337 96.6184 223.337C97.1283 223.369 98.3076 223.242 99.1681 223.082C100.315 222.827 101.813 222.859 104.427 223.114C106.435 223.337 108.825 223.72 109.686 224.007C110.578 224.262 112.14 225.058 113.192 225.791C114.243 226.493 115.741 227.544 116.538 228.086C117.335 228.66 120.076 230.126 122.689 231.369C125.271 232.644 127.661 233.664 128.012 233.664C128.437 233.664 128.628 233.844 128.585 234.206C128.49 234.652 128.872 234.811 130.402 235.034C131.645 235.225 133.302 235.194 135.119 234.97C136.649 234.779 138.147 234.492 138.465 234.333C138.752 234.174 139.358 233.919 139.804 233.727C140.25 233.536 141.111 233.345 141.716 233.249C142.322 233.154 143.756 232.516 144.903 231.783C146.051 231.082 147.453 230.062 148.027 229.52C148.569 229.01 149.27 228.564 149.525 228.564C149.78 228.564 150.895 227.513 151.947 226.27C153.031 224.995 154.051 223.911 154.178 223.879C154.337 223.815 154.465 223.529 154.465 223.242C154.465 222.923 154.943 222.126 155.517 221.489C156.058 220.851 157.11 219.64 157.811 218.78C158.513 217.951 159.437 216.74 159.851 216.134C160.265 215.529 161.285 213.648 162.082 211.991C162.911 210.334 163.803 208.103 164.09 207.051C164.377 205.999 164.855 204.215 165.142 203.067C165.461 201.792 165.843 198.127 166.066 193.665C166.289 189.649 166.64 186.048 166.799 185.697C166.99 185.347 167.915 184.359 168.871 183.466C169.827 182.606 171.484 181.267 172.568 180.534C173.651 179.769 174.639 179.164 174.799 179.164C174.926 179.164 175.787 178.941 176.711 178.686C177.89 178.335 178.368 178.048 178.368 177.666C178.337 177.347 177.858 176.773 177.253 176.391C176.647 175.977 175.851 175.658 175.5 175.658C175.149 175.658 173.715 175.084 172.313 174.383C170.369 173.395 169.604 172.821 169.062 171.929C168.552 171.1 168.361 170.24 168.361 169.124C168.361 168.264 168.584 166.893 168.807 166.096C169.03 165.236 169.636 164.28 170.241 163.706C170.815 163.196 172.217 162.304 173.333 161.73C174.416 161.188 175.946 160.168 176.679 159.499C177.444 158.83 178.337 157.587 178.719 156.694C179.325 155.324 179.388 154.623 179.293 151.436C179.229 149.428 179.293 147.579 179.42 147.388C179.548 147.165 179.548 146.782 179.452 146.591C179.356 146.368 179.42 145.858 179.611 145.476C179.898 144.87 179.866 144.743 179.484 144.743C179.229 144.743 179.006 144.711 179.006 144.679C179.006 144.615 179.229 143.914 179.484 143.085C179.739 142.225 180.121 141.556 180.281 141.556C180.44 141.556 180.599 141.364 180.599 141.173C180.568 140.95 180.791 140.536 181.077 140.281C181.364 140.026 181.587 139.93 181.587 140.121C181.587 140.313 181.364 141.077 181.077 141.874C180.823 142.671 180.663 143.34 180.759 143.404C180.854 143.436 181.109 143.085 181.364 142.607C181.619 142.097 181.938 141.141 182.065 140.44C182.257 139.484 182.225 139.229 181.938 139.42C181.683 139.548 181.556 139.42 181.556 139.006C181.556 138.655 181.779 137.922 182.034 137.412C182.289 136.902 182.671 136.456 182.83 136.456C182.99 136.456 183.085 136.329 182.99 136.137C182.894 135.946 182.99 135.819 183.149 135.819C183.308 135.819 183.978 134.926 184.615 133.843C185.253 132.727 185.89 131.771 186.018 131.675C186.145 131.58 186.591 130.91 187.006 130.146C187.42 129.413 187.643 128.679 187.515 128.552C187.356 128.425 186.751 128.903 186.145 129.604C185.508 130.305 184.934 131.038 184.806 131.197C184.679 131.389 184.201 132.058 183.723 132.727C183.213 133.365 182.83 134.098 182.83 134.321C182.799 134.512 182.065 135.404 181.141 136.265L179.484 137.827C179.197 135.149 179.229 133.524 179.388 132.472C179.548 131.42 179.803 130.305 179.994 130.018C180.153 129.699 180.281 129.253 180.281 129.062C180.281 128.839 180.727 127.723 181.269 126.576C181.811 125.429 182.83 123.357 183.5 121.955C184.169 120.552 185.061 118.895 185.444 118.289C185.826 117.684 186.623 116.25 187.261 115.102C187.898 113.923 188.535 112.075 188.758 110.8C189.077 109.11 189.077 107.804 188.854 105.541C188.663 103.884 188.28 101.812 188.025 100.92C187.739 100.059 187.197 98.816 186.782 98.2105C186.4 97.6049 185.38 96.4257 184.551 95.6289C183.691 94.8321 182.129 93.6529 181.077 93.0473C180.026 92.4099 178.432 91.5494 177.572 91.135C176.711 90.6888 175.118 89.8602 174.066 89.2865C173.014 88.7128 172.09 88.171 171.994 88.0435C171.899 87.9479 171.548 87.7885 171.197 87.7567C170.847 87.6929 169.636 87.3423 168.488 86.9918C167.341 86.6412 165.939 86.3862 165.397 86.4499C164.823 86.5137 164.313 86.4499 164.218 86.2587C164.154 86.0675 162.911 85.685 161.445 85.3663C159.979 85.0795 158.034 84.8245 157.174 84.8245C156.282 84.8245 153.222 85.3344 150.322 85.94C147.421 86.5456 143.692 87.438 142.035 87.9479C140.378 88.4578 138.37 89.1909 137.573 89.5733C136.776 89.9558 135.406 90.6888 134.545 91.1988C133.653 91.7406 132.219 92.5055 131.358 92.9198C130.466 93.3342 129.032 94.1628 128.171 94.7365C127.279 95.342 125.494 96.6488 124.187 97.6687C122.88 98.6567 121.127 100.027 120.299 100.696C119.502 101.334 118.068 102.8 117.175 103.947C116.251 105.095 115.136 106.656 114.689 107.453C114.243 108.25 113.542 109.238 113.128 109.684C112.745 110.13 112.204 110.991 111.98 111.596C111.725 112.202 111.088 113.668 110.546 114.879C109.973 116.058 109.526 117.238 109.526 117.493C109.526 117.748 109.431 118.034 109.303 118.098C109.144 118.162 108.921 118.608 108.793 119.118C108.634 119.628 108.188 120.584 107.742 121.253C107.327 121.891 107.04 122.433 107.136 122.433C107.232 122.433 106.69 123.357 105.925 124.472C105.192 125.588 103.789 127.373 102.833 128.456C101.877 129.54 100.985 130.401 100.825 130.401C100.698 130.401 99.9968 130.783 99.2637 131.293C98.5307 131.771 97.6702 132.408 97.3515 132.727C97.0327 133.014 96.6184 133.173 96.4272 133.046C96.236 132.886 96.1722 132.153 96.236 131.357C96.2997 130.56 96.6503 128.711 97.0327 127.213C97.3833 125.715 97.957 123.357 98.3395 121.955C98.69 120.552 99.4231 117.525 99.9649 115.262C100.507 112.999 101.176 109.62 101.399 107.772C101.654 105.923 101.718 104.202 101.59 103.947C101.431 103.692 101.049 103.246 100.762 102.991C100.315 102.641 99.3593 102.513 96.8096 102.513C93.9731 102.513 93.1763 102.386 91.9333 101.78C91.0728 101.398 90.4035 100.951 90.4035 100.76C90.4035 100.569 91.2959 99.9953 92.4114 99.4535C93.495 98.9435 95.2479 97.8599 96.2997 97.095C97.3515 96.3301 98.8813 95.0233 99.7099 94.1628C100.507 93.3342 101.527 91.9956 101.973 91.1988C102.387 90.402 102.961 89.0634 103.248 88.171C103.503 87.3105 103.821 85.6532 103.917 84.5058C104.044 83.3584 104.268 81.5099 104.427 80.3625C104.618 79.2152 105.128 76.0599 105.542 73.3508C105.957 70.6418 106.753 66.6897 107.295 64.5862C107.837 62.4827 108.57 60.1242 108.953 59.3274C109.335 58.5306 110.355 56.9371 111.184 55.7578C112.012 54.5467 112.713 53.5587 112.713 53.5268C112.682 53.4631 113.319 52.7938 114.052 51.997C114.817 51.2002 116.411 49.4792 117.653 48.1725C118.896 46.8339 120.235 45.4953 120.681 45.1447C121.127 44.7941 122.211 43.9973 123.072 43.3599C123.964 42.7543 125.749 41.8938 127.056 41.4795C128.936 40.8739 130.179 40.7146 132.792 40.6827C135.82 40.6827 136.266 40.7464 137.414 41.4795C138.115 41.9257 139.836 43.1368 141.238 44.1885C142.641 45.2403 144.712 46.5789 145.86 47.1207C147.294 47.8219 148.824 48.2362 150.8 48.523C152.584 48.7461 154.529 48.8099 155.899 48.6505C157.716 48.4274 158.831 48.045 161.955 46.4514C164.058 45.3678 166.353 44.2523 167.054 43.9654C167.755 43.6786 169.413 43.073 170.719 42.595C172.026 42.1169 173.237 41.6388 173.428 41.5114C173.62 41.3839 175.468 40.7146 177.572 40.0453C179.675 39.376 182.48 38.2923 183.787 37.6549C185.093 36.9856 187.101 36.0932 188.217 35.7108C189.332 35.2964 190.384 34.7546 190.543 34.5634C190.671 34.3403 190.703 34.1491 190.575 34.1491C190.448 34.1809 188.886 34.7228 187.133 35.3921ZM49.1301 49.0011C48.0783 49.2242 46.676 49.6385 46.0386 49.8935C45.3693 50.1804 44.8275 50.5947 44.8275 50.8178C44.8275 51.009 44.2219 51.4552 43.457 51.7421C42.724 52.0289 41.7678 52.3795 41.3216 52.507C40.8754 52.6345 39.505 53.7499 38.2938 54.9929C37.0509 56.2359 35.4573 58.0844 34.788 59.1362C34.0868 60.1561 33.0669 61.654 32.5251 62.4827C31.9833 63.2795 31.4415 64.3631 31.314 64.9049C31.1865 65.4467 30.8359 66.116 30.5491 66.4347C30.2623 66.7216 30.1029 67.0722 30.2304 67.2315C30.3898 67.359 30.326 67.5821 30.1667 67.7733C30.0073 67.9646 29.7842 68.5064 29.7205 69.0482C29.6567 69.59 29.4017 71.4385 29.1786 73.1915C28.9555 74.9444 28.7962 76.8567 28.8281 77.4304C28.8599 77.9722 29.083 79.2152 29.338 80.1394C29.5611 81.0318 29.9754 82.1792 30.2941 82.6891C30.7722 83.4859 30.7722 83.6453 30.2941 84.7608C29.9436 85.6213 29.8479 86.7687 29.9117 89.0634C29.9754 90.8163 30.1029 92.2824 30.2623 92.3461C30.3898 92.4099 30.4854 92.7605 30.4854 93.1111C30.4854 93.4616 30.326 93.7485 30.1667 93.7485C30.0073 93.7485 30.1348 94.0672 30.5172 94.4815C30.8678 94.864 31.6009 95.6289 32.1745 96.2026C32.7482 96.7763 33.7362 97.4137 34.3737 97.6368L35.5529 98.0511C34.5649 99.2941 34.2781 100.027 34.3099 100.537C34.3099 101.175 34.4693 101.398 34.9474 101.398C35.2979 101.398 35.9991 101.047 36.5409 100.601C37.0827 100.155 37.5608 99.804 37.6564 99.804C37.752 99.804 37.8158 99.9315 37.8158 100.123C37.8158 100.314 38.262 101.398 38.8038 102.609C39.3775 103.788 40.2699 105.222 40.8117 105.796C41.3535 106.37 42.0547 106.816 42.3415 106.816C42.6602 106.816 42.9152 106.625 42.9152 106.433C42.9471 106.21 42.724 105.828 42.4371 105.636C42.1821 105.413 42.0228 105.095 42.1184 104.903C42.214 104.712 41.9272 104.202 41.5128 103.724C41.0667 103.214 40.4292 101.908 40.0468 100.76C39.6643 99.6128 39.1225 98.4336 38.8357 98.1467C38.3895 97.7005 38.3576 97.5093 38.6763 97.095C38.995 96.7125 38.995 96.585 38.6763 96.4576C38.4851 96.3938 38.007 95.8201 37.6564 95.2146C37.3058 94.5771 36.7959 94.0353 36.5409 93.9716C36.2222 93.876 35.9035 94.2266 35.5848 94.8959C35.3298 95.5014 35.0111 95.9795 34.8517 95.9795C34.7243 95.9795 34.2143 95.5652 33.6725 95.0233C32.9395 94.2903 32.5889 93.5254 32.2064 91.6131C31.8877 90.1152 31.7283 88.3622 31.824 87.2149C31.9196 85.9719 32.1427 85.2388 32.4295 85.1432C32.6845 85.0795 33.1626 84.6652 33.5131 84.2827C33.9912 83.709 34.4693 83.5497 35.4892 83.5497C36.7959 83.5497 36.8596 83.5178 36.8596 82.5935C36.8596 81.733 36.764 81.6374 35.8079 81.6374C35.2661 81.6374 34.5012 81.8286 34.1506 82.1154C33.8 82.3704 33.2582 82.5935 32.9395 82.5935C32.6526 82.5935 32.2064 82.2748 31.9514 81.8923C31.7283 81.478 31.2821 80.2988 30.9634 79.247C30.5491 77.7172 30.4535 76.6973 30.6129 74.307C30.7403 72.6497 30.9316 70.6418 31.0909 69.845C31.2184 69.0482 31.9514 67.104 32.7164 65.5423C33.4494 63.9806 34.6605 61.8134 35.3936 60.7616C36.0947 59.7099 37.4971 57.9888 38.4851 56.9371C39.9193 55.4073 41.0348 54.6423 44.0626 53.0806C46.1342 51.997 48.8751 50.8815 50.0862 50.5947C51.9985 50.1166 52.7953 50.1166 55.5044 50.4035C57.2573 50.5947 59.9982 50.8815 61.5599 51.009C63.2172 51.1684 65.7032 51.7102 67.4561 52.3157C69.1134 52.8575 70.9938 53.6225 71.5994 54.0368C72.205 54.4511 73.1292 55.0248 73.671 55.3435C74.2129 55.6622 75.4558 56.6502 76.4757 57.5426C77.5275 58.435 78.8023 59.8055 79.376 60.6023C79.9178 61.3991 80.7146 62.6102 81.1289 63.3114C81.7026 64.2994 81.9576 65.5423 82.34 69.0482C82.595 71.5023 82.7225 74.3707 82.6269 75.4225C82.4994 76.4742 82.34 78.5459 82.2444 80.0438C82.0851 82.1154 82.1488 82.976 82.4994 83.709C82.7862 84.2508 83.7743 85.3663 84.6985 86.195C85.6547 87.0236 86.6108 87.6611 86.8339 87.5654C87.0251 87.4698 87.2801 87.5017 87.3757 87.6929C87.4713 87.8842 87.4076 88.0754 87.2164 88.171C87.0251 88.2666 86.8976 88.6172 86.8976 88.9678C86.8976 89.3184 86.069 90.4657 85.081 91.5494C83.8699 92.8242 82.5631 93.7804 81.3202 94.3859C80.2684 94.864 79.1848 95.5014 78.9298 95.7883C78.6748 96.0751 78.2286 96.2345 77.9737 96.1388C77.6868 96.0432 77.2088 96.3301 76.7944 96.9356C76.3801 97.4456 76.0614 98.1149 76.0614 98.3698C76.0614 98.6248 76.1889 98.9116 76.3801 99.0073C76.5713 99.1029 77.0175 98.9435 77.4319 98.6885L78.133 98.2423C78.2605 103.852 78.1012 105.796 77.7824 107.134C77.5275 108.282 77.1769 109.812 77.0175 110.577C76.8263 111.31 76.6988 112.457 76.6988 113.126C76.6669 113.764 76.3482 114.847 75.9658 115.517C75.5833 116.186 75.0096 116.791 74.7228 116.855C74.4041 116.951 74.181 117.174 74.2447 117.397C74.2766 117.588 74.0216 117.843 73.671 117.907C73.3205 117.971 72.8105 118.289 72.5555 118.576C72.3006 118.863 71.3763 119.214 70.4839 119.341C69.6234 119.469 68.8585 119.501 68.8266 119.405C68.7629 119.309 68.7947 119.118 68.8903 118.927C68.986 118.736 69.4003 118.672 69.8465 118.767C70.2927 118.863 70.707 118.799 70.8026 118.608C70.8982 118.417 70.8982 118.003 70.8026 117.652C70.6751 117.11 70.452 117.046 69.3047 117.142C68.5398 117.238 67.8386 117.493 67.6792 117.716C67.5517 117.939 67.5199 118.385 67.6155 118.704C67.743 119.118 67.6155 119.214 67.1374 119.086C66.7868 118.991 66.2769 119.054 66.0219 119.246C65.7669 119.437 65.1933 119.501 64.7471 119.405C64.3009 119.309 64.014 119.118 64.1096 118.927C64.2052 118.736 64.1415 118.608 63.9503 118.608C63.759 118.608 63.6316 118.385 63.6316 118.13C63.6316 117.875 63.3447 117.652 62.9941 117.652C62.6436 117.652 62.293 117.875 62.1974 118.13C62.1017 118.385 61.783 118.608 61.4962 118.608C60.9544 118.64 60.9544 118.608 61.4643 118.066C61.783 117.748 62.038 117.238 62.038 116.951C62.038 116.6 61.783 116.377 61.4006 116.377C61.05 116.377 60.4444 116.823 60.062 117.365C59.4245 118.258 59.2014 118.353 58.2134 118.162C57.6079 118.066 56.3012 117.588 55.345 117.11C54.3889 116.632 52.8272 115.485 51.9348 114.56C50.6918 113.349 50.0862 112.903 49.6082 113.031C48.9707 113.19 48.9707 113.222 49.7038 114.497C50.0862 115.23 51.138 116.441 51.9985 117.206C52.8909 117.971 53.8152 118.576 54.0702 118.576C54.3251 118.608 54.7076 118.767 54.9307 118.991C55.2494 119.309 55.1857 119.564 54.7076 120.202C54.3889 120.648 53.8152 121.317 53.4646 121.732C53.0821 122.114 52.4766 123.102 52.0941 123.963C51.7117 124.823 51.3611 126.385 51.2655 127.691C51.1699 129.285 51.2974 130.464 51.7117 131.835C51.9985 132.886 52.7953 134.576 53.4009 135.596C54.0383 136.584 54.8351 137.476 55.1857 137.572C55.5362 137.667 56.0781 138.082 56.3968 138.528C56.6836 138.974 57.0661 139.325 57.2573 139.325C57.4485 139.325 57.6716 138.942 57.7672 138.464C57.8947 137.731 57.6079 137.062 56.1737 135.022C54.7713 132.982 54.357 132.026 54.0064 130.241C53.7514 128.998 53.5602 127.5 53.5602 126.831C53.5921 126.194 53.7196 125.556 53.8471 125.397C53.9745 125.269 54.0702 124.791 54.0702 124.345C54.0702 123.803 54.5801 123.006 55.6637 121.891C57.1617 120.297 57.321 120.202 58.4684 120.393C59.1058 120.489 60.2851 120.68 61.0819 120.839C61.8786 120.998 63.2491 121.222 64.1096 121.349C65.002 121.445 66.9143 121.54 68.4123 121.508C69.9102 121.477 71.695 121.285 72.3962 121.062C73.193 120.839 74.3085 120.042 75.424 118.895C76.7307 117.588 77.3044 116.696 77.7187 115.389C78.0055 114.433 78.6111 111.883 79.0573 109.684C79.4716 107.485 79.9178 104.011 80.0134 101.971C80.1409 99.5491 80.364 97.9555 80.6509 97.5093C80.9058 97.095 82.1488 96.0751 83.4555 95.2464C85.0172 94.2266 86.1646 93.1748 86.9295 92.0593C87.5669 91.135 88.2362 89.9239 88.4275 89.3821C88.7462 88.5216 88.7143 88.0754 88.2362 86.8961C87.8219 85.7807 87.4713 85.3982 86.7383 85.1432C86.1965 84.9839 85.3041 84.3146 84.6985 83.6453C83.7105 82.5298 83.6468 82.3067 83.838 81C83.9336 80.2032 84.093 77.9084 84.2205 75.9005C84.3479 73.5102 84.2523 70.8967 83.9336 68.4108C83.583 65.4786 83.2643 64.1719 82.595 62.8333C82.1169 61.8771 80.9696 60.1561 80.0453 59.0087C79.1529 57.8614 77.7506 56.3634 76.9538 55.6622C76.157 54.9611 74.4041 53.7181 73.0017 52.8894C71.6313 52.0608 69.8465 51.2002 69.0497 50.9453C68.2529 50.6903 66.8187 50.3397 65.8626 50.1166C64.9064 49.9254 63.4722 49.6067 62.6754 49.4154C61.8786 49.2242 60.1576 48.9374 58.8509 48.8099C57.5441 48.6505 55.2494 48.5549 53.7514 48.5549C52.2535 48.5549 50.1819 48.7461 49.1301 49.0011ZM160.202 65.5423C160.202 65.638 159.979 67.3271 159.692 69.3032C159.405 71.2473 159.118 73.0002 158.991 73.1915C158.895 73.3827 158.736 74.1157 158.704 74.8806C158.64 75.9643 158.736 76.283 159.246 76.538C159.692 76.7611 159.915 76.7611 160.011 76.4742C160.074 76.2511 160.297 75.1356 160.52 73.9883C160.712 72.8409 161.03 71.2154 161.222 70.323C161.381 69.4625 161.636 68.3152 161.763 67.7733C161.891 67.2315 161.827 66.4985 161.636 66.0842C161.477 65.7017 161.062 65.383 160.744 65.383C160.457 65.383 160.202 65.4467 160.202 65.5423ZM150.417 67.1997C149.939 67.6459 149.748 68.4426 149.589 70.7374C149.461 72.5222 149.493 73.9245 149.684 74.307C149.875 74.6576 150.003 75.2312 150.003 75.5818C150.003 75.9324 150.226 76.2192 150.481 76.2192C150.736 76.2192 151.087 75.9005 151.246 75.5181C151.405 75.1038 151.596 73.0002 151.66 70.833C151.724 68.0602 151.66 66.8491 151.405 66.7535C151.182 66.6897 150.736 66.8809 150.417 67.1997ZM74.4678 71.3111C73.8623 71.566 73.1611 71.9485 72.9699 72.1078C72.683 72.2991 72.6512 72.5859 72.8743 73.0321C73.0655 73.3827 73.5117 73.6695 73.926 73.6695C74.3085 73.6695 74.914 73.4783 75.2646 73.1915C75.6152 72.9365 76.3482 72.7134 76.8582 72.7134C77.4 72.7134 78.0055 72.5859 78.2286 72.4584C78.4836 72.3309 78.6111 71.9485 78.5474 71.5979C78.4517 71.088 78.1649 70.9605 77.0175 70.8967C76.2207 70.833 75.0734 71.0242 74.4678 71.3111ZM123.167 72.6178C123.04 73.2233 123.263 74.1157 123.773 75.2631C124.219 76.2192 124.952 77.8128 125.462 78.769C125.94 79.7251 126.514 81.0956 126.737 81.7967C126.96 82.4979 127.406 83.6134 127.725 84.2827C128.235 85.2707 128.394 85.3982 128.808 85.0795C129.095 84.8564 129.318 84.5377 129.318 84.3464C129.287 84.1552 128.585 82.2429 127.725 80.0438C126.864 77.8447 125.653 75.1356 125.08 74.0201C124.506 72.9046 123.868 71.9166 123.677 71.8529C123.518 71.7891 123.263 72.1397 123.167 72.6178ZM128.171 74.785C128.012 74.8806 128.139 75.773 128.426 76.7929C128.745 77.7809 129.223 78.769 129.542 78.9921C129.828 79.2152 130.147 79.4064 130.243 79.4064C130.338 79.4383 130.593 79.2152 130.816 78.9283C131.135 78.5459 131.103 78.259 130.721 77.4941C130.466 76.9523 130.243 76.3467 130.243 76.1555C130.275 75.9324 130.02 75.4862 129.701 75.1994C129.382 74.8806 128.968 74.6257 128.777 74.6257C128.585 74.6257 128.33 74.6894 128.171 74.785ZM75.2965 75.5181C75.2327 75.6456 74.9778 76.4742 74.7865 77.3347C74.5953 78.2271 74.4041 79.4383 74.4041 80.0438C74.3722 80.6494 74.5953 81.5418 74.8822 82.0517C75.169 82.5298 75.5514 82.9122 75.7427 82.9122C75.9339 82.9122 76.3482 82.4342 76.6988 81.8923C77.1769 81.0956 77.3044 80.3307 77.3044 78.6096C77.2725 77.0479 77.1131 76.2192 76.7307 75.8049C76.4438 75.4862 76.0614 75.2312 75.8383 75.2631C75.6152 75.2631 75.3921 75.3587 75.2965 75.5181ZM183.308 77.5578C182.448 78.259 180.663 79.7888 179.388 80.9362C178.113 82.1154 177.094 83.3266 177.094 83.6453C177.094 83.9321 177.189 84.1871 177.349 84.1871C177.476 84.1871 178.241 83.8365 179.101 83.3903C179.93 82.9441 180.599 82.466 180.599 82.2748C180.599 82.0836 181.364 81.478 182.289 80.8725C183.181 80.2669 184.52 79.1833 185.221 78.4821C186.113 77.5897 186.432 77.0479 186.273 76.6973C186.113 76.4423 185.763 76.2192 185.476 76.2511C185.157 76.2511 184.201 76.8248 183.308 77.5578ZM115.423 82.1792C115.263 82.2748 115.168 82.5935 115.199 82.8804C115.231 83.1672 115.773 84.1871 116.379 85.1432C116.952 86.0994 117.813 87.5654 118.259 88.426C118.737 89.2546 119.088 90.1789 119.088 90.4976C119.088 90.7845 119.598 91.5494 120.203 92.1549C121.159 93.0792 121.382 93.1748 121.637 92.7923C121.797 92.5374 121.956 92.2187 121.956 92.0912C121.956 91.9318 121.542 91.2307 121.064 90.4976C120.554 89.7327 119.566 87.7567 118.833 86.0994C118.1 84.4421 117.526 82.9122 117.558 82.721C117.59 82.4979 117.271 82.2748 116.857 82.1473C116.411 82.0517 115.964 81.9561 115.869 81.9561C115.773 81.9561 115.582 82.0517 115.423 82.1792ZM110.961 86.5774C110.865 86.8324 110.578 87.0555 110.323 87.0555C110.068 87.0555 109.781 87.3105 109.686 87.6292C109.558 87.9798 109.972 88.6491 110.897 89.6052C111.662 90.402 112.618 91.5494 113.032 92.1549C113.446 92.7605 113.988 93.4616 114.275 93.6529C114.689 93.9716 114.881 93.9716 115.199 93.6529C115.422 93.4616 115.614 92.9517 115.582 92.5692C115.582 92.1549 115.327 91.7725 115.04 91.6768C114.721 91.5812 114.148 90.9757 113.733 90.3064C113.319 89.669 112.809 88.5853 112.618 87.8842C112.395 87.2149 111.98 86.5137 111.694 86.3543C111.279 86.1631 111.088 86.195 110.961 86.5774ZM35.1067 87.9479C34.6605 88.3941 34.533 88.9678 34.5649 90.1789C34.6286 91.7087 34.6924 91.8362 35.3617 91.7725C35.9991 91.6768 36.0629 91.5175 35.9991 90.0195C35.9354 89.0634 36.031 88.3304 36.2222 88.3304C36.4134 88.3304 36.5409 88.1073 36.5409 87.8523C36.5409 87.5973 36.3497 87.3742 36.0947 87.3742C35.8716 87.3742 35.4254 87.6292 35.1067 87.9479ZM188.089 88.9997C187.069 89.8283 186.527 90.4976 186.591 90.9119C186.623 91.2306 186.814 91.5812 186.974 91.6768C187.133 91.7725 188.089 91.1988 189.045 90.402C190.001 89.6052 190.958 88.9678 191.117 88.9678C191.276 88.9678 191.436 88.6809 191.436 88.3304C191.436 87.8523 191.213 87.6929 190.575 87.6929C190.001 87.6929 189.109 88.171 188.089 88.9997ZM193.922 89.7008C192.902 90.0833 191.436 90.9438 190.639 91.6131C189.651 92.4418 189.205 93.0473 189.205 93.5891C189.205 94.0353 189.396 94.3859 189.619 94.3859C189.842 94.3859 190.225 94.1947 190.448 94.0035C190.671 93.7804 192.232 92.7923 193.922 91.8362C195.738 90.7845 197.045 89.8602 197.077 89.5415C197.141 89.1271 196.949 88.9678 196.471 88.9997C196.057 88.9997 194.91 89.3184 193.922 89.7008ZM194.272 93.366C193.922 93.4298 193.284 93.8122 192.838 94.2584C192.424 94.6728 192.073 95.3739 192.073 95.8201C192.073 96.2663 192.169 96.6169 192.328 96.6169C192.456 96.6488 192.774 96.3938 193.029 96.107C193.284 95.8201 194.113 95.3102 194.878 94.9915C195.611 94.6409 196.185 94.1947 196.185 93.9397C196.153 93.7166 195.866 93.4616 195.547 93.3979C195.228 93.3023 194.655 93.3023 194.272 93.366ZM74.181 97.2225C73.7667 98.0192 73.6073 98.7204 73.7667 99.0391C73.8941 99.2941 74.2766 99.4853 74.5953 99.4216C74.9459 99.3578 75.2646 99.0391 75.3602 98.6885C75.424 98.338 75.5196 97.6368 75.5514 97.1268C75.5514 96.6169 75.424 96.1388 75.2327 96.0751C75.0096 96.0114 74.5634 96.5213 74.181 97.2225ZM71.3126 97.9874C70.8982 98.4017 70.6433 99.0073 70.707 99.4853C70.7707 100.027 70.9938 100.282 71.44 100.282C71.8544 100.282 72.2687 99.8997 72.6193 99.1666C73.0655 98.2742 73.0974 97.9555 72.7786 97.6368C72.5555 97.4137 72.3006 97.2225 72.205 97.2543C72.1093 97.2543 71.695 97.5731 71.3126 97.9874ZM31.9833 103.246C32.1427 107.708 32.0789 108.76 31.6646 109.684C31.3778 110.29 30.8678 112.234 30.4854 113.987C30.1029 115.74 29.6248 117.397 29.4017 117.652C29.1786 117.907 28.7643 118.64 28.5093 119.246C28.2225 119.851 27.4895 121.03 26.852 121.891C26.2146 122.72 24.9398 124.122 24.0474 124.982C23.0275 125.939 22.0713 126.576 21.657 126.576C21.2427 126.576 20.924 126.672 20.924 126.831C20.924 126.958 21.0833 127.245 21.3064 127.468C21.5295 127.691 22.2626 127.851 22.9319 127.851C23.8561 127.851 24.3661 127.596 25.3222 126.64C25.9596 126.002 27.2982 124.409 28.2544 123.166C29.2105 121.891 30.4535 119.979 31.0272 118.863C31.569 117.748 32.2064 116.218 32.3976 115.421C32.5889 114.624 32.9076 113.541 33.0988 113.031C33.29 112.521 33.5131 109.716 33.6088 106.816C33.7044 102.354 33.6406 101.27 33.1307 99.7084C32.812 98.7204 32.3976 97.8918 32.1745 97.8918C31.9196 97.8918 31.8558 99.2941 31.9833 103.246ZM67.3605 98.8479C66.9781 99.5172 66.8824 100.091 67.0737 100.792C67.2012 101.334 67.3605 101.844 67.4561 101.908C67.5517 101.971 67.8705 101.844 68.1892 101.621C68.5716 101.366 68.7947 100.696 68.8585 99.5809C68.986 98.1467 68.9222 97.8918 68.4441 97.8918C68.1254 97.8918 67.6474 98.338 67.3605 98.8479ZM73.8304 101.908C73.2248 102.354 72.1412 102.959 71.44 103.278C70.7389 103.565 69.3047 104.011 68.2529 104.234C66.8824 104.489 66.2131 104.808 65.8944 105.318C65.5438 105.891 65.5438 106.242 65.8944 107.294C66.1494 108.154 66.9143 109.174 68.221 110.385C69.6871 111.788 70.4839 112.266 71.44 112.425C72.1412 112.521 73.2248 112.553 73.8304 112.457C74.436 112.329 75.2009 112.011 75.5196 111.692C75.8064 111.373 75.9976 110.895 75.902 110.64C75.8064 110.322 75.1052 110.098 73.7348 109.971C72.6512 109.875 71.0576 109.493 70.1652 109.11C69.1772 108.664 68.3485 108.059 68.0298 107.453C67.7111 106.943 67.5199 106.37 67.6155 106.178C67.7111 105.987 68.6035 105.764 69.6234 105.668C70.6751 105.541 72.1731 105.095 73.1611 104.553C74.1172 104.075 75.169 103.278 75.4558 102.768C75.902 102.067 75.9339 101.78 75.6471 101.461C75.424 101.238 75.2009 101.079 75.1052 101.079C75.0096 101.111 74.436 101.461 73.8304 101.908ZM198.511 103.151C197.427 103.66 196.535 104.298 196.535 104.521C196.535 104.712 196.694 104.967 196.854 105.063C197.045 105.158 197.555 104.999 198.065 104.744C198.543 104.489 199.212 104.266 199.595 104.266C199.945 104.266 200.392 104.075 200.615 103.884C200.838 103.66 201.029 103.214 201.029 102.927C201.061 102.641 200.933 102.354 200.774 102.29C200.646 102.226 199.627 102.609 198.511 103.151ZM199.403 106.051C198.065 106.625 197.682 106.943 197.746 107.453C197.778 107.804 197.906 108.154 198.065 108.218C198.192 108.314 198.798 108.091 199.403 107.708C200.009 107.358 201.156 106.879 201.953 106.688C202.909 106.465 203.419 106.146 203.451 105.796C203.515 105.318 203.324 105.222 202.368 105.254C201.698 105.254 200.36 105.605 199.403 106.051ZM59.4883 112.489C59.2652 112.616 59.2014 113.031 59.2971 113.445C59.3927 113.827 59.7433 114.146 60.062 114.146C60.3488 114.178 60.7631 113.987 60.9862 113.764C61.1775 113.541 61.2731 113.19 61.1456 112.999C61.0181 112.808 60.6675 112.584 60.3807 112.489C60.0938 112.361 59.6795 112.393 59.4883 112.489ZM65.3526 113.286C65.257 113.477 65.2251 113.955 65.2889 114.305C65.3526 114.688 65.6713 114.975 66.1175 115.039C66.5956 115.07 66.8824 114.911 66.9781 114.465C67.0737 114.114 66.9462 113.604 66.755 113.349C66.5319 113.063 66.1494 112.839 65.9263 112.871C65.7032 112.871 65.4482 113.063 65.3526 113.286ZM56.333 115.262C56.1418 115.708 56.0462 116.345 56.1418 116.696C56.2374 117.046 56.5243 117.333 56.7792 117.333C57.0342 117.333 57.2573 117.046 57.2573 116.696C57.2573 116.345 57.4804 116.058 57.7354 116.058C57.9903 116.058 58.2772 115.931 58.3728 115.74C58.4684 115.548 58.4684 115.198 58.3728 114.943C58.2772 114.688 57.8629 114.465 57.4485 114.465C56.9705 114.465 56.588 114.752 56.333 115.262ZM72.2368 115.262C72.2368 115.772 72.4599 116.122 72.8105 116.186C73.0974 116.282 73.4798 116.218 73.6073 116.122C73.7348 115.995 73.8304 115.58 73.8304 115.198C73.8304 114.624 73.6392 114.465 73.0336 114.465C72.3962 114.465 72.2368 114.624 72.2368 115.262ZM203.483 126.895C203.164 127.086 202.973 127.309 203.037 127.468C203.132 127.596 202.973 128.297 202.718 129.062C202.463 129.795 202.336 130.624 202.431 130.879C202.527 131.134 202.527 131.357 202.431 131.357C202.336 131.357 201.762 131.102 201.156 130.815C200.519 130.496 200.041 130.146 200.041 130.018C200.041 129.859 199.531 129.253 198.925 128.648C197.906 127.628 197.746 127.564 197.109 127.978C196.694 128.201 196.248 128.903 196.121 129.476C195.961 130.082 195.834 131.548 195.802 132.791L195.738 135.022C193.762 135.022 192.997 135.213 192.806 135.436C192.583 135.627 192.392 135.946 192.392 136.137C192.392 136.329 192.965 137.062 193.667 137.827L194.942 139.165C193.412 140.631 192.519 141.715 191.977 142.512C191.436 143.308 190.703 144.456 190.384 145.061C190.097 145.667 189.523 147.101 189.141 148.248C188.758 149.396 188.344 150.479 188.249 150.639C188.121 150.83 187.77 152.137 187.452 153.507C187.133 154.91 186.878 157.141 186.846 158.447C186.814 159.754 186.655 161.093 186.496 161.411C186.304 161.698 185.603 162.176 184.902 162.431C184.201 162.686 183.404 162.877 183.149 162.877C182.894 162.909 181.747 163.26 180.599 163.706C179.452 164.184 178.273 164.853 177.954 165.236C177.635 165.618 177.38 166.447 177.412 167.053C177.412 167.658 177.667 168.678 177.986 169.252C178.273 169.857 179.611 171.26 180.918 172.343C183.085 174.096 183.308 174.415 183.277 175.371C183.245 175.977 182.703 177.602 182.065 179.004C181.396 180.407 180.791 181.905 180.695 182.351C180.599 182.797 180.281 183.53 180.026 184.008C179.771 184.486 179.388 185.92 179.165 187.195C178.846 189.139 178.846 189.809 179.229 191.275C179.516 192.231 180.058 193.538 180.472 194.143C180.918 194.749 181.906 195.801 182.671 196.47C183.468 197.107 184.392 197.649 184.743 197.649C185.093 197.649 185.38 197.808 185.38 197.968C185.38 198.127 185.922 198.35 186.591 198.446C187.229 198.541 188.854 198.86 190.161 199.115C191.531 199.402 193.762 199.593 195.42 199.561C197.013 199.529 199.021 199.657 199.882 199.816C201.156 200.071 201.666 200.358 202.431 201.314C202.973 201.952 204.152 203.418 205.077 204.533C205.969 205.649 207.021 207.179 207.371 207.944C207.722 208.677 208.327 210.493 208.774 211.991C209.188 213.489 209.698 215.688 209.921 216.931C210.144 218.174 210.272 220.596 210.176 222.349C210.08 224.963 209.921 225.791 209.284 226.971C208.837 227.767 207.977 229.01 207.371 229.775C206.766 230.508 206.065 231.082 205.81 231.05C205.555 230.986 205.332 231.114 205.268 231.273C205.204 231.433 205.268 231.751 205.395 231.943C205.523 232.134 205.905 232.389 206.256 232.516C206.734 232.676 207.212 232.421 208.104 231.528C208.774 230.859 209.825 229.393 210.463 228.246C211.515 226.301 211.61 225.951 211.77 222.668C211.865 220.437 211.801 218.429 211.515 217.091C211.292 215.943 210.845 213.935 210.527 212.629C210.208 211.322 209.443 209.186 208.806 207.944C208.2 206.669 207.148 205.011 206.479 204.278C205.81 203.513 204.949 202.43 204.567 201.888C204.184 201.314 203.865 200.741 203.865 200.613C203.865 200.454 204.885 200.39 206.096 200.454C207.977 200.517 208.742 200.709 210.973 201.824C212.407 202.557 214.032 203.482 214.542 203.864C215.084 204.246 216.072 204.725 216.773 204.916C217.475 205.139 218.144 205.171 218.271 205.043C218.399 204.916 217.793 204.246 216.933 203.545C216.072 202.844 213.873 201.442 212.088 200.454C210.272 199.466 208.296 198.573 207.69 198.51C207.084 198.446 206.16 198.191 205.618 197.968C205.108 197.745 203.738 197.426 202.591 197.298C201.443 197.139 199.34 196.916 197.874 196.789C195.866 196.597 195.26 196.629 195.26 196.948C195.26 197.235 194.687 197.298 193.125 197.235C191.499 197.139 190.448 196.884 188.886 196.119C187.739 195.577 186.336 195.004 185.731 194.876C185.061 194.717 184.52 194.334 184.296 193.888C184.073 193.442 183.659 193.187 183.245 193.187C182.767 193.187 182.257 192.805 181.811 192.167C181.301 191.402 181.077 190.478 180.982 188.884C180.854 187.004 180.982 186.303 181.715 184.422C182.193 183.179 182.799 181.682 183.085 181.076C183.34 180.47 183.914 179.1 184.328 178.048C184.743 176.996 185.061 175.594 185.061 174.957C185.061 174.001 184.806 173.491 183.882 172.534C183.213 171.865 182.129 170.941 181.492 170.463C180.823 169.985 180.058 169.156 179.803 168.646C179.548 168.136 179.356 167.308 179.42 166.829C179.484 166.096 179.739 165.873 181.077 165.427C181.97 165.108 183.34 164.79 184.201 164.694C185.03 164.598 185.826 164.312 186.018 164.12C186.177 163.897 186.719 163.196 187.197 162.591C187.707 161.985 188.28 161.125 188.472 160.678C188.727 160.147 188.78 159.244 188.631 157.969C188.44 156.344 188.535 155.611 189.268 153.189C189.746 151.627 190.288 150.033 190.448 149.683C190.607 149.332 190.926 148.344 191.181 147.484C191.404 146.623 191.691 145.89 191.85 145.826C191.977 145.763 192.36 145.221 192.711 144.679C193.061 144.105 194.113 142.798 195.037 141.81C196.121 140.663 197.013 139.962 197.459 139.962C197.81 139.962 198.129 139.866 198.129 139.739C198.129 139.579 197.969 139.293 197.746 139.101C197.396 138.783 197.427 138.655 197.906 138.528C198.192 138.432 198.447 138.145 198.447 137.89C198.447 137.635 198.67 137.412 198.925 137.412C199.18 137.412 199.467 137.157 199.563 136.87C199.658 136.552 199.563 136.201 199.34 136.074C199.117 135.946 198.83 135.819 198.702 135.819C198.543 135.819 198.224 135.149 197.969 134.321C197.714 133.46 197.491 132.249 197.491 131.612C197.491 130.942 197.587 130.401 197.746 130.401C197.874 130.401 198.32 130.751 198.766 131.229C199.212 131.675 200.168 132.408 200.933 132.823C201.889 133.365 202.399 133.492 202.75 133.269C203.005 133.078 203.483 133.014 203.802 133.11C204.089 133.205 204.567 133.078 204.822 132.791C205.204 132.377 205.236 132.217 204.885 131.898C204.662 131.675 204.503 131.038 204.503 130.496C204.503 129.922 204.662 129.381 204.822 129.285C205.013 129.189 205.618 129.413 206.192 129.731C206.734 130.082 208.519 130.592 210.08 130.879C211.674 131.165 213.809 131.42 214.861 131.42C215.913 131.42 217.411 131.325 218.208 131.261C219.004 131.165 220.279 131.325 221.076 131.58C221.873 131.835 223.658 132.759 225.06 133.588C226.462 134.448 228.406 135.341 229.363 135.627C230.319 135.882 231.689 136.233 232.39 136.424C233.092 136.615 234.972 137.699 236.534 138.815C238.127 139.93 239.784 141.141 240.294 141.524C240.804 141.938 241.282 142.735 241.506 143.563C241.697 144.296 241.92 145.093 241.984 145.316C242.079 145.571 241.761 145.699 241.155 145.699C240.645 145.699 240.199 145.763 240.199 145.858C240.199 145.954 240.39 146.4 240.645 146.91C240.868 147.388 241.314 147.866 241.601 148.025C241.888 148.153 242.717 148.153 243.482 148.057C244.661 147.866 244.852 147.93 245.171 148.599C245.394 149.109 245.458 150.448 245.362 152.392C245.266 154.049 245.171 157.172 245.171 159.308C245.139 163.005 245.171 163.228 245.936 163.993C246.382 164.471 246.924 164.822 247.147 164.822C247.338 164.822 247.593 165.045 247.689 165.3C247.784 165.555 247.593 166.256 247.242 166.829C246.924 167.371 246.223 168.009 245.744 168.232C245.234 168.423 244.47 168.869 244.055 169.188C243.641 169.507 243.386 169.921 243.513 170.176C243.609 170.367 244.151 170.558 244.661 170.558C245.203 170.558 246.063 170.335 246.573 170.08C247.115 169.825 247.529 169.475 247.529 169.284C247.529 169.092 247.72 168.774 247.944 168.551C248.135 168.327 248.645 167.69 249.059 167.116C249.442 166.575 249.76 165.873 249.76 165.618C249.76 165.363 249.92 165.077 250.079 164.981C250.27 164.885 250.398 164.726 250.398 164.598C250.398 164.439 249.696 164.025 248.804 163.642C247.72 163.132 247.179 162.686 247.051 162.208C246.987 161.794 246.828 160.678 246.701 159.722C246.541 158.32 246.669 157.427 247.338 155.26C247.88 153.475 248.167 151.786 248.167 150.32C248.199 148.472 248.071 147.994 247.529 147.452C247.147 147.101 246.956 146.591 247.051 146.336C247.147 146.017 246.159 144.838 244.119 142.862C242.398 141.237 240.486 139.548 239.88 139.133C239.275 138.687 237.968 137.731 237.012 136.934C236.056 136.169 234.685 135.309 233.984 135.054C233.283 134.799 231.211 134.066 229.394 133.365C227.163 132.568 225.634 131.771 224.773 131.006C224.04 130.369 222.574 129.413 221.49 128.839C220.088 128.138 219.355 127.946 219.1 128.17C218.877 128.329 218.558 128.393 218.399 128.233C218.239 128.106 218.208 128.361 218.303 128.839L218.494 129.667C214.319 129.731 211.897 129.54 210.399 129.285C208.901 129.03 207.308 128.616 206.83 128.361C206.32 128.106 205.65 127.596 205.3 127.245C204.949 126.863 204.535 126.576 204.344 126.576C204.184 126.576 203.77 126.735 203.483 126.895ZM205.937 134.671C205.587 134.894 205.332 135.245 205.395 135.468C205.427 135.659 205.332 135.819 205.14 135.819C204.981 135.819 205.108 136.201 205.427 136.711C205.778 137.189 206.543 137.858 207.18 138.209C208.168 138.751 208.455 138.783 209.124 138.464C209.57 138.241 209.921 137.827 209.921 137.572C209.921 137.285 209.634 137.094 209.124 137.094C208.678 137.094 208.104 136.87 207.849 136.615C207.594 136.36 207.371 136.042 207.371 135.914C207.371 135.755 207.531 135.468 207.754 135.245C208.104 134.926 208.073 134.767 207.69 134.544C207.435 134.384 207.084 134.225 206.893 134.225C206.734 134.257 206.288 134.448 205.937 134.671ZM215.722 138.177C214.032 138.655 213.427 138.974 213.491 139.325C213.554 139.643 214.032 139.834 214.861 139.898C215.711 139.962 216.646 139.749 217.666 139.261C218.622 138.783 219.164 138.368 219.1 138.05C219.036 137.795 218.781 137.54 218.526 137.54C218.271 137.508 216.996 137.795 215.722 138.177ZM224.709 138.719C224.04 139.261 223.371 139.93 223.275 140.217C223.116 140.631 223.275 140.791 223.817 140.854C224.231 140.886 224.837 140.695 225.156 140.376C225.442 140.089 225.952 139.484 226.239 139.038C226.558 138.591 226.813 138.113 226.813 137.986C226.813 137.827 226.622 137.731 226.399 137.731C226.144 137.731 225.411 138.177 224.709 138.719ZM200.678 140.854C200.678 141.046 200.551 141.237 200.36 141.237C200.2 141.237 199.913 141.492 199.754 141.81C199.563 142.097 199.499 142.639 199.595 142.99C199.658 143.34 200.519 144.105 201.475 144.679C203.037 145.571 203.483 145.699 205.618 145.699C207.371 145.699 207.977 145.603 207.913 145.316C207.849 145.093 207.371 144.711 206.861 144.456C206.351 144.233 205.363 143.978 204.662 143.914C203.961 143.882 203.132 143.563 202.782 143.245C202.463 142.926 202.272 142.48 202.399 142.289C202.495 142.065 202.941 141.874 203.387 141.874C203.834 141.874 204.28 141.683 204.375 141.492C204.471 141.269 204.407 140.95 204.216 140.759C203.993 140.567 203.132 140.44 202.272 140.44C201.21 140.44 200.678 140.578 200.678 140.854ZM225.92 144.806C225.57 145.38 224.677 146.304 223.944 146.814C223.211 147.356 222.67 147.994 222.733 148.248C222.797 148.503 223.116 148.758 223.466 148.822C223.849 148.854 224.709 148.344 225.602 147.547C226.749 146.496 227.132 145.922 227.195 145.093C227.227 144.52 227.1 143.978 226.94 143.882C226.749 143.818 226.303 144.233 225.92 144.806ZM212.726 147.069C212.439 147.611 212.12 148.695 212.025 149.46C211.897 150.256 212.025 151.499 212.311 152.487C212.566 153.38 213.108 154.623 213.491 155.228C213.905 155.834 214.447 156.471 214.765 156.663C215.148 156.917 215.403 156.917 215.785 156.631C216.232 156.248 216.232 156.121 215.817 155.42C215.499 154.91 215.435 154.432 215.626 154.081C215.754 153.762 216.168 152.934 216.487 152.232C216.805 151.531 217.538 150.479 218.112 149.938C218.686 149.364 219.1 148.758 219.004 148.567C218.909 148.376 218.59 148.248 218.303 148.248C217.984 148.248 217.315 148.663 216.773 149.141C216.263 149.651 215.53 150.671 215.18 151.404C214.829 152.137 214.447 152.71 214.319 152.71C214.16 152.71 214.001 152.105 213.937 151.372C213.905 150.607 214.032 149.491 214.287 148.886C214.511 148.28 214.702 147.388 214.702 146.91C214.702 146.177 214.542 146.017 213.969 146.017C213.459 146.017 213.076 146.336 212.726 147.069ZM231.753 146.559C231.594 146.655 231.498 147.101 231.53 147.515C231.562 147.898 231.976 148.695 232.486 149.236C232.964 149.81 233.793 150.448 234.303 150.703C234.876 150.989 235.673 151.117 236.374 150.989C236.98 150.894 237.681 150.575 237.904 150.32C238.095 150.065 238.223 149.715 238.127 149.523C238.032 149.332 237.362 149.205 236.629 149.205C235.609 149.205 235.068 149.013 234.558 148.503C234.143 148.089 233.825 147.579 233.825 147.388C233.825 147.165 233.538 146.846 233.187 146.655C232.837 146.464 232.422 146.336 232.295 146.336C232.135 146.336 231.912 146.432 231.753 146.559ZM195.738 150.384C195.579 150.479 195.483 150.671 195.515 150.766C195.547 150.862 196.153 151.467 196.918 152.105C197.682 152.742 198.67 153.348 199.18 153.444C199.913 153.635 200.041 153.571 200.041 152.965C200.041 152.487 199.595 151.882 198.702 151.181C197.937 150.607 197.045 150.161 196.663 150.161C196.312 150.161 195.898 150.256 195.738 150.384ZM194.017 156.312C193.667 157.045 193.252 158.288 193.061 159.085C192.806 160.232 192.838 160.678 193.189 161.252C193.444 161.634 193.762 161.953 193.922 161.953C194.049 161.953 194.527 161.571 195.005 161.093C195.483 160.583 196.089 159.563 196.376 158.766C196.854 157.459 196.854 157.236 196.408 156.153C196.057 155.324 195.706 154.941 195.26 154.941C194.846 154.941 194.432 155.356 194.017 156.312ZM219.801 155.929C219.387 156.089 219.068 156.439 219.068 156.758C219.068 157.077 219.036 157.459 219.004 157.651C219.004 157.842 218.781 158.543 218.558 159.244C218.271 160.105 218.176 161.443 218.271 163.387C218.367 165.236 218.622 166.638 219.004 167.371C219.323 167.977 220.152 169.379 220.885 170.495C221.586 171.578 222.287 172.503 222.446 172.471C222.574 172.471 222.574 171.355 222.478 170.017C222.351 168.487 222.446 166.798 222.67 165.618C222.956 164.344 223.339 163.451 223.913 162.877C224.359 162.431 225.028 161.921 225.379 161.698C225.984 161.379 225.984 161.316 225.442 160.774C224.932 160.232 224.837 160.232 223.849 160.742C223.275 161.061 222.542 161.889 222.128 162.654C221.745 163.419 221.299 164.662 221.076 165.459C220.842 166.415 220.619 166.787 220.407 166.575C220.247 166.383 219.992 165.045 219.897 163.547C219.674 160.965 219.706 160.774 220.534 159.499C221.012 158.734 221.427 157.714 221.458 157.204C221.522 156.663 221.331 156.153 221.044 155.961C220.757 155.77 220.247 155.77 219.801 155.929ZM231.402 156.631C231.307 156.822 231.275 157.3 231.37 157.651C231.466 158.001 231.88 158.511 232.295 158.766C232.709 159.053 233.41 159.435 233.92 159.658C234.653 159.977 234.876 159.945 235.577 159.403C236.024 159.053 236.311 158.543 236.215 158.288C236.119 158.001 235.673 157.81 235.099 157.81C234.494 157.81 233.888 157.523 233.442 157.013C233.028 156.599 232.454 156.216 232.167 156.216C231.88 156.216 231.53 156.408 231.402 156.631ZM232.868 167.69C232.868 168.041 233.251 168.774 233.761 169.347C234.239 169.889 235.099 170.527 235.673 170.782C236.534 171.132 236.82 171.132 237.49 170.718C238.159 170.335 238.223 170.144 237.904 169.762C237.681 169.475 237.139 169.188 236.693 169.124C236.247 169.029 235.418 168.519 234.876 168.009C234.303 167.467 233.601 167.053 233.346 167.053C233.092 167.053 232.868 167.339 232.868 167.69ZM226.972 168.614C226.271 168.742 225.156 169.252 224.486 169.762C223.817 170.303 223.211 170.909 223.148 171.132C223.052 171.323 223.371 171.865 223.881 172.311C224.359 172.758 224.837 173.14 224.996 173.108C225.124 173.108 225.442 173.172 225.697 173.267C226.016 173.374 226.175 173.214 226.175 172.789C226.175 172.439 226.653 171.801 227.227 171.355C227.769 170.941 228.598 170.558 229.044 170.558C229.554 170.558 230.255 170.973 230.988 171.738C231.625 172.407 232.39 173.427 232.677 174.001C233.028 174.702 233.187 175.881 233.187 177.825C233.187 180.311 233.092 180.757 232.231 182.287C231.689 183.179 230.892 184.231 230.414 184.55C229.904 184.869 228.725 185.379 227.769 185.634C226.813 185.92 225.315 186.207 224.422 186.303C223.562 186.398 222.67 186.685 222.478 186.877C222.255 187.1 221.522 188.438 220.789 189.841C220.088 191.243 219.482 192.582 219.482 192.805C219.482 192.996 218.877 193.697 218.144 194.334C217.379 194.972 216.295 195.705 215.722 196.024C215.148 196.31 214.702 196.725 214.702 196.948C214.702 197.139 214.989 197.394 215.339 197.49C215.69 197.585 216.582 197.362 217.347 197.044C218.08 196.693 219.482 195.577 220.439 194.558C221.65 193.251 222.287 192.263 222.574 191.275C222.765 190.478 223.275 189.394 223.721 188.884C224.391 188.056 224.837 187.865 227.163 187.482C228.63 187.227 230.351 186.749 230.956 186.398C231.562 186.08 232.454 185.41 232.964 184.964C233.474 184.454 234.207 183.084 234.685 181.713C235.354 179.833 235.482 178.941 235.354 177.57C235.259 176.614 234.844 175.02 234.398 174.064C233.984 173.108 233.092 171.61 232.422 170.718C231.753 169.857 230.924 168.965 230.542 168.742C230.159 168.519 229.49 168.359 229.044 168.391C228.598 168.391 227.673 168.487 226.972 168.614ZM243.131 171.451C242.94 171.929 242.685 173.618 242.589 175.18C242.43 177.315 242.494 178.335 242.812 179.164C243.067 179.769 243.832 180.757 244.533 181.331C245.203 181.905 246.541 182.67 247.465 183.084C248.39 183.466 249.091 183.913 249.027 184.104C248.963 184.295 248.262 184.391 247.497 184.359C246.669 184.295 245.713 184.008 245.139 183.594C244.501 183.126 244.034 182.988 243.737 183.179C243.513 183.339 243.035 184.327 242.717 185.379C242.366 186.43 242.079 188.151 242.047 189.203C242.015 190.255 242.111 191.753 242.302 192.55C242.462 193.346 242.589 194.239 242.525 194.558C242.462 194.94 242.27 195.036 241.888 194.876C241.569 194.781 240.9 194.207 240.358 193.633C239.848 193.06 239.211 192.582 239.02 192.55C238.796 192.55 238.605 192.773 238.605 193.028C238.605 193.283 238.478 193.793 238.287 194.143C238.032 194.685 237.872 194.717 237.267 194.43C236.629 194.111 236.438 194.175 235.96 194.813C235.609 195.291 235.45 195.896 235.546 196.374C235.641 196.82 235.769 198 235.864 199.02L236.056 200.836C234.589 200.103 233.856 199.434 233.506 198.924C233.155 198.414 232.677 198 232.486 198.032C232.263 198.095 232.04 197.777 231.976 197.33C231.912 196.884 232.04 195.896 232.263 195.099C232.454 194.303 232.837 193.442 233.06 193.187C233.283 192.932 233.442 192.263 233.378 191.753C233.283 190.924 233.155 190.797 232.358 190.797C231.594 190.797 231.434 190.924 231.434 191.594C231.434 192.072 231.275 192.358 231.052 192.327C230.797 192.263 230.701 192.454 230.797 192.868C230.892 193.219 230.829 193.57 230.637 193.665C230.478 193.761 230.223 194.589 230.127 195.514C230.032 196.406 230.191 198.765 230.446 200.677C230.733 202.589 231.084 205.043 231.243 206.095C231.402 207.147 231.88 208.74 232.358 209.601C232.805 210.493 233.378 211.481 233.601 211.832C233.793 212.182 234.558 213.234 235.291 214.222C236.024 215.178 237.681 216.931 239.02 218.142C240.709 219.608 241.697 220.246 242.175 220.214C242.589 220.15 242.94 219.895 243.003 219.64C243.035 219.385 242.621 218.844 242.047 218.461C241.474 218.047 240.326 217.122 239.53 216.389C238.733 215.624 237.585 214.382 236.948 213.585C236.311 212.788 235.259 211.226 234.558 210.079C233.793 208.836 233.155 207.242 232.932 206.095C232.709 205.043 232.55 203.577 232.55 202.844C232.55 202.079 232.613 201.474 232.709 201.474C232.805 201.474 233.442 201.76 234.143 202.111C234.972 202.525 236.056 202.748 237.267 202.748C238.733 202.748 239.211 202.621 239.784 202.047C240.199 201.633 240.518 201.219 240.518 201.091C240.518 200.932 240.135 200.741 239.657 200.645C239.147 200.549 238.51 200.231 238.191 199.944C237.777 199.529 237.617 198.924 237.649 197.649C237.649 196.693 237.777 195.705 237.904 195.482C238.063 195.163 238.51 195.322 239.721 196.119C240.804 196.852 242.175 197.362 244.023 197.777L246.732 198.35L248.294 196.534C246.191 196.406 245.936 196.247 245.936 195.737C245.936 195.386 245.808 195.036 245.617 194.94C245.404 194.834 245.404 194.653 245.617 194.398C245.84 194.111 245.617 193.474 244.788 192.231C243.768 190.669 243.673 190.287 243.737 188.566C243.768 187.514 243.896 186.526 244.055 186.335C244.183 186.144 245.426 186.048 246.956 186.112C248.422 186.175 249.76 186.112 249.92 185.952C250.111 185.825 250.716 185.028 251.29 184.199C251.832 183.339 252.246 182.446 252.151 182.191C252.055 181.873 251.577 181.713 250.876 181.713C250.27 181.713 249.25 181.458 248.613 181.14C247.975 180.853 247.179 180.088 246.796 179.482C246.446 178.877 245.936 178.016 245.713 177.57C245.458 177.124 245.107 176.2 244.916 175.498C244.725 174.797 244.597 173.554 244.597 172.726C244.597 171.578 244.47 171.132 244.023 170.909C243.545 170.622 243.386 170.718 243.131 171.451ZM227.132 175.498C227.132 175.594 227.1 175.849 227.036 176.072C226.972 176.263 227.132 176.837 227.355 177.347C227.578 177.825 227.769 178.526 227.769 178.941C227.769 179.323 227.418 180.311 226.972 181.172L226.175 182.67C227.323 182.67 227.928 182.287 228.406 181.65C229.012 180.821 229.203 180.247 229.171 179.004C229.171 177.921 228.916 177.06 228.47 176.391C228.088 175.817 227.642 175.339 227.45 175.339C227.291 175.339 227.132 175.403 227.132 175.498ZM238.127 175.658C238.032 175.849 238.127 176.263 238.287 176.614C238.478 176.965 238.924 177.347 239.338 177.443C239.721 177.57 240.263 177.538 240.518 177.411C240.9 177.22 240.773 176.996 239.88 176.263C239.275 175.785 238.669 175.371 238.542 175.339C238.414 175.339 238.255 175.467 238.127 175.658ZM186.974 181.809C186.974 182 187.229 182.478 187.547 182.829C187.93 183.243 188.886 183.594 190.32 183.849C191.563 184.072 193.284 184.359 194.145 184.486L195.738 184.741C195.675 187.737 195.547 188.024 194.591 188.821C193.539 189.713 193.412 189.713 190.48 189.617C187.994 189.554 187.452 189.617 187.388 190C187.324 190.255 187.739 190.797 188.312 191.211C189.268 191.88 189.587 191.944 191.754 191.721C194.049 191.498 194.208 191.434 195.675 190.032C196.981 188.821 197.268 188.343 197.396 187.132C197.491 186.175 197.396 185.283 197.045 184.486C196.758 183.849 196.153 183.052 195.675 182.733C195.069 182.351 194.304 182.223 193.029 182.287C192.073 182.319 190.575 182.128 189.683 181.873C188.822 181.618 187.834 181.395 187.547 181.395C187.229 181.395 186.974 181.586 186.974 181.777V181.809ZM237.203 187.068C237.139 187.227 237.203 187.992 237.362 188.821C237.553 189.841 237.904 190.51 238.382 190.829C238.86 191.147 239.179 191.211 239.402 190.988C239.615 190.754 239.593 190.457 239.338 190.096C239.115 189.809 238.669 188.948 238.318 188.183C238 187.45 237.649 186.845 237.554 186.845C237.458 186.845 237.299 186.94 237.203 187.068Z" fill="#333333"/>
<path fill-rule="evenodd" clip-rule="evenodd" d="M157.493 86.5774C159.054 86.6411 161.03 86.8961 161.859 87.1192C162.688 87.3423 163.484 87.4379 163.612 87.3104C163.771 87.1511 163.994 87.183 164.186 87.3423C164.377 87.5017 165.652 87.8523 167.054 88.171C168.807 88.5534 170.879 89.414 173.588 90.8163C175.787 91.9318 178.082 93.1429 178.687 93.4935C179.293 93.8122 180.344 94.4178 180.982 94.8002C181.651 95.1827 182.894 96.1707 183.787 96.9993C184.647 97.8599 185.667 99.071 185.986 99.7084C186.336 100.378 186.846 102.131 187.133 103.629C187.452 105.19 187.611 106.943 187.515 107.772C187.42 108.569 187.197 110.13 187.006 111.278C186.782 112.584 186.304 113.891 185.731 114.784C185.221 115.58 183.691 118.576 182.32 121.477C180.982 124.377 179.611 127.086 179.293 127.532C179.006 127.978 178.496 129.253 178.209 130.4C177.922 131.548 177.476 133.556 177.253 134.862C177.03 136.169 176.902 137.827 176.934 138.528C176.998 139.229 177.125 140.663 177.253 141.715C177.412 143.308 177.349 143.85 176.775 144.902C176.392 145.603 175.627 146.591 175.086 147.069C174.257 147.834 174.161 148.025 174.544 148.248C174.799 148.376 174.926 148.663 174.767 148.854C174.639 149.045 174.321 149.205 174.066 149.205C173.779 149.205 173.651 149.396 173.747 149.683C173.843 149.97 173.715 150.161 173.428 150.161C173.173 150.161 172.95 150.256 172.95 150.384C172.95 150.543 172.568 150.83 172.058 151.053C171.58 151.276 170.815 151.436 170.305 151.436C169.827 151.436 168.393 151.85 167.118 152.392C165.875 152.902 164.6 153.603 164.345 153.953C164.09 154.272 163.293 154.655 162.624 154.814C161.955 154.973 161.285 155.292 161.19 155.547C161.094 155.802 160.489 156.248 159.883 156.567C159.277 156.886 158.289 157.555 157.716 158.097C157.174 158.639 156.505 159.085 156.282 159.085C156.09 159.085 155.07 160.009 154.082 161.093C153.063 162.176 152.234 163.26 152.234 163.451C152.234 163.674 151.851 164.471 151.341 165.236C150.863 166.001 150.353 166.574 150.162 166.511C149.971 166.447 149.461 166.925 148.983 167.594C148.505 168.264 147.613 169.73 147.007 170.877C146.401 172.024 145.382 174 144.776 175.243C144.139 176.518 143.629 177.793 143.629 178.048C143.629 178.303 143.278 179.068 142.864 179.705C142.449 180.375 141.684 181.299 141.206 181.777C140.696 182.223 139.581 183.243 137.159 185.379L133.143 185.729C130.944 185.92 128.904 186.048 128.649 185.984C128.394 185.92 126.96 185.57 125.462 185.219C123.964 184.869 121.319 184.072 119.566 183.434C117.813 182.797 116.028 182.096 115.582 181.873C115.136 181.65 114.498 181.14 114.148 180.757C113.797 180.343 113.383 179.801 113.191 179.482C113 179.196 112.363 177.953 111.725 176.741C111.088 175.53 110.323 173.746 110.068 172.789C109.781 171.833 109.208 169.73 108.761 168.168C108.315 166.606 107.869 164.662 107.741 163.865C107.646 163.069 107.71 161.571 107.901 160.519C108.092 159.467 108.347 157.109 108.443 155.26C108.634 152.232 108.57 151.722 107.901 150.033C107.295 148.567 106.435 147.42 104.076 144.934C102.387 143.149 100.666 141.269 100.22 140.759C99.8055 140.249 99.1044 139.229 98.6582 138.528C98.212 137.827 97.5745 136.807 97.2558 136.297C96.714 135.372 96.714 135.341 97.2877 134.926C97.6383 134.703 98.2438 134.416 98.69 134.321C99.1362 134.193 100.315 133.651 101.303 133.046C102.451 132.408 103.63 131.357 104.427 130.305C105.096 129.412 106.626 126.863 107.805 124.664C108.984 122.465 110.291 119.947 110.706 119.086C111.12 118.194 111.917 116.632 112.427 115.58C112.968 114.529 113.956 112.584 114.658 111.278C115.359 109.971 116.251 108.346 116.634 107.708C117.016 107.071 118.833 104.903 120.713 102.927C122.562 100.92 125.08 98.6248 126.386 97.7324C127.661 96.84 129.287 95.7563 130.02 95.2464C130.753 94.7683 132.059 94.1309 132.952 93.8759C133.812 93.5891 135.119 92.8879 135.82 92.3142C136.521 91.7406 137.732 90.9756 138.529 90.5932C139.326 90.2107 140.187 89.9239 140.441 89.9239C140.696 89.9239 141.876 89.5733 143.055 89.1271C144.266 88.6809 145.7 88.3303 146.242 88.3303C146.816 88.3303 147.931 88.1072 148.728 87.8204C149.525 87.5335 151.15 87.1192 152.393 86.8961C153.668 86.6411 155.867 86.5137 157.493 86.5774ZM94.5149 135.596C94.7699 135.627 95.2479 136.105 95.5666 136.615C95.8854 137.125 96.4909 138.336 96.9371 139.229C97.3833 140.153 98.8494 142.097 100.188 143.531C101.527 144.998 102.706 146.241 102.833 146.336C102.929 146.432 103.471 147.037 105.064 148.886L104.937 152.455C104.841 155.26 104.937 156.535 105.383 158.129C105.702 159.276 106.052 161.698 106.18 163.547C106.307 165.459 106.658 167.562 107.008 168.487C107.327 169.347 107.805 171.068 108.124 172.311C108.411 173.554 108.953 175.339 109.303 176.295C109.686 177.251 110.227 178.494 110.546 179.004C110.865 179.514 111.247 180.279 111.439 180.662C111.598 181.076 112.14 181.65 112.618 181.936C113.128 182.223 113.797 182.733 114.148 183.052C114.498 183.339 116.347 184.199 118.291 184.9C120.235 185.634 122.02 186.303 122.275 186.398C122.53 186.526 122.944 186.558 123.135 186.558C123.358 186.526 124.793 186.781 126.322 187.163C127.884 187.514 130.051 187.833 131.199 187.865C132.346 187.865 133.78 187.705 134.386 187.514C134.991 187.323 136.107 187.1 136.84 187.004C137.605 186.908 138.274 186.653 138.37 186.494C138.465 186.303 139.103 185.952 139.804 185.697C140.505 185.442 141.079 185.06 141.079 184.9C141.079 184.709 141.334 184.582 141.621 184.582C141.971 184.614 142.672 183.881 143.406 182.765C144.043 181.745 144.585 180.662 144.585 180.343C144.585 180.056 144.585 179.705 144.553 179.546C144.553 179.419 144.649 179.259 144.808 179.164C144.967 179.068 145.413 178.335 145.796 177.474C146.178 176.646 146.497 175.913 146.497 175.817C146.497 175.722 146.784 175.212 147.134 174.702C147.485 174.192 147.708 173.746 147.613 173.746C147.517 173.746 147.74 173.299 148.091 172.789C148.441 172.279 148.632 171.833 148.473 171.833C148.346 171.833 148.601 171.578 149.047 171.291C149.461 170.973 150.577 169.539 151.501 168.072C152.425 166.638 153.955 164.694 154.879 163.77C155.772 162.877 157.525 161.316 158.704 160.36C159.883 159.403 160.839 158.511 160.839 158.352C160.839 158.224 161.795 157.682 162.975 157.109C164.186 156.535 165.62 155.77 166.162 155.356C166.735 154.941 167.437 154.686 167.691 154.782C167.946 154.878 168.552 154.655 169.03 154.304C169.54 153.953 170.496 153.603 171.197 153.475C171.899 153.348 172.759 153.125 173.11 152.934C173.46 152.742 174.512 152.041 175.404 151.372C176.329 150.703 177.317 150.161 177.572 150.161C177.954 150.161 178.018 150.511 177.858 151.977C177.763 153.125 177.317 154.591 176.679 155.866C175.882 157.427 175.245 158.16 173.906 159.117C172.95 159.818 171.899 160.36 171.58 160.36C171.293 160.36 170.209 161.22 169.189 162.304C168.201 163.355 167.182 164.567 166.958 165.013C166.767 165.427 166.576 166.67 166.544 167.754C166.512 168.869 166.703 170.399 166.927 171.196C167.15 171.993 167.66 173.14 168.042 173.746C168.552 174.542 169.476 175.212 171.165 176.04C172.504 176.71 173.588 177.347 173.588 177.474C173.556 177.634 173.11 178.112 172.536 178.59C171.962 179.068 171.165 179.482 170.719 179.482C170.082 179.482 170.018 179.546 170.401 179.801C170.751 180.056 170.687 180.088 170.082 179.96C169.413 179.801 169.03 180.024 167.819 181.299C167.022 182.128 165.97 183.594 165.524 184.486C164.759 186.016 164.632 186.717 164.345 191.498C164.186 194.462 163.899 197.713 163.708 198.765C163.548 199.816 163.07 202.334 162.656 204.342C162.21 206.35 161.732 208.294 161.508 208.645C161.317 208.995 160.871 210.047 160.52 210.939C160.17 211.864 159.532 213.17 159.15 213.808C158.736 214.477 157.748 215.816 156.983 216.772C156.218 217.76 154.943 219.385 154.146 220.437C153.349 221.489 152.202 223.082 151.596 224.007C150.991 224.899 150.29 225.568 150.067 225.505C149.875 225.441 148.919 226.078 147.995 226.907C147.103 227.736 145.732 228.883 144.967 229.457C144.234 230.03 143.533 230.477 143.374 230.477C143.246 230.477 142.577 230.731 141.876 231.082C141.175 231.401 139.517 232.006 138.21 232.421C136.362 233.026 135.087 233.186 132.601 233.186C130.02 233.186 129.223 233.09 128.777 232.644C128.426 232.357 127.534 231.879 126.737 231.56C125.94 231.241 124.219 230.349 122.912 229.584C121.606 228.787 119.948 227.927 119.247 227.704C118.546 227.449 116.474 226.142 114.626 224.803C112.363 223.146 110.769 222.254 109.686 221.967C108.793 221.744 106.594 221.361 104.746 221.074C102.897 220.788 100.475 220.405 99.3275 220.246C97.6383 219.959 96.8415 219.991 95.0886 220.405C93.9093 220.692 91.9014 221.393 90.6266 221.999C89.0968 222.732 87.6625 223.752 86.324 225.027C85.2403 226.11 84.3479 227.162 84.3479 227.353C84.3798 227.576 83.583 228.469 82.6269 229.361C81.6707 230.222 80.0134 231.656 78.9298 232.548C77.8462 233.409 76.0933 234.747 75.0096 235.512C73.926 236.277 72.3962 237.169 71.5994 237.552C70.8026 237.903 68.9541 238.572 67.4561 239.018C65.9582 239.464 63.7272 239.91 62.5161 240.038C61.2731 240.165 59.9345 240.389 59.4883 240.516C58.9465 240.643 58.0859 240.484 56.9386 240.038C55.9824 239.655 54.4526 238.986 53.5921 238.54C52.6997 238.062 51.6479 237.424 51.2017 237.074C50.7555 236.755 49.895 236.245 49.2895 235.99C48.6839 235.735 47.5365 235.002 46.7716 234.365C45.9748 233.696 44.7319 232.548 43.9669 231.751C43.202 230.955 42.5646 230.158 42.5646 229.998C42.5965 229.839 42.0228 229.042 41.3535 228.246C40.6842 227.449 39.5368 225.6 38.7719 224.102C38.0389 222.604 37.1465 220.31 36.7959 219.003C36.3497 217.346 36.0947 215.115 35.9991 211.672C35.8397 207.274 35.9035 206.414 36.5409 203.864C36.9234 202.27 37.5927 200.262 37.9751 199.402C38.4213 198.478 39.728 196.789 41.0666 195.418C42.3415 194.111 44.0944 192.55 44.9231 191.976C45.7517 191.434 47.7596 190.446 49.3532 189.841C50.9786 189.203 52.9547 188.438 53.7514 188.088C54.5482 187.769 56.1418 186.972 57.321 186.271C58.6915 185.506 60.1257 184.327 61.2731 182.988C62.2611 181.841 63.4085 180.343 63.8228 179.642C64.2371 178.941 64.7789 177.761 65.0658 176.996C65.3526 176.168 65.4164 175.594 65.2251 175.498C65.0339 175.403 64.9702 175.243 65.0339 175.084C65.1295 174.957 65.0339 173.873 64.8745 172.63C64.7152 171.387 64.4602 168.965 64.269 167.212C64.014 164.662 64.0459 163.419 64.4283 160.997C64.7152 159.34 65.0658 157.459 65.2251 156.854C65.3845 156.248 65.5757 155.228 65.6713 154.623C65.7669 154.017 66.6593 152.2 67.7111 150.639C68.731 149.045 70.2927 146.846 71.1851 145.699C72.0775 144.551 73.6073 143.022 74.5634 142.257C75.5514 141.524 76.6351 140.918 76.9219 140.918C77.2406 140.918 77.5593 140.727 77.6549 140.504C77.7612 140.249 77.6549 140.206 77.3362 140.376C77.0813 140.536 77.2087 140.376 77.6549 140.026C78.1011 139.675 79.5354 139.006 80.8421 138.56C82.1488 138.113 84.7304 137.54 86.5789 137.253C88.4275 136.998 90.8497 136.488 91.9971 136.137C93.1444 135.819 94.2599 135.564 94.5149 135.596ZM106.53 152.073C106.594 152.073 106.658 153.157 106.658 154.463C106.658 155.834 106.53 156.854 106.339 156.854C106.148 156.854 106.02 156.312 106.02 155.643C106.02 155.005 106.116 153.922 106.212 153.252C106.339 152.615 106.467 152.073 106.53 152.073Z" fill="#F2F7FF"/>
<path d="M165.779 127.309C166.672 126.767 167.66 126.002 167.978 125.652C168.297 125.269 168.807 124.983 169.094 124.983C169.381 124.983 169.763 125.238 169.954 125.524C170.241 125.971 170.241 126.226 169.954 126.576C169.763 126.831 169.03 127.5 168.329 128.042C167.628 128.584 166.417 129.285 165.62 129.572C164.823 129.891 162.911 130.209 161.317 130.305C158.64 130.464 158.321 130.433 156.696 129.604C155.74 129.126 154.561 128.457 154.082 128.138C153.573 127.787 153.19 127.245 153.19 126.895C153.19 126.512 153.413 126.257 153.764 126.257C154.051 126.257 154.592 126.449 154.943 126.672C155.294 126.927 156.505 127.437 157.652 127.851C159.309 128.457 160.17 128.552 161.955 128.457C163.739 128.329 164.504 128.106 165.779 127.309Z" fill="#333333"/>
<path d="M121.255 128.488C120.331 127.596 119.725 126.767 119.725 126.321C119.725 125.939 119.884 125.62 120.044 125.62C120.235 125.62 120.618 125.747 120.936 125.907C121.223 126.066 122.115 126.799 122.912 127.5C123.741 128.265 124.825 128.935 125.462 129.062C126.068 129.158 127.661 129.285 129 129.285C131.167 129.285 131.581 129.19 133.143 128.233C134.099 127.66 135.087 127.214 135.342 127.277C135.597 127.341 135.82 127.723 135.82 128.138C135.82 128.775 135.438 129.126 133.589 130.018C131.741 130.942 130.912 131.166 128.808 131.293C127.406 131.357 125.972 131.293 125.621 131.102L125.569 131.078C125.198 130.909 124.477 130.581 123.9 130.369C123.295 130.114 122.115 129.285 121.255 128.488Z" fill="#333333"/>
<path d="M125.876 149.269C125.303 148.727 124.825 148.089 124.825 147.93C124.825 147.739 125.175 147.611 125.621 147.611C126.068 147.611 126.482 147.707 126.546 147.834C126.609 147.994 128.458 148.982 130.625 150.097C133.557 151.595 135.119 152.169 136.776 152.424C138.019 152.615 139.932 152.711 141.079 152.647C142.577 152.551 143.406 152.328 144.107 151.818C144.649 151.404 145.222 151.085 145.445 151.117C145.637 151.117 146.465 150.48 147.262 149.683C148.123 148.822 148.919 148.312 149.206 148.408C149.461 148.504 149.684 148.854 149.684 149.205C149.684 149.555 149.079 150.448 148.346 151.149C147.581 151.882 146.178 152.838 145.222 153.316C143.565 154.081 143.182 154.145 138.689 154.145C134.577 154.145 133.621 154.049 131.836 153.444C130.689 153.029 129.127 152.169 128.33 151.531C127.565 150.862 126.45 149.842 125.876 149.269Z" fill="#333333"/>
<path d="M85.2403 161.38C84.5073 160.647 84.5073 160.647 85.1447 160.137C85.6547 159.754 86.324 159.69 88.4912 159.85C89.9892 159.977 91.2959 160.169 91.4234 160.296C91.5509 160.423 91.3915 160.838 91.1047 161.188C90.6585 161.762 90.1485 161.89 88.2681 161.985C86.1965 162.113 85.8778 162.049 85.2403 161.38Z" fill="#333333"/>
<path d="M85.2403 174.001C86.2283 173.809 87.8538 173.236 88.8099 172.726C89.7661 172.248 90.6585 171.833 90.8178 171.833C90.9453 171.833 91.0409 172.057 91.0409 172.311C91.0409 172.566 91.264 172.79 91.519 172.79C91.774 172.79 91.9971 172.917 91.9971 173.108C91.9971 173.268 91.6465 173.778 91.2003 174.224C90.7541 174.67 89.5111 175.435 88.4275 175.945C87.312 176.423 85.7503 176.997 84.9216 177.22C84.0611 177.411 82.8181 178.048 82.1169 178.59C81.2883 179.259 80.7146 179.514 80.5552 179.323C80.3959 179.132 80.2365 178.654 80.2047 178.208C80.1728 177.761 80.1409 177.092 80.1728 176.678C80.2047 176.168 80.619 175.754 81.7982 175.18C82.6906 174.734 84.2205 174.224 85.2403 174.001Z" fill="#333333"/>
<path d="M103.311 188.789C103.726 188.885 104.236 188.598 104.746 188.056C105.192 187.578 105.861 187.164 106.275 187.164C106.658 187.132 106.977 187.195 106.977 187.291C106.977 187.387 106.18 188.279 105.224 189.267C104.268 190.287 103.534 191.179 103.63 191.275C103.694 191.371 103.471 191.881 103.088 192.39C102.706 192.9 101.431 194.462 100.284 195.864C99.1362 197.235 97.957 198.51 97.6702 198.637C97.3514 198.797 96.8096 198.924 96.4591 198.924C96.1085 198.924 95.8216 198.828 95.8216 198.669C95.8216 198.542 96.1403 198.127 96.5228 197.745C96.9371 197.362 97.8295 196.215 98.4988 195.195C99.2 194.175 100.092 192.837 100.507 192.231C100.889 191.626 101.24 191.02 101.24 190.861C101.24 190.733 101.558 190.191 101.973 189.65C102.451 188.948 102.865 188.693 103.311 188.789Z" fill="#333333"/>
<path d="M107.837 196.374C108.124 195.928 108.666 195.259 109.016 194.908C109.399 194.526 110.004 194.207 110.419 194.175C110.801 194.143 111.12 194.207 111.12 194.303C111.12 194.398 110.706 195.068 110.227 195.801C109.718 196.566 108.921 197.968 108.475 198.924C107.996 199.88 107.455 201.378 107.263 202.271C106.945 203.769 106.849 203.864 105.829 203.928C105.224 203.992 104.746 203.96 104.746 203.864C104.746 203.769 105.319 202.239 106.052 200.422C106.753 198.637 107.55 196.821 107.837 196.374Z" fill="#333333"/>
<path d="M111.63 199.753C112.458 197.872 113.128 196.789 113.638 196.534C114.052 196.311 114.53 196.183 114.721 196.279C114.881 196.342 115.008 196.629 114.976 196.884C114.944 197.139 114.721 197.649 114.466 198.032C114.18 198.446 113.861 199.848 113.701 201.155C113.542 202.462 113.415 203.354 113.383 203.131C113.383 202.94 113.128 202.749 112.873 202.749C112.618 202.749 112.044 202.972 111.598 203.227C110.865 203.673 110.769 203.641 110.61 203.131C110.482 202.812 110.929 201.41 111.63 199.753Z" fill="#333333"/>
<path d="M140.25 200.518C139.804 199.37 139.485 198.032 139.517 197.554C139.517 196.916 139.677 196.693 140.027 196.757C140.282 196.821 141.206 198.478 142.067 200.422C142.927 202.398 143.629 204.247 143.629 204.502C143.629 204.788 143.374 204.948 142.927 204.884C142.513 204.852 142.003 204.374 141.621 203.705C141.302 203.099 140.665 201.665 140.25 200.518Z" fill="#333333"/>
<path d="M134.673 201.856C134.322 201.028 134.099 200.167 134.227 199.944C134.322 199.689 134.641 199.561 134.928 199.625C135.215 199.689 135.533 199.944 135.693 200.199C135.82 200.454 136.203 201.314 136.553 202.111C136.904 202.908 137.286 203.992 137.414 204.502C137.509 205.011 138.211 206.669 138.912 208.167C139.613 209.665 140.25 211.226 140.346 211.673C140.41 212.119 140.505 212.756 140.537 213.107C140.569 213.521 140.378 213.776 139.963 213.84C139.485 213.904 139.199 213.649 138.912 212.884C138.657 212.31 138.274 211.322 138.051 210.716C137.828 210.111 137.127 208.326 136.489 206.733C135.884 205.139 135.342 203.769 135.342 203.609C135.342 203.482 135.055 202.717 134.673 201.856Z" fill="#333333"/>
<path d="M130.53 203.386C130.37 202.589 130.306 201.761 130.402 201.538C130.466 201.346 130.657 201.155 130.784 201.155C130.912 201.155 131.263 201.41 131.581 201.697C131.868 202.016 132.219 202.781 132.346 203.386C132.474 203.992 132.824 205.043 133.143 205.681C133.557 206.541 133.653 207.115 133.494 207.593C133.334 208.007 132.984 208.422 132.697 208.549C132.346 208.709 132.123 208.645 132.059 208.39C131.996 208.199 131.677 207.274 131.39 206.414C131.071 205.521 130.689 204.183 130.53 203.386Z" fill="#333333"/>
</svg>
