<svg width="141" height="48" viewBox="0 0 141 48" fill="none" xmlns="http://www.w3.org/2000/svg">
<path d="M16.968 1.52H18.144L17.664 7.592H16.704C16.368 6.12 15.712 4.96 14.736 4.112C13.776 3.264 12.608 2.84 11.232 2.84C10.288 2.84 9.448 3.032 8.712 3.416C7.976 3.784 7.352 4.32 6.84 5.024C6.344 5.712 5.96 6.56 5.688 7.568C5.432 8.56 5.304 9.68 5.304 10.928C5.304 13.408 5.808 15.32 6.816 16.664C7.84 17.992 9.344 18.656 11.328 18.656C12.928 18.656 14.248 18.224 15.288 17.36C16.344 16.496 17.096 15.208 17.544 13.496H18.6V20H17.472L17.136 18.104C15.376 19.528 13.24 20.24 10.728 20.24C9.272 20.24 7.952 20.024 6.768 19.592C5.584 19.16 4.576 18.552 3.744 17.768C2.912 16.968 2.264 16 1.8 14.864C1.352 13.728 1.128 12.464 1.128 11.072C1.128 9.616 1.368 8.288 1.848 7.088C2.328 5.888 3 4.856 3.864 3.992C4.744 3.128 5.784 2.464 6.984 2C8.2 1.52 9.544 1.28 11.016 1.28C11.992 1.28 12.904 1.416 13.752 1.688C14.6 1.96 15.52 2.4 16.512 3.008L16.968 1.52ZM25.9258 16.064C25.9258 16.704 25.9498 17.216 25.9978 17.6C26.0458 17.984 26.1418 18.28 26.2858 18.488C26.4298 18.696 26.6378 18.84 26.9098 18.92C27.1818 18.984 27.5498 19.024 28.0138 19.04V20H20.4538V19.04C20.9018 19.024 21.2618 18.976 21.5338 18.896C21.8218 18.8 22.0378 18.656 22.1818 18.464C22.3418 18.256 22.4458 17.976 22.4938 17.624C22.5578 17.256 22.5898 16.792 22.5898 16.232V13.28C22.5898 12.352 22.5738 11.592 22.5418 11C22.5098 10.392 22.4698 9.976 22.4218 9.752C22.3418 9.352 22.1578 9.088 21.8698 8.96C21.5978 8.832 21.0938 8.768 20.3578 8.768V7.952L25.9258 7.04V16.064ZM22.3978 1.952C22.3978 1.424 22.5738 0.983999 22.9258 0.631999C23.2938 0.263999 23.7338 0.079999 24.2458 0.079999C24.7738 0.079999 25.2138 0.263999 25.5658 0.631999C25.9338 0.983999 26.1178 1.424 26.1178 1.952C26.1178 2.464 25.9338 2.904 25.5658 3.272C25.2138 3.624 24.7738 3.8 24.2458 3.8C23.7338 3.8 23.2938 3.624 22.9258 3.272C22.5738 2.904 22.3978 2.464 22.3978 1.952ZM30.6193 10.376C30.4433 9.912 30.2753 9.544 30.1153 9.272C29.9553 8.984 29.7873 8.768 29.6113 8.624C29.4513 8.464 29.2673 8.36 29.0593 8.312C28.8673 8.264 28.6353 8.24 28.3633 8.24V7.28H35.5393V8.24C35.1393 8.24 34.8193 8.256 34.5793 8.288C34.3553 8.32 34.1793 8.368 34.0513 8.432C33.9393 8.496 33.8673 8.584 33.8353 8.696C33.8033 8.792 33.7873 8.904 33.7873 9.032C33.7873 9.24 33.8273 9.48 33.9073 9.752C33.9873 10.024 34.0833 10.296 34.1953 10.568L36.4753 16.856H36.5713L39.1393 10.592C39.2513 10.32 39.3393 10.08 39.4033 9.872C39.4673 9.648 39.4993 9.448 39.4993 9.272C39.4993 8.92 39.3793 8.664 39.1393 8.504C38.8993 8.344 38.4753 8.256 37.8673 8.24V7.28H43.1713V8.24C42.7393 8.24 42.3633 8.352 42.0433 8.576C41.7393 8.8 41.4193 9.296 41.0833 10.064L36.5953 20.24H34.4113L30.6193 10.376ZM49.3399 16.064C49.3399 16.704 49.3639 17.216 49.4119 17.6C49.4599 17.984 49.5559 18.28 49.6999 18.488C49.8439 18.696 50.0519 18.84 50.3239 18.92C50.5959 18.984 50.9639 19.024 51.4279 19.04V20H43.8679V19.04C44.3159 19.024 44.6759 18.976 44.9479 18.896C45.2359 18.8 45.4519 18.656 45.5959 18.464C45.7559 18.256 45.8599 17.976 45.9079 17.624C45.9719 17.256 46.0039 16.792 46.0039 16.232V13.28C46.0039 12.352 45.9879 11.592 45.9559 11C45.9239 10.392 45.8839 9.976 45.8359 9.752C45.7559 9.352 45.5719 9.088 45.2839 8.96C45.0119 8.832 44.5079 8.768 43.7719 8.768V7.952L49.3399 7.04V16.064ZM45.8119 1.952C45.8119 1.424 45.9879 0.983999 46.3399 0.631999C46.7079 0.263999 47.1479 0.079999 47.6599 0.079999C48.1879 0.079999 48.6279 0.263999 48.9799 0.631999C49.3479 0.983999 49.5319 1.424 49.5319 1.952C49.5319 2.464 49.3479 2.904 48.9799 3.272C48.6279 3.624 48.1879 3.8 47.6599 3.8C47.1479 3.8 46.7079 3.624 46.3399 3.272C45.9879 2.904 45.8119 2.464 45.8119 1.952ZM64.5157 18.008C63.9078 18.68 63.1478 19.2 62.2358 19.568C61.3398 19.936 60.3638 20.12 59.3078 20.12C58.3318 20.12 57.4438 19.968 56.6438 19.664C55.8438 19.344 55.1558 18.904 54.5798 18.344C54.0038 17.784 53.5558 17.112 53.2358 16.328C52.9318 15.528 52.7798 14.648 52.7798 13.688C52.7798 12.696 52.9478 11.792 53.2838 10.976C53.6198 10.16 54.0918 9.464 54.6998 8.888C55.3078 8.296 56.0358 7.84 56.8838 7.52C57.7318 7.2 58.6678 7.04 59.6918 7.04C60.4118 7.04 61.0758 7.112 61.6838 7.256C62.3078 7.4 62.8358 7.6 63.2678 7.856C63.7158 8.112 64.0678 8.416 64.3238 8.768C64.5798 9.104 64.7078 9.472 64.7078 9.872C64.7078 10.336 64.5718 10.704 64.2998 10.976C64.0438 11.248 63.6918 11.384 63.2438 11.384C62.8758 11.384 62.5478 11.288 62.2598 11.096C61.9878 10.904 61.7158 10.592 61.4438 10.16C61.2038 9.776 60.9958 9.472 60.8198 9.248C60.6598 9.024 60.5078 8.856 60.3638 8.744C60.2198 8.616 60.0758 8.536 59.9318 8.504C59.7878 8.456 59.6118 8.432 59.4038 8.432C58.4758 8.432 57.7558 8.864 57.2438 9.728C56.7318 10.592 56.4758 11.8 56.4758 13.352C56.4758 15.016 56.7798 16.296 57.3878 17.192C58.0118 18.088 58.8998 18.536 60.0518 18.536C60.7078 18.536 61.3638 18.416 62.0198 18.176C62.6758 17.92 63.2998 17.56 63.8918 17.096L64.5157 18.008ZM90.6225 6.8H89.5905C89.5425 6.016 89.4225 5.368 89.2305 4.856C89.0545 4.328 88.7985 3.912 88.4625 3.608C88.1265 3.288 87.7185 3.072 87.2385 2.96C86.7585 2.832 86.1985 2.768 85.5585 2.768C84.9345 2.768 84.4305 2.784 84.0465 2.816C83.6785 2.832 83.3905 2.872 83.1825 2.936C82.9905 2.984 82.8625 3.056 82.7985 3.152C82.7345 3.248 82.7025 3.368 82.7025 3.512V16.088C82.7025 16.6 82.7345 17.04 82.7985 17.408C82.8785 17.776 83.0305 18.08 83.2545 18.32C83.4785 18.544 83.8065 18.72 84.2385 18.848C84.6705 18.96 85.2385 19.024 85.9425 19.04V20H75.8865V19.04C76.6065 19.024 77.1825 18.96 77.6145 18.848C78.0465 18.72 78.3745 18.544 78.5985 18.32C78.8385 18.08 78.9905 17.776 79.0545 17.408C79.1345 17.04 79.1745 16.6 79.1745 16.088V3.512C79.1745 3.368 79.1425 3.248 79.0785 3.152C79.0305 3.056 78.9185 2.984 78.7425 2.936C78.5665 2.872 78.3105 2.832 77.9745 2.816C77.6545 2.784 77.2305 2.768 76.7025 2.768C76.1265 2.768 75.5745 2.8 75.0465 2.864C74.5185 2.912 74.0545 3.072 73.6545 3.344C73.2545 3.6 72.9265 4 72.6705 4.544C72.4305 5.072 72.3025 5.824 72.2865 6.8H71.3505L71.5905 1.52H90.3825L90.6225 6.8ZM101.929 17.768C100.473 19.416 98.6568 20.24 96.4808 20.24C95.4888 20.24 94.5848 20.088 93.7688 19.784C92.9688 19.464 92.2808 19.024 91.7048 18.464C91.1288 17.888 90.6808 17.208 90.3608 16.424C90.0408 15.64 89.8808 14.768 89.8808 13.808C89.8808 12.816 90.0488 11.912 90.3848 11.096C90.7208 10.264 91.1928 9.552 91.8008 8.96C92.4248 8.352 93.1528 7.88 93.9848 7.544C94.8328 7.208 95.7608 7.04 96.7688 7.04C98.4648 7.04 99.7848 7.496 100.729 8.408C101.673 9.32 102.145 10.6 102.145 12.248C102.145 12.504 102.105 12.664 102.025 12.728C101.945 12.776 101.721 12.8 101.353 12.8H93.6248C93.5608 12.944 93.5288 13.208 93.5288 13.592C93.5288 15.16 93.8648 16.4 94.5368 17.312C95.2248 18.224 96.1528 18.68 97.3208 18.68C97.9928 18.68 98.6568 18.528 99.3128 18.224C99.9848 17.92 100.633 17.488 101.257 16.928L101.929 17.768ZM97.2728 11.456C97.9128 11.456 98.3208 11.424 98.4968 11.36C98.6888 11.28 98.7848 11.104 98.7848 10.832C98.7848 10.128 98.5848 9.552 98.1848 9.104C97.7848 8.656 97.2808 8.432 96.6728 8.432C95.9848 8.432 95.3688 8.72 94.8248 9.296C94.2968 9.856 93.9528 10.576 93.7928 11.456H97.2728ZM115.68 18.008C115.072 18.68 114.312 19.2 113.4 19.568C112.504 19.936 111.528 20.12 110.472 20.12C109.496 20.12 108.608 19.968 107.808 19.664C107.008 19.344 106.32 18.904 105.744 18.344C105.168 17.784 104.72 17.112 104.4 16.328C104.096 15.528 103.944 14.648 103.944 13.688C103.944 12.696 104.112 11.792 104.448 10.976C104.784 10.16 105.256 9.464 105.864 8.888C106.472 8.296 107.2 7.84 108.048 7.52C108.896 7.2 109.832 7.04 110.856 7.04C111.576 7.04 112.24 7.112 112.848 7.256C113.472 7.4 114 7.6 114.432 7.856C114.88 8.112 115.232 8.416 115.488 8.768C115.744 9.104 115.872 9.472 115.872 9.872C115.872 10.336 115.736 10.704 115.464 10.976C115.208 11.248 114.856 11.384 114.408 11.384C114.04 11.384 113.712 11.288 113.424 11.096C113.152 10.904 112.88 10.592 112.608 10.16C112.368 9.776 112.16 9.472 111.984 9.248C111.824 9.024 111.672 8.856 111.528 8.744C111.384 8.616 111.24 8.536 111.096 8.504C110.952 8.456 110.776 8.432 110.568 8.432C109.64 8.432 108.92 8.864 108.408 9.728C107.896 10.592 107.64 11.8 107.64 13.352C107.64 15.016 107.944 16.296 108.552 17.192C109.176 18.088 110.064 18.536 111.216 18.536C111.872 18.536 112.528 18.416 113.184 18.176C113.84 17.92 114.464 17.56 115.056 17.096L115.68 18.008ZM122.411 16.064C122.411 16.72 122.427 17.24 122.459 17.624C122.507 17.992 122.595 18.28 122.723 18.488C122.867 18.696 123.075 18.832 123.347 18.896C123.635 18.96 124.019 19.008 124.499 19.04V20H116.939V19.04C117.419 19.008 117.803 18.96 118.091 18.896C118.379 18.832 118.595 18.704 118.739 18.512C118.883 18.32 118.971 18.048 119.003 17.696C119.051 17.328 119.075 16.84 119.075 16.232V6.368C119.075 5.408 119.059 4.656 119.027 4.112C119.011 3.552 118.971 3.128 118.907 2.84C118.859 2.632 118.803 2.472 118.739 2.36C118.675 2.232 118.571 2.136 118.427 2.072C118.299 1.992 118.115 1.944 117.875 1.928C117.651 1.896 117.363 1.88 117.011 1.88V0.991999L122.363 0.079999V8.936H122.459C122.955 8.28 123.507 7.8 124.115 7.496C124.739 7.192 125.483 7.04 126.347 7.04C127.915 7.04 129.131 7.52 129.995 8.48C130.411 8.96 130.739 9.544 130.979 10.232C131.219 10.904 131.339 11.608 131.339 12.344V16.064C131.339 16.736 131.355 17.264 131.387 17.648C131.419 18.016 131.499 18.304 131.627 18.512C131.771 18.704 131.979 18.832 132.251 18.896C132.523 18.96 132.899 19.008 133.379 19.04V20H125.867V19.04C126.347 19.024 126.723 18.984 126.995 18.92C127.283 18.84 127.499 18.704 127.643 18.512C127.803 18.32 127.899 18.048 127.931 17.696C127.979 17.328 128.003 16.84 128.003 16.232V13.28C128.003 11.584 127.819 10.384 127.451 9.68C127.083 8.976 126.451 8.624 125.555 8.624C124.595 8.624 123.835 8.976 123.275 9.68C123.003 10.048 122.787 10.504 122.627 11.048C122.483 11.592 122.411 12.2 122.411 12.872V16.064ZM19.56 30.8H18.528C18.48 30.016 18.36 29.368 18.168 28.856C17.992 28.328 17.736 27.912 17.4 27.608C17.064 27.288 16.656 27.072 16.176 26.96C15.696 26.832 15.136 26.768 14.496 26.768C13.872 26.768 13.368 26.784 12.984 26.816C12.616 26.832 12.328 26.872 12.12 26.936C11.928 26.984 11.8 27.056 11.736 27.152C11.672 27.248 11.64 27.368 11.64 27.512V40.088C11.64 40.6 11.672 41.04 11.736 41.408C11.816 41.776 11.968 42.08 12.192 42.32C12.416 42.544 12.744 42.72 13.176 42.848C13.608 42.96 14.176 43.024 14.88 43.04V44H4.824V43.04C5.544 43.024 6.12 42.96 6.552 42.848C6.984 42.72 7.312 42.544 7.536 42.32C7.776 42.08 7.928 41.776 7.992 41.408C8.072 41.04 8.112 40.6 8.112 40.088V27.512C8.112 27.368 8.08 27.248 8.016 27.152C7.968 27.056 7.856 26.984 7.68 26.936C7.504 26.872 7.248 26.832 6.912 26.816C6.592 26.784 6.168 26.768 5.64 26.768C5.064 26.768 4.512 26.8 3.984 26.864C3.456 26.912 2.992 27.072 2.592 27.344C2.192 27.6 1.864 28 1.608 28.544C1.368 29.072 1.24 29.824 1.224 30.8H0.288L0.528 25.52H19.32L19.56 30.8ZM25.8017 31.04C26.7617 31.04 27.6657 31.208 28.5137 31.544C29.3777 31.864 30.1297 32.312 30.7697 32.888C31.4257 33.464 31.9377 34.152 32.3057 34.952C32.6897 35.736 32.8817 36.6 32.8817 37.544C32.8817 38.52 32.6897 39.416 32.3057 40.232C31.9377 41.048 31.4257 41.752 30.7697 42.344C30.1297 42.936 29.3777 43.4 28.5137 43.736C27.6657 44.072 26.7617 44.24 25.8017 44.24C24.8577 44.24 23.9617 44.08 23.1137 43.76C22.2657 43.424 21.5217 42.96 20.8817 42.368C20.2417 41.776 19.7377 41.072 19.3697 40.256C19.0017 39.424 18.8177 38.52 18.8177 37.544C18.8177 36.6 19.0017 35.728 19.3697 34.928C19.7377 34.128 20.2417 33.44 20.8817 32.864C21.5217 32.288 22.2657 31.84 23.1137 31.52C23.9617 31.2 24.8577 31.04 25.8017 31.04ZM25.8017 32.432C25.3217 32.432 24.8817 32.56 24.4817 32.816C24.0817 33.056 23.7377 33.4 23.4497 33.848C23.1777 34.296 22.9617 34.84 22.8017 35.48C22.6577 36.104 22.5857 36.8 22.5857 37.568C22.5857 38.368 22.6577 39.088 22.8017 39.728C22.9617 40.368 23.1777 40.912 23.4497 41.36C23.7377 41.808 24.0737 42.16 24.4577 42.416C24.8577 42.656 25.3057 42.776 25.8017 42.776C26.2977 42.776 26.7457 42.656 27.1457 42.416C27.5617 42.16 27.9137 41.808 28.2017 41.36C28.4897 40.896 28.7137 40.344 28.8737 39.704C29.0337 39.064 29.1137 38.352 29.1137 37.568C29.1137 36.8 29.0337 36.104 28.8737 35.48C28.7137 34.856 28.4897 34.32 28.2017 33.872C27.9137 33.408 27.5617 33.056 27.1457 32.816C26.7457 32.56 26.2977 32.432 25.8017 32.432ZM41.6454 31.04C42.6054 31.04 43.5094 31.208 44.3574 31.544C45.2214 31.864 45.9734 32.312 46.6134 32.888C47.2694 33.464 47.7814 34.152 48.1494 34.952C48.5334 35.736 48.7254 36.6 48.7254 37.544C48.7254 38.52 48.5334 39.416 48.1494 40.232C47.7814 41.048 47.2694 41.752 46.6134 42.344C45.9734 42.936 45.2214 43.4 44.3574 43.736C43.5094 44.072 42.6054 44.24 41.6454 44.24C40.7014 44.24 39.8054 44.08 38.9574 43.76C38.1094 43.424 37.3654 42.96 36.7254 42.368C36.0854 41.776 35.5814 41.072 35.2134 40.256C34.8454 39.424 34.6614 38.52 34.6614 37.544C34.6614 36.6 34.8454 35.728 35.2134 34.928C35.5814 34.128 36.0854 33.44 36.7254 32.864C37.3654 32.288 38.1094 31.84 38.9574 31.52C39.8054 31.2 40.7014 31.04 41.6454 31.04ZM41.6454 32.432C41.1654 32.432 40.7254 32.56 40.3254 32.816C39.9254 33.056 39.5814 33.4 39.2934 33.848C39.0214 34.296 38.8054 34.84 38.6454 35.48C38.5014 36.104 38.4294 36.8 38.4294 37.568C38.4294 38.368 38.5014 39.088 38.6454 39.728C38.8054 40.368 39.0214 40.912 39.2934 41.36C39.5814 41.808 39.9174 42.16 40.3014 42.416C40.7014 42.656 41.1494 42.776 41.6454 42.776C42.1414 42.776 42.5894 42.656 42.9894 42.416C43.4054 42.16 43.7574 41.808 44.0454 41.36C44.3334 40.896 44.5574 40.344 44.7174 39.704C44.8774 39.064 44.9574 38.352 44.9574 37.568C44.9574 36.8 44.8774 36.104 44.7174 35.48C44.5574 34.856 44.3334 34.32 44.0454 33.872C43.7574 33.408 43.4054 33.056 42.9894 32.816C42.5894 32.56 42.1414 32.432 41.6454 32.432ZM55.5452 40.064C55.5452 40.704 55.5692 41.216 55.6172 41.6C55.6652 41.984 55.7612 42.28 55.9052 42.488C56.0492 42.696 56.2572 42.84 56.5292 42.92C56.8012 42.984 57.1692 43.024 57.6332 43.04V44H50.0732V43.04C50.5212 43.024 50.8812 42.976 51.1532 42.896C51.4412 42.8 51.6572 42.656 51.8012 42.464C51.9612 42.256 52.0652 41.976 52.1132 41.624C52.1772 41.256 52.2092 40.792 52.2092 40.232V30.32C52.2092 29.392 52.1932 28.632 52.1612 28.04C52.1292 27.432 52.0892 27.016 52.0412 26.792C51.9612 26.392 51.7772 26.128 51.4892 26C51.2172 25.872 50.7132 25.808 49.9772 25.808V24.992L55.5452 24.08V40.064ZM66.7404 43.04C67.2524 43.04 67.6124 43.024 67.8204 42.992C68.0284 42.944 68.1324 42.856 68.1324 42.728C68.1324 42.632 68.0204 42.4 67.7964 42.032C67.5884 41.648 67.3164 41.208 66.9804 40.712L65.1564 37.976L63.9564 39.128V40.064C63.9564 40.688 63.9804 41.192 64.0284 41.576C64.0764 41.96 64.1564 42.264 64.2684 42.488C64.3964 42.696 64.5644 42.84 64.7724 42.92C64.9964 43 65.2764 43.04 65.6124 43.04V44H58.5324V43.04C58.9804 43.024 59.3404 42.976 59.6124 42.896C59.8844 42.816 60.1004 42.68 60.2604 42.488C60.4204 42.28 60.5244 42 60.5724 41.648C60.6364 41.28 60.6684 40.808 60.6684 40.232V30.056C60.6684 29.08 60.6524 28.312 60.6204 27.752C60.5884 27.192 60.5004 26.776 60.3564 26.504C60.2284 26.216 60.0204 26.04 59.7324 25.976C59.4604 25.912 59.0844 25.88 58.6044 25.88V24.992L63.9564 24.08V37.424L66.2604 35.24C67.0924 34.456 67.6844 33.872 68.0364 33.488C68.3884 33.088 68.5644 32.8 68.5644 32.624C68.5644 32.48 68.4124 32.384 68.1084 32.336C67.8204 32.272 67.2764 32.24 66.4764 32.24V31.28H73.0284V32.24C72.4204 32.24 71.8844 32.344 71.4204 32.552C70.9564 32.76 70.4524 33.12 69.9084 33.632L67.5804 35.816L71.7324 41.696C72.1004 42.208 72.4604 42.56 72.8124 42.752C73.1644 42.944 73.6284 43.04 74.2044 43.04V44H66.7404V43.04ZM80.2539 40.064C80.2539 40.704 80.2779 41.216 80.3259 41.6C80.3739 41.984 80.4699 42.28 80.6139 42.488C80.7579 42.696 80.9659 42.84 81.2379 42.92C81.5099 42.984 81.8779 43.024 82.3419 43.04V44H74.7819V43.04C75.2299 43.024 75.5899 42.976 75.8619 42.896C76.1499 42.8 76.3659 42.656 76.5099 42.464C76.6699 42.256 76.7739 41.976 76.8219 41.624C76.8859 41.256 76.9179 40.792 76.9179 40.232V37.28C76.9179 36.352 76.9019 35.592 76.8699 35C76.8379 34.392 76.7979 33.976 76.7499 33.752C76.6699 33.352 76.4859 33.088 76.1979 32.96C75.9259 32.832 75.4219 32.768 74.6859 32.768V31.952L80.2539 31.04V40.064ZM76.7259 25.952C76.7259 25.424 76.9019 24.984 77.2539 24.632C77.6219 24.264 78.0619 24.08 78.5739 24.08C79.1019 24.08 79.5419 24.264 79.8939 24.632C80.2619 24.984 80.4459 25.424 80.4459 25.952C80.4459 26.464 80.2619 26.904 79.8939 27.272C79.5419 27.624 79.1019 27.8 78.5739 27.8C78.0619 27.8 77.6219 27.624 77.2539 27.272C76.9019 26.904 76.7259 26.464 76.7259 25.952ZM83.3578 32.6V31.52C84.3178 31.248 85.1178 30.84 85.7578 30.296C86.4138 29.736 86.9018 29.096 87.2218 28.376H88.4458V31.28H91.2058V32.6H88.4458V39.968C88.4458 40.96 88.5498 41.664 88.7578 42.08C88.9818 42.496 89.3498 42.704 89.8618 42.704C90.4858 42.704 90.9578 42.416 91.2778 41.84L91.7818 42.536C91.3338 43.672 90.2778 44.24 88.6138 44.24C87.5098 44.24 86.6458 43.984 86.0218 43.472C85.4138 42.96 85.1098 42.24 85.1098 41.312V32.6H83.3578Z" fill="#333333"/>
</svg>
