<?xml version="1.0" encoding="UTF-8" standalone="no"?>
<svg
   width="250"
   height="295"
   viewBox="0 0 250 295"
   fill="none"
   version="1.1"
   id="svg15"
   sodipodi:docname="bicylcing.svg"
   inkscape:version="1.4.2 (ebf0e940, 2025-05-08)"
   xmlns:inkscape="http://www.inkscape.org/namespaces/inkscape"
   xmlns:sodipodi="http://sodipodi.sourceforge.net/DTD/sodipodi-0.dtd"
   xmlns="http://www.w3.org/2000/svg"
   xmlns:svg="http://www.w3.org/2000/svg">
  <defs
     id="defs15" />
  <sodipodi:namedview
     id="namedview15"
     pagecolor="#ffffff"
     bordercolor="#000000"
     borderopacity="0.25"
     inkscape:showpageshadow="2"
     inkscape:pageopacity="0.0"
     inkscape:pagecheckerboard="0"
     inkscape:deskcolor="#d1d1d1"
     inkscape:zoom="3.328"
     inkscape:cx="125"
     inkscape:cy="147.23558"
     inkscape:window-width="2560"
     inkscape:window-height="1387"
     inkscape:window-x="0"
     inkscape:window-y="25"
     inkscape:window-maximized="0"
     inkscape:current-layer="svg15" />
  <path
     id="path15"
     d="m 155.073,79.6936 c 2.18742,0.866751 5.31168,3.556652 8.438,1.9318 2.78108,-1.165719 7.99481,-0.489112 2.614,1.1742 -3.80108,1.130767 -9.70496,1.14142 -11.256,-2.8408 z m 9.555,-6.9998 c 4.76872,-0.615517 -4.31703,6.199608 -4.485,1.5075 1.5077,0.345739 3.79998,0.184354 4.485,-1.5075 z M 74.2663,66.6939 c 2.115951,-0.336999 3.849212,4.29959 7.1439,3.8863 8.323333,-2.145053 3.447532,3.729129 -2.0741,1.0151 -2.030488,-0.655995 -5.454431,-2.267273 -5.0698,-4.9014 z m 98.2057,-2.1515 c 4.83815,-3.008149 1.76009,7.944548 -0.966,2.6287 -0.48011,-0.863715 0.81479,-1.838311 0.966,-2.6287 z m -17.479,-1.7803 c 3.47128,-3.772644 2.94343,6.806158 -0.213,2.856 -0.29185,-0.97851 0.26103,-1.891968 0.213,-2.856 z M 82.7308,62.3606 c 1.308379,-1.05356 8.094607,0.254784 2.5792,1.2803 -0.920558,-0.02301 -2.32135,-0.18185 -2.5792,-1.2803 z M 172.108,59.088 c 8.53737,-0.575746 0.59896,4.776273 0,0 z M 57.6654,57.7622 c 2.751629,0.176092 0.75226,6.780078 0,0 z m 36.3218,-5.6741 c 4.945305,-0.783422 -2.289898,9.103814 -0.9218,0.9924 0.107913,-0.528699 0.40076,-0.770038 0.9218,-0.9924 z M 78.9727,51.6032 c 4.727022,-1.91859 1.41089,8.410832 -0.2393,3.1288 -0.743429,-1.158785 0.225538,-2.127258 0.2393,-3.1288 z m 15.6615,-4.5908 c 4.717943,-0.53982 3.855579,4.040548 0.0088,0.7273 -0.615915,-0.268345 -0.107385,-0.468889 -0.0088,-0.7273 z m -15.7058,-1.159 c 3.494765,-1.197252 5.128574,2.145999 0.2482,1.5757 -2.633636,1.594483 -2.728297,-1.608731 -0.2482,-1.5757 z M 88.083984,0.00195313 C 82.837633,1.1610485 76.500527,0.25876054 72.316139,3.7636521 c 7.410498,-1.637453 15.641373,-4.00929704 23.160383,-1.3339949 8.298468,1.3653227 14.451328,7.4810744 21.491228,11.2600788 0.40612,1.092055 3.09744,1.109552 4.28591,1.946068 3.77085,0.56983 7.62808,0.524501 11.36951,0.331686 -6.01234,-1.158997 -12.88749,-0.407411 -18.01026,-4.530091 C 108.36817,6.8896895 102.0269,2.2881402 94.111328,1.2792973 92.208114,0.32747319 90.115704,0.53454433 88.083984,0.00195313 Z m 33.644536,0.86718749 c -0.0392,1.41151328 2.55413,1.70279418 3.89201,2.68165768 5.5643,2.5661058 11.6442,3.9840934 17.78477,4.087863 1.40094,0.3049862 3.59347,1.4101912 4.4653,0.8437548 -0.28188,0.6440928 1.74845,1.3699432 2.40234,0.962875 0.67147,1.0864279 2.59145,0.3271291 0.54835,-0.044913 C 149.18608,8.3480065 145.78804,7.8043497 144.7215,7.0996004 139.22734,5.9099431 133.13341,6.5023073 128.0598,3.7851348 125.64422,3.4766707 123.77909,1.9874867 121.72852,0.86914062 Z M 71.880859,3.8320312 c -2.703765,1.4162211 -1.783417,2.0475667 -0.02538,0.7500254 0.361419,-0.066921 0.330176,-0.6395844 0.02538,-0.7500254 z m 80.001951,6.1289063 c -3.23361,0.1099975 1.68228,0.5598465 0.0183,5.08e-4 h -0.0176 z M 87.623047,18.566406 c -6.165783,1.760204 -12.731401,-0.75768 -18.638907,2.38657 -6.357275,0.26938 -11.152298,5.075597 -16.168248,8.552746 -2.823718,2.53156 -5.258567,5.077912 -5.131592,8.822425 -0.886331,2.232966 0.898836,5.265642 -1.445227,6.920186 1.164276,2.904041 1.868106,4.50512 5.052822,4.634531 0.905806,2.106938 -4.196221,1.300808 -5.461032,1.857514 1.235491,1.553499 2.689286,5.011063 5.070305,3.621171 6.561946,-2.424975 0.305067,4.36373 3.8125,7.166012 2.338283,3.344999 8.160055,2.463843 8.375085,7.734468 -0.479133,4.193286 3.29113,5.744543 4.724617,8.484379 1.23307,2.345361 0.374268,4.179247 -1.800458,4.811063 -2.899213,1.173764 -6.917308,0.639783 -8.34807,3.121813 -1.729342,-0.48454 -4.447857,-3.696235 -0.867884,-3.046883 3.438409,-0.562204 8.331896,0.354401 11.132853,-1.689617 -1.560917,-1.803798 -7.443128,0.609886 -10.246187,0.05873 -2.080364,0.208135 -7.743506,0.204715 -3.970847,3.146745 1.871747,1.58061 3.590784,3.769535 -0.552828,3.603992 -4.324638,0.183341 -6.321369,4.610267 -8.594615,7.344704 -2.192394,3.613526 -2.22078,7.996756 -3.581959,12.030566 -1.074932,2.23038 0.734155,4.92898 1.808967,2.81713 -0.406456,-1.98575 0.09794,-3.99925 0.870608,-5.42301 -0.281112,5.23045 0.472927,10.99618 -1.492724,15.68772 -0.425565,1.10837 1.104478,1.72672 1.658519,1.61573 0.31134,4.0818 -0.723936,9.18495 1.826817,12.59897 5.622316,1.13404 8.210692,6.9633 12.603604,10.16674 3.159713,4.19944 7.010012,8.26183 11.283199,11.30277 3.039349,-1.4163 -1.765178,-2.86258 -2.642847,-4.20327 -5.212865,-5.13557 -10.175793,-10.58229 -15.279339,-15.75951 -1.18834,-1.69822 -4.721933,-1.30468 -5.328665,-4.16487 -1.470772,-6.61564 -0.72647,-13.82581 -1.114931,-20.41733 0.351273,-0.90871 -0.06656,-5.81325 0.832124,-5.03863 0.423593,2.55552 0.994208,5.81664 0.85981,7.70641 2.750749,0.8845 0.739746,-3.76771 0.931356,-5.24236 -0.711456,-3.99469 -1.962809,-8.12368 -1.74596,-11.644759 -0.614421,-1.496311 2.032956,-3.852708 2.943357,-5.492188 2.805974,-2.818133 7.688513,-4.439914 11.033249,-1.765567 1.547037,0.302663 0.387747,-0.528932 1.590065,-0.300975 2.229404,0.807478 7.001852,1.699975 5.767713,4.535199 2.298088,1.589941 3.895422,5.45275 6.761719,5.10783 0.617039,-1.153702 0.174292,-0.420385 0.38266,-1.23697 -0.8098,2.04102 1.469708,4.39483 2.339832,2.50199 0.245815,2.04667 1.042401,5.19448 0.939128,6.52191 -0.287517,4.53299 1.85789,9.7962 1.656606,14.51638 0.310484,2.15991 1.547148,3.75861 1.064499,5.93182 0.425389,1.92108 -0.803498,4.33111 0.541307,5.55348 0.361781,3.70256 2.035802,7.84072 1.712841,11.23847 -3.603031,-4.24218 -9.752883,-6.46839 -13.11137,-11.2994 -2.038112,-2.4004 -4.717472,-4.90482 -5.699356,-7.72856 2.266048,-6.04204 1.237514,-12.42361 1.844171,-18.49075 -3.161657,0.0978 -0.598537,5.85541 -1.728216,7.88513 0.235344,3.49603 -0.347279,6.97806 -1.587715,9.98674 -0.650955,3.1614 3.443201,4.76726 4.574387,7.58217 3.944546,4.71891 9.022272,8.3649 13.809011,11.88672 0.525242,1.37505 4.993313,3.13791 2.189379,3.61339 -3.949505,0.7174 -8.580573,2.17804 -10.892872,5.81899 2.099166,1.27953 -1.905609,2.96579 -1.402315,5.12194 -3.17506,-0.66634 -6.66141,0.12013 -5.38084,3.29552 0.989688,1.90123 1.919709,5.57364 5.090453,3.45554 2.567456,-0.75895 1.385143,-2.57519 -1.302625,-1.15898 -1.4697,0.26428 -3.396008,-4.90608 -0.468685,-4.0685 2.614117,0.33986 5.418205,-1.07367 7.321123,-2.17661 2.743355,1.81569 1.864011,5.09626 -0.869179,6.36345 1.090349,2.95855 5.981172,-2.52637 4.095791,-4.4922 -0.820133,-1.66797 -2.921536,-4.79767 -4.326413,-3.43997 0.780501,1.4107 -3.469209,2.08435 -1.213054,0.9391 -0.23361,-0.71154 0.858071,-1.16128 1.018467,-1.54533 3.195317,-4.47881 9.111752,-5.18113 13.472691,-7.31835 2.682336,-2.3017 6.918257,-2.25059 10.209166,-3.08895 -4.2849,-1.45995 -8.65851,1.7612 -12.734469,1.36713 -0.678816,-1.96516 -0.271563,-3.45535 -0.952413,-5.46143 -1.077639,-5.09879 -2.72761,-10.44616 -2.80872,-15.24339 -1.293864,-3.36309 -1.117111,-7.96973 -1.4355,-11.93216 -1.273677,-3.00433 -1.464283,-7.78122 -1.898435,-11.44751 -0.422661,-1.57958 0.188276,-5.647075 -1.824575,-6.014425 0.863267,-4.297673 -0.473334,-6.699885 -1.533207,-9.447259 -2.399807,-0.04603 -2.088667,-3.241698 -3.555146,-3.886523 -2.10543,2.599588 3.040924,3.924856 2.171866,5.795111 -1.182354,1.296634 -3.350115,5.00673 -0.400487,2.349655 2.345652,-3.525195 0.887747,3.372049 1.109419,4.09038 0.535948,0.792418 0.008,3.857921 -0.631323,1.250225 0.471535,-4.099938 -2.213862,0.875522 -3.32227,-1.568351 -1.151221,-0.955476 0.490488,-2.151341 -1.277909,-2.873751 -3.593323,-1.628949 2.993035,-4.430401 -2.347751,-4.408323 -3.205447,-0.131937 -6.197181,-1.095922 -2.081484,-2.181567 4.306231,-0.858344 6.845389,-5.474697 3.980613,-9.084304 2.583048,0.629275 8.592621,5.500832 12.666062,2.539063 -2.919955,-2.622636 3.556418,-0.523659 5.60923,-1.939441 5.091701,-1.2422 9.973032,-3.52098 13.773491,-7.144765 0.41262,2.942224 9.6409,3.597495 4.65429,0.99996 -2.76729,-0.076 -4.47494,-2.848617 -1.84374,-5.51572 1.78873,-5.102015 0.7756,-10.757489 -1.95922,-15.263812 0.40889,-3.095714 4.57244,-3.456386 5.30083,-6.720648 1.60453,-2.673613 1.38774,-6.273232 3.34942,-8.924063 0.41566,-3.859213 -3.52005,-6.458861 -5.8145,-9.029581 -2.07408,-1.012398 -3.22188,-2.900789 -4.41652,-4.185812 -4.709226,0.218483 -7.589807,-4.884695 -12.583393,-3.934003 z m 0.816406,1.089844 c 1.933655,-0.9576 2.211133,3.274165 -0.01227,0.945241 -1.993303,-0.09948 -1.58508,-0.90812 0.01227,-0.945241 z m -7.298828,1.634766 c 5.069592,0.179189 6.693052,1.571925 -0.173736,0.562633 -0.722078,-0.05401 -0.03794,-0.487517 0.173736,-0.562633 z m -9.701172,0.486328 c 1.810652,1.571405 -2.139816,1.394326 -3.146684,2.084533 -5.267642,1.347106 4.759174,-1.841365 1.869174,-1.416048 -0.809047,0.08898 0.398801,-0.619501 1.27751,-0.668485 z m 12.009766,2.43164 c 0.975229,1.209945 -7.812311,7.437739 -10.37109,8.53125 0.969364,-1.580521 4.007603,-2.975316 3.335903,-4.89725 -3.577985,1.522583 -6.232899,3.241313 -0.968846,-0.748182 2.234948,-2.224108 4.896033,-2.921125 8.004033,-2.885818 z m 2.947265,0.220704 c -0.388248,0.999407 -0.940552,3.234861 -2.443416,3.658945 -0.201064,-1.924835 0.805768,-2.870736 2.443416,-3.658945 z m 3.876954,0.08398 c 3.746421,0.69371 2.455859,1.951573 -0.75381,0.750369 -1.630517,0.526886 -0.449295,-0.145745 0.247625,-0.621636 l 0.50586,-0.128906 z m -19.074219,0.371094 c -0.189008,0.792148 -1.953308,0.837112 -2.742454,1.429381 0.264296,-1.259586 1.836439,-0.986266 2.742454,-1.429381 z m 20.529297,1.439453 c 4.002606,-0.09004 -1.859581,2.03271 -2.544935,2.824445 -1.532492,0.772943 -3.465247,2.472515 -1.337421,0.0924 1.175015,-1.264353 1.764094,-3.103413 3.882356,-2.916845 z m -19.146485,0.257812 c 1.396179,0.110096 -2.191627,1.090444 -1.427777,1.475256 -1.743451,1.873458 -6.247398,2.899009 -1.328176,0.538964 0.165491,-1.1077 1.989223,-1.151555 2.755953,-2.01422 z m 22.101563,0.558594 c 3.200688,0.445001 -2.173105,3.927211 -1.98823,1.076266 0.613849,-0.438338 1.315781,-0.754679 1.98823,-1.076266 z m -30.257813,0.212891 c -1.188505,2.671165 -3.599033,2.536429 0,0 z m 33.691407,0.09766 c 3.432582,-0.144704 5.094502,5.063705 0.78138,5.386856 -2.507738,-0.614283 1.605592,-5.107055 -1.490328,-4.339616 -1.019696,0.426606 0.403219,-1.196274 0.708948,-1.04724 z m -11.408204,0.917969 c -2.652284,3.9384 -7.069525,7.780566 -10.8026,10.909176 -5.449646,2.384554 -1.036707,-1.829952 1.373188,-3.476567 2.984456,-2.504265 6.040482,-5.32008 9.429412,-7.432609 z m -4.867187,0.511718 c 1.71504,1.530264 -3.57826,3.628092 -4.662107,5.277513 -1.515229,1.023547 -1.552684,0.990723 -2.654132,1.248118 1.44354,1.074391 -1.701118,0.921668 -0.662151,-0.04278 2.414691,-2.219096 5.156489,-4.728085 7.97839,-6.482847 z m -25.650391,0.646485 c -0.363498,0.7945 -0.154657,0.352747 0,0 z m 35.128906,0.46289 c 3.672556,0.375642 -1.503775,2.905841 -2.349697,4.1369 -1.650106,1.903884 -4.661159,3.159652 -5.478141,5.332712 -1.885663,-0.21354 -8.253246,1.652625 -3.916156,-1.437959 3.706001,-2.64377 7.070875,-7.468644 11.743994,-8.031653 z m -23.978515,0.326172 c 0.119262,0.782505 -2.516531,1.544311 -0.254088,0.142554 l 0.253906,-0.142578 z m 6.025391,0.05859 c 1.50768,0.216561 -2.220019,1.949349 -2.166114,2.471347 -3.707313,4.197603 -8.672226,7.151487 -12.322582,11.395258 0.874462,1.043695 -1.722611,3.080489 0.984413,2.008125 1.393371,-0.762961 4.425921,-3.999018 5.531345,-3.221031 -1.616312,1.587117 -3.338296,4.304988 -5.053366,5.152439 -1.524034,-0.724316 -3.061985,-1.581958 -4.519578,-2.369367 0.0024,-1.010832 -2.977702,-3.425685 0.716799,-5.336022 2.429975,-2.42921 5.602598,-4.629016 8.344274,-6.716699 -1.573591,2.523209 -6.306145,3.741897 -6.517579,6.906392 3.18896,-0.837881 5.666979,-4.517115 8.857368,-5.830912 1.712465,-1.931878 4.092659,-2.959356 6.14502,-4.45953 z m -18.277344,0.292969 c -1.820676,2.784641 -0.861414,1.331382 0,0 z m 4.857422,0.105469 c 0.845027,1.306417 -3.134884,3.980014 -3.859376,3.125004 1.121013,-1.4715 2.037066,-2.608815 3.859376,-3.125004 z m 46.882814,0.103515 c 1.27899,4.706826 -2.96356,0.477638 -4e-5,0 z m -11.789064,0.605469 c 1.415867,1.601985 -2.06211,3.782201 -3.101606,5.408484 -1.129848,1.942452 -4.473547,2.684322 -5.894716,2.38593 2.434077,-3.042147 5.714423,-5.708436 8.996322,-7.794414 z m -31.8125,0.371094 c -2.063583,3.841053 -4.036343,1.755068 0,0 z m 45.134764,0.53125 c 2.34095,2.916559 -2.37032,5.001808 -0.33601,0.87105 0.16827,-0.220959 0.0362,-0.707563 0.33601,-0.87105 z m -7.14062,0.529296 c 2.05754,4.15745 -3.467043,1.156875 0,0 z m -4.115238,0.07617 c 1.710301,1.302335 -4.028238,3.196437 -0.515719,0.290694 0.09934,-0.160866 0.283223,-0.356866 0.515719,-0.290694 z m 7.544918,0.455078 c 2.87289,3.394692 -4.05621,4.453726 0,0 z m -54.207028,0.542969 c 1.077356,1.113519 0.402898,-0.04114 0,0 z m 48.115235,0.53125 c 2.560633,1.523774 0.737227,4.587643 -2.056488,3.774112 -3.898066,0.94694 -2.968424,-0.985854 -0.55264,-1.939863 0.621413,-0.845644 1.756006,-1.251089 2.609128,-1.834249 z m -40.572266,1.34961 c 1.336457,0.747066 -1.997987,2.544878 -2.869332,3.640843 -0.449524,-1.690482 1.836494,-2.782773 2.869332,-3.640843 z m 12.644531,0.529297 c -0.526042,1.164684 0.04865,0.142262 0,0 z m 2.039063,0.228515 c 1.816904,0.394328 -2.364522,1.488835 0,0 z m -20.220703,0.40625 c 0.617977,0.07966 -0.406778,1.26902 0,0 z m 111.679688,0.880859 c -9.58538,0.703668 -20.23421,2.620498 -27.27181,9.645228 -2.00719,3.57817 -1.33251,8.075413 -1.7207,11.875256 2.97048,4.546584 -1.69927,5.167993 -1.25775,10.130858 -0.72063,-1.393024 -1.19852,-0.804188 -1.93195,1.296811 -5.24422,3.516086 -12.59678,-0.08242 -17.62938,3.824668 -2.34834,1.661326 -6.21657,6.691924 -3.36926,9.144718 1.53748,-0.502962 0.23477,-6.356867 3.45707,-7.603649 5.3944,-5.073829 13.92047,-0.1844 19.54297,-5.017579 0.82235,2.359917 4.03745,5.832243 6.40045,3.787248 -4.41814,-0.569777 -6.60856,-7.066477 -3.42969,-9.832584 2.89997,-1.599859 3.58733,0.475603 3.92946,2.982598 1.8751,6.667604 3.01489,14.526954 8.6285,19.108004 1.82375,0.857792 4.77501,-0.195248 6.85189,1.500399 7.58444,3.391484 16.54698,0.440132 22.5745,-4.590271 2.66754,-2.079074 1.97816,-5.491496 2.73025,-8.181728 0.54469,-2.952402 2.76399,-4.320266 1.8437,-0.66006 -4.8408,2.806673 1.77267,3.870354 1.59409,-0.77925 -1.54136,-3.687803 -1.92884,-7.12477 -2.66799,-11.515625 -0.48459,-2.258611 -2.68605,-4.589709 -3.22475,-6.279436 3.60523,-1.095149 5.47904,-7.623304 8.73841,-3.621142 7.51716,0.741291 -5.06784,2.036081 -1.00972,3.953176 2.67794,-0.219734 6.25176,-2.892234 6.18783,-5.453124 -2.6138,1.024307 -7.789,0.558811 -6.33019,-3.50777 -1.71134,-7.813064 -11.44993,-9.326224 -18.16035,-8.386945 -0.56233,-1.688732 -4.09329,0.335404 -3.98831,-1.559036 -0.1834,-0.04475 -0.3038,-0.217313 -0.48727,-0.260765 z m -64.904298,1.21875 c 3.391568,0.695859 -0.386976,0.979997 0,0 z m 3.455078,0.38086 c 2.17349,2.271451 -2.05991,0.601374 0,0 z M 76.103516,39.88476 c 0.692156,2.020394 2.366219,0.503083 4.66805,0.795008 4.773402,-0.0799 -4.524668,1.571851 -5.894578,1.742234 -5.030379,0.363847 -0.489721,-2.040656 1.226528,-2.537242 z m 89.134764,0.04492 c 2.2626,2.490805 -9.51691,0.925946 -11.52158,1.923774 3.14194,-1.89372 7.76315,-1.370243 11.52158,-1.923774 z m 2.66992,0.367187 c 2.09257,0.03588 1.49977,0.742035 -0.32027,0.947935 -1.20234,0.520707 -0.0323,-1.005969 0.32027,-0.947935 z m 3.04688,0.02344 c 1.0774,-0.07233 -0.17915,0.564773 0,0 z m -0.63477,0.02344 c 0.13656,0.695632 -1.23217,0.160177 3e-4,3.46e-4 z m -80.187498,0.04102 c 3.982654,2.068421 13.294498,-1.423193 10.847668,5.863274 -1.328069,3.507582 -1.02263,6.942136 1.41016,9.794922 2.51794,7.174432 -1.35891,15.395584 -8.4301,18.197268 -6.08214,3.117895 -13.459004,4.268731 -19.96934,1.514481 -2.853965,-0.81013 -6.341908,-2.111065 -5.842159,-5.886573 -1.568278,-5.00335 0.08414,-10.291095 -0.220666,-15.234376 -2.770859,0.282443 -1.470145,7.830845 -1.988379,10.756003 -0.212218,1.610369 1.804687,8.463287 -0.636809,4.191396 -0.529628,-4.32344 -3.507073,-15.375461 1.773443,-15.620957 3.89002,0.173758 7.862185,-2.241636 5.671972,-6.765439 -1.365706,-5.72558 5.535524,-3.486302 8.908241,-5.187516 2.850322,-0.461688 5.62586,-1.315266 8.475969,-1.622483 z M 70.484375,40.54297 c 0.946132,1.047873 -1.831382,0.342779 0,0 z m 82.966795,0.173828 c -1.63214,0.66517 -3.46482,1.301293 -5.18368,1.470389 1.56819,-0.935517 3.40187,-1.195909 5.18368,-1.470389 z m 20.47266,0.628906 c 2.59247,0.777189 5.48201,1.640105 7.38459,3.584162 -3.45773,1.595238 -6.89892,3.544073 -10.17591,5.348163 1.0254,-1.770292 6.36913,-6.072053 2.65383,-6.449805 -3.40798,1.37097 -6.5841,3.614837 -9.83443,5.068549 1.56821,-1.507617 8.31999,-8.200895 2.75782,-5.095788 -2.31696,1.607211 -4.36994,3.721191 -6.83441,5.021545 2.82575,-3.691995 6.09181,-6.89977 10.88477,-7.045472 1.01061,-0.355423 2.23886,-0.07167 3.16374,-0.431354 z m -71.19727,0.355469 c 0.15485,0.748194 -0.62543,0.42032 0,0 z m 76.72852,0.326172 c 2.51097,0.439762 0.71454,1.837529 -0.38105,0.03929 l 0.38086,-0.03906 z m -108.787111,0.24414 c -0.782764,3.118098 -4.162243,5.779529 -4.7421,8.884987 3.985401,0.864417 2.388459,-4.647827 5.220897,-6.339654 0.495735,2.80414 1.50939,7.845316 -2.871279,7.621826 -2.528621,0.464004 -3.346111,-1.376648 -5.105659,-0.417738 -1.583162,1.427346 1.561664,13.985635 -0.841784,13.445266 -0.151722,-3.585497 -6.148076,-0.34795 -6.781203,-4.369263 -1.207067,-2.226679 -0.01455,-7.031883 3.084262,-5.621278 0.4091,-2.915402 -3.169201,-1.135881 -4.396776,-2.145338 -1.82284,-0.05769 -4.080023,1.335699 -5.502127,-0.140221 1.867861,-0.82804 6.628869,-2.007637 5.67221,-4.722841 -4.202612,0.962499 -0.546669,-3.527374 1.460943,-1.294999 2.120369,1.9514 6.140911,3.446377 8.174339,0.400279 1.906534,-2.078375 4.295894,-3.757295 6.628277,-5.301026 z m 87.728511,0.339844 c 7.25998,-0.677938 1.62476,2.70993 -1.35545,4.80273 -2.12738,1.191074 -4.56502,3.777767 -6.24048,4.476795 2.44281,-3.176031 4.94767,-6.299828 7.59593,-9.279525 z m -2.49023,0.158203 c 1.09582,1.239719 -1.43232,0.893928 -2.14643,1.099969 -4.50733,5.677747 -9.72265,11.257406 -14.98643,15.939936 3.45632,-5.567497 7.10032,-11.609057 12.28499,-15.714091 1.62883,-0.490098 3.23949,-0.814985 4.84787,-1.325814 z m -6.70898,0.371094 c -0.0287,0.760479 0.12016,-0.02872 0,0 z m -2.48438,0.705078 c -0.7282,1.653644 -1.04161,0.492207 0,0 z m -96.312499,1.113281 c 1.676324,1.299727 -1.235996,3.304411 -0.703271,0.841587 0.240935,-0.27421 0.258041,-0.728255 0.703271,-0.841587 z M 173.5625,45.111328 c -2.22985,3.054007 -4.94343,6.803757 -8.1992,8.673875 -3.89767,-4.905549 5.71648,-6.491135 8.1992,-8.673875 z m 10.79492,0.378906 c 2.06698,1.849734 0.68008,3.02167 -0.4535,0.355474 l 0.16015,-0.257812 0.29297,-0.09766 z m -41.11133,0.01563 c -0.90298,2.133326 -3.24858,5.475975 -6.18195,6.195523 0.10814,-2.079165 1.61916,-6.03792 4.61742,-5.105604 0.58304,-0.274356 0.91818,-0.880576 1.56453,-1.089919 z m 17.8711,0.134766 c -1.7348,3.280803 -9.35094,7.79443 -2.58795,1.894669 0.78461,-0.756467 1.74521,-1.248507 2.58795,-1.894669 z m 21.03711,0.05469 c -1.03589,2.93329 -5.23279,4.292247 -7.43954,6.385046 -4.25264,1.118727 -2.41743,-1.602818 0.82236,-2.908203 2.08406,-1.363424 4.35559,-2.451096 6.61718,-3.476843 z m 1.54297,1.00586 c 3.1243,2.057757 -2.15318,6.260393 -0.25357,0.531109 0.16645,-0.146508 0.0289,-0.426876 0.25357,-0.531109 z m -21.13672,1.71289 c -0.8396,2.046505 -4.58135,3.465216 -4.52664,5.697494 2.12618,0.897443 4.85659,-5.085917 5.60192,-1.371055 3.85874,4.227915 -10.54416,2.899852 -5.36137,-1.039159 1.44466,-1.05198 2.7584,-2.317318 4.28609,-3.28728 z m 18.25195,1.644532 c 1.64363,2.492172 -6.74102,7.10205 -2.68551,2.818406 -2.44779,-0.106094 2.57818,-2.739435 2.68551,-2.818406 z m 2.52344,0.621094 c -0.99114,2.188085 -1.8026,1.324261 0,0 z m -29.17383,0.232421 c -0.83695,4.452567 -1.0796,3.142664 2.9414,4.578123 -3.70642,1.61652 -11.17905,2.456557 -11.762,7.824673 1.70352,5.175164 2.08827,11.078872 4.68795,16.152485 0.54797,1.67347 3.08496,6.440659 -0.48529,3.257984 -5.13202,-2.232655 -4.09935,-8.798668 -6.98429,-12.917962 0.54235,-6.285126 1.42139,-4.294321 2.37502,-9.755861 2.74858,-3.369898 5.44872,-6.821436 9.22721,-9.139442 z m -5.77149,1.017579 c -1.23413,2.332122 -3.15051,4.691979 -4.83046,6.568532 -1.38708,-2.647166 3.89449,-4.62035 4.83046,-6.568532 z m 21.84766,0.460937 c 4.48616,3.463669 6.82147,2.680593 -1.81632,2.931637 -3.46816,0.790976 1.40796,-2.742274 1.81632,-2.931637 z m 1.71875,4.050781 c 4.26417,-1.207398 7.19451,1.714087 8.47458,5.488461 1.79877,4.34331 1.99112,9.779378 -1.19729,13.498093 0.94441,4.16682 -0.56587,8.604528 -4.93767,10.123227 -5.84129,3.81021 -14.21199,3.76046 -19.49029,-0.349591 -2.86679,-1.828645 -3.43626,-7.086525 -5.07759,-10.43243 -0.89094,-3.630776 -2.32474,-7.685967 -2.3324,-11.189594 -1.02608,-2.034188 1.69294,-4.056214 4.1758,-4.783291 1.4167,0.264188 10.09715,1.747704 5.17574,-0.814459 -4.70266,-1.088419 7.0873,-0.326823 5.53911,-0.713138 3.19099,0.04979 6.37906,-0.879632 9.67001,-0.827278 z m -33.35742,1.09961 c -0.27459,1.921949 -2.36933,1.210396 0,0 z m 47.07031,0.07813 c -1.48398,1.672018 2.13333,3.379223 3.71866,3.433777 -0.69792,2.591984 -6.16758,-1.552659 -4.4474,1.542656 2.08927,2.228829 5.45282,1.259592 6.71139,-1.005952 0.57253,-0.829995 2.04101,-0.641886 1.34644,-2.252205 -2.74757,0.04538 -5.61368,1.083076 -7.32909,-1.718276 z m -43.64648,0.804687 c 2.22218,2.482302 -3.3331,6.912405 -2.36288,2.648022 0.79666,-0.877413 1.71354,-1.716858 2.36288,-2.648022 z m -91.513674,4.283203 c -2.093276,0.0738 -3.599967,2.684657 -0.449573,2.851689 1.172567,0.248765 3.769652,1.808 0.886532,1.778919 -2.864815,0.04477 -3.330968,2.384152 -0.177992,3.402069 -1.953759,0.63683 -2.949054,1.958918 -0.736281,3.142855 5.502555,3.253193 9.306958,0.610705 1.22461,-0.810549 0.229835,-1.658831 6.169612,-4.192696 -0.24805,-4.013718 -0.755475,-0.287431 6.285603,-2.010517 2.382755,-3.220883 -3.487275,-0.446068 -0.06818,-2.142207 -2.882001,-3.130382 z M 111.625,65.880859 c -1.96036,0.960868 -4.8158,2.962526 -6.9746,0.980647 -0.45294,3.467243 7.75363,0.303739 4.19917,2.718673 -2.27622,0.803875 0.66586,2.908037 0.7714,0.939804 1.49071,-0.656408 3.44345,-3.237407 2.00403,-4.639124 z m 26.44727,2.3125 c -3.03694,3.637027 3.58796,4.271363 0,0 z m 51.31835,0.746094 c -1.05965,1.841592 3.88486,5.066474 2.74031,8.14062 1.40342,2.753458 1.73501,-3.400634 0.13697,-4.468739 -0.69787,-1.179929 -1.45621,-3.21672 -2.87728,-3.671881 z M 65.025391,72 c 0.627402,1.263747 4.562399,4.437136 1.050922,3.019528 C 65.506688,74.098007 64.890674,73.059696 65.025391,72 Z m 33.05664,2.671875 c -2.958664,1.515778 2.017599,3.339909 3.589879,3.590105 2.39034,0.411797 2.22515,-3.312116 -0.71862,-2.053108 -3.73131,-0.330679 0.17282,-1.384405 -2.871259,-1.536997 z m -26.359375,1.802734 c 3.693355,0.06969 5.851585,3.594959 1.107385,1.263666 L 72.34176,77.318353 c 0.08045,-0.244156 -1.174693,-0.627636 -0.619104,-0.843744 z M 60.564453,76.625 c -1.390891,1.589354 -8.003289,4.249417 -2.039062,4.478551 7.12139,-1.205783 -3.167404,-1.148516 2.888665,-3.204986 0.539674,-0.578398 -0.228039,-1.37184 -0.849603,-1.273565 z m 68.249997,0.648438 c -4.7,1.205777 -11.4241,3.314436 -12.85557,8.132942 3.81932,0.786941 3.31,-5.189489 8.55274,-5.439451 1.57765,-0.163725 4.35812,-1.872554 5.45181,-0.499878 -1.65624,2.085961 3.70075,-2.901089 -1.14898,-2.193613 z m -51.386716,1.097656 c 4.160974,0.262401 -0.230328,1.419905 0,0 z m 5.515625,1.443359 c -2.061873,2.993612 3.5044,5.869838 5.762223,4.121417 -0.844289,2.651422 -4.040612,3.940617 -6.674287,4.729197 -0.08615,2.611595 3.489687,4.06598 3.29887,6.945639 3.887427,-0.656096 -0.95345,-3.834592 -1.437494,-5.855512 3.733249,-1.134955 5.655435,-6.346918 10.173828,-5.211 8.002131,-1.409195 9.993051,7.876287 13.961271,12.674304 0.79519,2.953342 4.03765,-0.230888 0.78751,-1.57626 -3.83863,-4.508764 -5.96967,-12.679657 -13.153148,-12.577877 0.33575,-2.756576 -10.395628,-3.736041 -6.177722,-1.355476 3.850883,0.282479 8.00785,1.801939 0.842121,1.758044 -0.743872,-2.474479 -5.808149,1.933392 -7.027379,-3.478513 L 82.94759,79.814588 h -0.002 z m 104.111331,1.28125 c 1.55942,2.763521 -3.40424,8.117174 -0.29493,7.711077 1.44456,-1.526175 2.94458,-7.014409 0.29493,-7.711077 z m -54.91992,1.976563 c -4.11993,0.797413 -5.64382,5.278906 -7.33041,8.500336 2.38528,1.804687 2.8112,-2.728188 3.91796,-4.33985 -0.0464,-2.012673 5.41988,-2.843881 3.41245,-4.160486 z m -68.273442,2.378906 c 1.095696,0.29549 -1.297124,0.640066 -1.551235,0.963342 -3.190552,0.128699 0.535546,-1.264571 1.551235,-0.963342 z m 32.394531,1.25 c -0.583469,1.83127 -0.564748,3.468873 -3.712613,2.766003 -3.511638,0.387922 -3.545496,5.002026 -4.193366,7.953127 0.08395,0.763127 1.381869,2.257228 0.708768,2.698418 1.497621,0.32839 0.378015,2.83681 1.418142,3.9929 0.310317,1.37618 0.456735,3.60629 1.267256,4.75044 -1.244417,2.45077 3.310933,3.09094 0.734386,-0.14242 -0.153527,-3.54603 -2.631457,-6.60903 -2.586222,-10.22133 1.203894,-2.703525 -0.432206,-7.135787 4.351559,-7.765625 3.104237,0.227883 3.409935,-1.997192 2.01209,-4.031513 z m 36.941411,1.439453 c -1.58683,1.504945 -4.78197,3.068877 -5.31658,4.644577 1.45789,0.141176 7.56482,-2.974283 5.31658,-4.644577 z m 46.97656,0.644531 c -6.90547,1.965359 -13.74387,4.821092 -20.74124,6.424133 -1.22791,-0.675823 -1.7078,-6.538313 -3.18164,-5.023531 -0.35138,3.435659 4.69514,7.341515 -1.91403,5.076226 -2.86385,0.566447 -11.1319,-4.149937 -4.16601,-3.894582 -0.7704,-2.340222 -4.81092,-0.906837 -6.69151,-1.04512 -4.05633,-0.04379 -4.17189,6.166494 -7.88867,4.697265 -3.60615,0.734541 -6.83822,4.088229 -7.86179,7.198893 2.78925,-0.25317 4.21324,-6.316458 8.34565,-5.917979 4.33145,3.28183 8.72706,6.824119 12.83645,10.576699 6.55899,7.04585 11.6934,15.15135 18.49886,22.14606 0.59611,3.51349 4.93786,2.6593 1.92774,-0.0547 -4.76545,-5.27331 -9.22818,-10.89125 -13.759,-16.29625 4.65233,0.9852 9.04532,-1.42495 13.54302,-1.65058 1.52752,3.82253 -0.53917,9.21029 -3.23481,12.27209 2.26343,3.01031 2.71598,-0.17902 3.69531,-2.68947 1.83914,-3.1669 1.71956,-7.32545 1.5822,-10.42408 1.00229,-0.72115 9.5685,-3.17905 5.45885,-4.04692 -5.86232,3.18595 -12.67624,5.28288 -19.36189,5.07806 -5.41646,-0.21125 -7.29806,-6.73471 -11.71737,-9.05928 -2.14791,-1.78878 -5.36315,-3.506565 -6.32946,-6.054981 0.17403,-0.428822 0.1741,-1.476393 0.12509,-1.063817 1.19035,-2.506358 5.18357,-4.990489 7.13692,-1.646494 3.89398,3.911881 10.65683,4.108915 15.67718,2.674383 3.00965,-2.123193 4.03133,0.93285 6.7012,-1.984372 4.13776,-0.882552 8.05232,-4.329562 12.38142,-3.226831 1.31143,1.780903 0.0555,3.699409 0.93163,5.55301 3.24402,5.556712 5.25775,12.558912 3.65741,18.728282 -0.36298,3.32934 -2.00422,6.86823 -4.91399,8.47708 -0.35177,2.34414 -2.10448,5.7085 -1.03907,8.76577 0.91359,2.74937 1.10822,6.76705 3.78513,7.88678 2.31387,-2.20344 -0.56278,-3.11509 -1.21301,-5.7656 -2.00539,-3.51493 -1.04032,-9.25628 2.23249,-11.85568 3.34954,-5.16686 3.93864,-12.05986 2.54482,-17.78733 -0.63664,-2.35342 -1.13592,-5.006333 -2.86378,-7.121921 -0.79288,-2.152993 -1.37587,-6.49375 3.83793,-4.886772 3.18082,1.021819 6.60945,1.63296 8.86348,4.621382 5.62762,4.903401 8.71246,11.912231 13.07413,17.803851 -1.43045,2.08678 3.12668,1.78653 3.49999,3.78767 0.607,0.98767 5.3176,3.75638 1.59604,3.67411 -3.83705,1.03367 -6.63184,4.28198 -8.03922,7.88014 -3.28474,-0.78461 -5.09613,-7.89168 -8.52764,-5.58212 2.63288,3.35646 6.95652,5.71949 8.70252,9.23569 2.03037,0.2343 1.1596,-1.48458 2.32443,-2.30823 -0.98985,-1.52333 1.08678,-3.00756 2.12724,-4.32844 3.07407,0.99745 5.1242,5.07025 8.32252,4.67437 -0.43666,-2.22733 -4.53473,-2.86647 -5.9929,-5.03774 -4.26006,-2.66531 8.21045,-1.39892 5.69137,-1.57616 -0.77929,2.24649 4.91814,5.12044 6.17782,3.91008 -1.24389,-2.2797 -5.03362,-2.06553 -5.04328,-4.46317 -2.67366,-3.85376 -7.13854,-6.40438 -9.39691,-10.48547 -3.64228,-4.61564 -6.52604,-9.60754 -9.9277,-14.45661 -3.2327,-2.884783 -6.1689,-7.336413 -10.72275,-7.621433 -2.53095,-3.278496 -5.18739,-0.353032 -8.18579,-2.826259 -0.69102,-0.634472 -1.6579,-0.912147 -2.56538,-0.960152 z M 44.857422,99.679688 c 0.972045,0.864292 -0.139026,4.468732 -0.576145,2.171962 0.542438,-0.7143 -0.129201,-1.55004 0.576145,-2.171962 z m 66.890628,1.150392 c -4.05353,1.17724 3.83145,2.08371 4.74223,3.83209 6.64169,4.21233 11.53417,10.57162 17.24052,15.758 1.93912,0.83007 1.723,4.8467 3.86553,4.08461 -1.65802,-6.03882 -8.13221,-9.02286 -11.93177,-13.67436 -3.02716,-2.83031 -6.41942,-6.38201 -10.28153,-7.23435 0.26669,-0.89838 -2.63012,-2.67488 -3.63498,-2.76599 z m -99.56055,0.5918 c -0.571815,1.4798 4.237151,0.84912 0,0 z m 4.388672,1.15039 c 0.207533,1.55785 6.022256,3.56482 8.667969,4.52344 3.099212,-1.11074 -2.971503,-1.5368 -3.509814,-2.53143 -1.690626,-0.83344 -3.277142,-1.60377 -5.158155,-1.99201 z m 112.087888,0.0234 c -2.26355,0.98351 1.2688,1.99241 0,0 z M 2.0136719,104.80664 c -1.33076839,0.86192 2.1732443,1.19972 0,0 z m 0.4355469,1.21289 c -0.4585682,1.1686 1.7021612,2.4197 2.2128975,2.87159 1.6781233,3.25488 6.9413107,1.60295 10.2385067,2.3485 3.869863,-0.0636 7.832723,1.4627 9.954307,4.42208 3.767641,-0.26977 -2.711087,-4.18143 -4.396482,-4.70323 -4.988771,-1.94203 -10.8448764,0.26682 -15.4494968,-2.51434 -1.692522,-1.99335 -0.7458148,-0.42716 -2.5597324,-2.4246 z m 94.3320312,0.31836 c -0.544411,5.29937 5.19894,8.14892 7.8849,12.21616 4.66879,0.21017 -3.95631,-4.98292 -4.785157,-7.38283 -1.688852,-1.21593 -1.095209,-4.55513 -3.099743,-4.83333 z m -4.220703,5.51367 c 0.559344,2.71909 0.36081,6.15596 1.578124,9.35547 3.100484,4.1187 -0.517157,10.57907 2.435588,14.01571 1.198002,-0.69552 0.734294,4.12737 0.540894,5.02284 -0.407736,1.20857 1.140263,2.34151 0.96699,2.13725 0.424491,1.62719 0.652927,3.22368 0.956946,5.15077 1.435701,1.49456 1.875981,0.90265 1.240151,3.58426 2.46536,0.26785 0.26259,-5.17438 1.27728,-6.23438 -0.70844,-2.50955 2.50374,0.49982 1.81672,1.95251 1.74868,3.53621 4.42148,2.80173 1.94899,-0.84766 -2.06334,-3.78838 -2.86423,-7.9571 -2.96861,-11.88024 -3.164367,-0.96166 -0.36865,4.28684 -0.74434,6.2286 1.29296,3.30553 0.003,3.54557 -0.99254,0.6656 -0.946298,-1.2894 -0.32233,-3.99425 -1.826233,-5.65323 0.939453,-2.5328 -4.17222,-0.65015 -1.550848,-5.81063 0.477762,-5.75847 -3.141878,-11.61721 -3.749875,-16.64304 -0.388084,-0.31112 -0.354716,-0.9119 -0.929237,-1.04383 z m 100.609373,5.8711 c -3.55305,1.90155 -0.33407,7.93841 -3.46888,10.11527 -1.19169,4.6339 -1.39932,9.88912 -1.55812,14.5294 -0.20552,3.11473 6.52162,4.27194 3.871,7.2735 -3.96549,-0.9799 -4.44408,2.24319 -6.04299,4.97664 0.5781,2.41632 -2.51055,3.53672 -3.84792,3.0687 0.23947,-0.95186 1.49121,-1.6947 1.30538,-2.52386 -3.27166,2.68918 0.32978,-4.15877 -3.945,1.04492 -3.1245,4.89869 -9.54686,2.61102 -13.72851,5.03716 -0.50022,1.77624 3.52013,-0.12242 3.86355,0.43396 -2.42247,1.09323 -5.58224,5.18085 -8.32237,1.93746 -1.73048,-0.88628 -2.81175,-5.99708 -4.26375,-4.00017 1.13375,2.18988 1.84307,4.60265 3.35951,6.57617 -4.66504,2.06287 -9.77543,3.93743 -14.66015,4.81259 0.14607,-2.57809 -0.83472,-5.30538 0.7533,-7.53968 -1.68147,-1.17674 0.0658,-0.6034 -1.44518,0.30366 -1.9775,3.31009 2.25408,9.77338 -5.32609,8.91022 -4.44891,1.2847 -2.88085,-5.24344 -2.65766,-7.72116 0.4763,-2.52488 1.25088,-5.89306 2.25065,-8.0078 0.56905,0.71013 1.00074,-0.67161 1.38745,-0.71151 -1.65252,-4.47447 -4.04142,5.60186 -3.87698,2.4922 0.26074,-1.27673 0.75217,-6.47788 -1.32781,-4.68135 0.52305,4.82386 -2.08752,10.03407 -1.10933,14.46899 2.77762,-0.54239 -1.02714,5.79394 1.30278,5.8361 3.1965,0.72057 4.14487,5.90783 7.1621,5.43596 2.06831,2.66603 -2.00855,4.1574 -3.10125,6.19222 -1.52445,0.18286 -4.6361,3.90043 -1.95436,2.53682 1.02269,-0.30862 5.1196,-3.18438 2.72252,-0.79455 -2.87143,2.14365 -7.52757,9.4626 -8.46494,2.27148 2.6704,-1.53788 -3.15647,-4.20855 -1.37486,0.26574 0.45124,2.16007 2.30707,4.76055 2.50966,7.48494 2.52642,0.8217 1.32033,3.65329 1.70164,5.84974 0.0737,4.65385 0.98729,9.31745 1.73589,13.8243 -1.8225,-2.73685 -1.07011,-6.41555 -3.62549,-8.71364 -1.03715,-1.55263 -0.15267,-4.82425 -2.36616,-4.61914 0.35537,3.2904 2.6247,6.28587 2.48047,9.73454 -1.81587,-4.30238 -4.66126,-8.79469 -6.70991,-12.38049 0.41083,0.0528 1.99973,0.97185 1.95637,0.57974 4.10986,0.14252 -0.68448,-3.66579 -1.97252,-4.74017 -6.5319,-2.52295 6.35052,5.80405 -0.18748,2.8262 -2.60944,-2.52413 -4.15368,0.0576 -0.97443,1.87682 3.55223,4.37225 4.97225,9.71732 7.73911,14.3669 1.07752,1.04333 1.54424,5.06155 1.95275,7.04484 3.67563,9.13866 0.5021,19.01881 -1.26073,28.26664 -0.75689,6.17674 -4.38162,13.86482 -11.53235,13.75111 -8.10434,0.44746 -17.42002,-2.51785 -20.26189,-10.84767 -2.336928,-6.0486 -4.603484,-12.61529 -4.91731,-19.05444 -0.383757,-2.61189 0.0138,-5.63326 -0.0095,-8.16025 1.739823,2.89202 1.111695,6.25188 2.864461,9.3108 0.200256,1.67862 2.611461,3.75441 1.480701,0.56943 -2.427004,-5.79783 -3.5259,-12.08552 -3.316213,-18.39568 0.428523,-1.0333 1.974556,-4.47107 -0.15252,-3.6665 -1.05426,-0.15814 1.09344,-2.76499 0.788863,-3.52981 -0.317789,-1.27187 2.93612,-3.15344 -0.140522,-1.98689 -1.540546,1.83178 0.340231,-2.39108 -0.355724,-2.95328 1.254972,-3.69408 0.199545,-2.93953 -1.125093,0.43942 -0.884222,2.93069 -0.151188,7.96509 -2.066739,9.69773 -2.619388,-1.24284 -3.387266,3.15229 -3.275611,5.22307 0.913252,5.34071 -1.932718,9.85639 -1.820435,15.09529 -0.198835,4.23063 0.122562,8.12672 0.800817,12.1443 -3.500235,0.42779 -4.104604,-4.3418 -5.798868,-6.84004 -1.034401,-2.18241 -1.578521,-3.35249 -0.620881,-5.68188 0.705137,-4.33126 -2.272957,-7.86239 -4.902386,-10.65831 2.149022,-6.68804 3.650388,-13.76792 6.73765,-20.19646 0.700193,-1.76832 3.036401,-4.73743 -0.115004,-5.2816 1.656744,-1.24521 5.384188,-0.9025 1.906203,-3.5761 -1.22656,-0.72961 -4.05126,-2.78125 -4.42036,-0.5662 1.27139,0.45053 -0.984046,0.48718 -1.60737,-0.0761 -3.39295,-0.76082 -1.724608,1.91671 0.222701,2.32439 1.263834,-0.6421 2.862427,0.4997 3.80112,0.4407 -1.312,3.51543 -7.603793,2.75337 -9.154543,1.00024 1.264671,-2.22988 0.601474,-7.19751 3.243999,-7.59715 4.397263,1.32889 9.359157,1.79069 14.000322,3.26554 1.708497,-0.17378 4.719306,0.75313 6.607904,0.20324 2.22267,-1.38617 5.83902,-2.83497 8.31343,-1.57775 1.98636,0.9534 4.66038,2.0048 6.7367,1.25829 -1.66767,-1.46461 -4.32281,-1.31266 -6.29315,-2.37153 2.83272,-1.50493 4.49409,1.94912 7.26785,1.81849 3.87429,1.39946 0.4134,-4.19338 -2.05682,-3.17451 -1.95996,-0.31155 -4.54597,-0.16715 -6.02803,-0.18886 1.71559,0.60511 -3.25358,1.20172 -1.82582,-0.42185 3.54156,0.94765 -2.67463,-1.92361 -1.56838,0.76146 -0.61238,0.21386 -0.003,1.64044 -3.14662,1.93395 -5.089771,-0.55289 -10.809816,-0.47064 -15.947735,-1.70042 -0.467665,0.12594 -4.275945,-0.3388 -4.508191,-1.20295 0.97568,-1.20444 2.801253,-0.8758 3.642704,-0.87945 -1.146425,-1.52313 3.26004,-1.36273 4.271678,-2.2126 1.913063,-1.4916 4.955555,-0.87941 6.310653,-2.6302 -1.319372,-2.02862 -4.285863,1.16494 -6.176319,1.01591 -3.234092,1.34842 -6.922061,2.59435 -10.080589,3.65933 1.857978,-3.64398 7.501342,-3.51018 11.053204,-4.88739 2.407151,-3.11505 -6.587419,0.8867 -3.812868,-2.20129 1.687297,-1.09508 -0.100799,-3.15163 -1.566321,-1.14894 -1.756048,0.76448 -2.85306,4.08346 -4.715325,3.86567 0.74616,-2.01201 2.042023,-3.72967 3.64272,-4.69806 -2.304952,-2.98651 -3.65454,2.13639 -4.76,3.75097 -1.3607,1.73148 -1.618875,4.34407 -3.634881,5.35696 -1.853613,-0.15306 -5.897837,-0.0972 -3.796639,-2.82966 0.452631,-4.65388 0.01174,-9.65268 0.150986,-14.28382 1.900389,0.97243 0.482015,2.78218 1.431764,4.27433 1.395102,3.13275 1.327357,7.02945 3.908722,9.37936 2.483366,-1.91498 1.605488,-6.05468 2.658459,-8.96325 0.164914,-2.61768 0.563994,-13.61539 3.537167,-7.76544 1.199408,3.03172 3.130159,6.44717 5.343889,8.02402 -1.920656,-3.46001 -3.499137,-7.17904 -5.316354,-10.60757 3.787785,-2.00788 2.490715,-6.99087 0.01085,-9.08641 -0.251243,-2.65257 -3.135945,-0.13845 -0.925325,1.39108 1.391134,1.16566 2.798985,5.33745 -0.194909,6.00849 -2.832385,-2.58521 -3.017375,2.66895 -3.066535,4.59082 -0.666789,4.08268 -0.534809,9.09444 -2.525317,12.31852 -1.062455,-3.4201 -2.66674,-6.96858 -3.705269,-9.81058 -0.05145,-1.472 -2.291715,-4.73938 -2.800822,-2.12053 0.148292,5.20325 0.550517,12.1809 -0.373073,16.39081 -0.691032,3.00304 -0.987999,-1.79012 -1.516229,-2.2456 -0.976733,-2.32946 -0.888535,-5.75711 -2.764045,-7.36329 -0.807044,2.85981 1.065627,5.73852 1.569244,8.76367 0.999265,2.18185 0.36184,3.24462 -1.879069,2.34149 -3.354143,0.35416 -1.956381,-5.60831 -2.128979,-7.50717 -1.026119,-1.63372 0.286481,-8.63621 1.773576,-4.00248 1.793498,0.49576 0.03572,-4.0644 -0.912078,-4.37131 2.424883,-1.48828 0.612525,-2.40185 -1.197311,-0.70315 -0.852513,1.25881 -1.080393,-3.46517 -2.392573,0.30276 -1.217515,1.53121 -1.543872,5.37989 -3.502093,5.43753 0.998596,-2.82663 3.227282,-5.33761 3.90309,-7.97356 -2.581052,-2.22891 -2.168207,1.79946 -3.634186,3.14186 -0.473881,1.25819 -2.005108,3.55002 -2.173173,4.33368 -1.189646,2.6594 -3.200973,5.23651 -4.234754,7.18406 -2.382172,4.31889 -4.86796,9.20636 -7.996303,13.56106 -1.02763,0.94566 1.153354,-2.51033 -0.752248,-0.60558 -0.877002,1.63284 -3.401396,3.99015 -1.728669,5.45634 -2.237519,3.13468 -2.780353,7.001 -4.828092,10.47536 -0.602956,1.54604 -2.120677,5.34668 -3.574346,6.82033 0.772114,-2.75492 -1.022724,-0.82803 -1.267478,0.4694 -1.069111,3.41705 -0.409204,0.55702 -1.836288,0.49971 -0.436895,0.79843 -0.281017,2.33921 0.471122,2.83525 -0.684445,1.63986 -0.777914,3.00053 -0.106897,4.32673 -1.843922,0.58302 0.01947,2.98592 -1.666251,4.23481 -1.804927,4.21645 -3.375773,8.88989 -6.603792,12.27413 -0.119653,0.92082 -1.540421,2.7761 -1.967044,2.99277 0.392718,0.79115 -1.41185,2.74389 -1.976872,2.25979 -1.432038,-0.0867 -5.356505,-4.78881 -4.627841,-1.40324 0.967871,0.88814 3.181464,1.43399 3.826385,2.8915 -1.684042,2.48387 -5.60719,-4.62088 -5.464841,-0.60355 1.447865,0.27972 -0.06737,1.84097 1.506177,2.14487 0.174424,0.29435 3.009843,1.67462 3.254192,2.12029 1.282957,0.30039 2.347846,1.67522 2.568363,1.59599 0.595136,0.81083 2.260358,1.73881 2.103788,2.00851 0.650588,0.49823 1.876862,1.81279 1.512079,2.39979 -0.229943,1.25851 2.597536,0.89416 1.674157,1.59633 0.400764,0.26391 1.981498,1.3207 2.15443,1.53405 0.20285,0.89029 1.809707,1.2321 2.226912,2.23465 1.551879,0.072 1.637026,2.07744 3.552799,2.15961 3.54852,-0.3314 -2.190218,-4.63058 0.781349,-6.12158 0.980365,-1.78984 4.324718,-4.43886 5.414926,-3.76349 -0.0032,2.1167 2.717813,2.95571 0.390642,4.48456 -0.943916,1.70247 -3.911116,1.10975 -2.304509,3.71317 0.664658,1.75197 1.498564,4.42668 1.612969,5.34118 1.331112,3.18976 1.65442,7.0984 2.197709,10.26711 -1.410893,1.38744 -5.027367,-0.54887 -7.904424,-0.0388 -0.941699,-0.90231 -4.826585,0.62066 -4.621461,-1.31548 -1.062819,1.08092 -1.577713,-1.70797 -2.957359,-1.73258 -1.227824,-0.7303 -5.613016,-3.80933 -3.70522,-0.79494 1.370106,1.20992 3.511165,1.89175 4.431877,3.29531 -1.475266,1.04087 -3.925803,-1.99042 -5.353934,-1.49957 -1.587997,-0.91199 -0.566636,-3.37396 -3.334754,-2.54008 -3.276296,-1.84738 -5.750441,-5.54905 -6.6192108,-8.86996 -2.2065596,-4.90554 -5.662851,-10.66477 -4.0078169,-15.96508 0.8616844,0.23028 0.7002324,-0.83952 2.1699095,-0.38945 -0.3983101,-2.42009 -3.8005456,-0.51628 -4.57029,0.52824 -1.7426104,0.59089 0.1597072,-3.04941 1.0449184,-3.83432 1.4973392,-1.04744 1.8591892,-2.44487 3.9179847,-3.19045 1.8620053,-0.31129 1.5229434,-0.67075 3.2343681,-0.60548 2.368969,-0.57966 4.630705,1.16145 6.71928,0.49173 -3.969881,-2.49508 -10.0984782,-2.29436 -13.4284587,0.9166 -3.47866654,2.92039 -4.60228049,7.50441 -4.22854405,11.94129 -0.44023368,1.64299 0.64947703,3.7184 2.07421925,4.53161 0.1812271,0.72136 0.3876097,1.55414 1.0429502,1.61478 0.9086936,1.42363 2.0122246,2.83267 2.5371183,4.63913 0.7741385,-0.21643 0.7214411,2.92758 1.915991,3.35325 0.3598623,1.22552 2.398084,1.19584 2.259712,2.08295 0.987748,1.2633 1.094859,1.12498 1.621257,2.41017 1.486586,0.57585 -0.23968,0.84958 1.472583,1.80076 0.178779,0.70428 1.097957,1.67536 1.618332,1.84116 1.020489,1.453 3.474988,3.40893 4.17613,0.53052 -0.465804,0.31637 2.043329,0.86921 1.531615,1.18278 1.501665,0.20442 3.042725,2.18874 3.984354,1.28845 0.729839,0.67961 2.067466,-0.0247 3.059477,1.02373 2.002989,-0.8055 3.385583,3.50676 4.901255,2.37464 1.523396,-1.35741 -2.59713,-2.31169 0.372771,-2.3085 1.267469,0.78385 2.887986,1.30765 4.574604,0.93901 0.687524,0.10196 1.565928,0.92701 1.896978,0.6528 1.533205,0.47306 1.05867,-2.50064 2.553814,-2.33933 1.289432,-2.1904 6.154756,-3.08434 5.158428,-6.04173 -2.989747,1.35004 -5.55836,4.68035 -5.097687,-0.81832 -0.252837,-3.09158 1.66685,-6.4571 2.971063,-9.27978 2.562786,-0.26861 1.942909,-4.11061 3.475818,-5.49383 0.717606,-1.34613 0.702353,-2.82405 2.040349,-4.4027 2.5831,0.0882 1.783117,-3.94236 2.881284,-5.44772 0.24882,-1.27526 1.195376,-3.14955 1.408433,-3.61457 1.761223,-2.26118 0.21778,2.96832 2.099997,2.96555 1.790498,0.98036 3.474217,-0.026 4.611569,-0.96822 2.780558,-0.60979 4.816998,-0.83016 6.905328,-2.85276 4.324177,-2.82796 7.108257,-9.23144 5.937936,-13.66457 1.719692,-3.31214 0.962332,2.81256 1.614107,3.22842 0.05309,1.52884 0.988742,3.73744 2.986883,3.16034 2.305234,-2.1247 3.435339,2.23354 4.605151,3.25452 1.634445,1.32013 -1.24472,2.29522 -3.115372,1.60097 -1.242618,-1.17157 -5.615757,-1.30851 -2.793061,0.53951 0.480707,0.11525 2.8074,1.71691 2.685536,1.24899 2.621289,1.55452 -3.117191,-0.0198 -3.324426,1.57444 -0.938638,1.75904 3.180328,1.91696 3.875302,2.86601 2.192331,1.18246 4.991425,1.59104 7.107659,2.28779 -3.086692,0.91001 -7.070525,-2.42465 -9.236704,-0.36397 0.923465,1.51905 3.203149,0.92312 4.81531,1.6072 0.263567,-0.24058 1.989098,0.93658 1.435962,0.20438 2.62008,0.9753 5.939299,0.56353 8.438261,1.19109 1.306976,3.60011 3.434526,6.86027 5.433447,10.09077 2.611222,2.76805 6.434812,5.82135 9.640342,7.65773 -2.504,3.27722 4.41616,0.14362 5.16072,1.41217 3.04267,0.58467 7.23861,0.12335 10.48716,0.35221 1.62915,0.35075 4.43367,0.23478 5.55661,0.5326 3.86021,0.23252 7.254,0.39197 11.06452,0.21769 2.78097,0.28876 6.37141,-0.46825 8.74955,-0.46122 0.35691,-2.74266 -5.67276,-0.079 -7.80093,-0.90448 -5.16236,0.0995 -11.31943,0.28066 -16.0087,-0.81816 3.56907,-1.09269 4.73532,-4.6105 6.5239,-7.29024 4.63726,-4.03955 5.17242,-10.57347 6.69242,-16.09823 -0.0369,-1.58409 1.10724,-3.2587 1.13804,-4.66982 1.52802,-8.76093 -0.84238,-17.56428 -2.49224,-25.92486 2.76989,-1.10717 2.60041,-4.28227 3.95378,-6.8036 2.03453,2.31289 0.81318,10.45282 0.76751,14.97284 -0.65087,1.89571 -1.24036,6.50023 1.83036,3.01186 1.25856,-1.73428 1.43643,-4.04511 3.05021,-5.77998 0.97464,6.31845 -2.77928,12.23159 -3.19203,18.20759 0.77989,1.19383 3.09163,-1.47074 2.846,-1.88159 1.84825,-2.19164 2.97257,-5.55375 4.37957,-7.5781 0.47179,4.66681 -1.64409,10.44922 -2.74782,15.30315 -0.67812,3.50273 -3.52606,7.18673 -1.87946,10.42919 2.45946,-0.16869 2.98939,-3.90192 4.30469,-5.77223 0.42641,-1.42025 0.64906,-0.79619 1.87327,-0.17286 3.42009,1.34696 -0.38919,6.59206 0.0177,9.43944 1.07445,2.35712 2.7688,-0.21168 1.94172,-1.5391 0.22134,-1.40833 0.87874,-4.47719 1.08024,-5.27893 1.05181,1.20991 4.19662,1.83742 2.00386,4.14488 -3.53108,3.4455 -1.68002,6.66186 0.69141,1.96877 0.67234,-2.57329 2.33425,-4.01379 4.72452,-4.86339 0.7365,1.29072 -0.28138,6.94283 -1.55077,8.60555 0.0563,3.53376 -3.16171,2.79423 -5.81874,1.75738 -5.73794,-1.23343 -10.19634,-5.27609 -14.95923,-8.30333 -1.7471,1.1566 1.63768,2.87895 2.47663,3.79714 1.81827,0.54203 2.46733,2.68297 4.33389,2.96894 -0.76203,0.37348 3.0882,1.09702 3.11184,1.60057 1.00048,0.75259 4.4696,1.78123 4.27748,2.73267 -2.8168,-0.24852 -3.01845,1.56267 -0.87129,2.98458 2.68069,1.97346 6.04785,4.27022 9.38204,5.16119 1.28685,0.21665 1.10354,1.18424 2.27803,0.0769 -0.10289,-1.49194 -5.13338,-2.00333 -1.8164,-2.14656 3.08152,-0.39843 4.96289,1.33746 7.58718,1.06046 1.35539,-2.63861 2.54132,-5.71481 3.54071,-7.67007 0.82844,-2.41467 1.45599,-4.60951 2.96422,-6.37943 0.9681,-2.01451 2.66958,-3.77576 4.03326,-3.92379 1.88254,-1.10605 2.23598,-2.39926 3.04071,-4.25761 1.42247,-4.78648 1.86895,-10.07148 2.43033,-15.13731 -0.71548,-4.83537 -7.31415,-4.70394 -11.09831,-5.53013 -1.613,-1.778 -5.19911,1.54934 -4.44912,-1.7814 0.35699,-2.99069 -2.82749,-5.88158 -5.43331,-3.33215 -2.96491,1.27406 -3.75944,4.563 -5.03593,7.02538 -0.67386,-2.08628 -1.93357,-4.44871 -2.87081,-6.1308 3.68063,1.18167 3.65,-5.0661 5.06273,-7.41018 1.33279,-3.78697 2.53817,-7.39407 3.64266,-11.19797 1.83052,-0.84959 2.42033,-2.55439 4.48777,-2.96672 3.32479,-1.84667 5.63897,-4.02246 9.16973,-5.41827 2.20538,0.83872 -0.0525,2.46666 0.16837,3.78579 -0.12516,6.9155 -2.32915,13.68607 -1.77151,20.43945 2.34148,1.96084 6.08027,0.83101 8.78423,0.58385 0.71928,6.38171 4.47248,12.03682 9.33236,15.79531 1.89765,1.88983 4.55069,1.78629 6.61391,3.24964 1.76561,0.51315 3.93654,0.58061 5.27453,1.2198 2.69419,0.26387 4.38256,-0.60928 6.51969,-1.56206 0.21532,-0.64696 3.4183,-0.34789 4.51386,-0.6293 1.38804,-0.58858 4.97411,0.74843 5.53126,-1.00812 -3.63877,0.40592 -12.43878,-0.52339 -4.42189,-2.12128 2.37808,-0.32842 4.8858,0.20335 6.95769,-0.91086 0.72948,-2.31244 -3.76901,-0.0587 -4.74233,-0.42324 -5.76188,1.63785 -2.56155,-1.8685 -1.83421,-4.51407 0.9257,-5.44859 5.32961,-9.75653 5.46812,-15.6146 0.37645,-3.31044 -0.17055,-6.84789 -0.39854,-9.84236 0.20103,-1.66706 -0.19246,-3.10775 0.61902,-0.96869 3.55673,-0.22953 -0.98468,-7.92085 0.13297,-8.58397 -2.26339,-3.56279 -1.36305,-8.70645 -3.28727,-12.68964 -1.52378,-5.7006 -4.03065,-11.46958 -9.89925,-13.84402 2.28899,-3.45765 6.0063,-9.9947 3.04991,-14.84715 -2.06334,-2.73937 -6.27539,-1.81011 -8.59773,-0.84993 -3.49622,4.28552 -1.98759,10.92776 -0.26502,15.73451 -2.22173,0.71018 -0.21118,1.91751 -1.62129,2.18188 2.93786,-1.78911 7.61091,-1.83582 10.16683,1.17258 3.46361,2.95619 5.32968,7.48347 6.09738,11.81293 -1.65893,-1.22158 -1.81947,-4.95113 -3.70515,-5.19341 -1.36855,5.51815 6.13332,8.97792 4.29878,14.88671 -1.43531,10.13648 -4.24892,19.92672 -6.20567,29.94786 -3.42798,7.35738 -14.44301,11.43081 -20.50005,4.46889 -1.92025,-2.42481 3.50788,-3.38541 1.39068,-4.37137 -2.56238,-0.76684 -2.83908,4.55902 -4.55516,0.52353 -3.52627,-7.45853 -2.53195,-16.21565 -3.06034,-24.20583 -0.52914,-3.46481 1.66441,-7.14474 0.88659,-10.07422 -0.21858,-0.56593 1.81219,-2.99961 1.94968,-0.45523 2.31253,6.19047 5.23546,12.49382 9.15622,17.76569 3.29723,2.235 7.11044,-1.63004 4.75963,-4.92394 -2.57178,-6.92686 -5.54048,-13.80726 -8.65024,-20.54698 -3.01491,-0.17193 1.35002,5.06303 1.86133,6.98437 1.63039,4.50901 4.2466,9.23812 4.66252,13.81322 -4.36996,-0.90594 2.85893,2.47277 0.35398,3.68757 -4.19462,0.36762 -4.58571,-5.63629 -6.95719,-8.14267 -2.53675,-4.49749 -4.03952,-9.71787 -5.5586,-14.54496 -2.21397,0.0589 -0.19084,2.85305 -0.29692,4.24425 -2.5516,0.50359 -2.39552,6.1637 -3.02538,8.74807 -0.0363,9.34525 -0.97224,19.19575 2.54324,27.99051 2.19992,2.11738 2.07516,2.7322 0.70119,4.88673 1.93568,4.32104 -0.76201,0.61925 -1.7638,-1.33965 -3.87322,-7.46271 -1.47717,-15.63016 -3.13056,-23.73611 0.0746,-4.41782 -2.18824,-10.38803 1.47102,-13.86328 1.89714,-0.61203 -1.14119,-0.56301 0.31092,-2.0476 0.4986,-0.91593 0.58163,-2.56717 1.47006,-3.44794 0.95591,-3.98561 3.32858,-8.3554 6.48828,-10.42971 -0.47883,0.50477 -3.16855,0.45179 -1.33831,-0.46145 1.44413,-2.04515 4.83106,-2.66177 5.6093,-4.87327 -5.86172,-0.10037 -10.26283,5.99442 -14.11724,10.04536 -2.69785,2.99529 -2.18571,8.05439 -6.20532,9.55279 -2.46219,1.54989 -6.32924,2.79574 -8.33205,3.61323 1.52653,-1.7257 1.7039,-4.53985 3.59892,-6.38584 0.97898,-1.54936 1.47559,-3.86231 2.7305,-4.78912 1.06485,4.57546 1.9377,-0.87075 0.54261,-2.60947 0.0516,-1.80275 1.79942,3.3553 3.05731,1.33663 -1.62338,-3.88132 -4.76107,-7.42028 -6.46314,-10.78019 4.64999,0.52934 9.69181,1.55492 14.1996,0.70441 -1.42999,-2.09595 -6.04331,-0.68166 -7.95908,-3.1215 2.84819,0.47706 6.8705,2.57303 9.88358,1.83325 -1.77416,-0.43073 0.17932,-1.92893 -1.74637,-2.2948 -1.56031,-0.99381 -5.92933,-1.38654 -6.70885,-2.26839 3.31431,-0.30994 -2.22919,-1.31531 -3.24415,-1.27158 -5.01833,-1.46667 -10.34378,-0.16936 -1.86139,0.75783 6.28254,-0.18065 2.55571,3.91018 -1.61337,1.40038 -3.25,-0.81656 -0.56081,1.65601 1.32841,1.2203 6.70063,1.9446 5.6112,3.76277 -1.7267,2.05276 -1.93402,0.13624 -4.41624,-2.28698 -5.05255,-3.46942 -1.03097,-0.75189 -2.72935,-3.3577 -1.35537,-5.16062 1.74128,-3.32919 8.31014,1.18418 11.91992,0.55298 5.3779,0.24589 10.7677,1.8072 15.91835,2.44984 -0.01,-1.56274 -0.87183,-1.35078 1.83608,-1.6754 1.59222,-2.63519 -7.58989,-1.41211 -10.08594,-2.93939 -4.41022,-1.02067 -8.5388,-0.67403 -12.85165,-2.40079 2.71441,-0.50353 6.80762,-0.17066 8.8189,-1.93479 -3.85298,-0.65846 -3.34553,0.51256 -1.98824,-2.0046 1.64962,-3.37679 2.57595,3.73167 3.70708,-1.08603 1.92028,-1.76537 3.15327,-2.73577 0.54105,-3.82624 0.31719,-1.84909 -1.5723,-5.08049 2.30501,-4.6739 4.47812,-0.4053 3.10592,-5.42265 -0.17719,-6.63336 -2.98657,-2.25043 1.90045,-3.00877 3.72279,-2.75992 1.42211,-0.6623 6.50195,0.40213 1.72866,1.13484 -2.38403,0.18429 -6.9209,3.00086 -1.46122,1.834 5.51456,-1.80785 12.15951,-0.92909 17.00031,-4.20543 -3.05483,-0.23184 -6.23664,1.51359 -9.41048,1.32199 0.6508,-2.96575 5.43984,-2.22176 8.16852,-3.5563 3.40315,0.217 5.55263,-2.46595 8.8534,-2.5395 -1.8901,1.65109 -0.30579,5.58881 2.86339,4.09183 2.94035,-0.59523 7.49214,-1.1514 9.23666,-4.13776 1.15813,-2.78041 -2.32545,-4.94513 -3.12868,-6.71995 -1.5097,-1.21275 -3.46122,-2.61594 -4.99875,-2.07618 -2.76884,-1.33531 1.18224,1.42341 2.24239,1.94536 1.53212,2.30284 4.65838,3.44931 4.3164,6.57828 -2.50254,3.42233 -1.62479,-5.38349 -3.46679,-2.30836 -2.21306,1.11308 -3.75346,-1.08343 -5.53383,-1.77854 0.41467,2.29634 2.29909,3.4178 4.12509,4.17776 3.92069,2.94427 -4.26582,2.65112 -3.74023,-1.21092 -1.62833,-2.98048 -4.8948,1.8332 -7.7191,0.56581 -5.49923,2.35465 -12.66956,1.80453 -18.61371,4.0161 -2.25959,0.53227 -7.08635,3.54196 -5.6818,-1.03669 1.99922,-3.93834 0.84534,-9.05443 3.0221,-12.90243 -0.0211,-2.28915 0.87089,-7.67859 3.67991,-3.86328 3.219,0.37938 5.19194,5.29899 8.44559,4.79609 -0.37367,-2.31689 -5.47215,-3.52531 -6.9121,-6.00977 -1.29006,-1.38923 -3.40695,-1.58664 -5.02329,-2.20362 z m -78.61914,6.16406 c -1.76634,2.40209 4.14818,3.78285 5.29109,5.84399 3.89321,1.37302 5.16284,7.88134 9.92015,6.37502 -1.75208,-0.0564 -3.40892,-2.10799 -4.664,-3.89101 -2.98585,-3.34125 -7.17811,-5.15768 -10.54724,-8.328 z m -4.01367,0.72461 c -1.09069,1.74492 2.79739,7.38607 -1.05669,5.99019 4.24365,2.3652 -0.1554,5.87643 1.07198,7.16031 -1.16664,2.7041 5.3292,5.68048 4.47658,3.73441 -2.90682,-0.83937 -2.62929,-3.5757 -1.80096,-5.51581 0.10148,-3.57612 -0.30043,-8.9281 -2.69091,-11.3691 z m 59.31445,0.65625 c -3.95598,0.51321 2.70817,1.54398 0.01,0.57172 0.1877,-0.1171 0.53205,-0.64271 -0.01,-0.57172 z m -30.86523,0.0215 c -1.6829,3.12279 6.16406,6.41785 2.63281,9.21494 -3.04218,1.79146 -6.71558,1.85921 -9.81251,1.4763 -1.73308,1.44918 -6.42421,3.3289 -3.57217,5.62935 3.57662,-2.74636 8.05422,-4.10762 12.51604,-2.68879 2.32755,2.44559 5.35198,6.54912 3.86322,9.87129 -0.44463,5.12092 4.47067,-2.58941 1.08203,-5.17386 -2.82728,-2.94288 1.32102,-1.88952 3.32466,-2.14478 1.43203,0.43381 2.06302,8.8062 3.14651,4.15041 -0.17005,-3.07993 -0.54523,-6.99795 -4.9644,-5.2406 -2.68387,1.87001 -5.48422,-1.61134 -1.93143,-1.99261 -1.96129,-0.70843 -5.16782,-0.76188 -6.47867,-1.6156 2.45223,-0.73393 7.65365,-2.69557 4.39648,-5.71889 -1.9333,-1.5389 -1.94827,-5.04952 -4.20257,-5.76716 z m -98.650392,2.86719 c 0.178034,3.72571 -0.374847,8.30187 -3.172037,11.4611 -0.902101,1.07804 -2.524378,3.91486 -3.14666,4.36313 -3.705499,5.02404 -9.860549,9.00476 -15.592262,11.82326 2.356787,1.93524 6.983938,3.55194 9.875,1.47239 -1.710551,0.26836 -7.028602,-0.049 -5.892525,-2.05663 4.595716,-3.07336 10.242463,-6.36172 13.054503,-10.86898 3.335042,-4.3571 8.020706,-10.38539 5.468839,-16.1364 0.538696,0.57097 -0.660139,-0.25429 -0.594858,-0.0579 z m 191.982422,0.22266 c -4.45029,2.12045 1.27742,0.79577 1.57016,2.68756 -1.70136,-1.47286 -3.08928,-0.6382 -0.6682,0.96742 1.77716,1.55207 -1.13856,5.01418 3.21299,2.74028 -0.54294,-2.48208 -0.0593,-7.42891 -4.11495,-6.39526 z m -60.55469,3.66211 c -5.96994,1.09452 8.01936,3.29414 0,0 z m 3.9961,3.75 c -3.39795,1.50274 2.16362,8.35938 0.9668,3.27929 -0.9452,-2.07092 1.62938,-2.42047 -0.9668,-3.27929 z m 3.94335,0.99218 c -2.81026,0.91237 1.63879,6.29285 1.44482,2.79493 -1.43799,-1.35478 1.18217,-2.5663 -1.44482,-2.79493 z m 41.05665,0.44727 c 1.193,0.28335 -0.95124,0.88853 0,0 z m -19.13672,1.21289 c 1.27841,0.0529 -1.5155,0.38431 0,0 z m -1.49805,0.30273 c 0.5098,0.19609 -1.31909,0.52269 0,0 z m -1.97656,0.37696 c 1.39446,0.12698 -0.95495,0.45018 0,0 z m -99.468752,1.25781 c 1.114567,0.84736 0.613048,4.70713 -0.07467,1.43272 0.828323,0.0375 -0.419268,-0.95387 0.07467,-1.43272 z m 84.748042,0.25976 c -1.75465,1.81363 1.04179,1.76235 1.8873,3.35542 2.58921,2.56123 -2.94869,8.15226 2.41994,4.10566 1.65873,-2.82324 -2.11546,-6.38344 -4.30724,-7.46108 z m -44.55664,1.06641 c -2.2482,1.82456 1.99737,4.82486 0.79866,7.55528 -3.75041,2.14274 0.52797,3.77044 1.43363,0.52916 0.75895,-2.74376 -0.97983,-6.03297 -2.23229,-8.08444 z m 33.21094,0.14453 c -2.77113,1.16563 2.13959,1.41132 2.64045,3.20549 2.17564,2.38064 1.23994,5.15853 -2.08618,5.08442 -5.48763,1.00415 -2.15093,3.28504 1.74018,0.53709 2.17814,0.85397 2.52764,2.33641 3.93578,-1.78325 -1.95635,-2.05895 -1.3502,-6.31819 -5.3011,-6.91444 l -0.92969,-0.12891 z m 30.01953,0.16602 c 1.66446,0.21493 -2.21964,0.23136 0,0 z m -5.33594,0.14453 c -1.27507,0.0357 0.53607,0.43985 0,0 z m -0.96484,0.3457 c -0.55355,0.63852 0.76122,0.15611 0,0 z m -15.78711,0.48828 c -2.4945,1.33369 4.34401,3.48992 1.41783,6.20324 -1.11726,0.1055 -4.12773,3.47286 -1.43537,3.18569 3.91498,-1.40332 4.86073,-6.96984 0.85098,-8.95787 l -0.83399,-0.43164 z m -45.73437,0.90821 c -2.68149,1.72976 -7.43788,2.25732 -11.22906,2.9475 -2.1305,-0.8244 -13.5779,3.11998 -7.17969,3.41001 3.99667,0.61946 -2.44139,-0.14566 0.42563,-0.98681 2.58662,-1.51748 6.59355,-1.27913 1.5684,0.0761 4.28788,0.67041 7.90896,-1.46778 11.89473,-2.45567 2.79433,-2.90783 7.9291,0.28642 4.27924,2.76564 -5.09434,1.92581 2.29972,1.01609 1.68555,3.47654 1.7413,-0.43517 0.93005,-2.88576 2.32995,-3.84812 -1.9587,-0.80665 -1.23904,-4.76522 -3.77475,-5.38515 z m 35.99414,0.0684 c -4.06486,2.93538 -10.29198,1.53876 -13.97657,4.07624 2.22806,3.01481 4.00165,7.90585 8.51762,5.01558 2.28767,-1.00789 4.46549,-2.12556 6.66783,-3.1958 -3.66431,-0.34536 -7.49575,3.68607 -10.87895,2.04306 -1.87863,-2.42573 -3.54657,-4.72202 1.22274,-4.23469 3.26567,-0.50539 6.65042,-0.97845 9.41429,-2.91068 l -0.50585,-0.75586 -0.46094,-0.0391 z m 37.19726,1.54492 c -2.02346,4.54427 -0.22628,10.71001 -1.04325,15.72656 -1.40171,-2.53549 -1.78356,-6.67039 -3.94594,-9.1672 -0.54904,-2.34182 -2.06913,-4.49415 -4.18354,-5.41743 -3.37498,0.6382 0.43599,7.16723 0.01,10.15039 0.81983,3.32329 -1.16262,8.87702 2.29488,10.61523 1.77084,-2.78113 -0.16205,-6.92363 -0.23137,-10.28971 -0.24801,-2.63203 -1.29527,-5.24417 -1.25765,-7.63571 2.28855,2.72684 2.114,5.93275 4.58984,8.5977 -0.2418,4.6687 5.58834,5.11107 5.01779,0.30274 -0.31812,-3.97314 -0.59132,-8.15495 -0.0451,-12.21392 -0.38355,-0.62848 -0.26004,-0.69547 -1.20538,-0.66865 z m -127.87695,5.5 c 0.746324,0.14059 -1.609424,0.29986 0,0 z m 49.2168,0.23633 c -3.36962,1.30472 -7.65584,1.33889 -10.51199,3.21081 2.7307,0.72217 7.04682,-0.333 9.89258,-1.31071 0.91709,-0.0164 2.7611,-1.98355 0.61941,-1.9001 z m -50.298831,0.14257 c -0.876052,1.1915 -3.468712,2.23791 -4.830172,3.56102 0.371277,-1.84698 3.176291,-2.70787 4.830172,-3.56102 z m 25.710941,0.0137 c -1.81304,-0.54743 -10.054863,2.63239 -5.103519,2.68354 1.182559,-1.10055 7.835449,-0.84311 5.103519,-2.68354 z m -13.240238,1.16796 c -2.33557,-0.2473 -0.927597,3.10486 0.603368,1.2815 3.744105,0.65522 6.185192,5.4968 3.85605,8.37175 -3.374188,-1.39272 0.102214,3.2959 1.806548,0.41549 3.155362,-4.03172 -1.861966,-10.23018 -6.265966,-10.06874 z m -56.306641,2.86524 c -2.865497,-0.95163 -2.474267,4.29552 -0.968593,2.05136 -1.72853,0.63631 0.552375,-1.11261 1.552456,-0.37658 1.8476,0.6442 2.279587,1.70292 4.111226,2.69053 1.504719,1.59019 4.919272,3.60916 5.904274,4.47719 1.970396,0.5342 5.117171,-1.77441 5.982515,-3.41785 -2.475219,0.78108 -5.093815,3.70147 -7.31255,0.6443 -3.118208,-1.95371 -5.572619,-5.13618 -9.269328,-6.06895 z m 152.332029,0.80078 c -0.023,0.28773 -0.34632,0.80439 0,0 z m -83.60156,0.26367 c -1.74097,0.15951 -7.365179,2.79078 -2.7793,2.50195 0.90966,-0.31285 7.31014,-2.04749 2.7793,-2.50195 z m -14.347656,0.34375 c -1.265679,1.45769 -0.06216,2.74689 0.585713,4.35614 1.52551,3.04369 -1.475466,4.29649 -3.246145,4.24816 -0.977941,3.24137 5.763874,0.93284 5.275387,-1.76369 -0.09724,-2.02695 -0.936175,-5.86029 -2.614955,-6.84061 z m 26.109376,0.54688 c -0.89128,0.81631 -1.07158,3.00016 -0.85802,3.56692 -1.3084,7.13596 2.90607,14.28577 1.99407,3.78907 -1.33191,-1.98201 1.46433,-7.28247 -1.13605,-7.35599 z m 41.20312,0.13476 c -0.35335,0.59804 1.07044,0.13339 0,0 z m -49.50195,2.80274 c -0.95918,3.1724 0.74218,7.20838 0.60105,10.77976 0.4605,3.57017 0.59118,7.78429 -0.49592,10.88696 -2.7314,-0.81236 -5.21516,0.84186 -1.05456,1.13686 2.44587,-0.75141 0.71791,4.60399 3.49034,2.16025 0.05,-7.88031 -0.41544,-16.40436 -1.63315,-24.26473 -0.45454,-0.0454 -0.41274,-0.73853 -0.90776,-0.6991 z m 76.44922,0.0996 c 3.11215,0.15711 -1.40905,0.61335 0,0 z m -9.63086,0.20312 c 1.83462,0.45309 -2.71242,1.25256 -0.26704,0.13673 0.22799,0.10689 0.13378,-0.11379 0.26704,-0.13673 z m 6.79688,0.92383 c 4.50259,-0.37343 -3.70872,2.02438 -0.62869,0.3204 l 0.62891,-0.32031 z m 33.79492,1.23633 c 5.08459,1.01328 3.01204,8.33598 0.8769,11.32451 0.0109,4.65461 -8.1968,2.45177 -4.89983,1.43908 2.42653,-1.13558 2.50924,-5.65772 1.92418,-7.87919 -0.84049,1.47969 -0.96388,5.53803 -2.14607,6.1758 -1.20282,-3.51675 0.28727,-7.98494 2.06643,-10.53937 -0.57953,-0.33888 2.17487,-0.54598 2.17839,-0.52083 z m -38.23438,0.27148 c 1.40287,1.21319 -3.54331,1.13911 -0.50823,0.0761 l 0.50781,-0.0762 z m 33.59766,0.29492 c 0.89403,2.76905 -2.42931,4.2677 0,0 z m -33.98828,2.0918 c 4.82409,0.79082 9.68205,1.69238 14.17191,3.25209 -5.13851,-0.70785 -11.66613,-0.67017 -16.04297,-2.57625 0.21289,-0.89738 1.25904,-0.50763 1.87106,-0.67584 z m -9.45508,2.37891 c 1.76809,0.7857 -0.69098,1.36922 0,0 z m -3.71484,0.93945 c 3.73047,3.02646 7.68508,6.47753 8.74613,11.33249 3.57607,4.21082 0.91196,-0.36884 0.0175,-2.97662 -0.7297,-2.7136 0.13118,-2.53798 1.80826,-0.22684 2.37725,3.16784 5.07891,6.69576 5.68959,10.58993 -2.53751,5.92468 -6.18435,11.24403 -9.11185,16.97898 -2.27896,0.38572 -7.29752,5.57955 -2.82588,3.45317 2.17924,-1.224 -1.50864,3.1465 -1.80859,4.31836 -3.2929,3.96904 -6.73948,9.09215 -9.30276,12.50398 -5.04816,-5.66272 -8.79181,-12.73783 -13.11248,-18.77104 -2.18883,-2.79726 -5.06268,-6.63278 -7.01195,-9.64404 0.8542,-2.04233 2.12826,-4.60553 4.18347,-5.30573 -0.9768,1.86471 -4.9264,5.92862 -1.73843,6.47858 3.74624,-3.88454 7.75477,-8.30474 8.79321,-13.75005 -0.8587,-2.73918 -3.82534,2.67004 -2.54261,-0.2051 1.82738,-0.90556 0.59815,-2.84834 -0.0156,-4.13961 -0.21127,-0.71387 -0.26781,-2.08013 -1.63445,-2.70207 0.0351,-0.52774 2.33941,-0.54244 1.44356,-1.44609 3.60602,0.2045 5.3808,-1.05125 0.97661,-1.45732 -1.24014,1.64089 -7.47351,0.49661 -3.42738,-0.2858 1.40358,-0.11045 3.03258,-1.45773 4.31302,-0.67401 1.10581,-1.00749 4.98295,0.22331 6.92388,-1.0028 3.22163,-1.00397 6.36304,-2.49138 9.63672,-3.06837 z m 2.57812,0.0449 c 1.37745,0.1202 1.96476,3.02276 0.7689,1.06057 0.0684,-0.29242 -1.43989,-1.06295 -0.7689,-1.06057 z m -44.05469,0.53125 c -1.45918,0.57938 -0.38489,1.22379 -1.81479,1.66623 -4.12857,4.876 -5.76156,13.60981 -0.40038,18.22353 4.1201,3.62403 10.12084,0.64701 11.47192,-3.95517 1.10368,-3.75296 4.12514,-8.47325 0.0361,-11.74675 -2.71432,-3.02642 -7.09988,-3.04797 -10.39919,-1.76323 -0.059,-0.99415 2.51748,-1.7889 1.10638,-2.42461 z m 51.85742,0.85352 c -0.85756,0.26053 2.45515,0.84488 0,0 z M 168,171.76367 c 4.51714,3.61117 -1.01699,2.00119 0,0 z m -44.17969,0.32227 c 5.41648,0.18775 8.59172,5.90513 6.07236,10.84809 -0.78728,1.80805 -1.40667,2.35865 -2.0223,4.18122 -0.76166,1.42123 -4.12297,3.56913 -5.22869,2.53926 2.61662,-1.1104 -4.89029,0.23314 -4.69729,-3.1816 -1.83051,-3.71588 -1.25315,-9.19819 2.13872,-12.241 -0.23515,-1.28939 2.73644,-1.92906 3.7372,-2.14597 z m 61.55274,2.16601 c 2.75348,0.77043 2.79049,1.3165 -0.33404,0.65436 -0.20287,-0.41295 0.0252,-0.48774 0.33404,-0.65436 z M 62.083984,174.8125 c 0.851891,2.24375 -1.011341,5.83147 0.107728,8.4417 -0.970446,1.75868 1.64221,6.07318 -1.742686,4.6513 -1.932524,-0.33477 -2.646114,-5.14469 -1.623154,-6.05295 0.342879,-1.55465 -1.631145,1.42525 -0.371225,-1.18508 0.856203,0.69995 -0.0747,-0.93701 1.160601,-0.88147 -0.449112,-1.60864 1.813486,-3.06635 2.468736,-4.9735 z m -5.138672,3.40234 c 1.212798,-0.25539 -0.562152,2.42059 -0.990076,2.53739 0.184536,-0.32069 -0.141526,-0.93965 0.238124,-1.00913 -0.180632,-0.49899 0.596456,-1.08947 0.751952,-1.52826 z m 84.142578,5.08399 c -1.98712,1.30719 1.69482,0.0451 0,0 z m -83.849609,1.59375 c 1.316709,1.06709 -0.23949,0.95032 -0.06839,0.16983 l -0.107422,-0.11328 c 0.0057,-0.0583 0.169207,-0.11842 0.175815,-0.0565 z m 85.740239,0.0644 c -0.0327,0.45101 -0.39226,0.7806 5e-4,2.8e-4 z m -0.65235,0.60547 c -0.73951,1.77589 -1.67763,0.53883 0,0 z m 1.84375,0.45508 c -0.52223,1.22575 -2.34348,3.69987 -3.24202,3.32633 0.63138,-1.49415 2.18141,-2.26454 3.24202,-3.32633 z m -87.558592,0.45508 c -0.0069,1.46839 -0.876934,0.38171 0,0 z m 143.285152,0.45312 c -1.48433,0.64582 1.04831,0.52446 0,0 z m -148.445308,0.45508 c 0.01689,0.5664 -0.543554,2.79051 -1.311011,2.61366 -0.567204,-0.81 0.953382,-2.4053 1.311011,-2.61366 z m 158.876948,0.0273 c -0.92443,4.15763 2.81899,8.69653 3.20699,13.26756 1.7196,2.431 -2.60535,7.27765 1.91603,5.94111 2.85879,-0.99521 5.22745,-7.8412 1.72641,-8.3418 -3.0633,1.51925 2.2941,1.24646 -0.35742,3.78558 -0.22552,1.26959 -1.78764,4.01376 -1.43188,0.92582 -0.26291,-5.09959 -3.31914,-9.72734 -3.91064,-14.81819 -0.26465,-0.33292 -0.68855,-0.7514 -1.14949,-0.76008 z m -18.91796,0.0488 c -0.59847,2.30942 -3.40529,4.68137 -3.9768,7.44015 -0.67696,-1.6834 1.81783,-5.29003 3.30498,-6.75813 -0.0149,-0.54332 0.44263,-0.51075 0.67182,-0.68202 z m -138.462894,0.30274 c 0.423124,0.56057 -1.345877,0.61048 0,0 z m 1.759765,0.5039 c -0.739589,0.94354 0.37478,3.74154 -0.151937,5.17082 0.915655,6.58821 0.552835,13.04742 0.813952,19.2882 0.457087,6.74105 -0.422148,2.80656 -1.054557,-0.64301 -1.369153,-5.76645 -1.211495,-12.40746 -3.216819,-17.68259 0.752744,-2.14697 1.855465,-4.68716 3.609361,-6.13342 z m -2.333984,0.10156 c 1.093311,0.27307 -0.897682,0.8927 0,0 z m 4.814453,0.0762 c 1.599753,0.14074 0.48466,2.38153 1.505714,4.20654 0.540348,2.46424 0.544555,5.11627 0.957349,7.76536 0.903475,3.03905 0.865678,6.86778 1.169522,10.20718 3.609961,1.59052 1.969204,-6.18571 1.40052,-7.21325 1.511976,-3.63494 0.906164,-9.262 1.190946,-13.26627 0.01947,-2.19517 3.76775,-0.013 4.755757,-0.0145 0.421527,0.7292 0.270552,0.0986 0.686997,1.50693 0.104719,3.16035 3.202178,2.06235 2.724677,-1.11853 1.525959,0.34721 3.895728,0.52177 2.855705,2.49225 -1.918128,4.16743 -4.611636,6.86259 -6.700411,10.72359 -4.171342,5.58595 -7.42205,12.39193 -10.239103,18.62756 -1.491825,-7.57254 -0.399259,-16.51976 -1.4187,-24.55182 -0.09606,-3.36902 -0.642559,-6.64897 1.111027,-9.36505 z m 17.042969,0.0762 c -1.839877,1.2941 3.164187,1.65992 0,0 z m -12.71875,0.48437 c 1.85208,1.37604 0.06639,5.21553 0.366373,7.3738 -0.431047,0.85509 0.306042,2.25182 -0.750483,2.71857 -0.17644,-3.30514 -1.145377,-6.83243 -1.329111,-10.06896 0.626505,-0.11189 1.12301,0.17036 1.713221,-0.0234 z m 71.269531,0.52344 c 0.004,1.61436 1.2095,0.15574 0,0 z m 58.47266,1.05273 c -0.0918,1.61165 -1.64874,5.89947 -2.78318,5.52932 0.59906,-2.02882 1.44156,-4.00995 2.78318,-5.52932 z m 29.78906,0.73438 c 1.29096,0.61657 3.35303,5.80645 1.13453,2.50001 -0.46145,-0.50261 -0.97338,-2.18948 -1.13453,-2.50001 z m -171.957032,0.71289 c 0.793512,0.27245 -0.926019,0.73472 -0.263063,0.12128 -0.06376,-0.0802 0.312039,-0.11998 0.263063,-0.12128 z m 65.998042,1.10547 c 1.47385,0.47278 3.79307,2.21524 0.39686,0.81824 0.36405,-0.22658 -0.8603,-0.63097 -0.39686,-0.81824 z m -64.611324,1.41211 c 1.082321,0.37208 -0.954384,1.61578 -0.05712,2.48904 0.03251,2.4119 0.928709,4.74224 0.867235,7.0087 1.337993,3.87038 1.002268,9.09776 2.368058,12.95549 -0.599989,0.65364 0.908132,2.4925 0.566677,3.18192 0.348965,2.21161 1.00835,5.51884 1.283361,7.69981 -0.948363,3.46923 -2.298585,8.09207 -3.186769,12.03741 -0.662481,2.62758 -1.455317,7.66456 -1.799148,8.6741 -0.480766,6.56988 -4.44286,11.81724 -7.197691,17.50267 -0.09937,0.23616 -2.252187,2.6421 -2.040808,2.8217 -1.649598,-0.16154 2.998419,-5.26248 -1.017553,-3.17582 -0.432029,0.27778 -1.189479,3.22391 -1.418098,3.31073 -0.531447,-1.2393 -2.48013,-3.75633 -0.576564,-4.07141 2.142926,-2.26717 4.766856,-4.15678 3.87305,-7.62744 -0.989845,-1.876 -3.711071,-0.22911 -2.933784,-3.3397 -2.755136,-11.49361 -4.795463,-23.64748 -2.135799,-35.44245 1.204854,2.12034 0.937216,5.21639 1.417675,7.78971 0.132576,1.74489 0.594342,2.93246 0.811823,4.64629 -0.189975,-0.0578 0.695303,2.72981 0.817484,3.53798 0.39971,2.55615 1.237558,4.39706 1.720158,7.31291 0.165279,1.03835 0.366296,0.3661 0.486881,1.84212 0.822624,4.04583 1.950745,8.29945 2.244358,11.89567 0.711933,2.16462 3.846263,-0.96933 2.019482,-2.69045 -1.603046,-6.96047 -3.214462,-13.91146 -3.536246,-21.13575 0.421875,-0.43066 -1.410179,-8.59095 -0.02698,-6.53144 -0.226808,1.81038 1.23306,4.94069 1.069416,7.09389 1.50053,4.57176 2.292795,9.36474 3.76062,13.94835 -0.49472,1.52953 1.345202,4.06347 2.375917,1.90712 0.141675,-4.77934 -2.31956,-8.2648 -1.915093,-13.23598 -0.386196,-12.34173 -2.112178,-23.88652 -0.851509,-36.0824 1.678104,-0.88699 1.855179,-2.99329 3.010972,-4.32277 z m -3.83789,0.40625 c -0.236742,5.59333 -0.951459,11.80114 -0.171671,17.72811 -0.157682,7.26704 1.150895,15.44432 0.265122,22.18196 -2.458678,-8.05675 -2.92,-16.76844 -3.669912,-25.09827 -3.079454,-0.17563 -1.226092,4.90386 -1.754431,6.72656 -0.228343,5.78249 0.675868,12.67593 1.027217,18.78866 -0.957909,0.24121 -0.734694,-3.12616 -1.303287,-3.96188 -0.863447,-5.81887 -2.009989,-11.93768 -2.677753,-17.96975 -0.791704,-2.46058 2.749543,-5.74742 3.260587,-8.24698 1.824275,-3.39678 3.047422,-7.05742 5.024128,-10.14841 z m 29.554687,0.15234 c 0.116775,1.0323 -0.276403,4.36663 -1.701618,4.98648 -2.145679,-0.63297 1.693696,-3.73828 1.701618,-4.98648 z m 22.453125,1.17188 c -1.430593,1.72172 2.149552,0.0777 0,0 z m 86.333982,2.05273 c 2.75745,2.46836 -0.2545,3.15293 -2.44531,4.12317 -4.07535,2.11573 -8.32911,3.73569 -11.82451,6.66656 0.73809,1.78406 -3.84455,2.62136 -1.1157,0.44809 -0.13044,-3.38231 4.09662,-4.39513 5.79431,-5.63279 3.21358,-1.94256 6.22542,-4.01158 9.59121,-5.60503 z M 86.457031,199.25 c 1.319854,0.56537 -0.924143,0.18193 0,0 z m -13.4375,1.69336 c 2.056889,0.62129 -1.227578,0.90477 0.609427,2.03665 0.708808,2.23669 -1.219102,3.66035 -1.3825,5.75819 -1.259941,3.0999 -2.157859,6.22407 -4.051623,8.82824 -0.932477,1.14616 -1.759579,3.85211 -2.775747,4.35538 1.402184,-7.15316 4.625385,-14.26264 7.600443,-20.97846 z m 63.134769,0.29297 c 5.18831,6.3124 9.93982,13.03847 14.49813,19.41625 2.59772,3.44288 6.00663,7.79504 7.37291,11.29525 -2.06947,-2.0225 -2.36582,2.83261 -3.51736,-0.33163 -1.59591,-1.68839 -2.61993,-4.59013 -4.60921,-5.49269 -0.42735,2.28697 2.54121,4.13879 2.35098,5.41706 -2.59235,1.72011 -3.51034,6.35334 -5.34676,7.72755 0.92029,-4.77314 2.89222,-10.20198 1.33831,-14.94639 -2.17368,-0.57122 -3.82479,4.48665 -4.23614,4.37871 -0.53145,-5.12595 0.85053,-11.10348 -1.17876,-15.9798 -2.98321,-1.23849 -3.08932,4.35912 -4.77735,4.71317 -0.89735,-5.27439 -1.88954,-11.32998 -1.89475,-16.19748 z m 50.9375,0.15234 c -1.39248,9.00101 2.08963,19.93241 0.56318,28.16627 -1.81182,0.66685 -6.12945,1.32569 -6.75422,-1.7662 0.63667,-1.76238 -0.24714,-4.19722 0.24179,-5.42672 1.06077,-5.88755 1.28799,-11.2546 1.59126,-17.11183 -1.75097,-0.8201 2.03996,-1.59807 2.16126,-2.57024 0.50514,0.78658 1.47094,-1.34188 2.19673,-1.29128 z m -97.267581,0.55078 c -1.01846,1.06061 0.937712,0.77964 0,0 z m 9.691406,0.55078 c -1.019757,0.34575 0.428855,0.85493 0,0 z m -14.125,0.26172 c 0.825723,0.70022 -0.986794,1.21869 0,0 z m 4.126953,0.0254 c -1.47716,0.84875 0.03461,1.36759 0,0 z m -13.736328,0.58008 c 1.965172,1.27856 5.724981,0.0574 6.94961,1.94758 -0.920045,5.34025 -2.44347,10.60575 -5.271967,15.16119 -0.32633,0.52012 0.225805,0.51679 -0.692845,1.4379 -0.862468,1.13959 -4.900793,1.69296 -4.281294,0.98627 -0.550015,-2.41499 -0.224134,-5.25023 0.03496,-7.31264 -0.295464,-1.80317 1.540214,-4.50091 2.438019,-6.15858 0.28091,-1.84074 -1.188152,-2.95989 0.152333,-4.69605 0.256972,-0.43106 0.639598,-0.84069 0.671179,-1.36567 z m -6.775391,0.22656 c 0.960714,2.40289 -1.385063,4.6045 -1.675708,6.89571 -1.012802,1.45599 -1.231637,4.15729 -2.142001,4.83481 -1.123898,5.91075 -4.514914,11.34118 -5.431729,17.3264 -3.092179,3.4492 -4.814573,7.96493 -6.719198,11.9533 -0.624666,-2.80856 1.215725,-6.81483 1.808637,-10.0372 1.029475,-2.56376 0.946077,-5.46552 2.738468,-7.84078 1.210827,-6.10568 4.500696,-11.51718 7.355782,-16.91874 1.381686,-1.99261 2.521804,-4.29527 4.065749,-6.2135 z M 88.625,203.82031 c -0.880499,0.38182 0.509128,0.54594 0,0 z m 136.2207,0.33203 c 1.63515,4.22965 -1.36359,10.00733 -2.73126,13.56256 0.66362,-4.52431 2.07755,-9.04758 2.73126,-13.56256 z m -123.79687,0.42578 c -0.52268,2.53664 3.45142,5.1969 2.07613,8.06852 1.55965,4.17701 2.23432,9.08215 4.55696,13.18011 -0.29696,1.95179 1.52212,4.86683 2.70821,6.14707 2.03567,3.55695 4.99367,6.55766 7.95531,9.14304 4.54181,-0.93523 4.10143,-6.11079 2.0487,-9.2074 -4.83031,-7.49879 -7.97898,-15.85519 -10.38934,-24.38342 -2.09268,0.69772 0.85696,5.39346 0.97443,7.50586 1.98884,5.482 3.78826,10.64013 6.98565,15.68513 0.88823,1.94191 3.71681,6.18353 1.43595,6.99047 -0.12624,-3.61843 -2.16677,3.17195 -3.87112,-1.3205 -5.15829,-5.13288 -7.9715,-12.87123 -9.54904,-19.30212 -2.1946,-3.74668 -1.33858,-9.77377 -4.93184,-12.50676 z m -16.589846,0.59766 c -0.320872,0.99893 -0.235949,2.5923 -1.24241,3.51397 0.367155,-1.00232 1.175342,-2.43922 0.941364,-2.91442 0.529621,0.0664 -0.53821,-0.5714 0.301046,-0.59955 z m 33.386716,0.89258 c -1.3159,1.49564 0.95366,3.45197 1.32365,5.1618 2.41197,5.30027 4.77647,9.82462 6.22344,15.50066 0.35373,1.88614 0.20353,4.39668 -1.83578,4.83477 -0.47836,3.29918 4.7695,-0.17198 3.85538,-2.41793 -0.94555,-8.17887 -6.07274,-15.03431 -8.75692,-22.76439 l -0.33203,-0.25195 c -0.11084,0.0586 -0.36748,-0.13351 -0.47774,-0.063 z m 11.7461,7.60742 c -1.24866,1.44194 -2.59534,3.1145 -3.35108,4.80347 1.81948,1.57591 5.34328,-3.41838 3.35108,-4.80347 z m 95.34179,0.66797 c 0.16251,1.30898 -0.20999,10.61547 -1.79149,4.94543 0.7186,-1.55595 0.79921,-3.63319 1.79149,-4.94543 z m -59.6582,0.60547 c -0.69548,4.15136 -2.98142,8.88846 -4.16448,13.20492 -0.94459,2.3508 -0.53642,-3.30172 0.13295,-4.4166 1.11121,-3.10075 1.43794,-6.48847 4.03153,-8.78832 z m -70.986328,2.5 c 1.378616,0.41915 -0.64948,2.86056 -0.841839,3.93965 -0.733146,2.40594 -0.327698,-3.96071 0.841839,-3.93965 z m -58.46289,0.0742 c 0.968715,0.41238 -0.643315,2.53118 -0.373109,3.63732 -0.774768,2.39057 -0.150851,5.43704 -0.735282,8.10958 -1.772905,-2.41729 -2.439001,2.2078 -2.474611,3.56072 -0.615928,2.01695 -0.605671,4.13694 -1.0884,5.94582 -1.013254,-4.6595 -1.898651,-9.5061 0.992542,-13.67488 1.082394,-2.66034 2.273871,-5.02735 3.67886,-7.57856 z m 186.058598,0.72265 c -0.0514,1.0918 -0.21091,0.31955 0,0 z m -151.419926,0.51368 c 0.120597,1.84509 0.699341,4.13287 0.618968,6.19581 -2.280996,-0.71655 -2.3086,3.40884 -2.553138,5.13161 -0.679738,5.10486 -1.523935,9.82145 -4.051001,14.67524 -0.989089,2.84632 -3.64107,-2.22147 -5.068501,0.1286 -0.253573,0.68572 -1.071328,4.62638 -1.498326,2.40881 2.290087,-4.74224 2.218409,-10.67225 5.791757,-14.71871 -0.60663,-1.08784 1.784658,-1.67993 1.175962,-2.68681 -0.334131,-0.55451 1.470669,-1.58433 0.86317,-1.77232 1.445441,-3.2197 3.110053,-6.34621 4.721109,-9.36223 z m 152.128906,2.71875 c 0.33469,3.65911 -1.33331,8.56462 -3.49255,11.25776 1.20578,-3.59017 1.03536,-8.12161 3.49255,-11.25776 z m -128.054688,0.89453 c 1.226064,2.4083 0.315758,6.57487 0.169553,9.13693 -0.644315,-3.02242 -1.879336,-6.07088 -0.169553,-9.13693 z m -16.492187,0.68164 c -0.172825,2.65763 -0.715703,0.51812 0,0 z m 147.804685,0.0156 c 0.32729,1.988 -0.3589,4.71107 -1.37166,5.83979 0.71887,-1.84049 0.65547,-4.0478 1.37166,-5.83979 z m -150.912107,1.19727 c 0.926454,1.06248 -0.861443,2.14795 0,0 z m 83.396487,0.6875 c 0.61123,0.42359 1.4407,0.004 0.89379,1.34896 0.21065,1.93175 -0.69582,4.48721 -1.57585,1.81582 -1.22727,-1.15495 -0.5668,-2.59458 0.68206,-3.16478 z m -61.099612,1.80859 c 0.86177,2.56227 -0.332389,0.34316 0,0 z M 222.9707,226.9375 c 0.71902,0.32247 -0.7747,1.50797 0,0 z m -145.433591,0.20703 c 1.3891,0.30269 1.78079,3.33804 3.048922,2.74392 0.582898,0.56442 -0.849864,0.9322 0.478469,1.72721 -0.614231,0.58442 0.758687,3.4839 -0.699041,3.9403 -2.70459,-0.96723 0.668643,5.15435 -1.728622,1.46144 -0.604598,-0.98408 -1.663932,-2.99505 -1.267672,-3.89978 0.457288,1.62265 2.628659,-0.43462 1.931784,-0.89513 0.614665,-2.6514 -4.696216,-4.10356 -1.76384,-5.07796 z m -6.816406,0.0391 c 0.908789,0.7241 1.53106,2.2848 1.145857,3.56142 0.77802,4.34771 1.506623,9.71731 -1.584345,13.30726 -1.013482,1.02937 -3.660301,3.45159 -4.355731,1.2405 2.197272,-4.31944 3.895133,-10.27403 4.175727,-14.45388 -0.438233,-1.58045 0.652578,-2.34768 0.514234,-3.15327 -0.414719,-0.0744 0.34687,-0.21718 0.104258,-0.50203 z m 151.935547,1.03125 c 0.43579,3.70523 -1.44577,7.71897 -3.85595,10.52944 0.13324,1.68014 2.33572,-2.07735 1.25042,1.0975 -0.19192,2.53769 -3.27603,3.64859 -3.18337,5.3869 -1.55215,3.07855 -5.10456,2.2098 -1.66599,-0.53121 1.9466,-3.17754 2.16521,-6.2692 4.36263,-9.54579 1.16287,-2.25071 2.51262,-4.71705 3.09226,-6.93684 z m -130.105469,1.51368 c 1.131504,2.94304 1.429104,7.85662 2.287109,10.90538 0.42639,1.83516 1.190722,3.92512 1.515391,5.72017 0.198779,1.88055 0.78434,3.63784 -1.338386,3.41585 -1.284363,-0.16406 -3.537455,0.14237 -3.111423,-2.34025 -1.125888,-5.90393 -1.052635,-12.44609 0.647309,-17.70115 z m 2.28711,1.89453 c 0.07408,1.15176 0.04311,0.581 0,0 z m 12.226559,0.0547 c -1.18227,0.3369 -5.04393,3.80124 -1.99789,3.3402 0.949,-0.35666 3.87972,-2.63498 1.99789,-3.3402 z m 61.92383,0.4668 c 3.0964,2.47156 0.63935,8.05486 -0.9746,11.03957 -0.1971,1.57192 -2.04582,3.3295 -2.59741,5.68827 -1.57571,-1.42473 -0.76568,-3.26377 -0.56378,-4.97745 -4.01556,-3.57695 -0.33133,-10.41972 4.13579,-11.75039 z m -15.67383,0.40039 c 2.92025,3.86272 2.95313,9.1665 6.55354,12.76795 0.0752,1.73472 4.12217,4.07425 2.68123,4.87134 -2.14829,0.15399 -4.30649,0.88171 -6.45021,1.08938 -0.14607,-1.89152 -0.0466,-6.512 -2.57804,-4.09775 -1.86958,2.74673 -2.89908,7.02778 -5.1936,8.90016 2.54288,-7.67337 4.32127,-15.36007 4.98708,-23.53108 z m 3.60547,0.74414 c 1.23687,0.7814 1.75489,2.62475 2.26597,3.81116 -0.93274,-0.8975 -3.36117,-2.3382 -2.26597,-3.81116 z M 28.591797,234.1524 c 0.900517,3.268 1.132546,7.14787 1.473893,10.3123 0.458834,1.5858 0.305981,4.16096 -1.107541,5.40336 -0.427334,0.75998 -1.204004,2.53427 -2.03901,0.62151 -0.821558,-1.01863 -2.305547,0.41235 -2.837051,-0.30249 -1.673995,-1.35157 -4.251686,-2.29308 -1.505581,-4.43209 2.483355,-3.20691 4.443537,-7.63144 6.01529,-11.60259 z m 4.53125,0.0449 c 1.299191,3.17207 0.736129,5.86688 1.949403,9.47199 0.481651,2.4863 0.589111,5.34962 1.77347,7.91857 -0.221637,1.47293 1.732703,4.70132 -0.398614,5.64567 -1.370973,0.11247 -3.236637,2.63651 -3.697323,2.13743 0.01023,-4.36396 3.392893,-10.20042 -0.478702,-13.71337 -0.305855,-3.83729 0.0096,-7.72979 0.851766,-11.46029 z m 183.564453,2.65234 c -2.32916,5.18624 -9.12715,9.54015 -14.74576,6.78248 -0.74403,-1.52253 -3.67706,-4.20305 -1.70113,-1.06259 0.84369,2.2331 -2.58396,-0.14263 -2.88105,-1.32396 -0.17281,-1.04651 -0.81654,-3.4608 0.59452,-1.70651 6.10912,4.63302 13.91702,2.37688 18.73342,-2.68942 z m -42.99023,0.9082 c 4.10422,0.59781 8.9202,0.60599 12.15909,3.33379 -0.0286,5.09915 -0.77197,10.66739 -2.38487,15.37893 -3.47361,-1.73392 -4.725,4.65397 -6.08001,6.93183 -2.75507,3.64849 -7.3365,7.78265 -12.00986,5.08413 -3.06304,-0.95473 -0.11769,-5.48412 -0.44309,-7.88767 0.0172,-2.69139 0.84662,-3.72297 2.81846,-1.43944 1.53867,2.04211 3.47451,2.80075 5.49797,3.3335 2.17064,-3.79034 -4.48783,-5.03487 -5.58387,-7.84018 1.89914,0.66789 4.56005,3.96252 5.30172,0.36269 -1.14361,-2.29676 -6.8104,-3.11288 -4.19341,-6.23444 1.25921,-3.16377 2.13796,-6.1725 3.10459,-9.20608 0.55134,-0.64037 1.14049,-1.30674 1.81328,-1.81706 z m -36.29493,0.1875 c 0.40364,4.62603 0.6228,9.38709 -0.81747,13.56735 -0.59828,1.20811 -1.35295,2.06939 -2.07395,3.44635 0.91741,-5.71274 2.04577,-11.17337 2.89142,-17.0137 z M 77.503906,238.668 c 2.244929,1.06435 0.05432,2.5287 0,0 z m 31.400394,1.36328 c -2.05512,2.69534 -2.08281,6.5909 -4.51191,9.22983 0.34525,2.87842 3.35467,-1.15393 3.42236,-2.39479 0.78045,-2.20288 3.24912,-5.10894 1.08955,-6.83504 z m 16.86523,1.09961 c -1.5878,2.19702 3.10508,2.65507 4.61941,3.87939 2.58545,2.22774 5.15379,-0.71943 0.83217,-1.43556 -1.89081,-0.65176 -3.49446,-2.16707 -5.45158,-2.44383 z m 89.4668,0.0508 c -0.29859,5.54567 -9.53235,9.76825 -12.82348,4.98656 5.07785,1.2462 9.31838,-1.62093 12.82348,-4.98656 z m -54.32031,1.6543 c 1.1104,0.7574 1.48492,4.80561 0.63449,2.35373 -0.35824,-0.61938 -2.88371,-2.67291 -0.63449,-2.35373 z m -43.92969,1.89258 c -2.68594,2.51888 0.2075,6.93859 0.78287,9.98519 1.00507,2.77333 1.87705,5.56352 2.32183,8.38809 2.72641,1.71638 2.06997,-3.90219 1.03823,-5.30289 -2.2345,-3.78082 -2.96352,-8.70437 -3.85557,-12.91611 l -0.28515,-0.15234 z m -55.853518,1.45898 c 1.472025,0.31095 2.330783,0.90742 0.970552,2.14571 -0.733825,1.92677 -3.249892,1.16784 -1.548831,-1.01303 -0.04552,-0.48645 0.302865,-0.80647 0.578279,-1.13268 z m 23.955079,1.10938 c 3.086701,1.53383 -1.277617,1.84832 -1.178663,0.26489 0.493239,-0.22517 0.632827,0.0653 1.178663,-0.26489 z m -19.316407,0.0137 c 0.661351,0.83537 2.154409,0.004 0.615552,1.01603 -0.705264,0.61325 -4.438087,2.18063 -2.197499,0.12883 0.686069,-0.21772 0.76726,-1.29353 1.581947,-1.14486 z m 145.867186,1.43164 c 1.36692,0.0911 -1.4186,0.18073 0,0 z M 20.556641,249.25 c 0.605092,0.70978 0.7754,-0.12793 1.16089,0.49253 -0.461324,0.45663 0.93936,-0.1595 0.266075,0.49835 1.495287,1.2469 3.83609,3.06981 4.093699,4.79109 -2.465062,-0.69353 -4.66636,-2.15054 -6.514087,-3.63808 0.488984,-0.7475 0.926386,-1.4996 0.993423,-2.14389 z m 133.535159,0.27344 c 1.29517,1.32818 -0.30013,3.54866 -1.75803,3.08404 0.95977,-0.79485 0.87174,-2.39218 1.75803,-3.08404 z m -96.869144,0.20508 c 1.302259,0.37752 0.913105,2.50571 -0.06253,0.83393 -0.263315,-0.29423 -0.03304,-0.56457 0.06253,-0.83393 z m 24.365235,0.68164 c 0.72324,0.26342 3.06666,0.30957 3.65062,0.5984 1.944615,-0.0185 4.095705,1.71384 6.30269,1.91623 1.402166,2.44926 -2.268709,0.14324 -3.023899,0.44037 -2.481063,-0.86298 -6.368161,-0.90633 -7.533807,-2.84912 0.176002,-0.11836 0.416695,-0.0245 0.604396,-0.10588 z m -51.119141,0.6289 c 0.63566,2.81896 0.518877,5.82759 -0.005,8.38985 -0.15925,3.3455 -1.862332,2.02052 -3.013777,0.1133 -0.623819,-0.74615 -1.35992,-2.21414 -1.853469,-2.63712 1.415485,0.65665 3.978278,-0.13672 3.750094,-2.51643 0.138048,-1.35643 0.210821,-2.75023 1.122118,-3.3496 z m 63.240234,0.20313 c 0.65903,0.78543 3.997105,-0.0986 3.231062,1.25029 0.144812,0.42669 0.497588,2.41066 0.733699,3.27427 -1.618861,-0.28184 -4.959656,-0.9066 -4.564996,-3.72723 -0.223657,-0.73937 -0.224204,-0.24443 0.600235,-0.79733 z m 67.099606,0.65234 c 1.09112,0.20825 4.3883,-0.28164 3.44729,1.73735 -2.57097,-2.00549 -4.80698,1.48334 -6.20512,2.00585 -2.13831,-0.48962 -3.21314,-2.61948 -0.0881,-3.33219 1.04403,0.0236 1.86281,-0.40395 2.84589,-0.41101 z m -141.291012,1.4707 c 1.590308,1.10984 2.265899,1.80342 3.456804,2.99409 0.519036,1.0834 2.030899,1.74935 1.892862,2.68428 -1.770353,0.22742 2.07182,2.07572 2.144625,2.92793 1.046648,-0.0285 2.271967,2.31241 1.368905,2.72065 -2.667007,-1.9257 -5.030624,-4.32006 -7.132716,-6.86606 1.182823,0.0411 1.193583,0.14998 1.203165,-0.92205 -0.555457,-1.04637 -1.848841,-0.24987 -1.81676,-1.03693 0.16124,-0.59293 -1.997249,-2.02105 -1.116885,-2.50191 z m -9.783203,0.10157 c -0.9309276,0.79467 2.003143,-0.22106 0,0 z m 192.757815,0.27539 c -3.71787,0.71839 5.17915,1.40798 6.14492,1.22997 5.80069,-0.0582 12.05057,-0.32612 17.77108,0.16054 4.42203,0.0728 10.02033,-0.3521 14.2704,0.77615 3.06713,-0.31795 6.3959,1.13806 9.32329,0.28105 -6.69405,-1.99736 -14.64671,-1.63305 -21.7755,-2.21074 -8.55528,-0.44888 -17.23666,0.42056 -25.73419,-0.23697 z m -48.76563,0.0176 c 1.62398,0.29184 -1.19004,0.4358 0,0 z m 8.36133,0.95312 c 3.22169,1.45116 1.01365,3.05524 -1.38679,1.50762 -0.73705,-1.46558 0.57132,-1.07858 1.38679,-1.50762 z m -160.02539,1 c 0.044733,0.78599 -0.4469728,1.33402 -0.4042691,1.60579 C 1.3948034,256.68422 1.231631,255.51415 2.0625,255.71291 Z m 97.373047,0.75781 c 3.080873,2.48617 5.278563,5.7695 7.739973,8.94031 1.59412,1.50323 4.27409,2.70847 5.5631,3.90868 1.55036,0.28752 -0.12541,0.19106 1.92551,0.94848 2.92734,2.35948 6.51242,0.0325 9.75405,0.49009 -3.20732,6.30109 -12.96694,4.66121 -17.99703,1.37224 -4.50428,-3.97747 -6.14763,-9.95142 -6.985603,-15.6598 z m 57.423833,0.30274 c 0.49524,0.15572 3.93364,0.74475 1.65302,1.78815 -0.69044,-0.23546 -1.90011,-0.86181 -1.65302,-1.78815 z m -60.771489,0.62109 c 2.852612,-0.22622 2.171432,3.10601 3.163977,5.36307 1.152732,4.26328 -1.700196,0.72443 -2.437541,-1.29492 0.503332,-0.98927 -3.479978,-4.29487 -0.726436,-4.06815 z m 72.289059,0.13672 c 1.20982,0.64234 3.77396,3.19009 0.9586,1.27972 -0.10863,-0.27696 -1.97491,-1.18057 -0.9586,-1.27972 z m -7.125,0.37891 c 1.52864,0.6055 -1.36568,0.85433 0,0 z M 40.1875,258.0625 c 1.351819,1.06128 -0.783886,2.93118 0,0 z m 92.08789,3.71289 c -1.18365,1.45321 -0.37083,0.14918 0,0 z m 1.35547,1.05859 c -0.008,2.77408 -3.20548,5.40361 -5.96297,6.2111 0.17536,-1.43889 1.38042,-2.11004 2.25292,-2.48385 1.21786,-0.99275 2.49972,-2.35358 3.71005,-3.72725 z m -25.56055,1.13672 c 1.3451,0.74667 1.64277,0.41141 2.54554,1.40085 2.10869,2.90174 -1.33654,0.069 -2.23479,-0.51153 -0.10588,-0.18083 -1.02196,-0.78926 -0.31075,-0.88932 z m 19.59766,1.44727 c -2.28549,3.91671 -7.81137,5.02592 -11.67422,3.47731 -1.75739,-9.2e-4 -4.01278,-2.00346 -4.05073,-3.40865 4.93474,1.06007 11.01596,2.42923 15.72495,-0.0687 z m 47.16992,2.26562 c -0.78093,3.53985 -2.69059,7.36051 -4.37747,10.79544 -4.04015,-1.72729 -10.06511,0.85685 -12.72072,-2.76566 0.3306,0.76692 1.33331,-1.31426 1.90632,-0.152 2.14583,2.17696 4.22302,-0.87805 6.0279,-1.66671 2.55597,1.57961 5.77009,-0.62153 1.63467,-1.27172 1.04787,0.12787 3.40465,-0.60685 3.02186,-1.9479 1.63048,-0.98405 2.97637,-1.98385 4.50744,-2.99145 z m -11.88672,1.58985 c 5.18119,0.33309 4.99285,2.8413 -0.0253,1.31075 -0.77203,-0.0249 -0.82878,-1.45166 0.0253,-1.31075 z m -33.16406,0.52929 c 0.29508,0.24673 -1.12578,2.35036 -1.8681,2.71622 -1.15674,1.31418 -3.38285,2.68152 -4.4994,1.88538 2.23198,-0.60579 1.92719,-3.98967 3.9026,-3.89916 -0.44716,0.47151 0.76123,-0.3637 2.4649,-0.70244 z m 29.74023,1.5918 c 0.8004,1.41702 1.77437,0.44977 2.72489,1.83535 0.59024,4.32289 -5.26196,-1.50178 -2.72459,-1.83406 z m 4.04297,1.94141 c -0.45573,0.68793 0.0939,-0.002 0,0 z m -6.68945,0.0273 c 2.82086,3.63896 -0.60801,1.61276 0,0 z m -1.86133,0.084 c 0.56725,0.37301 0.78413,0.67139 1.01996,1.69898 -0.31606,-0.40059 -2.25994,-1.25462 -1.01996,-1.69898 z m -35.93164,8.07617 c -3.46929,-0.29157 -1.46797,2.83907 0.94787,1.44785 0.85836,-0.33854 3.54447,0.92167 3.48495,0.31515 3.17988,0.44814 5.60721,0.5825 8.89233,0.58448 1.63496,0.38446 0.26968,-0.38232 2.4554,0.0832 2.27067,-0.13263 4.66179,1.63282 6.40877,5e-4 -3.74471,-2.5734 -10.24766,-0.69535 -14.84589,-1.76616 -2.4492,-0.23081 -4.87794,-0.59376 -7.34343,-0.66503 z m 6.74219,4.22656 c -1.0572,1.32008 1.51833,1.46946 1.79327,1.78811 1.69558,0.60477 3.65319,1.01099 4.96649,1.49604 1.83037,0.47484 4.03502,0.0895 5.28518,1.34788 -2.28533,-0.345 -7.20475,-0.002 -3.92141,2.21471 1.79323,0.73945 2.94382,1.08151 4.77012,1.46962 -0.25095,-0.79122 2.66096,0.43838 3.01411,0.0592 6.7512,-1.65362 -0.8198,-1.28725 -4.00585,-1.90066 -3.09755,-0.0752 -3.63364,-1.80246 -1.20904,-0.76894 0.42905,-0.40011 1.58246,0.20275 1.56319,-0.0573 0.0797,0.88932 2.51056,-0.35749 2.06742,0.37147 1.90362,-0.50661 3.66769,1.1787 4.89103,-0.83922 -4.45871,-2.81183 -10.63816,-2.40209 -15.62584,-4.30636 -1.17201,-0.42367 -2.44526,-0.22242 -3.58867,-0.87452 z"
     style="fill:#000000" />
</svg>
