<?xml version="1.0" encoding="UTF-8" standalone="no"?>
<svg
   width="270"
   height="271"
   viewBox="0 0 270 271"
   fill="none"
   version="1.1"
   id="svg13"
   sodipodi:docname="talking_together.svg"
   inkscape:version="1.4.2 (ebf0e940, 2025-05-08)"
   xmlns:inkscape="http://www.inkscape.org/namespaces/inkscape"
   xmlns:sodipodi="http://sodipodi.sourceforge.net/DTD/sodipodi-0.dtd"
   xmlns="http://www.w3.org/2000/svg"
   xmlns:svg="http://www.w3.org/2000/svg">
  <defs
     id="defs13" />
  <sodipodi:namedview
     id="namedview13"
     pagecolor="#ffffff"
     bordercolor="#000000"
     borderopacity="0.25"
     inkscape:showpageshadow="2"
     inkscape:pageopacity="0.0"
     inkscape:pagecheckerboard="0"
     inkscape:deskcolor="#d1d1d1"
     inkscape:zoom="1.5407407"
     inkscape:cx="-68.149038"
     inkscape:cy="202.5"
     inkscape:window-width="2224"
     inkscape:window-height="1371"
     inkscape:window-x="0"
     inkscape:window-y="25"
     inkscape:window-maximized="0"
     inkscape:current-layer="svg13" />
  <path
     id="path13"
     style="fill:#000000"
     d="m 127.79275,198.2319 c -0.16,-0.797 -0.224,-1.625 -0.128,-1.848 0.064,-0.192 0.255,-0.383 0.382,-0.383 0.128,0 0.479,0.255 0.797,0.542 0.287,0.319 0.638,1.084 0.765,1.689 0.128,0.606 0.478,1.657 0.797,2.295 0.414,0.86 0.51,1.434 0.351,1.912 -0.16,0.414 -0.51,0.829 -0.797,0.956 -0.351,0.16 -0.574,0.096 -0.638,-0.159 -0.063,-0.191 -0.382,-1.116 -0.669,-1.976 -0.319,-0.893 -0.701,-2.231 -0.86,-3.028 z m 4.143,-1.53 c -0.351,-0.828 -0.574,-1.689 -0.446,-1.912 0.095,-0.255 0.414,-0.383 0.701,-0.319 0.287,0.064 0.605,0.319 0.765,0.574 0.127,0.255 0.51,1.115 0.86,1.912 0.351,0.797 0.733,1.881 0.861,2.391 0.095,0.509 0.797,2.167 1.498,3.665 0.701,1.498 1.338,3.059 1.434,3.506 0.064,0.446 0.159,1.083 0.191,1.434 0.032,0.414 -0.159,0.669 -0.574,0.733 -0.478,0.064 -0.764,-0.191 -1.051,-0.956 -0.255,-0.574 -0.638,-1.562 -0.861,-2.168 -0.223,-0.605 -0.924,-2.39 -1.562,-3.983 -0.605,-1.594 -1.147,-2.964 -1.147,-3.124 0,-0.127 -0.287,-0.892 -0.669,-1.753 z m 5.577,-1.338 c -0.446,-1.148 -0.765,-2.486 -0.733,-2.964 0,-0.638 0.16,-0.861 0.51,-0.797 0.255,0.064 1.179,1.721 2.04,3.665 0.86,1.976 1.562,3.825 1.562,4.08 0,0.286 -0.255,0.446 -0.702,0.382 -0.414,-0.032 -0.924,-0.51 -1.306,-1.179 -0.319,-0.606 -0.956,-2.04 -1.371,-3.187 z m -28.62,-0.765 c 0.828,-1.881 1.498,-2.964 2.008,-3.219 0.414,-0.223 0.892,-0.351 1.083,-0.255 0.16,0.063 0.287,0.35 0.255,0.605 -0.032,0.255 -0.255,0.765 -0.51,1.148 -0.286,0.414 -0.605,1.816 -0.765,3.123 -0.159,1.307 -0.286,2.199 -0.318,1.976 0,-0.191 -0.255,-0.382 -0.51,-0.382 -0.255,0 -0.829,0.223 -1.275,0.478 -0.733,0.446 -0.829,0.414 -0.988,-0.096 -0.128,-0.319 0.319,-1.721 1.02,-3.378 z m -3.793,-3.379 c 0.287,-0.446 0.829,-1.115 1.179,-1.466 0.383,-0.382 0.988,-0.701 1.403,-0.733 0.382,-0.032 0.701,0.032 0.701,0.128 0,0.095 -0.414,0.765 -0.893,1.498 -0.509,0.765 -1.306,2.167 -1.752,3.123 -0.479,0.956 -1.02,2.454 -1.212,3.347 -0.318,1.498 -0.414,1.593 -1.434,1.657 -0.605,0.064 -1.083,0.032 -1.083,-0.064 0,-0.095 0.573,-1.625 1.306,-3.442 0.701,-1.785 1.498,-3.601 1.785,-4.048 z m -22.596701,-22.373 c 0.988,-0.192 2.6135,-0.765 3.5696,-1.275 0.9562,-0.478 1.8486,-0.893 2.0079,-0.893 0.1275,0 0.2231,0.224 0.2231,0.478 0,0.255 0.2231,0.479 0.4781,0.479 0.255,0 0.4781,0.127 0.4781,0.318 0,0.16 -0.3506,0.67 -0.7968,1.116 -0.4462,0.446 -1.6892,1.211 -2.7728,1.721 -1.1155,0.478 -2.6772,1.052 -3.5059,1.275 -0.8605,0.191 -2.1035,0.828 -2.8047,1.37 -0.8286,0.669 -1.4023,0.924 -1.5617,0.733 -0.1593,-0.191 -0.3187,-0.669 -0.3505,-1.115 -0.0319,-0.447 -0.0638,-1.116 -0.0319,-1.53 0.0319,-0.51 0.4462,-0.924 1.6254,-1.498 0.8924,-0.446 2.4223,-0.956 3.4421,-1.179 z m 0,-12.621 c -0.733,-0.733 -0.733,-0.733 -0.0956,-1.243 0.51,-0.383 1.1793,-0.447 3.3465,-0.287 1.498,0.127 2.8047,0.319 2.9322,0.446 0.1275,0.127 -0.0319,0.542 -0.3187,0.892 -0.4462,0.574 -0.9562,0.702 -2.8366,0.797 -2.0716,0.128 -2.3903,0.064 -3.0278,-0.605 z m 40.635701,-12.111 c -0.573,-0.542 -1.051,-1.18 -1.051,-1.339 0,-0.191 0.35,-0.319 0.796,-0.319 0.447,0 0.861,0.096 0.925,0.223 0.063,0.16 1.912,1.148 4.079,2.263 2.932,1.498 4.494,2.072 6.151,2.327 1.243,0.191 3.156,0.287 4.303,0.223 1.498,-0.096 2.327,-0.319 3.028,-0.829 0.542,-0.414 1.115,-0.733 1.338,-0.701 0.192,0 1.02,-0.637 1.817,-1.434 0.861,-0.861 1.657,-1.371 1.944,-1.275 0.255,0.096 0.478,0.446 0.478,0.797 0,0.35 -0.605,1.243 -1.338,1.944 -0.765,0.733 -2.168,1.689 -3.124,2.167 -1.657,0.765 -2.04,0.829 -6.533,0.829 -4.112,0 -5.068,-0.096 -6.853,-0.701 -1.147,-0.415 -2.709,-1.275 -3.506,-1.913 -0.765,-0.669 -1.88,-1.689 -2.454,-2.262 z m -4.621,-20.781 c -0.924,-0.892 -1.53,-1.721 -1.53,-2.167 0,-0.382 0.159,-0.701 0.319,-0.701 0.191,0 0.574,0.127 0.892,0.287 0.287,0.159 1.179,0.892 1.976,1.593 0.829,0.765 1.913,1.435 2.55,1.562 0.606,0.096 2.199,0.223 3.538,0.223 2.167,0 2.581,-0.095 4.143,-1.052 0.956,-0.573 1.944,-1.019 2.199,-0.956 0.255,0.064 0.478,0.446 0.478,0.861 0,0.637 -0.382,0.988 -2.231,1.88 -1.848,0.924 -2.677,1.148 -4.781,1.275 -1.402,0.064 -2.836,0 -3.187,-0.191 l -0.052,-0.024 c -0.371,-0.169 -1.092,-0.497 -1.669,-0.709 -0.605,-0.255 -1.785,-1.084 -2.645,-1.881 z m 44.524,-1.179 c 0.893,-0.542 1.881,-1.307 2.199,-1.657 0.319,-0.383 0.829,-0.669 1.116,-0.669 0.287,0 0.669,0.255 0.86,0.541 0.287,0.447 0.287,0.702 0,1.052 -0.191,0.255 -0.924,0.924 -1.625,1.466 -0.701,0.542 -1.912,1.243 -2.709,1.53 -0.797,0.319 -2.709,0.637 -4.303,0.733 -2.677,0.159 -2.996,0.128 -4.621,-0.701 -0.956,-0.478 -2.135,-1.147 -2.614,-1.466 -0.509,-0.351 -0.892,-0.893 -0.892,-1.243 0,-0.383 0.223,-0.638 0.574,-0.638 0.287,0 0.828,0.192 1.179,0.415 0.351,0.255 1.562,0.765 2.709,1.179 1.657,0.606 2.518,0.701 4.303,0.606 1.784,-0.128 2.549,-0.351 3.824,-1.148 z m 38.246,-96.633896 c -1.594,0.0956 -4.526,0.5737 -6.534,0.988 -2.008,0.4462 -3.92,0.8924 -4.239,1.0199 -0.287,0.0956 -0.573,0.3506 -0.605,0.5418 -0.032,0.2231 0.318,0.255 1.02,0.1275 0.605,-0.0956 1.753,-0.3187 2.549,-0.51 0.797,-0.1912 2.008,-0.5099 2.709,-0.7011 0.733,-0.2231 3.188,-0.3825 5.737,-0.3825 3.665,0.0319 4.877,0.1594 6.693,0.7331 1.243,0.3824 2.869,1.0836 3.665,1.5935 0.797,0.51 2.327,1.7848 3.443,2.8684 1.083,1.0837 2.486,2.741 3.091,3.6653 0.606,0.8924 1.817,2.5815 2.709,3.7289 0.861,1.1474 1.594,2.231 1.594,2.3904 0,0.1593 0.318,0.8286 0.701,1.4342 0.382,0.6055 0.956,1.9122 1.307,2.8684 0.318,0.9561 0.701,2.6134 0.828,3.6652 0.16,1.0517 0.67,3.3465 1.148,5.0994 0.478,1.7529 1.466,4.462 2.199,6.0556 0.892,1.8804 1.88,3.4421 2.932,4.4938 0.892,0.9562 2.231,1.9442 3.155,2.3266 0.893,0.3825 2.167,1.0199 2.869,1.3705 0.701,0.3825 1.912,1.1474 2.709,1.6892 1.083,0.7649 1.721,1.5935 2.645,3.3783 1.179,2.2948 1.211,2.486 1.339,6.4381 0.159,3.7608 0.127,4.0795 -0.478,4.6213 -0.351,0.2868 -0.734,1.0518 -0.829,1.6573 -0.128,0.6056 -0.319,1.243 -0.446,1.4342 -0.128,0.1912 -0.702,1.4661 -1.243,2.8684 -0.542,1.4024 -0.988,2.8047 -0.988,3.1234 0,0.2869 -0.383,1.7208 -0.893,3.1238 -0.669,2.008002 -1.083,2.741002 -1.816,3.250006 -0.51,0.351 -1.466,1.116 -2.072,1.69 -0.606,0.573 -2.104,1.561 -3.347,2.231 -1.625,0.828 -2.804,1.211 -4.27,1.37 -1.211,0.096 -2.072,0.351 -2.136,0.606 -0.095,0.287 -0.86,0.35 -3.091,0.191 -1.594,-0.096 -3.506,-0.319 -4.207,-0.478 -0.701,-0.191 -3.41,-0.287 -5.992,-0.223 -2.613,0.063 -4.813,0.191 -4.876,0.35 -0.064,0.128 -0.351,0.223 -0.606,0.223 -0.255,0 -0.86,0.255 -1.37,0.606 -0.478,0.319 -2.008,0.924 -3.411,1.307 -1.434,0.382 -3.442,1.243 -4.557,1.944 -1.084,0.669 -2.167,1.243 -2.391,1.243 -0.191,0 -1.019,0.542 -1.816,1.179 -0.797,0.638 -1.785,1.562 -2.231,2.04 -0.446,0.446 -1.243,1.083 -1.753,1.338 -0.51,0.287 -1.307,0.765 -1.721,1.08399 -0.415,0.319 -0.765,0.861 -0.797,1.211 -0.032,0.351 -0.382,1.084 -0.765,1.594 -0.414,0.51 -0.733,1.052 -0.701,1.211 0,0.127 0.064,0.223 0.159,0.223 0.096,0 0.925,-0.765 1.849,-1.689 0.892,-0.924 2.103,-2.008 2.613,-2.454 0.51,-0.44699 1.594,-1.30699 2.391,-1.91299 0.796,-0.637 2.008,-1.466 2.709,-1.88 0.701,-0.414 2.549,-1.307 4.143,-1.976 1.594,-0.669 2.964,-1.147 3.123,-1.084 0.128,0.096 0.67,-0.063 1.18,-0.318 0.51,-0.255 0.956,-0.606 0.956,-0.797 0,-0.191 0.318,-0.478 0.733,-0.669 0.382,-0.224 1.147,-0.415 1.657,-0.447 0.51,-0.063 1.817,-0.318 2.869,-0.605 1.051,-0.287 2.772,-0.51 3.824,-0.51 1.052,0 2.422,0.159 3.028,0.35 0.605,0.192 1.625,0.574 2.231,0.861 0.605,0.255 2.199,0.574 3.569,0.669 2.136,0.16 2.518,0.128 3.092,-0.446 0.637,-0.574 0.701,-0.574 0.669,-0.064 0,0.362 0.298,0.574 0.893,0.638 0.478,0.064 1.944,-0.032 3.251,-0.191 1.306,-0.16 2.677,-0.51 3.027,-0.734 0.351,-0.254 0.861,-0.446 1.116,-0.446 0.255,0 1.115,-0.733 1.912,-1.625 0.797,-0.893 1.912,-2.486 2.486,-3.57 0.606,-1.083 1.402,-2.486 1.817,-3.091004 0.414,-0.606 0.988,-1.689 1.243,-2.391002 0.287,-0.701 1.02,-3.0593 1.657,-5.2584 0.637,-2.1991 1.37,-4.6851 1.594,-5.5775 0.255,-0.8605 0.51,-2.964 0.573,-4.6213 0.064,-1.9123 -0.063,-3.6652 -0.35,-4.7807 -0.223,-0.9561 -0.861,-2.6135 -1.371,-3.6652 -0.51,-1.0518 -1.179,-2.1991 -1.498,-2.5497 -0.318,-0.3506 -1.147,-1.0199 -1.848,-1.498 -0.701,-0.478 -2.486,-1.4342 -3.984,-2.1354 -1.498,-0.6693 -3.187,-1.6573 -3.793,-2.1353 -0.574,-0.51 -1.53,-1.7211 -2.103,-2.6772 -0.542,-0.9562 -1.371,-2.7728 -1.849,-3.9839 -0.478,-1.2112 -1.147,-3.4422 -1.53,-4.9401 -0.35,-1.498 -0.924,-3.4102 -1.243,-4.3026 -0.318,-0.8606 -1.02,-3.0278 -1.593,-4.7807 -0.542,-1.753 -1.148,-3.474 -1.339,-3.8246 -0.191,-0.3506 -1.243,-1.7848 -2.295,-3.1871 -1.083,-1.4024 -2.231,-2.9641 -2.581,-3.5059 -0.319,-0.5099 -1.562,-1.8804 -2.709,-3.0278 -1.148,-1.1473 -2.773,-2.4541 -3.665,-2.9321 -0.861,-0.4462 -2.678,-1.1155 -3.984,-1.4661 -1.307,-0.3506 -2.901,-0.7012 -3.506,-0.7649 -0.606,-0.0638 -2.391,-0.0319 -3.984,0.0956 z m -13.44926,3.473137 c -0.127,0.0318 -1.69036,0.57484 -3.44336,1.24414 -1.753,0.6693 -3.98345,1.37065 -4.93945,1.59375 -0.956,0.1912 -2.74137,0.733488 -3.98437,1.179688 -1.243,0.4462 -2.6775,0.922631 -3.1875,1.082031 -0.51,0.1275 -1.59268,0.510728 -2.38868,0.861328 -0.797,0.3506 -2.2305,0.892238 -3.1875,1.210938 -0.956,0.3187 -3.21915,1.275568 -5.03515,2.167968 -1.817,0.8924 -3.50672,1.911219 -3.76172,2.261719 -0.255,0.3825 -1.14756,0.829634 -1.97656,1.052735 -0.829,0.223099 -2.61318,0.382262 -3.95118,0.414062 -1.371,0 -3.60145,-0.223616 -4.93945,-0.478516 -1.785,-0.3506 -3.09259,-0.859553 -4.55859,-1.751953 -1.147,-0.7011 -2.45364,-1.593412 -2.93164,-2.007812 -0.478,-0.3824 -0.98944,-1.051847 -1.14844,-1.498047 -0.16,-0.4462 -0.89245,-1.11695 -1.68945,-1.53125 -1.115,-0.5737 -2.26122,-0.796431 -5.44922,-1.019531 l -4.08008,-0.31836 c -3.474,1.466 -4.55659,1.91211 -4.68359,1.91211 -0.159,0 -0.89346,0.318771 -1.68946,0.701171 -0.797,0.382501 -2.933,1.912257 -4.75,3.410157 -1.817,1.498 -3.37786,2.900497 -3.50586,3.091797 -0.096,0.1912 -0.41417,0.477318 -0.70117,0.636718 -0.287,0.1593 -1.08416,1.02036 -1.78515,1.88086 -0.701,0.8924 -1.62357,2.230543 -2.10157,3.027344 -0.447,0.7968 -1.46692,2.454915 -2.29492,3.666015 -0.797,1.2111 -1.62736,2.804759 -1.81836,3.505859 -0.191,0.701201 -0.76344,2.548979 -1.27344,4.142579 -0.701,2.0716 -1.02039,3.953315 -1.27539,6.853515 -0.159,2.1992 -0.38176,4.206038 -0.50976,4.460938 -0.095,0.255 -0.22291,0.764634 -0.25391,1.115234 -0.064,0.3506 -0.16136,1.180308 -0.19336,1.84961 -0.063,0.637399 -0.19136,1.179687 -0.31836,1.179687 -0.160001,0 -0.223401,0.380725 -0.191401,0.890625 0.032,0.4781 -0.15786,2.168769 -0.38086,3.730469 -0.223,1.5616 -0.60708,3.249765 -0.83008,3.759765 -0.255,0.478 -0.44531,1.17945 -0.44531,1.59375 -0.032,0.4462 -0.89243,1.561897 -2.48633,3.091797 -1.3386,1.3386 -3.15448,2.772 -4.04688,3.25 -0.8605,0.4781 -2.48671,1.30781 -3.57031,1.84961 -1.1155,0.5099 -2.39104,0.955078 -2.86914,0.955078 -0.6374,0 -1.01844,0.223175 -1.27344,0.796875 -0.223,0.4466 -0.41601,0.893734 -0.41601,1.052734 l 0.0019,0.002 c 0.01133,0.132405 0.73927,0.607766 1.65625,1.082031 0.9243,0.478007 2.83598,1.178547 4.23828,1.560547 1.4024,0.383 3.69731,0.79658 5.09961,0.89258 l 2.55078,0.19141 c 0.1594,1.976004 0.06295,3.538254 -0.16015,4.781254 -0.2231,1.243 -0.63824,3.21793 -0.95704,4.46093 -0.3187,1.243 -0.76387,2.6775 -0.95507,3.1875 -0.1912,0.51 -0.63771,1.56313 -0.98828,2.32813 -0.31871,0.733 -0.60547,1.65631 -0.60547,2.07031 0,0.383 -0.09516,0.82808 -0.22266,0.95508 -0.1274,0.16 -0.25586,0.38351 -0.25586,0.47851 -0.0319,0.128 -0.12771,0.95641 -0.28711,1.81641 -0.1275,0.892 -0.44627,2.3275 -0.70117,3.1875 -0.255,0.893 -0.44531,2.48556 -0.44531,3.60156 0,1.753 -0.06302,1.97656 -0.63672,1.97656 -0.3506,0 -1.46708,0.22277 -2.45508,0.50977 -1.0198,0.286 -2.70797,0.70203 -3.75977,0.95703 -1.0517,0.255 -3.12514,0.82669 -4.62304,1.30469 -1.498,0.447 -3.6,1.24365 -4.6836,1.72265 -1.5936,0.733 -2.77342,1.68939 -5.57812,4.52539 -1.9442,1.94402 -4.01561,4.30211 -4.62109,5.16211 -0.5737,0.893 -1.05274,1.69061 -1.05274,1.84961 0,0.127 -0.47653,0.98811 -1.08203,1.91211 -0.5737,0.893 -1.21104,2.16744 -1.40234,2.77344 -0.1912,0.606 -0.73349,3.12313 -1.17969,5.57813 -0.7649,4.111 -0.79787,4.71543 -0.44727,7.64843 0.1912,1.753 0.41417,4.49369 0.50977,6.05469 0.1594,2.454 0.09714,3.1238 -0.47656,4.7168 -0.3825,0.988 -0.82834,1.81836 -1.01954,1.81836 -0.1912,0 -0.32031,0.22156 -0.32031,0.47656 0,0.255 -0.89091,1.40278 -1.97461,2.55078 -1.1473,1.147 -2.3585,2.10322 -2.80468,2.19922 -0.4462,0.063 -2.00786,0.63619 -3.50586,1.24219 -1.4979,0.605 -3.73031,1.46611 -4.94141,1.91211 -1.2111,0.478 -2.7402,1.211 -3.3457,1.625 -0.6056,0.447 -1.81659,1.30686 -2.70899,1.88086 -0.8605,0.605 -2.42215,2.0405 -3.41015,3.1875 -1.6573,1.912 -1.97685,2.51732 -2.96485,5.73632 -0.6055,1.944 -1.24229,4.7823 -1.43359,6.2793 -0.1593,1.498 -0.22396,3.79261 -0.16016,5.09961 0.0318,1.307 0.25542,3.60161 0.47852,5.09961 0.2231,1.498 0.73414,3.47344 1.14843,4.39844 0.41432,0.892 0.76368,1.75211 0.76368,1.91211 0,0.127 0.60619,1.37043 1.37109,2.77343 0.733,1.402 1.81562,3.18543 2.35742,3.98243 0.5418,0.796 1.56257,2.00698 2.26367,2.70898 0.7012,0.701 1.94419,1.84783 2.80469,2.54883 0.8605,0.701 2.42281,1.72242 3.47461,2.23242 1.0517,0.51 2.10307,1.11489 2.32617,1.33789 0.1912,0.223 0.70094,0.51047 1.11524,0.60547 0.3825,0.128 0.92478,0.38247 1.17969,0.60547 0.25499,0.255 1.65694,0.73298 3.12304,1.08398 2.2629,0.573 2.99653,0.63781 5.57813,0.38281 1.8486,-0.191 4.2384,-0.73379 6.4375,-1.46679 2.1673,-0.701 4.5902,-1.81619 6.375,-2.86719 1.5617,-0.957 3.37692,-2.23069 3.98242,-2.80469 0.6056,-0.606 2.072,-1.81818 3.2832,-2.74218 1.1792,-0.892 2.26378,-1.625 2.45508,-1.625 0.1912,0 0.41297,-0.19182 0.57227,-0.38282 0.1275,-0.223 1.02036,-1.05165 1.97656,-1.84765 0.9561,-0.765 3.25101,-2.1995 5.09961,-3.1875 2.1354,-1.115 3.69723,-1.72071 4.30273,-1.72071 0.5099,0.032 1.68833,-0.0959 2.54883,-0.25586 1.1469,-0.255 2.64577,-0.22375 5.259771,0.0312 2.008,0.223 4.39681,0.60754 5.25781,0.89454 0.892,0.255 2.45581,1.0502 3.50781,1.7832 1.051,0.702 2.5487,1.75292 3.3457,2.29492 0.797,0.574 3.53739,2.0402 6.15039,3.2832 2.582,1.275 4.97127,2.29493 5.32227,2.29493 0.425,0 0.61722,0.18096 0.57422,0.54296 -0.095,0.446 0.28642,0.60513 1.8164,0.82813 1.243,0.191 2.8998,0.15955 4.7168,-0.0644 1.53,-0.191 3.0277,-0.47772 3.3457,-0.63672 0.28701,-0.159 0.89385,-0.41542 1.33985,-0.60742 0.446,-0.191 1.30711,-0.38057 1.91211,-0.47657 0.606,-0.095 2.0405,-0.73379 3.1875,-1.46679 1.148,-0.701 2.54906,-1.72168 3.12304,-2.26368 0.54201,-0.51 1.24305,-0.95507 1.49805,-0.95507 0.255,0 1.36988,-1.05193 2.42188,-2.29493 1.084,-1.275 2.10347,-2.35862 2.23047,-2.39062 0.159,-0.064 0.2871,-0.34972 0.2871,-0.63672 0,-0.319 0.47874,-1.11691 1.05274,-1.75391 0.541,-0.638 1.59197,-1.84898 2.29297,-2.70898 0.702,-0.829 1.62701,-2.03853 2.04101,-2.64453 0.414,-0.605 1.43347,-2.48753 2.23047,-4.14453 0.829,-1.657 1.72082,-3.88746 2.00781,-4.93946 0.28701,-1.052 0.76574,-2.83637 1.05274,-3.98437 0.319,-1.275 0.70083,-4.93839 0.92383,-9.40039 0.223,-4.016 0.57342,-7.61775 0.73242,-7.96875 0.191,-0.35 1.11627,-1.33747 2.07227,-2.23047 0.95599,-0.86 2.61326,-2.19864 3.69726,-2.93164 1.083,-0.765 2.07047,-1.37109 2.23047,-1.37109 0.127,0 0.98811,-0.22352 1.91211,-0.47852 1.179,-0.351 1.6582,-0.63753 1.6582,-1.01953 -0.031,-0.319 -0.51023,-0.89339 -1.11523,-1.27539 -0.606,-0.414 -1.40291,-0.73242 -1.75391,-0.73242 -0.351,0 -1.7855,-0.57439 -3.1875,-1.27539 -1.944,-0.988 -2.708,-1.56113 -3.25,-2.45313 -0.51,-0.829 -0.70117,-1.68869 -0.70117,-2.80469 0,-0.86 0.22231,-2.23229 0.44531,-3.02929 0.223,-0.86 0.83055,-1.81468 1.43555,-2.38868 0.574,-0.51 1.9758,-1.40256 3.0918,-1.97656 1.083,-0.542 2.6127,-1.56147 3.3457,-2.23047 0.765,-0.669 1.65706,-1.91364 2.03906,-2.80664 0.606,-1.37 0.66922,-2.07081 0.57422,-5.25781 -0.064,-2.008 -5e-5,-3.8559 0.12695,-4.04687 0.128,-0.223 0.12921,-0.60588 0.0332,-0.79688 -0.096,-0.223 -0.0328,-0.73323 0.1582,-1.11523 0.287,-0.606 0.25505,-0.73243 -0.12695,-0.73243 -0.2311,0 -0.43824,-0.0279 -0.47461,-0.0566 v -0.002 l -0.002,-0.002 v -0.002 h -0.002 v -0.002 c 0,-0.064 0.22352,-0.76475 0.47852,-1.59375 0.255,-0.86 0.63687,-1.5293 0.79687,-1.5293 0.159,0 0.31836,-0.19181 0.31836,-0.38281 -0.031,-0.223 0.19252,-0.63758 0.47852,-0.89258 0.287,-0.255 0.50976,-0.35115 0.50976,-0.16015 0,0.192 -0.22276,0.9569 -0.50976,1.7539 -0.25003,0.78455 -0.40698,1.44585 -0.32032,1.52735 l 0.002,0.002 c 0.095,0.032 0.35047,-0.31887 0.60547,-0.79688 0.255,-0.51 0.57221,-1.46696 0.69921,-2.16796 0.192,-0.956 0.16005,-1.21051 -0.12695,-1.01954 -0.255,0.12803 -0.38086,-6e-5 -0.38086,-0.41406 0,-0.351 0.22352,-1.08375 0.47852,-1.59375 0.255,-0.51 0.63592,-0.95508 0.79492,-0.95508 0.16,0 0.25516,-0.12831 0.16016,-0.32031 -0.096,-0.191 10e-4,-0.31836 0.16015,-0.31836 0.159,0 0.82785,-0.89161 1.46485,-1.97461 0.638,-1.116 1.27434,-2.07197 1.40234,-2.16797 0.127,-0.095 0.57328,-0.76529 0.98828,-1.52929 0.414,-0.733 0.63777,-1.46675 0.50977,-1.59375 -0.159,-0.127 -0.7651,0.34978 -1.3711,1.05078 -0.637,0.701 -1.20989,1.43475 -1.33789,1.59375 -0.127,0.192 -0.60598,0.8603 -1.08398,1.5293 -0.51,0.638 -0.89258,1.37075 -0.89258,1.59375 -0.031,0.191 -0.76545,1.08431 -1.68945,1.94531 l -1.65625,1.5625 c -0.287,-2.678 -0.25471,-4.30347 -0.0957,-5.35547 0.16,-1.052 0.41447,-2.16808 0.60547,-2.45508 0.159,-0.319 0.28711,-0.76408 0.28711,-0.95508 0,-0.223 0.44628,-1.33932 0.98828,-2.48632 0.542,-1.14701 1.56047,-3.2191 2.23047,-4.6211 0.669,-1.403 1.56231,-3.06001 1.94531,-3.66601 0.382,-0.605 1.17841,-2.0395 1.81641,-3.1875 0.637,-1.179 1.27309,-3.02578 1.49609,-4.30078 0.319,-1.69 0.31871,-2.99677 0.0957,-5.25977 -0.191,-1.657004 -0.57313,-3.729098 -0.82813,-4.621098 -0.286,-0.861 -0.82719,-2.103484 -1.24219,-2.708984 -0.382,-0.6056 -1.40342,-1.785232 -2.23242,-2.582032 -0.86,-0.7968 -2.42065,-1.976431 -3.47265,-2.582031 -1.051,-0.6374 -2.64586,-1.497709 -3.50586,-1.912109 -0.861,-0.4462 -2.45386,-1.273956 -3.50586,-1.847657 -1.052,-0.5737 -1.97627,-1.11664 -2.07227,-1.24414 -0.095,-0.0956 -0.44587,-0.253356 -0.79687,-0.285156 -0.35,-0.0638 -1.56099,-0.415125 -2.70899,-0.765625 -1.147,-0.3506 -2.54979,-0.606669 -3.09179,-0.542969 -0.574,0.0638 -1.08274,0.0017 -1.17774,-0.189453 -0.064,-0.1912 -1.30744,-0.573878 -2.77344,-0.892578 -1.466,-0.2868 -3.41148,-0.542969 -4.27148,-0.542969 -0.892,0 -3.95156,0.509634 -6.85156,1.115234 -2.901,0.6056 -6.63011,1.497913 -8.28711,2.007813 -1.657,0.5099 -3.66394,1.244553 -4.46094,1.626953 -0.797,0.3825 -2.1683,1.115 -3.0293,1.625 -0.892,0.5418 -2.32454,1.306403 -3.18554,1.720703 -0.892,0.4144 -2.3265,1.242706 -3.1875,1.816406 -0.892,0.6055 -2.67738,1.911741 -3.98438,2.931641 -1.307,0.988 -3.06067,2.358344 -3.88867,3.027344 -0.797,0.638 -2.23005,2.104953 -3.12305,3.251953 -0.924,1.148 -2.03933,2.708864 -2.48633,3.505864 -0.446,0.797 -1.14654,1.78447 -1.56054,2.23047 -0.383,0.446 -0.92444,1.30711 -1.14844,1.91211 -0.255,0.606 -0.89159,2.0722 -1.43359,3.2832 -0.573,1.179 -1.01954,2.36024 -1.01954,2.61524 0,0.255 -0.0966,0.53951 -0.2246,0.60351 -0.159,0.064 -0.38177,0.51149 -0.50977,1.02149 -0.159,0.51 -0.60478,1.46576 -1.05078,2.13476 -0.37609,0.57819 -0.647,1.07942 -0.62305,1.16797 l 0.002,0.002 v 0.002 l 0.002,0.002 h 0.002 v 0.002 l 0.002,0.002 h 0.002 0.002 l 0.002,0.002 h 0.002 0.002 0.002 0.002 l 0.002,0.002 h 0.002 v 0.002 l 0.002,0.002 v 0.002 0.002 c 1.4e-4,8.8e-4 -7e-5,0.005 0,0.006 -0.001,0.12897 -0.51547,0.99555 -1.22071,2.02344 -0.733,1.116 -2.13579,2.90137 -3.09179,3.98437 -0.956001,1.084 -1.847821,1.94336 -2.007821,1.94336 -0.127,0 -0.8294,0.38258 -1.5625,0.89258 -0.733,0.478 -1.59341,1.1146 -1.91211,1.4336 -0.3188,0.287 -0.73262,0.44731 -0.92382,0.32031 -0.1912,-0.16 -0.25521,-0.89345 -0.19141,-1.68946 0.0637,-0.79698 0.41447,-2.64653 0.79687,-4.14453 0.3506,-1.498 0.92415,-3.85581 1.30664,-5.25781 0.35051,-1.403 1.0832,-4.43035 1.625,-6.69335 0.54211,-2.263 1.21255,-5.64224 1.43555,-7.49024 0.255,-1.849 0.31745,-3.569224 0.18945,-3.824224 -0.15899,-0.255 -0.54112,-0.70203 -0.82812,-0.95703 -0.447,-0.35 -1.40147,-0.476564 -3.95117,-0.476564 -2.8365,0 -3.63396,-0.128375 -4.87695,-0.734375 -0.86051,-0.382 -1.5293,-0.828531 -1.5293,-1.019531 0,-0.191 0.89231,-0.764841 2.00781,-1.306641 1.0836,-0.51 2.83687,-1.592522 3.88867,-2.357422 1.0518,-0.7649 2.58156,-2.073093 3.41016,-2.933594 0.7971,-0.828597 1.81572,-2.16609 2.26172,-2.96289 0.414,-0.7968 0.988391,-2.134944 1.275391,-3.027344 0.255,-0.8605 0.57392,-2.518615 0.66992,-3.666016 0.127,-1.147399 0.35077,-2.995178 0.50977,-4.142578 0.191,-1.1473 0.70123,-4.302618 1.11523,-7.011718 0.415,-2.709 1.20995,-6.662125 1.75195,-8.765625 0.542,-2.1035 1.27521,-4.461013 1.65821,-5.257813 0.382,-0.7968 1.40145,-2.391012 2.23047,-3.570312 0.828,-1.2111 1.52929,-2.198569 1.52929,-2.230469 v -0.002 -0.002 -0.002 -0.002 c 0.01,-0.09792 0.62975,-0.749584 1.33985,-1.521484 0.765,-0.7968 2.35956,-2.519472 3.60156,-3.826172 1.243,-1.3386 2.58134,-2.676744 3.02734,-3.027344 0.446,-0.3506 1.52963,-1.147756 2.39063,-1.785156 0.892,-0.6056 2.67737,-1.464606 3.98437,-1.878906 1.88,-0.6056 3.12333,-0.764975 5.73633,-0.796875 3.028,0 3.47309,0.06377 4.62109,0.796875 0.701,0.4462 2.42222,1.657284 3.82422,2.708984 1.403,1.0518 3.47505,2.389841 4.62305,2.931641 1.434,0.7012 2.96345,1.115544 4.93945,1.402344 1.784,0.2231 3.72961,0.286353 5.09961,0.126953 1.817,-0.2231 2.93069,-0.605619 6.05469,-2.199219 2.103,-1.0836 4.39861,-2.199428 5.09961,-2.486328 0.701,-0.2868 2.35806,-0.891141 3.66406,-1.369141 1.307,-0.4781 2.51799,-0.956584 2.70899,-1.083984 0.192,-0.1275 2.04053,-0.797497 4.14453,-1.466797 2.103,-0.6693 4.90784,-1.753225 6.21484,-2.390625 1.306,-0.6693 3.31369,-1.560959 4.42969,-1.943359 1.115,-0.4144 2.16717,-0.955285 2.32617,-1.146485 0.128,-0.2231 0.1612,-0.416015 0.0332,-0.416015 z m -33.08203,52.429687 c 1.561,0.0637 3.53624,0.317916 4.36524,0.541016 0.829,0.2231 1.6259,0.318906 1.7539,0.191406 0.159,-0.1593 0.38027,-0.12805 0.57227,0.03125 0.191,0.1594 1.46714,0.511378 2.86914,0.830078 1.753,0.3824 3.8242,1.242231 6.5332,2.644531 2.199,1.1155 4.49461,2.327135 5.09961,2.677735 0.606,0.3187 1.65692,0.92424 2.29492,1.30664 0.669,0.3825 1.91169,1.370619 2.80469,2.199219 0.86,0.8606 1.88022,2.071584 2.19922,2.708985 0.35,0.6696 0.85948,2.421921 1.14648,3.919918 0.319,1.561004 0.47882,3.313584 0.38282,4.142584 -0.095,0.797 -0.31877,2.35786 -0.50977,3.50586 -0.224,1.306 -0.70239,2.61481 -1.27539,3.50781 -0.51,0.796 -2.03916,3.79041 -3.41016,6.69141 -1.338,2.89999 -2.70934,5.60868 -3.02734,6.05468 -0.287,0.446 -0.79698,1.72214 -1.08398,2.86914 -0.287,1.148 -0.73208,3.15494 -0.95508,4.46094 -0.223,1.307 -0.35232,2.96502 -0.32031,3.66602 0.064,0.701 0.19231,2.1355 0.32031,3.1875 0.159,1.593 0.0955,2.1355 -0.47852,3.1875 -0.383,0.701 -1.14845,1.68801 -1.68945,2.16601 -0.829,0.765 -0.92402,0.95669 -0.54102,1.17969 0.255,0.128 0.38166,0.41447 0.22266,0.60547 -0.128,0.191 -0.44617,0.35156 -0.70117,0.35156 -0.287,0 -0.41436,0.19152 -0.31836,0.47852 0.096,0.287 -0.0333,0.47851 -0.32031,0.47851 -0.255,0 -0.47657,0.0947 -0.47657,0.22266 0,0.159 -0.38257,0.44497 -0.89257,0.66797 -0.47801,0.223 -1.24391,0.38281 -1.75391,0.38281 -0.478,0 -1.91055,0.41503 -3.18555,0.95703 -1.243,0.51 -2.51844,1.21055 -2.77344,1.56055 -0.255,0.319 -1.0517,0.70233 -1.7207,0.86133 -0.669,0.159 -1.34055,0.47742 -1.43555,0.73242 -0.096,0.255 -0.70064,0.70053 -1.30664,1.01953 -0.606,0.319 -1.59301,0.98925 -2.16601,1.53125 -0.542,0.542 -1.2106,0.98828 -1.4336,0.98828 -0.192,0 -1.21317,0.92381 -2.20117,2.00781 -1.019,1.083 -1.84765,2.16642 -1.84765,2.35743 0,0.223 -0.38258,1.02015 -0.89258,1.78515 -0.478,0.765 -0.98869,1.33839 -1.17969,1.27539 -0.191,-0.064 -0.69973,0.41303 -1.17773,1.08203 -0.478,0.67 -1.37057,2.13621 -1.97657,3.28321 -0.606,1.147 -1.62446,3.12418 -2.23047,4.36718 -0.637,1.275 -1.14843,2.54969 -1.14843,2.80469 0,0.255 -0.34967,1.01925 -0.76367,1.65625 -0.415,0.67 -1.18021,1.59427 -1.65821,2.07227 -0.51,0.446 -1.62487,1.46556 -4.04687,3.60156 l -4.01758,0.34961 c -2.199,0.191 -4.23719,0.31986 -4.49219,0.25586 -0.255,-0.064 -1.6895,-0.41463 -3.1875,-0.76563 -1.498,-0.35 -4.14348,-1.14715 -5.89648,-1.78515 -1.753,-0.637 -3.53838,-1.33755 -3.98438,-1.56055 -0.446,-0.223 -1.08359,-0.73223 -1.43359,-1.11523 -0.351,-0.414 -0.76503,-0.9564 -0.95703,-1.2754 -0.191,-0.286 -0.8288,-1.53018 -1.4668,-2.74218 -0.637,-1.211 -1.40125,-2.99417 -1.65625,-3.95117 -0.287,-0.956 -0.85964,-3.0591 -1.30664,-4.6211 -0.446,-1.562 -0.89153,-3.50573 -1.01953,-4.30273 -0.095,-0.796 -0.0308,-2.29371 0.16015,-3.34571 0.19101,-1.052 0.44502,-3.41076 0.54102,-5.25976 0.191,-3.028 0.128,-3.53756 -0.54102,-5.22656 -0.60599,-1.466 -1.46717,-2.61361 -3.82617,-5.09961 -1.689001,-1.785 -3.409471,-3.66383 -3.855471,-4.17383 -0.4145,-0.51 -1.1163,-1.53142 -1.5625,-2.23242 -0.4462,-0.701 -1.08364,-1.72047 -1.40234,-2.23047 -0.5418,-0.925 -0.5405,-0.9561 0.0332,-1.3711 0.3506,-0.223 0.95419,-0.51046 1.40039,-0.60546 0.4462,-0.128 1.62529,-0.66844 2.61329,-1.27344 1.148,-0.638 2.328001,-1.69019 3.125001,-2.74219 0.669,-0.893 2.19795,-3.44162 3.37695,-5.64062 1.179,-2.199 2.48734,-4.71713 2.90234,-5.57813 0.414,-0.892 1.21071,-2.45386 1.72071,-3.50586 0.541,-1.051 1.52846,-2.99673 2.23046,-4.30273 0.701,-1.307 1.59357,-2.93036 1.97657,-3.56836 0.382,-0.637 2.19812,-2.805254 4.07812,-4.781254 1.849,-2.007 4.36783,-4.302911 5.67383,-5.195311 1.275,-0.8924 2.89981,-1.976428 3.63281,-2.486328 0.733,-0.4781 2.0406,-1.114141 2.9336,-1.369141 0.86,-0.2868 2.16618,-0.9888 2.86718,-1.5625 0.701,-0.5736 1.91199,-1.338303 2.70899,-1.720703 0.797,-0.3825 1.65811,-0.669922 1.91211,-0.669922 0.255,0 1.43428,-0.350675 2.61328,-0.796875 1.211,-0.4462 2.6455,-0.796875 3.1875,-0.796875 0.574,0 1.68933,-0.222965 2.48633,-0.509765 0.797,-0.2869 2.42106,-0.700728 3.66406,-0.923828 1.275,-0.255 3.47556,-0.38206 5.10156,-0.31836 z M 91.719349,130.43945 c 0.02246,-1.8e-4 0.04266,-4e-5 0.0586,0.002 0.255,0.031 0.73208,0.50953 1.05078,1.01953 0.3188,0.51 0.92489,1.72028 1.37109,2.61328 0.4462,0.924 1.9114,2.86873 3.25,4.30273 1.339,1.467 2.51949,2.70969 2.646491,2.80469 0.096,0.096 0.63746,0.70178 2.23046,2.55078 l -0.12695,3.56836 c -0.096,2.805 -6.9e-4,4.07983 0.44531,5.67383 0.319,1.147 0.66888,3.56897 0.79688,5.41797 0.127,1.912 0.47812,4.01445 0.82812,4.93945 0.319,0.86 0.79819,2.58122 1.11719,3.82422 0.287,1.243 0.82774,3.02837 1.17774,3.98437 0.383,0.956 0.92514,2.19899 1.24414,2.70899 0.319,0.51 0.70057,1.2752 0.89257,1.6582 0.159,0.414 0.70169,0.98744 1.17969,1.27344 0.51,0.287 1.1783,0.79819 1.5293,1.11719 0.35,0.287 2.19858,1.14665 4.14258,1.84765 1.944,0.734 3.72937,1.40305 3.98437,1.49805 0.255,0.128 0.66838,0.16016 0.85938,0.16016 0.223,-0.032 1.6585,0.22347 3.1875,0.60547 1.562,0.351 3.72895,0.66917 4.87695,0.70117 1.147,0 2.5815,-0.16056 3.1875,-0.35156 0.605,-0.19101 1.72013,-0.41377 2.45312,-0.50977 0.765,-0.096 1.43525,-0.35077 1.53126,-0.50977 0.095,-0.191 0.73259,-0.54187 1.43359,-0.79687 0.701,-0.255 1.27539,-0.63688 1.27539,-0.79688 0,-0.191 0.25401,-0.31836 0.54102,-0.31836 0.34999,0.032 1.05115,-0.7004 1.78515,-1.8164 0.637,-1.02 1.17969,-2.10288 1.17969,-2.42188 0,-0.287 -0.001,-0.63787 -0.0332,-0.79687 0,-0.127 0.0969,-0.28781 0.25586,-0.38281 0.15899,-0.096 0.60528,-0.82846 0.98828,-1.68946 0.382,-0.828 0.70117,-1.5622 0.70117,-1.6582 0,-0.095 0.28672,-0.60328 0.63672,-1.11328 0.31809,-0.46219 0.52966,-0.87453 0.49609,-0.94727 v -0.002 l -0.002,-0.002 h -0.002 v -0.002 h -0.002 l -0.002,-0.002 h -0.002 l -0.002,-0.002 h -0.002 -0.002 -0.002 -0.002 -0.002 -0.002 l -0.002,-0.002 h -0.002 -0.002 l -0.002,-0.002 v -0.002 h -0.002 l -0.002,-0.002 v -0.002 l -0.002,-0.002 c -0.0343,-0.0729 0.17995,-0.48313 0.49805,-0.94531 0.35,-0.51 0.53986,-0.95508 0.38086,-0.95508 -9.9e-4,0 -0.005,1.1e-4 -0.006,0 -0.006,-0.001 -0.0119,-0.004 -0.0156,-0.006 h -0.002 l -0.002,-0.002 -0.002,-0.002 -0.002,-0.002 v -0.002 l -0.002,-0.002 v -0.002 -0.002 -0.002 c -2e-5,-0.001 -1e-4,-0.005 0,-0.006 0.0133,-0.074 0.24766,-0.28538 0.60547,-0.51562 0.414,-0.318 1.53107,-1.75175 2.45507,-3.21875 0.924,-1.434 2.45296,-3.37874 3.37696,-4.30274 0.893,-0.893 2.64717,-2.45415 3.82617,-3.41015 1.179,-0.957 2.13477,-1.84881 2.13476,-2.00781 v -0.002 c 1.2e-4,-0.001 0.002,-0.005 0.002,-0.006 0.0431,-0.14367 0.98032,-0.67474 2.13281,-1.23437 1.211,-0.574 2.6455,-1.33991 3.1875,-1.75391 0.573,-0.415 1.2753,-0.67022 1.5293,-0.57422 0.255,0.096 0.86184,-0.12556 1.33984,-0.47656 0.51,-0.351 1.46502,-0.70208 2.16602,-0.83008 0.702,-0.127 1.56306,-0.35001 1.91406,-0.54101 0.35,-0.192 1.40097,-0.89155 2.29297,-1.56055 0.925,-0.669 1.91297,-1.21094 2.16797,-1.21094 0.382,0 0.44711,0.34846 0.28711,1.81446 -0.095,1.148 -0.54169,2.61367 -1.17969,3.88867 -0.797,1.561 -1.43444,2.29495 -2.77344,3.25195 -0.956,0.701 -2.00717,1.24219 -2.32617,1.24219 -0.287,0 -1.37063,0.86131 -2.39063,1.94531 -0.988,1.051 -2.00646,2.26299 -2.23046,2.70899 -0.191,0.41399 -0.38207,1.65623 -0.41407,2.74023 -0.032,1.115 0.15882,2.64441 0.38282,3.44141 0.223,0.797 0.73323,1.94478 1.11523,2.55078 0.51,0.796 1.43405,1.46692 3.12305,2.29492 1.31807,0.65953 2.38873,1.2891 2.42187,1.42969 v 0.002 0.002 c -0.032,0.16 -0.47678,0.63724 -1.05078,1.11524 -0.574,0.478 -1.37236,0.89258 -1.81836,0.89257 -0.637,0 -0.6994,0.0634 -0.31641,0.31836 0.13672,0.0996 0.21009,0.16782 0.2129,0.20313 v 0.002 l -0.002,0.002 v 0.002 0.002 0.002 l -0.002,0.002 -0.002,0.002 -0.002,0.002 c -0.0351,0.0318 -0.20398,0.009 -0.52539,-0.0586 -0.669,-0.159 -1.05072,0.0629 -2.26172,1.33789 -0.797,0.829 -1.84892,2.2955 -2.29492,3.1875 -0.765,1.53 -0.89269,2.23072 -1.17969,7.01172 -0.159,2.964 -0.44571,6.21558 -0.63671,7.26758 -0.16,1.051 -0.63874,3.56817 -1.05274,5.57617 -0.446,2.008 -0.92444,3.95173 -1.14844,4.30273 -0.191,0.35 -0.63728,1.40293 -0.98828,2.29493 -0.35,0.925 -0.98714,2.23114 -1.36914,2.86914 -0.414,0.669 -1.40101,2.00689 -2.16601,2.96289 -0.765,0.988 -2.04089,2.61401 -2.83789,3.66601 -0.797,1.052 -1.94479,2.64532 -2.55079,3.57032 -0.605,0.892 -1.30434,1.56104 -1.52734,1.49804 -0.192,-0.064 -1.14828,0.57139 -2.07226,1.40039 -0.892,0.829 -2.2643,1.97678 -3.0293,2.55078 -0.733,0.573 -1.4328,1.01954 -1.5918,1.01954 -0.128,0 -0.79705,0.25446 -1.49805,0.60546 -0.701,0.319 -2.35901,0.92485 -3.66601,1.33985 -1.848,0.605 -3.12338,0.76367 -5.60938,0.76367 -2.581,0 -3.37822,-0.095 -3.82422,-0.54102 -0.35099,-0.287 -1.24206,-0.76498 -2.03906,-1.08398 -0.797,-0.319 -2.51917,-1.21156 -3.82617,-1.97656 -1.306,-0.797 -2.96306,-1.65591 -3.66406,-1.87891 -0.701,-0.255 -2.7731,-1.56334 -4.6211,-2.90234 -2.263,-1.657 -3.8584,-2.54894 -4.9414,-2.83594 -0.893,-0.223 -3.09146,-0.60558 -4.93945,-0.89258 -1.849,-0.286 -4.270471,-0.66912 -5.417971,-0.82812 -1.6892,-0.287 -2.48537,-0.2558 -4.23829,0.1582 -1.1793,0.287 -3.18809,0.9897 -4.46289,1.5957 -1.5298,0.733 -2.96423,1.75235 -4.30273,3.02735 -1.0837,1.083 -1.97656,2.13517 -1.97656,2.32617 0.0319,0.223 -0.76461,1.11581 -1.72071,2.00781 -0.9562,0.861 -2.61366,2.2955 -3.69726,3.1875 -1.0836,0.861 -2.83622,2.19789 -3.91992,2.96289 -1.0836,0.765 -2.61336,1.65802 -3.41016,2.04102 -0.7968,0.351 -2.64458,1.01884 -4.14258,1.46484 -1.4979,0.446 -3.7303,0.89349 -4.9414,1.02149 -1.243,0.127 -2.58115,0.34956 -3.02735,0.47656 -0.5418,0.127 -1.40153,-0.0306 -2.54883,-0.47656 -0.9562,-0.383 -2.48715,-1.05205 -3.34765,-1.49805 -0.8924,-0.478 -1.94443,-1.1168 -2.39063,-1.4668 -0.4462,-0.319 -1.30661,-0.82898 -1.91211,-1.08398 -0.6056,-0.255 -1.75267,-0.988 -2.51757,-1.625 -0.7968,-0.669 -2.03969,-1.81628 -2.80469,-2.61328 -0.7649,-0.796 -1.40235,-1.59391 -1.40235,-1.75391 0.0319,-0.159 -0.54163,-0.95595 -1.21093,-1.75195 -0.6693,-0.797 -1.81713,-2.64653 -2.58203,-4.14453 -0.733,-1.498 -1.62401,-3.79066 -1.97461,-5.09766 -0.4462,-1.657 -0.70128,-3.88903 -0.79688,-7.33203 -0.1594,-4.398 -0.09638,-5.2586 0.54102,-7.8086 0.3825,-1.594 1.05119,-3.60093 1.43359,-4.46093 0.4462,-0.924 1.7532,-2.61338 3.0918,-3.98438 1.2749,-1.307 3.02872,-2.8674 3.85742,-3.4414 0.8286,-0.542 2.83609,-1.52977 4.42969,-2.13477 1.6254,-0.638 3.60173,-1.40391 4.39843,-1.75391 0.7968,-0.319 2.39112,-1.1154 3.57032,-1.8164 1.3705,-0.765 2.80377,-1.94421 3.95117,-3.28321 0.988,-1.147 2.13453,-2.6447 2.54883,-3.3457 0.4143,-0.701 0.95724,-1.88148 1.24414,-2.64648 0.2868,-0.828 0.3495,-1.40205 0.1582,-1.49805 -0.1912,-0.095 -0.25315,-0.25506 -0.18945,-0.41406 0.0956,-0.127 -7.6e-4,-1.21013 -0.16016,-2.45313 -0.1593,-1.243 -0.41427,-3.66497 -0.60547,-5.41797 -0.255,-2.55 -0.22224,-3.79284 0.16016,-6.21484 0.2869,-1.657 0.63562,-3.53953 0.79492,-4.14453 0.1594,-0.606 0.35167,-1.62547 0.44727,-2.23047 0.0956,-0.606 0.98726,-2.42337 2.03906,-3.98437 1.0199,-1.594 2.58221,-3.79246 3.47461,-4.93946 0.8924,-1.148 2.4228,-2.6764 3.3789,-3.4414 0.988,-0.733 2.07063,-1.33985 2.35743,-1.33985 0.3187,0 0.63877,-0.19106 0.73437,-0.41406 0.1063,-0.255 -0.0016,-0.29695 -0.32031,-0.12695 -0.05925,0.0372 -0.10047,0.0566 -0.11914,0.0605 -0.0011,1.4e-4 -0.003,2e-5 -0.0039,0 h -0.002 -0.0019 -0.002 v -0.002 -0.002 -0.002 c 1.8e-4,-8.3e-4 0.0016,-0.005 0.002,-0.006 0.02076,-0.0427 0.17536,-0.1871 0.44726,-0.40039 0.4462,-0.351 1.87885,-1.01884 3.18555,-1.46484 1.3067,-0.447 3.88978,-1.01964 5.73828,-1.30664 1.8486,-0.255 4.27057,-0.76619 5.41797,-1.11719 1.07559,-0.29812 2.12211,-0.54015 2.45898,-0.54297 z m 12.066411,16.48047 h 0.002 0.002 0.002 0.002 0.002 0.002 l 0.002,0.002 v 0.002 l 0.002,0.002 c 0.0609,0.0951 0.11914,1.13803 0.11914,2.38281 0,1.371 -0.12735,2.39063 -0.31836,2.39063 -0.191,0 -0.32031,-0.54194 -0.32031,-1.21094 0,-0.638 0.0974,-1.72062 0.19336,-2.39062 0.12105,-0.60714 0.24483,-1.12829 0.31055,-1.17578 z M 46.392849,43.847004 c -1.0518,0.2231 -2.4541,0.6374 -3.0915,0.8924 -0.6693,0.2869 -1.2111,0.7012 -1.2111,0.9243 0,0.1912 -0.6056,0.6374 -1.3705,0.9243 -0.733,0.2868 -1.6892,0.6374 -2.1354,0.7649 -0.4462,0.1275 -1.8166,1.2429 -3.0278,2.4859 -1.2429,1.243 -2.8365,3.0915 -3.5058,4.1433 -0.7012,1.0199 -1.7211,2.5178 -2.2629,3.3465 -0.5418,0.7968 -1.0836,1.8804 -1.2111,2.4222 -0.1275,0.5418 -0.4781,1.2111 -0.7649,1.5298 -0.2868,0.2869 -0.4462,0.6375 -0.3187,0.7968 0.1594,0.1275 0.0956,0.3506 -0.0637,0.5418 -0.1594,0.1913 -0.3825,0.7331 -0.4462,1.2749 -0.0638,0.5418 -0.3188,2.3903 -0.5419,4.1433 -0.2231,1.7529 -0.3824,3.6652 -0.3505,4.2389 0.0318,0.5418 0.2549,1.7848 0.5099,2.709 0.2231,0.8924 0.6374,2.0398 0.9561,2.5497 0.4781,0.7968 0.4781,0.9562 0,2.0717 -0.3505,0.8605 -0.4462,2.0079 -0.3824,4.3026 0.0637,1.7529 0.1912,3.219 0.3506,3.2827 0.1275,0.0638 0.2231,0.4144 0.2231,0.765 0,0.3505 -0.1594,0.6374 -0.3187,0.6374 -0.1594,0 -0.0319,0.3187 0.3505,0.733 0.3506,0.3825 1.0837,1.1474 1.6573,1.7211 0.5737,0.5737 1.5617,1.2111 2.1992,1.4342 l 1.1792,0.4143 c -0.988,1.243 -1.2748,1.9759 -1.243,2.4859 0,0.638 0.1594,0.861 0.6375,0.861 0.3505,0 1.0517,-0.351 1.5935,-0.797 0.5418,-0.446 1.0199,-0.797 1.1155,-0.797 0.0956,0 0.1594,0.1275 0.1594,0.319 0,0.191 0.4462,1.275 0.988,2.486002 0.5737,1.179 1.4661,2.613004 2.0079,3.187004 0.5418,0.574 1.243,1.02 1.5298,1.02 0.3187,0 0.5737,-0.191 0.5737,-0.383 0.0319,-0.223 -0.1912,-0.605 -0.4781,-0.797 -0.255,-0.223 -0.4143,-0.541004 -0.3187,-0.733004 0.0956,-0.191 -0.1912,-0.701 -0.6056,-1.179 -0.4461,-0.51 -1.0836,-1.816002 -1.466,-2.964002 -0.3825,-1.1472 -0.9243,-2.3264 -1.2111,-2.6133 -0.4462,-0.4462 -0.4781,-0.6374 -0.1594,-1.0517 0.3187,-0.3825 0.3187,-0.51 0,-0.6374 -0.1912,-0.0638 -0.6693,-0.6375 -1.0199,-1.243 -0.3506,-0.6375 -0.8605,-1.1793 -1.1155,-1.243 -0.3187,-0.0956 -0.6374,0.255 -0.9561,0.9243 -0.255,0.6055 -0.5737,1.0836 -0.7331,1.0836 -0.1274,0 -0.6374,-0.4143 -1.1792,-0.9562 -0.733,-0.733 -1.0836,-1.4979 -1.4661,-3.4102 -0.3187,-1.4979 -0.4781,-3.2509 -0.3824,-4.3982 0.0956,-1.243 0.3187,-1.9761 0.6055,-2.0717 0.255,-0.0637 0.7331,-0.478 1.0836,-0.8605 0.4781,-0.5737 0.9562,-0.733 1.9761,-0.733 1.3067,0 1.3704,-0.0319 1.3704,-0.9562 0,-0.8605 -0.0956,-0.9561 -1.0517,-0.9561 -0.5418,0 -1.3067,0.1912 -1.6573,0.478 -0.3506,0.255 -0.8924,0.4781 -1.2111,0.4781 -0.2869,0 -0.7331,-0.3187 -0.9881,-0.7012 -0.2231,-0.4143 -0.6693,-1.5935 -0.988,-2.6453 -0.4143,-1.5298 -0.5099,-2.5497 -0.3505,-4.94 0.1274,-1.6573 0.3187,-3.6652 0.478,-4.462 0.1275,-0.7968 0.8605,-2.741 1.6255,-4.3027 0.733,-1.5617 1.9441,-3.7289 2.6772,-4.7807 0.7011,-1.0517 2.1035,-2.7728 3.0915,-3.8245 1.4342,-1.5298 2.5497,-2.2948 5.5775,-3.8565 2.0716,-1.0836 4.8125,-2.1991 6.0236,-2.4859 1.9123,-0.4781 2.7091,-0.4781 5.4182,-0.1912 1.7529,0.1912 4.4938,0.478 6.0555,0.6055 1.6573,0.1594 4.1433,0.7012 5.8962,1.3067 1.6573,0.5418 3.5377,1.3068 4.1433,1.7211 0.6056,0.4143 1.5298,0.988 2.0716,1.3067 0.5419,0.3187 1.7848,1.3067 2.8047,2.1991 1.0518,0.8924 2.3266,2.2629 2.9003,3.0597 0.5418,0.7968 1.3386,2.0079 1.7529,2.7091 0.5737,0.988 0.8287,2.2309 1.2111,5.7368 0.255,2.4541 0.3825,5.3225 0.2869,6.3743 -0.1275,1.0517 -0.2869,3.1234 -0.3825,4.6213 -0.1593,2.0716 -0.0956,2.9322 0.255,3.6652 0.2868,0.5418 1.2749,1.6573 2.1991,2.486 0.9562,0.8286 1.9123,1.4661 2.1354,1.3704 0.1912,-0.0956 0.4462,-0.0637 0.5418,0.1275 0.0956,0.1913 0.0319,0.3825 -0.1593,0.4781 -0.1913,0.0956 -0.3188,0.4462 -0.3188,0.7968 0,0.3506 -0.8286,1.4979 -1.8166,2.5816 -1.2111,1.2748 -2.5179,2.231 -3.7608,2.8365 -1.0518,0.4781 -2.1354,1.1155 -2.3904,1.4024 -0.255,0.2868 -0.7012,0.4462 -0.9561,0.3505 -0.2869,-0.0956 -0.7649,0.1913 -1.1793,0.7968 -0.4143,0.51 -0.733,1.1793 -0.733,1.4342 0,0.255 0.1275,0.5418 0.3187,0.6375 0.1912,0.0956 0.6374,-0.0638 1.0518,-0.3188 l 0.7011,-0.4462 c 0.1275,5.609702 -0.0318,7.553706 -0.3506,8.891706 -0.2549,1.148 -0.6055,2.678 -0.7649,3.443 -0.1912,0.733 -0.3187,1.88 -0.3187,2.549 -0.0319,0.638 -0.3506,1.721 -0.733,2.391 -0.3825,0.669 -0.9562,1.274 -1.243,1.338 -0.3187,0.096 -0.5418,0.319 -0.4781,0.542 0.0319,0.191 -0.2231,0.446 -0.5737,0.51 -0.3505,0.064 -0.8605,0.382 -1.1155,0.669 -0.2549,0.287 -1.1792,0.638 -2.0716,0.765 -0.8605,0.128 -1.6254,0.16 -1.6573,0.064 -0.0637,-0.096 -0.0319,-0.287 0.0637,-0.478 0.0957,-0.191 0.51,-0.255 0.9562,-0.16 0.4462,0.096 0.8605,0.032 0.9561,-0.159 0.0956,-0.191 0.0956,-0.605 0,-0.956 -0.1275,-0.542 -0.3506,-0.606 -1.4979,-0.51 -0.7649,0.096 -1.4661,0.351 -1.6255,0.574 -0.1275,0.223 -0.1593,0.669 -0.0637,0.988 0.1275,0.414 0,0.51 -0.4781,0.382 -0.3506,-0.095 -0.8605,-0.032 -1.1155,0.16 -0.255,0.191 -0.8286,0.255 -1.2748,0.159 -0.4462,-0.096 -0.7331,-0.287 -0.6375,-0.478 0.0956,-0.191 0.0319,-0.319 -0.1593,-0.319 -0.1913,0 -0.3187,-0.223 -0.3187,-0.478 0,-0.255 -0.2869,-0.478 -0.6375,-0.478 -0.3505,0 -0.7011,0.223 -0.7967,0.478 -0.0957,0.255 -0.4144,0.478 -0.7012,0.478 -0.5418,0.032 -0.5418,0 -0.0319,-0.542 0.3187,-0.318 0.5737,-0.828 0.5737,-1.115 0,-0.351 -0.255,-0.574 -0.6374,-0.574 -0.3506,0 -0.9562,0.446 -1.3386,0.988 -0.6375,0.893 -0.8606,0.988 -1.8486,0.797 -0.6055,-0.096 -1.9122,-0.574 -2.8684,-1.052 -0.9561,-0.478 -2.5178,-1.625 -3.4102,-2.55 -1.243,-1.211 -1.8486,-1.657 -2.3266,-1.529 -0.6375,0.159 -0.6375,0.191 0.0956,1.466 0.3824,0.733 1.4342,1.944 2.2947,2.709 0.8924,0.765 1.8167,1.37 2.0717,1.37 0.2549,0.032 0.6374,0.191 0.8605,0.415 0.3187,0.318 0.255,0.573 -0.2231,1.211 -0.3187,0.446 -0.8924,1.115 -1.243,1.53 -0.3825,0.38199 -0.988,1.36999 -1.3705,2.23099 -0.3824,0.86 -0.733,2.422 -0.8286,3.728 -0.0956,1.594 0.0319,2.773 0.4462,4.144 0.2868,1.051 1.0836,2.741 1.6892,3.761 0.6374,0.988 1.4342,1.88 1.7848,1.976 0.3505,0.095 0.8924,0.51 1.2111,0.956 0.2868,0.446 0.6693,0.797 0.8605,0.797 0.1912,0 0.4143,-0.383 0.5099,-0.861 0.1275,-0.733 -0.1593,-1.402 -1.5935,-3.442 -1.4024,-2.04 -1.8167,-2.996 -2.1673,-4.781 -0.255,-1.243 -0.4462,-2.741 -0.4462,-3.41 0.0319,-0.637 0.1594,-1.275 0.2869,-1.434 0.1274,-0.128 0.2231,-0.606 0.2231,-1.052 0,-0.542 0.5099,-1.339 1.5935,-2.45399 1.498,-1.594 1.6573,-1.689 2.8047,-1.498 0.6374,0.096 1.8167,0.287 2.6135,0.446 0.7967,0.159 2.1672,0.383 3.0277,0.51 0.8924,0.096 2.8047,0.191 4.3027,0.159 1.4979,-0.031 3.2827,-0.223 3.9839,-0.446 0.7968,-0.223 1.9123,-1.02 3.0278,-2.167 1.3067,-1.307 1.8804,-2.199 2.2947,-3.506 0.2868,-0.956 0.8924,-3.506 1.3386,-5.705 0.4143,-2.199 0.8605,-5.673004 0.9561,-7.713006 0.1275,-2.4219 0.3506,-4.0155 0.6375,-4.4617 0.2549,-0.4143 1.4979,-1.4342 2.8046,-2.2629 1.5617,-1.0198 2.7091,-2.0716 3.474,-3.1871 0.6374,-0.9243 1.3067,-2.1354 1.498,-2.6772 0.3187,-0.8605 0.2868,-1.3067 -0.1913,-2.486 -0.4143,-1.1154 -0.7649,-1.4979 -1.4979,-1.7529 -0.5418,-0.1593 -1.4342,-0.8286 -2.0398,-1.4979 -0.988,-1.1155 -1.0517,-1.3386 -0.8605,-2.6453 0.0956,-0.7968 0.255,-3.0916 0.3825,-5.0995 0.1274,-2.3903 0.0318,-5.0038 -0.2869,-7.4897 -0.3506,-2.9322 -0.6693,-4.2389 -1.3386,-5.5775 -0.4781,-0.9562 -1.6254,-2.6772 -2.5497,-3.8246 -0.8924,-1.1473 -2.2947,-2.6453 -3.0915,-3.3465 -0.7968,-0.7011 -2.5497,-1.9441 -3.9521,-2.7728 -1.3704,-0.8286 -3.1552,-1.6892 -3.952,-1.9441 -0.7968,-0.255 -2.231,-0.6056 -3.1871,-0.8287 -0.9562,-0.1912 -2.3904,-0.5099 -3.1872,-0.7012 -0.7968,-0.1912 -2.5178,-0.478 -3.8245,-0.6055 -1.3068,-0.1594 -3.6015,-0.255 -5.0995,-0.255 -1.4979,0 -3.5695,0.1912 -4.6213,0.4462 z m 111.071901,16.5412 c 0,0.0957 -0.223,1.7848 -0.51,3.7609 -0.287,1.9441 -0.574,3.697 -0.701,3.8883 -0.096,0.1912 -0.255,0.9242 -0.287,1.6891 -0.064,1.0837 0.032,1.4024 0.542,1.6574 0.446,0.2231 0.669,0.2231 0.765,-0.0638 0.063,-0.2231 0.286,-1.3386 0.509,-2.4859 0.192,-1.1474 0.51,-2.7729 0.702,-3.6653 0.159,-0.8605 0.414,-2.0078 0.541,-2.5497 0.128,-0.5418 0.064,-1.2748 -0.127,-1.6891 -0.159,-0.3825 -0.574,-0.7012 -0.892,-0.7012 -0.287,0 -0.542,0.0637 -0.542,0.1593 z m -9.785,1.6574 c -0.478,0.4462 -0.669,1.2429 -0.828,3.5377 -0.128,1.7848 -0.096,3.1871 0.095,3.5696 0.191,0.3506 0.319,0.9242 0.319,1.2748 0,0.3506 0.223,0.6374 0.478,0.6374 0.255,0 0.606,-0.3187 0.765,-0.7011 0.159,-0.4143 0.35,-2.5179 0.414,-4.6851 0.064,-2.7728 0,-3.9839 -0.255,-4.0795 -0.223,-0.0638 -0.669,0.1274 -0.988,0.4462 z m -75.949201,4.1114 c -0.6055,0.2549 -1.3067,0.6374 -1.4979,0.7967 -0.2869,0.1913 -0.3187,0.4781 -0.0956,0.9243 0.1912,0.3506 0.6374,0.6374 1.0517,0.6374 0.3825,0 0.988,-0.1912 1.3386,-0.478 0.3506,-0.255 1.0836,-0.4781 1.5936,-0.4781 0.5418,0 1.1473,-0.1275 1.3704,-0.255 0.255,-0.1275 0.3825,-0.5099 0.3188,-0.8605 -0.0957,-0.5099 -0.3825,-0.6374 -1.5299,-0.7012 -0.7968,-0.0637 -1.9441,0.1275 -2.5497,0.4144 z m 48.699201,1.3067 c -0.127,0.6055 0.096,1.4979 0.606,2.6453 0.446,0.9561 1.179,2.5497 1.689,3.5059 0.478,0.9561 1.052,2.3266 1.275,3.0277 0.223,0.7012 0.669,1.8167 0.988,2.486 0.51,0.988 0.669,1.1155 1.083,0.7968 0.287,-0.2231 0.51,-0.5418 0.51,-0.7331 -0.031,-0.1912 -0.733,-2.1035 -1.593,-4.3026 -0.861,-2.1991 -2.072,-4.9082 -2.645,-6.0237 -0.574,-1.1155 -1.212,-2.1035 -1.403,-2.1672 -0.159,-0.0638 -0.414,0.2868 -0.51,0.7649 z m 5.004,2.1672 c -0.159,0.0956 -0.032,0.988 0.255,2.0079 0.319,0.988 0.797,1.9761 1.116,2.1992 0.286,0.2231 0.605,0.4143 0.701,0.4143 0.095,0.0319 0.35,-0.1912 0.573,-0.4781 0.319,-0.3824 0.287,-0.6693 -0.095,-1.4342 -0.255,-0.5418 -0.478,-1.1474 -0.478,-1.3386 0.032,-0.2231 -0.223,-0.6693 -0.542,-0.9561 -0.319,-0.3188 -0.733,-0.5737 -0.924,-0.5737 -0.192,0 -0.447,0.0637 -0.606,0.1593 z m -52.874501,0.7331 c -0.0638,0.1275 -0.3187,0.9561 -0.51,1.8166 -0.1912,0.8924 -0.3824,2.1036 -0.3824,2.7091 -0.0319,0.6056 0.1912,1.498 0.4781,2.0079 0.2868,0.4781 0.6692,0.8605 0.8605,0.8605 0.1912,0 0.6055,-0.478 0.9561,-1.0199 0.4781,-0.7967 0.6056,-1.5616 0.6056,-3.2827 -0.0319,-1.5617 -0.1913,-2.3904 -0.5737,-2.8047 -0.2869,-0.3187 -0.6693,-0.5737 -0.8924,-0.5418 -0.2231,0 -0.4462,0.0956 -0.5418,0.255 z m 108.011501,2.0397 c -0.86,0.7012 -2.645,2.231 -3.92,3.3784 -1.275,1.1792 -2.294,2.3904 -2.294,2.7091 0,0.2868 0.095,0.5418 0.255,0.5418 0.127,0 0.892,-0.3506 1.752,-0.7968 0.829,-0.4462 1.498,-0.9243 1.498,-1.1155 0,-0.1912 0.765,-0.7968 1.69,-1.4023 0.892,-0.6056 2.231,-1.6892 2.932,-2.3904 0.892,-0.8924 1.211,-1.4342 1.052,-1.7848 -0.16,-0.255 -0.51,-0.4781 -0.797,-0.4462 -0.319,0 -1.275,0.5737 -2.168,1.3067 z m -67.885,4.6214 c -0.16,0.0956 -0.255,0.4143 -0.224,0.7012 0.032,0.2868 0.574,1.3067 1.18,2.2628 0.573,0.9562 1.434,2.4222 1.88,3.2828 0.478,0.8286 0.829,1.7529 0.829,2.0716 0,0.2869 0.51,1.0518 1.115,1.6573 0.956,0.9243 1.179,1.0199 1.434,0.6374 0.16,-0.2549 0.319,-0.5736 0.319,-0.7011 0,-0.1594 -0.414,-0.8605 -0.892,-1.5936 -0.51,-0.7649 -1.498,-2.7409 -2.231,-4.3982 -0.733,-1.6573 -1.307,-3.1872 -1.275,-3.3784 0.032,-0.2231 -0.287,-0.4462 -0.701,-0.5737 -0.446,-0.0956 -0.893,-0.1912 -0.988,-0.1912 -0.096,0 -0.287,0.0956 -0.446,0.2231 z m -4.462,4.3982 c -0.096,0.255 -0.383,0.4781 -0.638,0.4781 -0.255,0 -0.542,0.255 -0.637,0.5737 -0.128,0.3506 0.286,1.0199 1.211,1.976 0.765,0.7968 1.721,1.9442 2.135,2.5497 0.414,0.6056 0.956,1.3067 1.243,1.498 0.414,0.3187 0.606,0.3187 0.924,0 0.223,-0.1913 0.415,-0.7012 0.383,-1.0837 0,-0.4143 -0.255,-0.7967 -0.542,-0.8924 -0.319,-0.0956 -0.892,-0.7011 -1.307,-1.3704 -0.414,-0.6374 -0.924,-1.7211 -1.115,-2.4222 -0.223,-0.6693 -0.638,-1.3705 -0.924,-1.5299 -0.415,-0.1912 -0.606,-0.1593 -0.733,0.2231 z m -75.854301,1.3705 c -0.4462,0.4462 -0.5737,1.0199 -0.5418,2.231 0.0637,1.5298 0.1275,1.6573 0.7968,1.5936 0.6374,-0.0957 0.7012,-0.255 0.6374,-1.753 -0.0637,-0.9561 0.0319,-1.6891 0.2231,-1.6891 0.1912,0 0.3187,-0.2231 0.3187,-0.4781 0,-0.255 -0.1912,-0.4781 -0.4462,-0.4781 -0.2231,0 -0.6693,0.255 -0.988,0.5737 z m 152.982301,1.0518 c -1.02,0.8286 -1.562,1.4979 -1.498,1.9122 0.032,0.3187 0.223,0.6693 0.383,0.7649 0.159,0.0957 1.115,-0.478 2.071,-1.2748 0.956,-0.7968 1.913,-1.4342 2.072,-1.4342 0.159,0 0.319,-0.2869 0.319,-0.6374 0,-0.4781 -0.223,-0.6375 -0.861,-0.6375 -0.574,0 -1.466,0.4781 -2.486,1.3068 z m 5.833,0.7011 c -1.02,0.3825 -2.486,1.243 -3.283,1.9123 -0.988,0.8287 -1.434,1.4342 -1.434,1.976 0,0.4462 0.191,0.7968 0.414,0.7968 0.223,0 0.606,-0.1912 0.829,-0.3824 0.223,-0.2231 1.784,-1.2112 3.474,-2.1673 1.816,-1.0517 3.123,-1.976 3.155,-2.2947 0.064,-0.4144 -0.128,-0.5737 -0.606,-0.5418 -0.414,0 -1.561,0.3187 -2.549,0.7011 z m 0.35,3.6652 c -0.35,0.0638 -0.988,0.4462 -1.434,0.8924 -0.414,0.4144 -0.765,1.1155 -0.765,1.5617 0,0.4462 0.096,0.7968 0.255,0.7968 0.128,0.0319 0.446,-0.2231 0.701,-0.5099 0.255,-0.2869 1.084,-0.7968 1.849,-1.1155 0.733,-0.3506 1.307,-0.7968 1.307,-1.0518 -0.032,-0.2231 -0.319,-0.4781 -0.638,-0.5418 -0.319,-0.0956 -0.892,-0.0956 -1.275,-0.0319 z m -120.091001,3.8565 c -0.4143,0.7967 -0.5737,1.4979 -0.4143,1.8166 0.1274,0.255 0.5099,0.4462 0.8286,0.3825 0.3506,-0.0638 0.6693,-0.3825 0.7649,-0.7331 0.0638,-0.3505 0.1594,-1.0517 0.1912,-1.5617 0,-0.5099 -0.1274,-0.988 -0.3187,-1.0517 -0.2231,-0.0637 -0.6693,0.4462 -1.0517,1.1474 z m -2.8684,0.7649 c -0.4144,0.4143 -0.6693,1.0199 -0.6056,1.4979 0.0637,0.5417 0.2868,0.7967 0.733,0.7967 0.4144,0 0.8287,-0.3823 1.1793,-1.1154 0.4462,-0.8924 0.4781,-1.2111 0.1593,-1.5298 -0.2231,-0.2231 -0.478,-0.4143 -0.5736,-0.3825 -0.0957,0 -0.51,0.3188 -0.8924,0.7331 z m -39.3293,5.258602 c 0.1594,4.462004 0.0956,5.514004 -0.3187,6.438004 -0.2868,0.606 -0.7968,2.55 -1.1792,4.303 -0.3825,1.753 -0.8606,3.41 -1.0837,3.665 -0.2231,0.255 -0.6374,0.988 -0.8924,1.594 -0.2868,0.605 -1.0198,1.784 -1.6573,2.645 -0.6374,0.82899 -1.9122,2.23099 -2.8046,3.09099 -1.0199,0.957 -1.9761,1.594 -2.3904,1.594 -0.4143,0 -0.733,0.096 -0.733,0.255 0,0.127 0.1593,0.414 0.3824,0.637 0.2231,0.223 0.9562,0.383 1.6255,0.383 0.9242,0 1.4342,-0.255 2.3903,-1.211 0.6374,-0.638 1.976,-2.231 2.9322,-3.474 0.9561,-1.27499 2.1991,-3.18699 2.7728,-4.30299 0.5418,-1.115 1.1792,-2.645 1.3704,-3.442 0.1913,-0.797 0.51,-1.88 0.7012,-2.39 0.1912,-0.51 0.4143,-3.315 0.51,-6.215 0.0956,-4.462006 0.0318,-5.546006 -0.4781,-7.107606 -0.3187,-0.988 -0.7331,-1.8166 -0.9562,-1.8166 -0.2549,0 -0.3187,1.4023 -0.1912,5.354202 z m 35.3772,-4.398102 c -0.3824,0.6693 -0.4781,1.2431 -0.2868,1.9441 0.1275,0.542 0.2868,1.052 0.3824,1.116 0.0956,0.063 0.4144,-0.064 0.7331,-0.287 0.3824,-0.255 0.6055,-0.925 0.6693,-2.0401 0.1275,-1.4342 0.0637,-1.6891 -0.4144,-1.6891 -0.3187,0 -0.7967,0.4462 -1.0836,0.9561 z m 6.4699,3.0601 c -0.6056,0.446 -1.6892,1.051002 -2.3904,1.370002 -0.7011,0.287 -2.1353,0.733 -3.1871,0.956 -1.3705,0.255 -2.0398,0.574 -2.3585,1.084004 -0.3506,0.573 -0.3506,0.924 0,1.976 0.255,0.86 1.0199,1.88 2.3266,3.091 1.4661,1.403 2.2629,1.881 3.219,2.04 0.7012,0.096 1.7848,0.128 2.3904,0.032 0.6056,-0.128 1.3705,-0.446 1.6892,-0.765 0.2868,-0.319 0.478,-0.797 0.3824,-1.052 -0.0956,-0.318 -0.7968,-0.542 -2.1672,-0.669 -1.0836,-0.096 -2.6772,-0.478 -3.5696,-0.861 -0.988,-0.446 -1.8167,-1.051 -2.1354,-1.657 -0.3187,-0.51 -0.5099,-1.083 -0.4143,-1.275 0.0956,-0.191 0.988,-0.414 2.0079,-0.51 1.0517,-0.127 2.5497,-0.573004 3.5377,-1.115004 0.9561,-0.478 2.0079,-1.275 2.2947,-1.785 0.4462,-0.701002 0.4781,-0.988002 0.1913,-1.307002 -0.2231,-0.223 -0.4462,-0.382 -0.5419,-0.382 -0.0956,0.032 -0.6692,0.382 -1.2748,0.829 z m 124.680601,1.243002 c -1.084,0.509 -1.976,1.147 -1.976,1.37 0,0.191 0.159,0.446 0.319,0.542 0.191,0.095 0.701,-0.064 1.211,-0.319 0.478,-0.255 1.147,-0.478 1.53,-0.478 0.35,0 0.797,-0.191 1.02,-0.382 0.223,-0.224 0.414,-0.67 0.414,-0.957 0.032,-0.286 -0.096,-0.573002 -0.255,-0.637002 -0.128,-0.064 -1.147,0.319002 -2.263,0.861002 z m 0.892,2.900004 c -1.338,0.574 -1.721,0.892 -1.657,1.402 0.032,0.351 0.16,0.701 0.319,0.765 0.127,0.096 0.733,-0.127 1.338,-0.51 0.606,-0.35 1.753,-0.829 2.55,-1.02 0.956,-0.223 1.466,-0.542 1.498,-0.892 0.064,-0.478 -0.127,-0.574 -1.083,-0.542 -0.67,0 -2.008,0.351 -2.965,0.797 z m -139.914701,6.438 c -0.2231,0.127 -0.2869,0.542 -0.1912,0.956 0.0956,0.382 0.4462,0.701 0.7649,0.701 0.2868,0.032 0.7011,-0.159 0.9242,-0.382 0.1913,-0.223 0.2869,-0.574 0.1594,-0.765 -0.1275,-0.191 -0.4781,-0.415 -0.7649,-0.51 -0.2869,-0.128 -0.7012,-0.096 -0.8924,0 z m 5.8643,0.797 c -0.0956,0.191 -0.1275,0.669 -0.0637,1.019 0.0637,0.383 0.3824,0.67 0.8286,0.734 0.4781,0.031 0.7649,-0.128 0.8606,-0.574 0.0956,-0.351 -0.0319,-0.861 -0.2231,-1.116 -0.2231,-0.286 -0.6056,-0.51 -0.8287,-0.478 -0.2231,0 -0.4781,0.192 -0.5737,0.415 z m -9.0196,1.976 c -0.1912,0.446 -0.2868,1.083 -0.1912,1.434 0.0956,0.35 0.3825,0.637 0.6374,0.637 0.255,0 0.4781,-0.287 0.4781,-0.637 0,-0.351 0.2231,-0.638 0.4781,-0.638 0.2549,0 0.5418,-0.127 0.6374,-0.318 0.0956,-0.192 0.0956,-0.542 0,-0.797 -0.0956,-0.255 -0.5099,-0.478 -0.9243,-0.478 -0.478,0 -0.8605,0.287 -1.1155,0.797 z m 15.9038,0 c 0,0.51 0.2231,0.86 0.5737,0.924 0.2869,0.096 0.6693,0.032 0.7968,-0.064 0.1275,-0.127 0.2231,-0.542 0.2231,-0.924 0,-0.574 -0.1912,-0.733 -0.7968,-0.733 -0.6374,0 -0.7968,0.159 -0.7968,0.797 z M 200.74575,121.7409 c -0.319,0.191 -0.51,0.414 -0.446,0.573 0.095,0.128 -0.064,0.829 -0.319,1.594 -0.255,0.733 -0.382,1.562 -0.287,1.817 0.096,0.255 0.096,0.478 0,0.478 -0.095,0 -0.669,-0.255 -1.275,-0.542 -0.637,-0.319 -1.115,-0.669 -1.115,-0.797 0,-0.159 -0.51,-0.765 -1.116,-1.37 -1.019,-1.02 -1.179,-1.084 -1.816,-0.67 -0.415,0.223 -0.861,0.925 -0.988,1.498 -0.16,0.606 -0.287,2.072 -0.319,3.315 l -0.064,2.231 c -1.976,0 -2.741,0.191 -2.932,0.414 -0.223,0.191 -0.414,0.51 -0.414,0.701 0,0.192 0.573,0.925 1.275,1.69 l 1.275,1.338 c -1.53,1.466 -2.423,2.55 -2.965,3.347 -0.541,0.796 -1.274,1.944 -1.593,2.549 -0.287,0.606 -0.861,2.04 -1.243,3.187 -0.383,1.148 -0.797,2.231 -0.892,2.391 -0.128,0.191 -0.479,1.498 -0.797,2.868 -0.319,1.403 -0.574,3.634 -0.606,4.94 -0.032,1.307 -0.191,2.646 -0.35,2.964 -0.192,0.287 -0.893,0.765 -1.594,1.02 -0.701,0.255 -1.498,0.446 -1.753,0.446 -0.255,0.032 -1.402,0.383 -2.55,0.829 -1.147,0.478 -2.326,1.147 -2.645,1.53 -0.319,0.382 -0.574,1.211 -0.542,1.817 0,0.605 0.255,1.625 0.574,2.199 0.287,0.605 1.625,2.008 2.932,3.091 2.167,1.753 2.39,2.072 2.359,3.028 -0.032,0.606 -0.574,2.231 -1.212,3.633 -0.669,1.403 -1.274,2.901 -1.37,3.347 -0.096,0.446 -0.414,1.179 -0.669,1.657 -0.255,0.478 -0.638,1.912 -0.861,3.187 -0.319,1.944 -0.319,2.614 0.064,4.08 0.287,0.956 0.829,2.263 1.243,2.868 0.446,0.606 1.434,1.658 2.199,2.327 0.797,0.637 1.721,1.179 2.072,1.179 0.35,0 0.637,0.159 0.637,0.319 0,0.159 0.542,0.382 1.211,0.478 0.638,0.095 2.263,0.414 3.57,0.669 1.37,0.287 3.601,0.478 5.259,0.446 1.593,-0.032 3.601,0.096 4.462,0.255 1.274,0.255 1.784,0.542 2.549,1.498 0.542,0.638 1.721,2.104 2.646,3.219 0.892,1.116 1.944,2.646 2.294,3.411 0.351,0.733 0.956,2.549 1.403,4.047 0.414,1.498 0.924,3.697 1.147,4.94 0.223,1.243 0.351,3.665 0.255,5.418 -0.096,2.614 -0.255,3.442 -0.892,4.622 -0.447,0.796 -1.307,2.039 -1.913,2.804 -0.605,0.733 -1.306,1.307 -1.561,1.275 -0.255,-0.064 -0.478,0.064 -0.542,0.223 -0.064,0.16 0,0.478 0.127,0.67 0.128,0.191 0.51,0.446 0.861,0.573 0.478,0.16 0.956,-0.095 1.848,-0.988 0.67,-0.669 1.721,-2.135 2.359,-3.282 1.052,-1.945 1.147,-2.295 1.307,-5.578 0.095,-2.231 0.031,-4.239 -0.255,-5.577 -0.223,-1.148 -0.67,-3.156 -0.988,-4.462 -0.319,-1.307 -1.084,-3.443 -1.721,-4.685 -0.606,-1.275 -1.658,-2.933 -2.327,-3.666 -0.669,-0.765 -1.53,-1.848 -1.912,-2.39 -0.383,-0.574 -0.702,-1.147 -0.702,-1.275 0,-0.159 1.02,-0.223 2.231,-0.159 1.881,0.063 2.646,0.255 4.877,1.37 1.434,0.733 3.059,1.658 3.569,2.04 0.542,0.382 1.53,0.861 2.231,1.052 0.702,0.223 1.371,0.255 1.498,0.127 0.128,-0.127 -0.478,-0.797 -1.338,-1.498 -0.861,-0.701 -3.06,-2.103 -4.845,-3.091 -1.816,-0.988 -3.792,-1.881 -4.398,-1.944 -0.606,-0.064 -1.53,-0.319 -2.072,-0.542 -0.51,-0.223 -1.88,-0.542 -3.027,-0.67 -1.148,-0.159 -3.251,-0.382 -4.717,-0.509 -2.008,-0.192 -2.614,-0.16 -2.614,0.159 0,0.287 -0.573,0.35 -2.135,0.287 -1.626,-0.096 -2.677,-0.351 -4.239,-1.116 -1.147,-0.542 -2.55,-1.115 -3.155,-1.243 -0.67,-0.159 -1.211,-0.542 -1.435,-0.988 -0.223,-0.446 -0.637,-0.701 -1.051,-0.701 -0.478,0 -0.988,-0.382 -1.434,-1.02 -0.51,-0.765 -0.734,-1.689 -0.829,-3.283 -0.128,-1.88 0,-2.581 0.733,-4.462 0.478,-1.243 1.084,-2.74 1.37,-3.346 0.255,-0.606 0.829,-1.976 1.243,-3.028 0.415,-1.052 0.733,-2.454 0.733,-3.091 0,-0.956 -0.255,-1.466 -1.179,-2.423 -0.669,-0.669 -1.753,-1.593 -2.39,-2.071 -0.669,-0.478 -1.434,-1.307 -1.689,-1.817 -0.255,-0.51 -0.447,-1.338 -0.383,-1.817 0.064,-0.733 0.319,-0.956 1.657,-1.402 0.893,-0.319 2.263,-0.637 3.124,-0.733 0.829,-0.096 1.625,-0.382 1.817,-0.574 0.159,-0.223 0.701,-0.924 1.179,-1.529 0.51,-0.606 1.083,-1.466 1.275,-1.913 0.255,-0.531 0.308,-1.434 0.159,-2.709 -0.191,-1.625 -0.096,-2.358 0.637,-4.78 0.478,-1.562 1.02,-3.156 1.18,-3.506 0.159,-0.351 0.478,-1.339 0.733,-2.199 0.223,-0.861 0.51,-1.594 0.669,-1.658 0.127,-0.063 0.51,-0.605 0.861,-1.147 0.35,-0.574 1.402,-1.881 2.326,-2.869 1.084,-1.147 1.976,-1.848 2.422,-1.848 0.351,0 0.67,-0.096 0.67,-0.223 0,-0.16 -0.16,-0.446 -0.383,-0.638 -0.35,-0.318 -0.319,-0.446 0.16,-0.573 0.286,-0.096 0.541,-0.383 0.541,-0.638 0,-0.255 0.223,-0.478 0.478,-0.478 0.255,0 0.542,-0.255 0.638,-0.542 0.095,-0.318 0,-0.669 -0.223,-0.796 -0.223,-0.128 -0.51,-0.255 -0.638,-0.255 -0.159,0 -0.478,-0.67 -0.733,-1.498 -0.255,-0.861 -0.478,-2.072 -0.478,-2.709 0,-0.67 0.096,-1.211 0.255,-1.211 0.128,0 0.574,0.35 1.02,0.828 0.446,0.446 1.402,1.179 2.167,1.594 0.956,0.542 1.466,0.669 1.817,0.446 0.255,-0.191 0.733,-0.255 1.052,-0.159 0.287,0.095 0.765,-0.032 1.02,-0.319 0.382,-0.414 0.414,-0.574 0.063,-0.893 -0.223,-0.223 -0.382,-0.86 -0.382,-1.402 0,-0.574 0.159,-1.115 0.319,-1.211 0.191,-0.096 0.796,0.128 1.37,0.446 0.542,0.351 2.327,0.861 3.888,1.148 1.594,0.286 3.729,0.541 4.781,0.541 1.052,0 2.55,-0.095 3.347,-0.159 0.796,-0.096 2.071,0.064 2.868,0.319 0.797,0.255 2.582,1.179 3.984,2.008 1.402,0.86 3.346,1.753 4.303,2.039 0.956,0.255 2.326,0.606 3.027,0.797 0.702,0.191 2.582,1.275 4.144,2.391 1.593,1.115 3.25,2.326 3.76,2.709 0.51,0.414 0.988,1.211 1.212,2.039 0.191,0.733 0.414,1.53 0.478,1.753 0.095,0.255 -0.223,0.383 -0.829,0.383 -0.51,0 -0.956,0.064 -0.956,0.159 0,0.096 0.191,0.542 0.446,1.052 0.223,0.478 0.669,0.956 0.956,1.115 0.287,0.128 1.116,0.128 1.881,0.032 1.179,-0.191 1.37,-0.127 1.689,0.542 0.223,0.51 0.287,1.849 0.191,3.793 -0.096,1.657 -0.191,4.78 -0.191,6.916 -0.032,3.697 0,3.92 0.765,4.685 0.446,0.478 0.988,0.829 1.211,0.829 0.191,0 0.446,0.223 0.542,0.478 0.095,0.255 -0.096,0.956 -0.447,1.529 -0.318,0.542 -1.019,1.18 -1.498,1.403 -0.51,0.191 -1.274,0.637 -1.689,0.956 -0.414,0.319 -0.669,0.733 -0.542,0.988 0.096,0.191 0.638,0.382 1.148,0.382 0.542,0 1.402,-0.223 1.912,-0.478 0.542,-0.255 0.956,-0.605 0.956,-0.796 0,-0.192 0.191,-0.51 0.415,-0.733 0.191,-0.224 0.701,-0.861 1.115,-1.435 0.383,-0.541 0.701,-1.243 0.701,-1.498 0,-0.255 0.16,-0.541 0.319,-0.637 0.191,-0.096 0.319,-0.255 0.319,-0.383 0,-0.159 -0.702,-0.573 -1.594,-0.956 -1.084,-0.51 -1.625,-0.956 -1.753,-1.434 -0.064,-0.414 -0.223,-1.53 -0.35,-2.486 -0.16,-1.402 -0.032,-2.295 0.637,-4.462 0.542,-1.785 0.829,-3.474 0.829,-4.94 0.032,-1.848 -0.096,-2.326 -0.638,-2.868 -0.382,-0.351 -0.573,-0.861 -0.478,-1.116 0.096,-0.319 -0.892,-1.498 -2.932,-3.474 -1.721,-1.625 -3.633,-3.314 -4.239,-3.729 -0.605,-0.446 -1.912,-1.402 -2.868,-2.199 -0.956,-0.765 -2.327,-1.625 -3.028,-1.88 -0.701,-0.255 -2.773,-0.988 -4.59,-1.689 -2.231,-0.797 -3.76,-1.594 -4.621,-2.359 -0.733,-0.637 -2.199,-1.593 -3.283,-2.167 -1.402,-0.701 -2.135,-0.893 -2.39,-0.669 -0.223,0.159 -0.542,0.223 -0.701,0.063 -0.16,-0.127 -0.191,0.128 -0.096,0.606 l 0.191,0.828 c -4.175,0.064 -6.597,-0.127 -8.095,-0.382 -1.498,-0.255 -3.091,-0.669 -3.569,-0.924 -0.51,-0.255 -1.18,-0.765 -1.53,-1.116 -0.351,-0.382 -0.765,-0.669 -0.956,-0.669 -0.16,0 -0.574,0.159 -0.861,0.319 z m 2.454,7.776 c -0.35,0.223 -0.605,0.574 -0.542,0.797 0.032,0.191 -0.063,0.351 -0.255,0.351 -0.159,0 -0.032,0.382 0.287,0.892 0.351,0.478 1.116,1.147 1.753,1.498 0.988,0.542 1.275,0.574 1.944,0.255 0.446,-0.223 0.797,-0.637 0.797,-0.892 0,-0.287 -0.287,-0.478 -0.797,-0.478 -0.446,0 -1.02,-0.224 -1.275,-0.479 -0.255,-0.255 -0.478,-0.573 -0.478,-0.701 0,-0.159 0.16,-0.446 0.383,-0.669 0.35,-0.319 0.319,-0.478 -0.064,-0.701 -0.255,-0.16 -0.606,-0.319 -0.797,-0.319 -0.159,0.032 -0.605,0.223 -0.956,0.446 z m 9.785,3.506 c -1.69,0.478 -2.295,0.797 -2.231,1.148 0.063,0.318 0.541,0.509 1.37,0.573 0.85,0.064 1.785,-0.149 2.805,-0.637 0.956,-0.478 1.498,-0.893 1.434,-1.211 -0.064,-0.255 -0.319,-0.51 -0.574,-0.51 -0.255,-0.032 -1.53,0.255 -2.804,0.637 z m 8.987,0.542 c -0.669,0.542 -1.338,1.211 -1.434,1.498 -0.159,0.414 0,0.574 0.542,0.637 0.414,0.032 1.02,-0.159 1.339,-0.478 0.286,-0.287 0.796,-0.892 1.083,-1.338 0.319,-0.447 0.574,-0.925 0.574,-1.052 0,-0.159 -0.191,-0.255 -0.414,-0.255 -0.255,0 -0.988,0.446 -1.69,0.988 z m -24.031,2.135 c 0,0.192 -0.127,0.383 -0.318,0.383 -0.16,0 -0.447,0.255 -0.606,0.573 -0.191,0.287 -0.255,0.829 -0.159,1.18 0.063,0.35 0.924,1.115 1.88,1.689 1.562,0.892 2.008,1.02 4.143,1.02 1.753,0 2.359,-0.096 2.295,-0.383 -0.064,-0.223 -0.542,-0.605 -1.052,-0.86 -0.51,-0.223 -1.498,-0.478 -2.199,-0.542 -0.701,-0.032 -1.53,-0.351 -1.88,-0.669 -0.319,-0.319 -0.51,-0.765 -0.383,-0.956 0.096,-0.224 0.542,-0.415 0.988,-0.415 0.447,0 0.893,-0.191 0.988,-0.382 0.096,-0.223 0.032,-0.542 -0.159,-0.733 -0.223,-0.192 -1.084,-0.319 -1.944,-0.319 -1.062,0 -1.594,0.138 -1.594,0.414 z m 25.242,3.952 c -0.35,0.574 -1.243,1.498 -1.976,2.008 -0.733,0.542 -1.274,1.18 -1.211,1.434 0.064,0.255 0.383,0.51 0.733,0.574 0.383,0.032 1.243,-0.478 2.136,-1.275 1.147,-1.051 1.53,-1.625 1.593,-2.454 0.032,-0.573 -0.095,-1.115 -0.255,-1.211 -0.191,-0.064 -0.637,0.351 -1.02,0.924 z m -13.194,2.263 c -0.287,0.542 -0.606,1.626 -0.701,2.391 -0.128,0.796 0,2.039 0.286,3.027 0.255,0.893 0.797,2.136 1.18,2.741 0.414,0.606 0.956,1.243 1.274,1.435 0.383,0.254 0.638,0.254 1.02,-0.032 0.447,-0.383 0.447,-0.51 0.032,-1.211 -0.318,-0.51 -0.382,-0.988 -0.191,-1.339 0.128,-0.319 0.542,-1.147 0.861,-1.849 0.318,-0.701 1.051,-1.753 1.625,-2.294 0.574,-0.574 0.988,-1.18 0.892,-1.371 -0.095,-0.191 -0.414,-0.319 -0.701,-0.319 -0.319,0 -0.988,0.415 -1.53,0.893 -0.51,0.51 -1.243,1.53 -1.593,2.263 -0.351,0.733 -0.733,1.306 -0.861,1.306 -0.159,0 -0.318,-0.605 -0.382,-1.338 -0.032,-0.765 0.095,-1.881 0.35,-2.486 0.224,-0.606 0.415,-1.498 0.415,-1.976 0,-0.733 -0.16,-0.893 -0.733,-0.893 -0.51,0 -0.893,0.319 -1.243,1.052 z m 19.027,-0.51 c -0.159,0.096 -0.255,0.542 -0.223,0.956 0.032,0.383 0.446,1.18 0.956,1.721 0.478,0.574 1.307,1.212 1.817,1.467 0.573,0.286 1.37,0.414 2.071,0.286 0.606,-0.095 1.307,-0.414 1.53,-0.669 0.191,-0.255 0.319,-0.605 0.223,-0.797 -0.095,-0.191 -0.765,-0.318 -1.498,-0.318 -1.02,0 -1.561,-0.192 -2.071,-0.702 -0.415,-0.414 -0.733,-0.924 -0.733,-1.115 0,-0.223 -0.287,-0.542 -0.638,-0.733 -0.35,-0.191 -0.765,-0.319 -0.892,-0.319 -0.16,0 -0.383,0.096 -0.542,0.223 z m -36.015,3.825 c -0.159,0.095 -0.255,0.287 -0.223,0.382 0.032,0.096 0.638,0.701 1.403,1.339 0.764,0.637 1.752,1.243 2.262,1.339 0.733,0.191 0.861,0.127 0.861,-0.479 0,-0.478 -0.446,-1.083 -1.339,-1.784 -0.765,-0.574 -1.657,-1.02 -2.039,-1.02 -0.351,0 -0.765,0.095 -0.925,0.223 z m -1.721,5.928 c -0.35,0.733 -0.765,1.976 -0.956,2.773 -0.255,1.147 -0.223,1.593 0.128,2.167 0.255,0.382 0.573,0.701 0.733,0.701 0.127,0 0.605,-0.382 1.083,-0.86 0.478,-0.51 1.084,-1.53 1.371,-2.327 0.478,-1.307 0.478,-1.53 0.032,-2.613 -0.351,-0.829 -0.702,-1.212 -1.148,-1.212 -0.414,0 -0.828,0.415 -1.243,1.371 z m 25.784,-0.383 c -0.414,0.16 -0.733,0.51 -0.733,0.829 0,0.319 -0.032,0.701 -0.064,0.893 0,0.191 -0.223,0.892 -0.446,1.593 -0.287,0.861 -0.382,2.199 -0.287,4.143 0.096,1.849 0.351,3.251 0.733,3.984 0.319,0.606 1.148,2.008 1.881,3.124 0.701,1.083 1.402,2.008 1.561,1.976 0.128,0 0.128,-1.116 0.032,-2.454 -0.127,-1.53 -0.032,-3.219 0.192,-4.399 0.286,-1.274 0.669,-2.167 1.243,-2.741 0.446,-0.446 1.115,-0.956 1.466,-1.179 0.605,-0.319 0.605,-0.382 0.063,-0.924 -0.51,-0.542 -0.605,-0.542 -1.593,-0.032 -0.574,0.319 -1.307,1.147 -1.721,1.912 -0.383,0.765 -0.829,2.008 -1.052,2.805 -0.234,0.956 -0.457,1.328 -0.669,1.116 -0.16,-0.192 -0.415,-1.53 -0.51,-3.028 -0.223,-2.582 -0.191,-2.773 0.637,-4.048 0.478,-0.765 0.893,-1.785 0.924,-2.295 0.064,-0.541 -0.127,-1.051 -0.414,-1.243 -0.287,-0.191 -0.797,-0.191 -1.243,-0.032 z m 11.601,0.702 c -0.095,0.191 -0.127,0.669 -0.032,1.02 0.096,0.35 0.51,0.86 0.925,1.115 0.414,0.287 1.115,0.669 1.625,0.892 0.733,0.319 0.956,0.287 1.657,-0.255 0.447,-0.35 0.734,-0.86 0.638,-1.115 -0.096,-0.287 -0.542,-0.478 -1.116,-0.478 -0.605,0 -1.211,-0.287 -1.657,-0.797 -0.414,-0.414 -0.988,-0.797 -1.275,-0.797 -0.287,0 -0.637,0.192 -0.765,0.415 z m 1.466,11.059 c 0,0.351 0.383,1.084 0.893,1.657 0.478,0.542 1.338,1.18 1.912,1.435 0.861,0.35 1.147,0.35 1.817,-0.064 0.669,-0.383 0.733,-0.574 0.414,-0.956 -0.223,-0.287 -0.765,-0.574 -1.211,-0.638 -0.446,-0.095 -1.275,-0.605 -1.817,-1.115 -0.573,-0.542 -1.275,-0.956 -1.53,-0.956 -0.254,0 -0.478,0.286 -0.478,0.637 z m -5.896,0.924 c -0.701,0.128 -1.816,0.638 -2.486,1.148 -0.669,0.541 -1.275,1.147 -1.338,1.37 -0.096,0.191 0.223,0.733 0.733,1.179 0.478,0.447 0.956,0.829 1.115,0.797 0.128,0 0.446,0.064 0.701,0.159 0.319,0.107 0.478,-0.053 0.478,-0.478 0,-0.35 0.478,-0.988 1.052,-1.434 0.542,-0.414 1.371,-0.797 1.817,-0.797 0.51,0 1.211,0.415 1.944,1.18 0.637,0.669 1.402,1.689 1.689,2.263 0.351,0.701 0.51,1.88 0.51,3.824 0,2.486 -0.095,2.932 -0.956,4.462 -0.542,0.892 -1.339,1.944 -1.817,2.263 -0.51,0.319 -1.689,0.829 -2.645,1.084 -0.956,0.286 -2.454,0.573 -3.347,0.669 -0.86,0.095 -1.752,0.382 -1.944,0.574 -0.223,0.223 -0.956,1.561 -1.689,2.964 -0.701,1.402 -1.307,2.741 -1.307,2.964 0,0.191 -0.605,0.892 -1.338,1.529 -0.765,0.638 -1.849,1.371 -2.422,1.69 -0.574,0.286 -1.02,0.701 -1.02,0.924 0,0.191 0.287,0.446 0.637,0.542 0.351,0.095 1.243,-0.128 2.008,-0.446 0.733,-0.351 2.135,-1.467 3.092,-2.486 1.211,-1.307 1.848,-2.295 2.135,-3.283 0.191,-0.797 0.701,-1.881 1.147,-2.391 0.67,-0.828 1.116,-1.019 3.442,-1.402 1.467,-0.255 3.188,-0.733 3.793,-1.084 0.606,-0.318 1.498,-0.988 2.008,-1.434 0.51,-0.51 1.243,-1.88 1.721,-3.251 0.669,-1.88 0.797,-2.772 0.669,-4.143 -0.095,-0.956 -0.51,-2.55 -0.956,-3.506 -0.414,-0.956 -1.306,-2.454 -1.976,-3.346 -0.669,-0.861 -1.498,-1.753 -1.88,-1.976 -0.383,-0.223 -1.052,-0.383 -1.498,-0.351 -0.446,0 -1.371,0.096 -2.072,0.223 z m 16.159,2.837 c -0.191,0.478 -0.446,2.167 -0.542,3.729 -0.159,2.135 -0.095,3.155 0.223,3.984 0.255,0.605 1.02,1.593 1.721,2.167 0.67,0.574 2.008,1.339 2.932,1.753 0.925,0.382 1.626,0.829 1.562,1.02 -0.064,0.191 -0.765,0.287 -1.53,0.255 -0.828,-0.064 -1.784,-0.351 -2.358,-0.765 -0.638,-0.468 -1.105,-0.606 -1.402,-0.415 -0.224,0.16 -0.702,1.148 -1.02,2.2 -0.351,1.051 -0.638,2.772 -0.67,3.824 -0.032,1.052 0.064,2.55 0.255,3.347 0.16,0.796 0.287,1.689 0.223,2.008 -0.063,0.382 -0.255,0.478 -0.637,0.318 -0.319,-0.095 -0.988,-0.669 -1.53,-1.243 -0.51,-0.573 -1.147,-1.051 -1.338,-1.083 -0.224,0 -0.415,0.223 -0.415,0.478 0,0.255 -0.127,0.765 -0.318,1.115 -0.255,0.542 -0.415,0.574 -1.02,0.287 -0.638,-0.319 -0.829,-0.255 -1.307,0.383 -0.351,0.478 -0.51,1.083 -0.414,1.561 0.095,0.446 0.223,1.626 0.318,2.646 l 0.192,1.816 c -1.467,-0.733 -2.2,-1.402 -2.55,-1.912 -0.351,-0.51 -0.829,-0.924 -1.02,-0.892 -0.223,0.063 -0.446,-0.255 -0.51,-0.702 -0.064,-0.446 0.064,-1.434 0.287,-2.231 0.191,-0.796 0.574,-1.657 0.797,-1.912 0.223,-0.255 0.382,-0.924 0.318,-1.434 -0.095,-0.829 -0.223,-0.956 -1.02,-0.956 -0.764,0 -0.924,0.127 -0.924,0.797 0,0.478 -0.159,0.764 -0.382,0.733 -0.255,-0.064 -0.351,0.127 -0.255,0.541 0.095,0.351 0.032,0.702 -0.16,0.797 -0.159,0.096 -0.414,0.924 -0.51,1.849 -0.095,0.892 0.064,3.251 0.319,5.163 0.287,1.912 0.638,4.366 0.797,5.418 0.159,1.052 0.637,2.645 1.115,3.506 0.447,0.892 1.02,1.88 1.243,2.231 0.192,0.35 0.957,1.402 1.69,2.39 0.733,0.956 2.39,2.709 3.729,3.92 1.689,1.466 2.677,2.104 3.155,2.072 0.414,-0.064 0.765,-0.319 0.828,-0.574 0.032,-0.255 -0.382,-0.796 -0.956,-1.179 -0.573,-0.414 -1.721,-1.339 -2.517,-2.072 -0.797,-0.765 -1.945,-2.007 -2.582,-2.804 -0.637,-0.797 -1.689,-2.359 -2.39,-3.506 -0.765,-1.243 -1.403,-2.837 -1.626,-3.984 -0.223,-1.052 -0.382,-2.518 -0.382,-3.251 0,-0.765 0.063,-1.37 0.159,-1.37 0.096,0 0.733,0.286 1.434,0.637 0.829,0.414 1.913,0.637 3.124,0.637 1.466,0 1.944,-0.127 2.517,-0.701 0.415,-0.414 0.734,-0.828 0.734,-0.956 0,-0.159 -0.383,-0.35 -0.861,-0.446 -0.51,-0.096 -1.147,-0.414 -1.466,-0.701 -0.414,-0.415 -0.574,-1.02 -0.542,-2.295 0,-0.956 0.128,-1.944 0.255,-2.167 0.159,-0.319 0.606,-0.16 1.817,0.637 1.083,0.733 2.454,1.243 4.302,1.658 l 2.709,0.573 1.562,-1.816 c -2.103,-0.128 -2.358,-0.287 -2.358,-0.797 0,-0.351 -0.128,-0.701 -0.319,-0.797 -0.213,-0.106 -0.213,-0.287 0,-0.542 0.223,-0.287 0,-0.924 -0.829,-2.167 -1.02,-1.562 -1.115,-1.944 -1.051,-3.665 0.031,-1.052 0.159,-2.04 0.318,-2.231 0.128,-0.191 1.371,-0.287 2.901,-0.223 1.466,0.063 2.804,0 2.964,-0.16 0.191,-0.127 0.796,-0.924 1.37,-1.753 0.542,-0.86 0.956,-1.753 0.861,-2.008 -0.096,-0.318 -0.574,-0.478 -1.275,-0.478 -0.606,0 -1.626,-0.255 -2.263,-0.573 -0.638,-0.287 -1.434,-1.052 -1.817,-1.658 -0.35,-0.605 -0.86,-1.466 -1.083,-1.912 -0.255,-0.446 -0.606,-1.37 -0.797,-2.072 -0.191,-0.701 -0.319,-1.944 -0.319,-2.772 0,-1.148 -0.127,-1.594 -0.574,-1.817 -0.478,-0.287 -0.637,-0.191 -0.892,0.542 z m -15.999,4.047 c 0,0.096 -0.032,0.351 -0.096,0.574 -0.064,0.191 0.096,0.765 0.319,1.275 0.223,0.478 0.414,1.179 0.414,1.594 0,0.382 -0.351,1.37 -0.797,2.231 l -0.797,1.498 c 1.148,0 1.753,-0.383 2.231,-1.02 0.606,-0.829 0.797,-1.403 0.765,-2.646 0,-1.083 -0.255,-1.944 -0.701,-2.613 -0.382,-0.574 -0.828,-1.052 -1.02,-1.052 -0.159,0 -0.318,0.064 -0.318,0.159 z m 10.995,0.16 c -0.095,0.191 0,0.605 0.16,0.956 0.191,0.351 0.637,0.733 1.051,0.829 0.383,0.127 0.925,0.095 1.18,-0.032 0.382,-0.191 0.255,-0.415 -0.638,-1.148 -0.605,-0.478 -1.211,-0.892 -1.338,-0.924 -0.128,0 -0.287,0.128 -0.415,0.319 z m -51.153,6.151 c 0,0.191 0.255,0.669 0.573,1.02 0.383,0.414 1.339,0.765 2.773,1.02 1.243,0.223 2.964,0.51 3.825,0.637 l 1.593,0.255 c -0.063,2.996 -0.191,3.283 -1.147,4.08 -1.052,0.892 -1.179,0.892 -4.111,0.796 -2.486,-0.063 -3.028,0 -3.092,0.383 -0.064,0.255 0.351,0.797 0.924,1.211 0.956,0.669 1.275,0.733 3.442,0.51 2.295,-0.223 2.454,-0.287 3.921,-1.689 1.306,-1.211 1.593,-1.689 1.721,-2.9 0.095,-0.957 0,-1.849 -0.351,-2.646 -0.287,-0.637 -0.892,-1.434 -1.37,-1.753 -0.606,-0.382 -1.371,-0.51 -2.646,-0.446 -0.956,0.032 -2.454,-0.159 -3.346,-0.414 -0.861,-0.255 -1.849,-0.478 -2.136,-0.478 -0.318,0 -0.573,0.191 -0.573,0.382 z m 50.229,5.259 c -0.064,0.159 0,0.924 0.159,1.753 0.191,1.02 0.542,1.689 1.02,2.008 0.478,0.318 0.797,0.382 1.02,0.159 0.213,-0.234 0.191,-0.531 -0.064,-0.892 -0.223,-0.287 -0.669,-1.148 -1.02,-1.913 -0.318,-0.733 -0.669,-1.338 -0.764,-1.338 -0.096,0 -0.255,0.095 -0.351,0.223 z" />
</svg>
