<?xml version="1.0" encoding="UTF-8" standalone="no"?>
<svg
   width="270"
   height="271"
   viewBox="0 0 270 271"
   fill="none"
   version="1.1"
   id="svg24"
   sodipodi:docname="holding_plant.svg"
   inkscape:version="1.4.2 (ebf0e940, 2025-05-08)"
   xmlns:inkscape="http://www.inkscape.org/namespaces/inkscape"
   xmlns:sodipodi="http://sodipodi.sourceforge.net/DTD/sodipodi-0.dtd"
   xmlns="http://www.w3.org/2000/svg"
   xmlns:svg="http://www.w3.org/2000/svg">
  <defs
     id="defs24" />
  <sodipodi:namedview
     id="namedview24"
     pagecolor="#ffffff"
     bordercolor="#000000"
     borderopacity="0.25"
     inkscape:showpageshadow="2"
     inkscape:pageopacity="0.0"
     inkscape:pagecheckerboard="0"
     inkscape:deskcolor="#d1d1d1"
     showgrid="false"
     inkscape:zoom="2.3302583"
     inkscape:cx="-28.752177"
     inkscape:cy="111.36105"
     inkscape:window-width="2560"
     inkscape:window-height="1440"
     inkscape:window-x="0"
     inkscape:window-y="0"
     inkscape:window-maximized="0"
     inkscape:current-layer="svg24" />
  <path
     id="path320"
     style="fill:#000000"
     d="m 145.57055,28.544424 c -0.87841,0.164163 -1.58582,0.315631 -1.76818,0.738724 -0.92183,0.457103 -1.49075,1.636337 -2.15881,1.426257 -0.57796,-0.269038 -0.75379,1.064206 -1.08299,0.390904 -0.63214,0.677403 -2.06983,1.880301 -2.28422,2.105425 -0.34098,0.935997 -1.25968,-0.487801 -1.81145,0.509742 -0.96901,0.10348 -0.73305,0.243999 -1.68789,0.148628 -2.28433,-0.115415 -3.63172,-1.370047 -4.85387,-3.1489 -0.38925,0.484853 -1.77174,-0.442903 -2.40336,0.08074 0.47241,1.725424 -1.25323,3.230979 -1.20128,5.155018 1.57768,0.912719 -0.60515,-0.16768 1.11332,-0.0084 0.87854,-0.770178 1.84142,-3.506884 3.26373,-1.599655 2.06417,1.010565 3.17267,1.45418 4.1173,1.882774 2.21613,0.674167 3.24945,-1.897613 4.99618,-2.266709 0.26492,-0.37235 1.18998,-1.326524 1.81374,-1.328668 0.43811,-0.366623 1.31421,-0.970225 1.78236,-1.074221 0.3138,-1.032683 2.495,-1.123354 2.20595,-1.779715 0.91742,0.06383 0.0612,-0.870848 -0.0405,-1.231891 z m 3.73047,3.810547 c -1.54382,-0.02203 -1.71516,2.210543 -1.2074,2.999424 -0.15647,0.321051 2.37221,1.23142 1.27685,1.207411 1.22829,0.422228 2.44201,0.147807 3.47569,-0.572312 -1.04111,-1.224682 -3.09838,0.560867 -3.23276,-1.787426 -0.1241,-0.583305 0.20469,-1.40468 -0.31238,-1.847097 z m 11.36523,2.660156 c -2.03775,1.671191 -4.32436,2.462857 -6.69031,3.773846 -0.61256,0.91315 -0.7637,1.863885 0.12953,1.560672 1.64437,-0.05957 3.92008,-3.378201 5.61965,-0.871278 0.18974,0.827641 0.78215,1.820279 1.11534,2.213837 0.0496,0.306272 0.83564,0.0038 0.88536,0.807145 3.0943,1.501206 5.87205,1.690883 9.10081,1.649288 1.81437,-1.114881 4.38865,-0.493424 2.78327,1.859475 -1.25475,0.54276 0.41482,2.359762 -1.17232,2.012204 0.77963,0.391602 0.59991,1.842985 1.4797,2.02738 0.13617,1.245904 1.52421,1.334545 0.88494,-0.607472 -0.20984,-2.663761 1.93788,-5.002689 1.67177,-7.527479 -1.18214,-1.017214 -1.75243,0.647717 -3.12179,0.236682 -1.22036,-0.434385 -3.26676,0.911352 -3.63373,0.561745 -1.74346,-0.685758 -2.75472,0.505845 -4.38528,-0.623243 -2.09189,-0.247943 -3.87994,-1.427084 -4.25027,-3.640285 -1.35671,-0.791874 2.24517,-3.314378 -0.41667,-3.432517 z m -43.53711,2.216797 c -0.0799,0.800842 -1.48524,1.276306 -1.66698,2.082893 1.25625,0.112985 -1.76171,0.155914 -1.95332,0.400929 -1.66173,0.949189 0.68698,2.72564 -0.32275,2.941956 0.67053,0.420872 -0.74088,1.27471 0.33761,2.00028 0.27085,-1.62922 0.5083,-3.612763 2.33004,-3.443487 1.07354,-0.24964 1.6636,-0.546639 2.62548,-0.822545 -0.63688,-0.429264 1.67805,-0.602025 1.63318,-0.582458 1.97236,-0.168386 3.53939,-0.692246 5.21765,-1.662931 0.009,-1.393029 -1.55909,-0.607004 -1.93028,-0.337943 -0.49692,-0.400911 -2.0136,0.55933 -2.42293,0.06224 0.17782,0.601474 -1.54983,-0.351276 -1.64654,-0.353609 -0.67086,-0.07241 -1.41626,-0.397352 -2.20116,-0.28533 z m 19.58399,1.015625 c -1.53326,0.922115 -2.02639,3.064113 -4.05734,3.152691 -0.68743,-0.19197 -1.07124,1.23604 -1.25651,0.996337 1.41227,1.442436 4.1111,-0.682963 5.53936,-1.529657 0.29875,-0.735036 1.20027,-2.503565 -0.22551,-2.619371 z m -15.12305,3.224609 c -0.95257,0.827653 -0.63275,2.962605 -1.50875,3.183649 -1.4363,0.187482 -2.31952,2.765476 -0.23477,2.353374 -1.06412,0.163282 1.32285,-1.082151 0.97797,-0.701591 1.08247,-0.765632 3.24054,-4.142677 0.76555,-4.835432 z m 34.0957,1.410157 c -1.50095,0.576628 -2.95726,1.398883 -4.47128,1.240751 -1.44027,1.252005 0.46371,2.098975 1.46686,1.662403 1.37981,-0.502837 4.46263,-0.693379 3.59962,-2.760142 l -0.59571,-0.142578 z m -16.95508,3.142578 c -0.92788,0.856326 -1.80636,1.988953 -3.03234,2.529564 -0.56781,1.362324 -3.49558,0.133248 -3.00998,1.518077 0.54854,0.932237 1.89092,1.186271 2.38241,2.287245 1.29947,-0.368691 2.41736,-2.225256 3.3196,-2.761622 0.63648,-0.753542 1.61492,-2.288358 0.34031,-3.573264 z m -25.90625,1.287109 c -0.86513,1.142374 -1.56148,2.600071 -3.02509,2.811152 -1.00812,0.247526 -1.6469,0.430532 -2.26035,0.933777 -0.85997,0.843429 -3.60412,-0.237729 -4.42431,1.036323 -0.0417,1.895864 2.69441,3.068911 1.59968,5.012311 -0.91759,0.838455 -2.75934,2.052722 -3.25109,2.26997 -1.560123,1.070984 0.74304,3.936243 1.82222,5.025579 1.17715,1.033782 -0.0793,3.0814 -0.18764,3.828125 -0.28212,-0.224797 0.87346,2.245612 1.13686,1.92384 0.19454,0.898544 1.63058,1.366526 1.48308,1.759903 1.21018,1.554043 -1.45133,2.62219 -2.35407,2.293992 -1.485,-0.2747 -1.73398,1.595903 -0.54918,2.140969 1.37005,0.221372 0.55812,1.054751 1.49104,1.272049 1.11405,1.746599 2.65837,3.557341 1.69369,5.828712 0.78045,1.465654 -1.78906,2.163386 0.48787,2.541476 0.60568,-1.265592 1.29889,-3.012529 1.74028,-4.07058 0.0613,-0.528614 -0.23616,-1.764173 -1.15938,-2.229605 -0.0832,-0.918118 -0.82542,-1.29712 -0.91957,-2.024102 -0.61165,-0.460541 -0.0818,-2.678614 0.0632,-2.092022 1.59541,-0.858033 3.45476,-3.271496 1.18036,-4.48052 -1.34796,-0.520207 -1.94387,-1.848912 -2.66839,-2.692309 -0.088,-0.08792 -0.28502,-1.778418 0.62185,-1.906215 1.25228,-2.358675 -3.06206,-3.963756 -2.46314,-5.752008 -0.20282,-1.290159 2.10284,-1.744875 2.83972,-2.59517 0.01,-0.131769 1.4931,-0.890157 0.762,-1.012448 0.12371,-1.222578 -1.62693,-4.046087 0.80816,-4.243182 1.09635,-0.826994 1.4491,-0.35727 2.30725,-1.021858 0.98507,-0.600948 2.80023,-1.535423 2.94929,-2.258308 0.75943,-0.358901 1.6888,-1.855113 0.27562,-2.299851 z m 13.46289,0.84961 c -0.13321,1.424076 -1.74431,3.505647 -3.62519,3.435779 -1.7271,-0.978066 -3.34065,2.238048 -0.66576,2.039065 0.84848,-0.448717 2.72213,-0.378804 3.10888,-1.523856 1.40718,-0.714029 2.71245,-1.961824 2.27471,-3.715479 -0.31779,-0.506373 -0.7192,0.129255 -1.09264,-0.235509 z m 24.55079,0.128906 c -2.54717,0.162132 -3.76576,3.918804 -6.70554,3.329987 -1.57664,0.316494 -3.13496,-2.819856 -4.41667,-1.269738 0.25992,1.165006 1.75521,1.837944 2.18859,2.281802 1.35715,1.25292 3.85847,1.195799 5.20878,-0.250056 1.56116,-1.073926 2.68228,-2.18735 4.1172,-3.416334 0.45632,-0.543703 0.50857,-0.680117 -0.39236,-0.675661 z m 10.14062,0.636719 c -1.05718,0.06364 -0.97545,0.617117 -1.86642,1.107674 -0.67814,-0.165265 -1.76325,1.806597 -2.95356,1.508158 0.56598,0.170766 -0.75847,0.684744 -0.86794,0.643282 -0.28883,0.02086 -3.07508,0.184349 -2.67045,1.005849 -0.87486,1.376417 2.26435,1.600798 2.48028,0.667399 2.3897,0.02127 3.66193,-2.345474 5.64112,-3.242253 0.74631,-0.627184 2.22188,-1.341438 0.23697,-1.690109 z m 14.49414,3.720703 c -1.29324,0.884837 0.80673,1.530804 1.46445,1.305888 0.80575,0.473722 3.48396,0.390084 1.68821,2.277229 -0.60486,0.544063 -1.04061,2.349911 -1.32668,2.781305 -0.83937,0.287681 -0.006,2.666101 0.11677,3.161037 -0.10319,0.542983 2.67425,1.695113 1.03696,2.594737 -0.69903,0.886982 -2.09803,2.659694 -0.755,4.147218 0.29181,1.102495 -0.34479,0.312228 0.0307,1.201502 0.62435,1.505919 2.39369,2.751305 0.52031,4.132994 -0.64152,0.897367 -1.51531,4.183159 -2.42734,2.220422 -1.9463,-0.914882 -1.48401,-3.048718 -2.91615,-4.119154 -1.91586,1.339954 0.41659,3.848514 1.68532,4.945392 0.58768,-0.01005 1.05022,0.909419 1.20993,0.486699 1.18148,0.05563 0.54164,1.730612 1.05929,2.704617 0.3247,0.765476 0.32685,2.488323 -0.57475,2.245407 -1.92755,0.700745 -2.16383,3.567879 -3.57649,4.606305 -1.49457,-1.35009 -1.96017,-3.48133 -2.14857,-5.335448 0.0591,-1.15002 1.23019,-2.408432 0.0548,-2.850424 -0.39771,-0.121877 -1.59828,0.54691 -1.33442,1.552959 -0.40649,2.45279 0.39272,4.517908 0.9784,6.655109 2.09564,1.030155 0.54713,3.899634 1.51782,5.748687 -0.16878,2.759534 -0.67477,5.379187 -1.67981,7.880359 -0.29395,1.39154 -1.04708,3.88216 -1.66451,5.40335 -1.22007,1.73442 -1.20943,3.99563 -3.33421,5.25615 -1.91202,1.85285 -3.79434,3.80832 -6.02928,5.38592 0.81746,0.19272 -1.97051,0.94476 -2.13665,0.92673 -1.2517,0.29572 -1.05238,0.92896 -2.26563,1.3117 -0.12615,0.28983 -1.77891,-0.14564 -1.33876,0.41938 -3.60442,0.86446 -7.24422,2.50225 -10.97368,3.01229 -1.00298,-0.19136 -2.18067,0.71702 -3.37372,0.33166 -2.47466,0.22378 -4.64736,-1.01311 -6.73267,-1.85512 0.10875,0.90185 -1.73674,-1.33891 -2.20211,-1.38524 -0.0778,-0.60814 -3.33297,-0.62432 -2.09368,-0.9031 -1.31351,-0.093 -2.27802,-1.45379 -3.3764,-1.65944 -2.08978,-1.04198 -4.27509,-2.5268 -4.71576,-5.04359 -0.62806,-1.05116 -0.33182,-1.20109 -1.3654,-2.15979 -0.61239,-1.66996 -0.66028,0.10938 -1.26854,-0.77719 0.5141,2.3689 1.44565,4.87876 2.80973,6.84247 2.13307,1.56154 4.68275,3.36877 7.16136,3.74197 0.45671,0.63262 1.3265,1.89639 1.65347,2.33822 0.41174,0.26515 0.98085,2.01263 0.93913,2.43389 -0.19978,1.64771 0.32548,-0.71967 0.22151,1.40962 0.22257,2.24552 0.0249,4.19497 0.0907,6.31146 -0.92391,0.52775 0.059,2.44319 -1.16802,2.9248 -0.36583,2.35161 -3.46629,2.85245 -4.9075,3.84663 -0.60657,-0.11997 -2.36615,1.12801 -3.12431,1.24616 -0.81067,0.84961 -2.26014,0.58978 -3.47205,1.44241 -1.08107,-0.79665 0.5966,0.63279 -0.78404,0.39384 -1.22923,1.25153 -2.83721,1.46114 -4.31455,1.0988 -1.94187,0.58124 -1.55696,-1.05131 -3.12179,-1.33706 -0.84078,-1.25257 -3.71076,-0.7171 -3.78116,-2.0006 1.4951,-1.71818 2.22783,-3.24513 3.20352,-5.06948 -0.0383,-1.17069 0.38402,-2.22587 0.8536,-3.29034 0.23876,-0.29288 0.45403,-2.38406 1.09872,-2.87255 0.32212,-1.21123 1.2742,-1.95671 1.82647,-2.5158 -0.30037,0.21903 1.40341,-0.42403 0.59207,-0.34006 1.34573,-0.98892 2.59992,-2.07912 3.34543,-3.53165 -1.06883,0.3423 0.54241,-3.31503 -0.85175,-1.45178 -0.41692,0.44622 0.30855,0.40116 -0.5272,0.69004 0.47008,1.30953 -2.11453,2.27081 -2.58004,2.87404 0.007,0.36429 -2.03252,0.55953 -1.49043,-0.34366 0.47476,-0.509 0.25062,-0.70763 0.69159,-0.73367 2.65024,-1.3881 -0.1691,-2.63723 -1.64695,-0.73766 -0.35025,0.87489 -2.37002,1.8095 -1.8386,-0.0236 0.19782,-1.06119 0.28193,-2.19348 0.36699,-2.72235 0.0664,-1.19813 0.19172,-2.0152 1.59713,-2.40277 0.36132,-0.14663 0.44768,0.42 1.12946,-0.36716 0.87828,-0.45836 2.03408,-0.36218 2.52862,-0.47283 1.5499,0.20814 1.74815,1.66965 2.63708,2.25467 0.71565,-0.65581 -0.14734,-2.2247 -0.58265,-2.15654 -0.69276,-0.93572 -1.21229,-1.21545 -2.20384,-1.62305 -2.21284,0.93543 -4.66966,1.35647 -6.45837,2.824 0.0917,0.41568 -0.45819,2.20746 -0.31919,2.44006 0.38376,1.35978 -0.23775,2.91878 -0.157,3.81826 -0.42301,1.63259 -0.49776,3.07524 -0.69436,4.19603 -0.0452,1.37304 -1.12256,1.98329 -1.37347,3.28 -0.79123,1.54032 -1.73912,3.24272 -2.92835,4.44732 -1.53748,-0.3568 0.51971,-2.2807 0.0383,-3.2938 -0.0966,-1.55226 1.87588,-4.87607 -0.12016,-5.74952 -0.0122,-0.559 -0.46742,-0.76693 -0.62805,-0.96076 -1.071686,-0.34612 -0.0506,-0.9051 -1.129266,-1.27039 -0.56743,0.15672 -1.486486,-0.98344 -2.18392,-0.86489 -4.722862,-1.03553 -3.476789,2.92958 0.6348,1.41213 1.556632,0.75214 3.354466,3.24515 2.444906,4.80293 -1.204249,1.86268 -2.167767,-2.04608 -2.658606,-0.27519 1.219867,0.98564 1.685489,4.95532 -0.26567,4.68936 -0.705668,-0.84507 -1.857583,-1.45587 -2.39275,-2.03902 -0.314602,-0.73079 -1.66563,-1.77403 -1.75026,-3.15305 0.267307,-0.49687 -1.139728,-1.62799 -0.41393,-1.52906 -0.364247,-1.16714 -1.101641,0.98912 -0.56628,0.59002 -0.336813,1.64278 0.764679,0.10665 0.44752,1.67221 0.488225,1.23622 0.780733,2.80256 1.83048,3.50642 0.320851,0.58478 2.685127,1.20042 2.46311,2.96477 0.640412,1.62496 -0.143447,3.88864 -1.63083,4.00094 -1.230892,0.7347 -0.673661,1.40572 -1.30274,2.35699 -0.09256,1.08598 -1.328542,3.27019 -1.32422,3.75622 -0.875088,0.6004 -0.202455,-1.34113 -0.72263,-1.55632 -0.337568,-2.22255 0.199855,-4.47071 -1.51606,-6.53029 -0.791597,-2.22669 -1.623967,-4.90629 -1.45663,-7.62438 -0.812474,-2.28879 -0.567665,-5.06287 -0.31252,-7.49943 -0.916197,0.77999 0.751799,-2.19322 0.61516,-1.7649 1.367348,-0.74738 1.171231,-1.63911 0.22276,-1.45748 -0.730833,0.0683 -2.064956,2.65359 -2.60953,0.69076 -0.466684,0.72198 -0.401868,-1.21288 -0.64862,0.90031 0.329681,1.50367 0.447301,1.84574 0.68134,3.54735 -0.432305,1.20657 0.603498,2.79993 -0.04484,3.72971 0.474164,0.9857 0.816943,2.69045 0.82479,3.43416 0.168641,-0.0331 -0.308621,1.31673 0.31239,1.34136 0.228557,1.58247 0.43796,2.1401 0.59022,3.44016 0.442547,1.17525 0.543761,2.11217 1.04302,3.43921 -0.06733,0.54293 0.238078,1.30283 0.0389,1.3638 0.695019,1.33338 -0.07858,2.68583 0.63884,3.89701 0.218642,2.48976 0.163278,6.02687 -0.36316,8.83288 1.232054,-0.12475 1.675769,1.73687 1.80517,2.94538 0.133803,-1.17035 0.728742,2.67107 0.47068,2.6798 0.265983,0.77012 0.809987,0.8296 1.13651,1.52938 -0.954034,-0.17989 1.031623,2.02288 0.40824,2.54905 -0.145914,1.13686 0.371207,2.70296 1.17796,3.61888 0.758366,1.19509 1.661558,3.39478 2.63283,4.68842 -0.519887,0.32366 1.414492,1.54955 0.9355,2.12612 0.702293,2.07259 3.203836,3.55734 3.256316,6.04752 1.10848,0.43369 -0.45778,0.79227 0.62156,1.2974 0.25475,1.97419 2.44231,2.31112 2.92653,4.11805 0.50281,1.13716 2.27336,-0.007 2.34111,1.30052 -0.25605,-0.56793 2.07513,1.65832 1.01991,1.55451 -0.55878,0.51908 -1.98407,0.59761 -1.74326,0.764 -1.19595,0.51565 -2.88853,0.32641 -4.12645,-0.11033 0.62794,-1.64442 -1.18576,-1.03631 -1.08673,-2.02766 -1.31791,-1.92683 -1.52136,-3.47745 -2.698896,-5.32665 -0.620265,-1.0261 -1.224054,-1.7254 -1.19528,-2.3762 -0.315785,-1.01032 -1.361767,-1.4942 -1.19725,-0.7791 -0.111301,0.90277 1.588444,2.0144 1.25586,3.15528 1.483918,0.25093 -0.437307,1.81637 -0.46848,1.56186 0.327951,0.0385 -0.828448,0.60208 -0.85208,0.47076 -0.235922,-0.59437 -0.780247,0.43883 -0.58796,-0.14947 -0.906215,0.12899 -1.782181,0.0654 -2.60174,0.35856 -0.07363,-0.82135 -1.702389,1.02646 -2.29318,0.63476 -1.674714,-0.0476 -2.701619,2.36019 -4.52,1.95566 -0.118616,-0.45555 -3.071808,1.49163 -2.19752,-0.60186 -0.117737,-0.83759 0.312971,-0.0832 0.24829,-1.02367 0.356009,-1.17303 1.700644,-1.44385 2.60202,-0.93143 0.632343,0.41698 3.421177,0.7981 2.81062,-0.26245 0.228982,-0.34571 -0.702525,-1.35936 -0.18136,-1.07482 1.641087,-2.60621 1.871933,-5.78785 0.9844,-8.67662 0.50635,0.39916 -0.323827,-1.38923 -0.15221,-1.53986 -0.456837,-1.71158 -1.366444,-2.43522 -1.77562,-3.70996 0.03979,-0.65091 -1.429429,-1.24155 -1.08195,-0.87084 0.01327,0.64485 0.823467,2.28653 1.43559,3.14481 -0.878239,0.0123 0.675556,1.36261 0.44721,1.64374 0.40623,1.4272 0.332442,4.09062 -0.4319,5.4677 -0.334398,0.36417 -0.617296,1.91819 -1.56831,1.92347 -0.100926,0.24662 -0.75654,0.19187 -0.69951,0.66913 -2.050874,0.74772 -3.685656,-2.32779 -4.92999,-2.60275 -0.792531,-1.48795 -3.292472,-2.22036 -2.39655,-4.60606 0.149087,-2.14269 0.674129,-4.03339 1.52512,-5.91417 -0.327719,-0.85529 2.008311,-1.44989 2.24418,-2.38148 1.1118,-1.71919 -1.150047,-2.4115 -2.11717,-1.33186 -0.386804,0.67329 -0.954292,1.62169 -1.74426,1.95759 0.64499,0.0215 -0.983725,0.83454 -1.25992,0.31664 -0.244699,-0.0925 -1.218016,-0.10204 -0.68385,0.28603 -0.801432,-0.0355 -2.077178,0.8609 -2.37716,0.65763 -0.889409,1.0789 -2.215506,1.69923 -3.43181,2.32702 -1.444791,0.83075 -3.514569,2.69352 -5.07675,2.15024 -0.01556,0.10116 -1.181377,0.27411 -0.54509,-0.13016 -2.150382,0.28561 -3.176504,-2.56765 -5.28357,-2.35002 1.008141,0.21325 -1.37281,-0.0484 -1.63081,0.25981 -1.970476,-0.75527 -1.854034,-3.55576 -4.16128,-3.95515 -0.164474,-0.60595 -3.121487,-1.43406 -2.69876,-1.36915 -0.312815,0.30179 -1.295498,-1.23509 -2.14513,-0.93655 0.207307,-0.86526 -0.142192,0.3085 -0.94367,-0.43115 -1.047304,0.0408 -1.553754,-0.73145 -2.07849,-1.62217 -0.859687,-0.71947 -0.890498,-3.47924 0.29627,-4.43583 0.388294,-0.68768 1.767664,-1.25345 1.83627,-1.63179 0.502602,-0.20301 0.931547,0.18434 1.60001,0.51026 0.890758,1.03762 2.075455,1.79795 3.06106,2.72119 0.794843,0.44869 -0.321658,0.11504 0.605,0.91339 1.470807,1.20647 1.741385,4.12144 3.03938,5.00206 0.239654,1.00802 1.284001,3.20011 1.98169,3.08853 1.024694,0.25505 2.064324,0.9959 2.84816,1.32945 -0.0584,0.0106 0.529165,0.86658 0.55183,0.39784 2.271306,1.53745 4.957472,2.40155 6.91831,-0.0981 0.261206,-0.26805 1.571873,-0.44167 1.8302,-1.04008 1.556864,-0.78072 2.661973,-1.28758 4.28893,-2.2194 0.407543,-0.86153 2.244351,-1.62119 0.53537,-2.039 -0.7429,-0.77228 0.615451,-0.48794 0.14846,-1.72513 0.628394,-0.59761 -0.276222,-2.44909 -1.17763,-1.7295 0.0778,1.20647 -0.148666,5.03736 -1.78722,4.25777 -0.749255,-1.49384 -2.199317,-3.50446 -1.49555,-5.64779 -0.175627,-1.14506 -1.580955,0.21054 -1.26777,0.35666 -0.38426,1.92642 -0.459644,3.98074 0.83394,5.42525 -0.407038,0.10816 -0.57761,0.82906 -0.52549,0.8622 -0.262188,-0.31334 -1.290255,0.52726 -0.87921,-0.0805 -2.686715,0.71466 -4.892146,-1.55204 -4.94125,-3.76252 1.29463,-1.76571 0.419574,-4.51802 1.49244,-6.10761 0.450962,-0.31564 0.838688,-1.62288 0.4631,-1.70428 1.479013,-1.73525 3.344333,-2.95148 4.8302,-4.84039 0.345781,0.64379 0.724811,-1.34464 1.56284,-0.5882 0.08141,-0.50092 1.697593,0.64474 1.21692,0.11669 1.947144,0.61042 5.983248,1.75252 5.69315,4.07845 -1.852635,1.09444 -3.263274,3.58384 -5.1057,4.25207 -0.309698,0.8321 -1.254837,2.36253 0.47299,2.51051 -0.504246,0.48869 0.35499,0.58014 0.05487,0.25888 -0.03533,-1.12719 0.735935,-2.71364 1.67017,-2.94431 -0.351135,-0.32952 1.014586,-0.15834 0.5118,-0.49539 1.411794,-0.51287 2.841325,-2.23567 3.75021,-3.0199 0.774022,-0.35236 -0.0047,-2.92985 -1.13869,-3.35173 -0.08067,-1.01963 -1.848226,-0.49257 -1.838,-1.49366 -0.589786,0.12701 -1.102898,-0.59558 -1.24431,-0.31195 -2.09802,-0.70214 -3.858246,-1.12887 -6.17424,-0.88003 -0.771313,-0.13134 -1.414437,1.02345 -1.26345,1.28813 -1.3378,1.06552 -2.653907,2.00591 -3.07448,3.59522 -1.45563,0.24905 -1.625175,1.55145 -1.56045,2.52879 -1.04397,1.70524 -1.073754,4.89762 -0.83225,6.3415 0.152702,1.22625 -0.421584,2.87521 0.70508,3.71928 0.65671,1.13983 1.634886,1.87575 3.02178,1.84209 0.450673,0.25057 1.517478,-0.17158 1.7306,0.50268 -0.965381,-0.0315 0.715392,1.22453 -0.77937,1.02453 -0.07681,0.42913 -1.896078,0.76894 -2.63889,1.42561 -0.928777,-0.39618 -3.041158,-0.83043 -3.39267,-1.23349 -2.283779,-1.00028 -4.417717,-2.72497 -5.59861,-5.26393 -1.272298,-1.5497 -1.918755,-4.25298 -3.31876,-5.21484 0.457951,-0.47404 -0.854928,-0.21064 -0.24172,-0.44482 -0.332146,-0.39405 -0.213545,0.24615 -0.55343,-0.53884 -0.820917,-1.00472 -1.673607,-1.57347 -2.51087,-2.60323 -0.631027,-0.17698 -0.905303,-1.97519 -1.87828,-1.59414 -0.713897,0.53995 -0.639431,1.43952 -1.61799,1.94839 -0.167447,0.75596 -0.948068,1.00014 -1.55324,1.29556 -0.367028,0.35572 -1.453102,1.55907 -1.05094,2.41891 -0.519807,2.59297 0.764908,4.54611 2.56228,6.09515 1.455159,0.40382 3.083953,-0.21013 4.17432,0.90256 0.679823,0.30467 1.261831,0.75543 2.11886,1.35259 -0.78783,1.92095 -3.833449,0.73719 -5.34975,1.43371 -0.01047,-0.20461 -2.548255,0.98063 -1.8823,0.94778 -0.396025,0.53243 -1.645879,0.51509 -1.39695,0.97763 -1.881514,1.06477 -2.648588,3.35014 -2.5722,5.19329 -0.497957,1.96157 2.050506,3.04873 2.64621,4.33493 1.208437,1.68657 3.330474,0.0567 4.90304,0.19122 -0.311391,-0.85557 0.536718,0.26986 0.39726,-0.56512 1.371778,-0.22988 2.382174,0.27243 3.4381,0.72782 2.086222,2.02658 2.839977,4.56461 4.15308,7.08033 0.713082,1.45747 2.759393,2.3693 4.02445,1.64389 1.440916,-1.31623 0.409712,-2.52588 -1.15224,-1.15629 -1.902682,-0.94213 -2.76774,-3.64048 -3.76572,-5.37029 -0.658053,-1.27894 -1.378831,-3.15443 -2.97583,-3.52956 -1.497967,-0.67931 -3.447239,-0.95854 -5.10224,-0.10097 -0.237048,-0.5585 -1.843362,0.85836 -2.3795,0.40791 -1.42668,-0.73952 -1.692853,-2.38929 -1.55107,-3.56451 0.293281,-0.79876 1.258204,-2.61986 1.41062,-2.7826 -0.519775,0.20682 -1.098343,-0.0676 -0.81841,-0.58396 -0.09127,0.59961 0.951339,-0.15911 0.20933,-0.25484 -0.263946,-0.8859 0.978305,-0.41241 1.13147,-0.77984 0.140437,0.68569 0.457484,-0.27399 0.54207,0.25402 1.430503,-1.14087 3.291405,-1.79533 5.11528,-1.82268 1.191222,-0.0232 0.69594,-0.28611 1.27757,-0.23556 0.564169,-0.39367 1.514782,-0.18646 1.87766,-0.4157 0.576751,-0.10836 2.318027,1.32363 1.80246,1.54533 0.194113,0.79019 -0.10743,1.14735 -0.60412,2.38047 -0.593398,0.82378 -0.97465,1.86102 -0.13526,2.46341 0.721423,-0.0217 0.155955,0.10152 0.88322,-0.28314 0.925502,-1.25652 1.809173,-3.49282 3.4807,-2.66717 1.172131,-0.8089 3.408741,0.57829 3.95162,1.46351 0.583796,1.14809 1.256136,-0.68442 2.32242,-0.4436 1.078523,-0.14477 -0.539089,-0.4412 0.95127,-0.49331 1.963281,-0.48131 4.031441,-1.97242 5.53171,-3.39677 1.445113,-1.32285 3.580482,-1.01098 4.61351,-2.5106 1.644699,1.06109 -1.015472,2.94949 -0.17154,4.49907 0.106159,0.33086 -0.685773,1.35827 -0.18742,1.79963 -0.638241,0.90443 -0.742783,3.71956 1.03729,4.44814 0.637315,0.77013 1.059531,1.60934 2.01337,1.96835 -0.943904,-0.19145 1.65829,1.07268 1.20508,1.52424 1.61286,0.5644 0.04941,3.04899 -0.72099,3.61429 -0.610288,0.49369 -0.649583,1.95225 -0.82423,2.23938 -0.199958,0.45559 -1.229037,2.31284 -2.54873,1.9071 -1.90875,0.23371 -1.745768,1.86721 -3.42803,2.35426 -0.690569,0.99136 0.818166,1.44727 0.40854,1.99656 1.4941,2.08319 1.456708,5.34536 3.29935,7.34395 -0.03214,-0.79659 1.713786,1.29584 2.27159,1.03501 2.198901,1.50022 1.497653,4.29453 2.64664,6.39347 0.116117,0.89319 1.232384,1.93821 -0.52519,2.04393 -0.106356,-0.75418 -1.173882,2.09728 -1.56489,1.84711 -0.620047,1.22945 -0.187127,2.65778 -0.96324,3.57923 -0.545029,1.27118 -1.528251,2.49477 -0.85541,3.59501 -0.180819,2.13461 -1.946444,4.13042 -0.71136,6.03031 -0.773295,-0.11704 1.368912,1.50053 0.87316,1.63524 0.919911,0.38516 -0.69003,0.14494 0.6287,0.77236 1.076024,0.54669 0.804553,1.3505 1.84409,1.88454 2.375301,1.54184 3.347098,4.90249 5.8598,5.71219 0.181646,0.34922 1.113307,1.26419 1.14884,1.0769 0.992539,1.11953 2.341712,2.33164 3.9845,1.62329 -0.417472,-0.45466 1.846382,-0.76109 0.38875,-1.32244 0.333754,0.54301 -1.202222,0.28536 -1.885,0.38134 0.192708,-0.52837 -2.136052,-0.82518 -2.02754,-1.39099 -0.851036,-0.36702 -0.83426,-1.77527 -1.62518,-2.27593 -0.615915,-0.97563 -2.208525,-1.64987 -2.38492,-2.41872 -0.344128,0.0497 -1.083845,-1.26666 -2.00769,-1.70152 -1.628505,-1.78484 -4.02902,-3.42062 -4.06257,-6.01372 0.824659,-0.75263 0.264088,-2.04554 1.19949,-2.77653 -0.334543,-0.84511 0.830186,-0.31401 0.4473,-1.24277 0.809325,-0.3789 -0.993442,-1.71617 0.47062,-2.11805 0.346051,-1.50838 1.432521,-2.51475 1.83594,-3.88562 1.015731,-1.09647 1.137283,0.5953 1.13676,0.94384 0.521954,1.9018 1.374155,4.20973 3.02944,5.38166 0.185274,0.10425 0.700041,0.42715 0.61165,0.68515 1.070083,0.92442 1.919513,0.0948 2.95921,0.0157 0.938148,1.45381 1.652699,-0.39384 2.01604,-0.56737 0.402652,0.0375 1.794182,-0.51143 1.89659,-0.81261 1.080986,-0.86404 0.878291,0.2469 1.4536,-0.31224 0.566892,0.66168 2.193376,-1.64074 1.43588,-0.30184 0.623035,0.0437 -0.164372,1.36865 -0.62708,1.16907 -1.061148,1.09622 -2.80548,2.07996 -4.16417,2.13526 0.740899,-0.28167 -1.280447,1.28936 -1.90421,0.28014 -0.496544,0.088 -1.852834,-0.043 -2.06457,-0.16166 -1.535034,-0.14553 -2.35826,-1.7322 -3.74256,-0.73595 -0.227071,0.22948 0.174516,0.62233 -0.43206,1.0029 -0.515351,-0.57385 0.06703,0.69317 -0.53751,0.10417 0.08797,1.26586 2.491029,1.33586 3.23471,1.4073 2.335159,-0.93755 5.428779,1.81862 7.26582,-0.5886 1.182167,-0.57502 2.931556,-1.75129 4.470766,-2.54916 0.34991,-0.58467 0.53373,-1.27568 0.95355,-1.51926 0.54862,0.87362 2.00457,2.12448 1.67667,3.10403 -0.36329,-0.0458 -0.43893,0.30842 -0.4113,0.4348 -0.72752,0.52821 -2.39063,1.71441 -3.740316,1.97381 -0.905258,0.51631 -1.952067,0.70501 -2.7072,1.18654 -1.139744,0.11899 -2.045868,1.46165 -3.47691,1.30637 -1.091079,0.41353 -0.893212,0.0966 -2.05699,-0.20818 0.390673,-0.41469 -0.673139,0.40925 -0.66842,-0.25097 -1.533169,0.63331 1.706929,1.82279 2.19527,1.66636 1.683325,0.63954 2.067224,-1.50126 3.27381,-0.89516 1.694701,0.11879 3.755492,0.0494 4.855786,-1.36557 0.2716,-0.56473 1.89388,-0.0466 1.46326,-0.77583 1.30142,-0.85682 3.15465,-0.50378 3.16834,1.21514 0.82142,0.18472 -0.70417,1.94212 -1.24953,1.7719 -0.74063,0.80516 -2.71398,0.93837 -3.42628,1.51171 -0.53176,-0.74551 -1.375138,1.09948 -2.328766,1.02689 0.06321,1.09755 -2.362347,-0.35553 -2.83613,0.63611 -1.354875,-1.04311 -1.101431,1.79632 -0.83747,0.59607 1.25006,0.23229 1.54983,0.25977 3.01952,0.88108 0.01026,0.65925 1.552402,-0.75436 1.0781,-0.0811 1.070994,-0.74467 2.817696,-0.7728 3.726076,-1.3058 1.27738,0.1495 -0.84845,2.13674 -1.11307,2.66816 -1.06074,0.79335 -0.30263,0.57657 -0.21969,1.17834 1.3367,-0.47707 2.20279,-2.63391 3.52041,-1.21634 0.0382,0.31923 2.13234,1.06201 2.53961,0.97319 1.05403,-0.22903 3.08967,0.52486 4.21935,-0.37886 1.05464,0.48734 2.98129,-0.6108 3.66723,-0.42201 0.45984,-0.0697 1.27001,-0.64295 2.02452,-0.81469 0.84139,-1.1104 1.65397,-0.94782 2.61262,-1.19163 -0.009,0.54027 2.08589,0.15824 1.53304,0.53988 1.5642,0.0166 1.95771,0.16309 3.59037,0.0115 -0.19547,0.90854 2.52808,-0.3424 2.26793,0.42011 1.66773,-0.0435 1.9955,2.09065 4.10479,1.19899 0.7051,-0.81957 2.55366,0.0368 3.13915,-1.49763 0.25949,0.32147 1.53597,-1.14986 2.26402,-1.34728 0.15512,-0.99207 1.7877,-0.52904 1.64717,-1.20147 1.24913,-0.50866 2.66338,-2.3904 3.48766,-2.41191 1.26014,0.0511 3.41201,-1.19773 4.44574,-0.68085 1.93117,-1.50696 1.64084,1.68651 3.42054,0.96355 0.98245,-0.0477 2.59281,-0.86705 3.37633,-0.31257 0.44277,0.47015 2.39418,-0.12486 2.99927,-0.65234 1.41221,0.18766 2.78082,0.76762 3.90696,-0.41652 0.7943,0.0649 3.48467,-0.7453 3.17773,-0.35621 -0.32069,-0.26697 0.90169,-0.19438 0.88002,-0.40703 0.89733,-0.6339 1.43236,0.82504 2.00804,-0.5875 1.78359,-1.03838 -2.17756,-0.56068 -2.01764,-1.03762 2.26103,-0.8454 5.0443,-0.42271 7.43072,-0.66584 0.19487,-0.43867 1.14674,-0.0235 1.3533,-0.43541 1.60556,-0.0268 2.92739,-0.36734 4.51568,0.13472 3.1107,-0.64122 5.85292,-0.0887 8.94269,-0.66751 2.13802,-0.021 3.84615,-0.52275 5.83924,-0.089 1.46597,-0.17752 3.07764,-0.43647 4.48176,-0.2264 1.09922,0.45776 2.47271,-0.5418 3.78491,-0.61483 1.69386,-0.21631 3.46786,-0.6775 5.23966,-0.46293 1.30516,0.48584 1.24603,-0.48915 1.49317,-0.31342 1.26976,-0.0895 1.92652,-0.14549 2.84062,-0.37091 0.0365,-0.69471 2.13941,-1.27396 1.80533,-0.71805 0.94463,-0.46643 -0.0458,1.10466 0.74423,0.58794 0.22371,-0.19056 0.96823,-1.25945 1.57217,-1.1022 -0.16004,0.0789 1.76212,-1.93329 1.99117,-2.33749 0.73693,-0.97912 2.60213,-1.37885 2.63245,-2.71049 0.18286,-0.16004 0.66543,-0.88467 0.71487,-1.45197 0.94028,-2.30646 3.52596,-4.7715 3.15005,-7.14461 -0.3848,0.72084 -0.99835,-1.13189 -1.23554,0.22861 -0.43808,1.75633 -1.85139,2.99807 -2.7432,4.11539 -1.30291,1.32758 -1.49543,3.79428 -2.97635,5.23531 -0.51887,2.06027 -2.58431,2.38033 -4.33714,2.35132 -0.80031,1.31597 -0.83273,-0.51771 -1.964,0.42371 -1.42785,0.14746 -3.68632,0.95654 -4.94393,0.65704 -1.24168,0.24224 -2.05087,0.23553 -2.88591,0.94242 -0.27633,-1.19847 -3.11656,0.76333 -4.13749,0.0922 -1.0776,0.0603 -2.24862,-0.12362 -3.56554,0.37092 -2.0227,0.55585 -4.29381,0.92571 -6.28205,0.71109 -1.84013,-1.15076 -3.79288,0.38819 -5.84488,-0.0469 -1.77735,0.26353 -4.09923,0.5446 -5.76186,0.37744 -3.13692,-0.002 -6.74252,0.43576 -10.04971,0.84823 -3.38879,0.35077 -6.51119,0.15672 -10.08086,0.19781 -1.72677,-0.0155 -3.81204,0.16955 -5.45584,0.3514 -0.50022,0.005 -2.5028,-0.23301 -1.10012,1.18033 -0.97857,0.4224 -2.52883,0.35794 -2.96512,0.91672 -3.02864,0.30189 -6.00674,1.34887 -7.55537,3.98869 -0.84462,0.26501 -2.2812,1.40244 -2.78003,1.41379 -1.24294,0.44884 -3.21645,1.73178 -3.81938,1.70384 -1.03793,-0.11875 -2.82816,0.0692 -3.47813,-0.1524 -2.19012,-0.86592 -4.58333,-0.62009 -6.55016,-1.38099 -0.6673,-0.36466 -3.17604,-0.94931 -3.61246,-2.58718 -1.26828,-1.65758 0.18634,-3.16436 1.98261,-1.40656 0.39699,0.29337 2.08304,0.21586 2.17893,0.71209 0.64092,0.12807 1.74751,0.14042 1.9663,-0.0789 1.11753,0.2371 2.49674,0.66204 3.50287,-0.0494 0.58862,1.0503 -0.19443,-0.42239 0.55546,0.009 -1.87345,-1.54479 -4.73801,-0.80494 -6.98555,-1.86411 -0.28886,0.19092 -1.20366,-0.76837 -1.19246,-0.15374 -2.05507,-1.16307 -4.18269,-0.31052 -6.2428,-1.65955 -1.22839,-0.3389 -3.24253,-3.21541 -3.52698,-0.73039 -0.86123,2.9851 2.65962,2.48668 4.33441,2.34573 0.30466,1.63305 0.73616,3.77749 2.03314,5.34193 0.17471,0.35902 1.08955,-0.33233 0.25356,0.57476 -2.16386,0.44777 -4.57012,0.9815 -6.6948,0.98306 -0.74197,0.47321 -1.45008,-0.10486 -2.42309,0.0394 -0.83235,0.94241 -3.2524,1.16727 -3.39304,0.195 0.87063,0.0119 -0.69422,-2.92673 1.06417,-2.63009 -0.31297,-0.33493 1.03259,-0.68922 0.74814,-1.22585 1.03657,-1.34355 -0.99522,0.61053 0.30597,-1.05138 -0.53913,-1.82335 -1.10519,-3.11976 -1.37243,-4.66944 -0.55479,-1.21416 0.23922,-3.73502 -1.36091,-4.08883 1.09335,0.01 -1.39117,-0.52176 -1.46531,-0.458 -1.38517,-0.33947 -0.6349,-2.8686 -2.809526,-2.29704 -1.284292,1.316 -3.697214,1.8823 -5.64678,1.04845 -2.273309,0.42902 -5.256156,0.99828 -6.14489,-1.97722 -0.201309,-0.88811 -1.018998,-2.20244 -1.13653,-2.75138 -0.76949,-1.45065 -0.147798,-3.57617 -0.95911,-4.36062 -0.293546,-0.0289 0.570948,-0.62697 -0.3966,-0.81694 -0.2946,-1.45431 -1.866503,-2.76206 -1.51357,-4.29344 0.862468,0.11058 0.818336,-0.21529 1.36385,0.13398 0.962617,0.24885 2.639768,0.31062 3.16264,0.3171 1.403693,0.65276 3.62001,0.36063 4.70724,0.78418 0.563525,-0.33809 0.897409,0.0749 0.90256,0.15875 0.522116,-0.007 1.44594,1.47965 1.84593,0.17198 0.461765,-0.11976 1.757988,-1.26839 0.34933,-0.64952 -1.093493,-0.48544 -2.881443,-1.12069 -4.04926,-1.43013 -0.697643,-0.37574 -2.071793,-0.86519 -3.15845,-0.88181 -0.819536,0.0697 -2.032344,-0.44075 -2.67999,-0.31389 -0.958445,-0.10419 -2.652152,-1.03729 -3.98462,-0.72121 -0.782424,-0.60347 -0.06009,0.58786 -1.13884,-0.652 -0.743219,-1.78812 -1.99575,-4.06407 -2.54942,-6.08733 0.392426,-0.85631 0.22282,-1.83971 1.24252,-2.21302 0.009,0.71797 1.605551,-0.97973 2.16829,-0.42023 0.595112,-0.59971 1.316265,0.61077 1.58634,-0.21755 1.039173,0.0694 2.564246,-0.7981 3.83998,-0.0473 2.463265,0.31033 4.768903,1.51488 7.1176,1.22589 0.935807,-0.0933 2.866183,0.62097 3.33216,0.20288 0.116888,-0.79607 2.765566,0.55949 2.942296,-0.21228 1.34993,-0.2534 3.50257,0.21864 4.51346,-0.60177 2.30361,-0.47367 4.309,0.52778 6.41184,-0.30802 1.87441,-0.75333 4.45573,-0.38672 6.49683,-1.59532 2.15192,-0.83587 4.27243,-1.2678 6.32535,-2.32333 -0.10217,-0.51798 0.82261,-0.25751 1.09073,-0.43117 1.73103,-0.35023 2.40589,-2.53199 4.47088,-1.80685 0.98682,-0.6078 2.21576,0.89707 3.10078,0.65694 0.12819,1.79981 -0.49824,3.79144 -0.19561,5.58269 -1.02576,1.09622 0.8636,2.47209 -0.80035,3.58385 -0.92301,0.63565 -1.85887,0.80667 -2.81311,0.6273 0.63401,-0.19548 -1.63585,0.23829 -1.79902,0.57358 -1.95291,0.83059 -4.13711,0.68864 -6.18439,1.5846 -1.97212,0.1971 -2.66061,1.40439 -4.9182,1.75055 -1.71388,0.82261 -4.03542,1.04525 -5.29532,2.40297 -1.91954,-0.13271 0.59776,1.07642 1.07446,0.14919 2.48478,1.07784 4.74539,-1.51506 6.85013,-1.45143 1.34387,-0.72904 3.16068,-0.89123 4.21065,-1.80517 1.02247,0.11037 1.9288,-0.83469 3.18371,-0.20344 2.20263,-0.50617 4.0493,-1.64144 6.25228,-2.18952 0.35515,1.60813 3.19331,-0.95705 2.54861,-1.99948 -0.94074,-1.14896 -0.18191,-1.86228 -0.4555,-3.50649 -0.2795,-2.1914 0.56502,-5.06368 -0.9639,-6.72041 -2.4399,-0.86669 -4.89167,-0.15141 -7.23613,-0.14123 -0.88764,0.91596 -0.74723,-0.035 -1.63042,0.43478 -0.5492,-0.24509 -1.41522,-0.49813 -1.82562,-0.59552 -1.48679,0.60949 -3.12445,-1.10303 -4.61819,-0.53462 -0.84356,-0.006 -1.85542,-0.2867 -2.75089,-0.12149 -0.16872,-0.617 -2.11109,-0.003 -2.61599,-0.14112 -2.19353,-0.67024 -4.80046,0.16377 -7.09642,-0.28211 -0.58191,1.51003 -1.44318,-0.38337 -1.63239,-0.77908 -0.4937,-1.30922 0.39851,-1.9507 0.49434,-3.31128 0.0461,-2.3581 1.41168,-4.37104 2.05947,-6.40293 0.0662,-0.61187 -0.29155,-1.17979 0.29558,-0.91629 -0.19251,-0.7134 -0.8234,0.0449 -0.99303,0.0426 0.046,0.9661 -0.21241,0.37237 -1.17183,1.487 -0.69027,1.49415 -0.66422,3.15886 -1.64904,3.98488 -0.64402,0.64078 0.14776,1.91161 -0.94153,1.92519 -2.28669,-2.3021 1.15697,-4.81248 2.04182,-7.0204 0.40381,-0.79604 1.51475,-2.14583 1.7017,-2.59129 0.48185,-0.80193 2.32625,-2.42657 1.5932,-0.6682 -0.20015,1.11777 -0.63932,1.12048 -0.87862,1.86739 1.2391,-0.50669 1.09259,-0.59991 0.2591,-0.19243 1.55493,-0.89215 3.12465,-2.98555 4.51796,-3.62142 0.66425,-0.31336 1.6744,1.264 1.82784,1.91853 0.67083,1.14 1.16022,2.42291 1.23525,3.50885 0.24,0.79085 0.93993,1.55172 1.39703,2.33853 2.56618,3.65064 6.97519,1.03402 10.4893,2.21838 0.61581,0.67028 0.39537,0.63718 0.62958,0.43905 2.13811,1.25846 4.30666,-0.12542 5.92259,-1.36533 2.16862,-1.07746 3.26284,-3.82916 3.25637,-5.97783 0.80972,-0.50278 1.46372,-3.56997 0.36318,-2.4217 -0.86899,-0.26621 -0.5566,-2.45458 -1.83685,-2.98408 -0.13652,0.36282 -0.21674,-0.0826 -0.54603,-0.11231 -0.73565,-1.94881 -3.42254,-1.08122 -4.9311,-0.86555 -1.211,0.46105 -3.07368,0.10689 -3.58247,-1.07466 -0.35118,-0.17016 -1.96866,-1.16013 -1.43478,-1.15748 -1.17227,-0.65639 -2.38611,-1.65347 -3.39667,-1.88269 0.0857,0.26445 -0.66873,0.28328 -0.19659,-0.0513 -2.55687,-0.70933 -6.38943,-2.15787 -8.15246,0.38917 -0.64313,1.09815 -2.3713,2.10799 -3.33777,3.07664 -0.26568,0.46139 -1.43417,1.34829 -1.74912,1.86887 0.63433,0.24675 -1.6927,1.27408 -1.13265,1.91546 -0.85009,1.63521 -2.01569,3.23424 -3.07196,4.49624 0.32398,-0.0724 -1.28068,1.67782 -1.33381,2.1201 -0.31645,1.70209 -2.29368,2.55761 -3.027716,0.49362 0.191393,-1.51082 -1.255297,-1.91348 -1.28939,-3.4131 -0.601015,-0.27032 -0.706721,-1.31532 -1.19926,-1.5148 -0.991192,-1.61516 -1.598479,-4.68349 -2.11938,-5.57845 0.0846,-1.48789 -0.193654,-3.17324 1.38661,-4.12741 0.190835,-0.95852 2.45336,-2.72391 0.94137,-3.33504 -0.263981,0.35401 -0.823367,-0.18696 -0.66616,0.19657 -0.629186,0.26737 -1.167826,0.76614 -0.90607,0.90325 -0.795216,1.34857 -2.422913,1.89402 -2.05103,-0.39064 -0.425749,-2.21867 0.03367,-5.5473 3.00995,-5.40026 1.844635,-0.49804 2.36286,1.43767 3.528216,2.53708 -0.0547,0.42598 1.00976,1.03091 0.90877,1.23226 1.23404,0.91059 2.97093,1.46917 3.57456,-0.35633 2.54362,-1.47388 3.56769,-4.46193 5.1327,-7.11423 2.01445,-1.55899 4.28584,-0.0694 6.34935,-1.39559 1.70918,-1.2949 2.77226,1.36716 3.40422,2.60237 0.16044,0.12564 1.01384,0.76073 1.43141,1.43668 3.28386,3.19167 7.41874,5.19877 11.86636,6.58595 2.7395,0.85298 5.15888,-0.20081 7.82987,-0.0223 1.09338,-0.43212 1.6803,0.2226 2.68705,0.076 0.0265,-0.49797 1.71069,0.50057 2.05722,-0.0908 0.56203,-0.0663 1.82241,-0.39809 2.58224,-0.387 1.09432,-0.35774 1.54416,0.68118 3.0393,0.41471 0.79785,-0.451 1.45755,0.13647 2.06122,-0.35184 1.9874,0.44506 4.20367,-1.7219 6.10403,-2.25979 0.0942,-0.86474 0.77571,0.29024 0.9424,-0.54134 1.00524,-0.97799 1.29492,-2.42172 2.14379,-3.4749 0.24159,0.51528 0.86461,-1.61161 1.54332,-1.80935 1.33362,-1.07919 2.92639,-2.29438 3.86317,-4.00661 1.006,-0.74448 0.71658,-1.01232 1.67911,-1.38625 0.24906,-2.08916 2.1507,-1.89567 3.57733,-1.49413 -0.15966,1.01173 1.35961,-0.56964 1.31633,0.50661 1.32587,-0.29663 2.02807,1.47469 3.53739,1.20884 2.61656,1.00588 5.90811,0.21121 8.31771,1.15612 1.23072,-0.41277 3.13003,0.96033 4.10627,0.16368 0.77736,0.46184 1.07121,0.36548 1.89734,0.23016 1.04479,-0.25702 -0.18614,-0.57119 -0.0195,-0.809 -0.31207,-1.00137 -2.23621,-0.82689 -3.29369,-1.12844 -2.66185,-1.48858 -6.13708,-0.93713 -8.74919,-1.36085 -1.87498,0.12549 -2.12769,-0.81925 -3.89967,-1.25082 -2.06643,0.0869 -0.35783,-0.20581 -1.49037,-0.2874 -1.73017,-1.32967 -4.73464,-2.20634 -7.33449,-1.85603 -2.25799,-0.35402 -5.22961,-0.50611 -6.34206,-2.40938 -1.10319,-0.80172 -1.83877,-2.8595 -2.95196,-4.0377 -1.0004,-2.23383 -0.66901,-5.04414 -0.1094,-7.34159 0.1821,-2.05014 -0.36532,-4.47061 2.45781,-4.73075 1.39276,-0.90745 3.92169,-1.15136 4.05623,-3.02787 0.93611,-0.77917 2.64851,-1.84329 2.63118,-2.83338 0.36207,-1.41212 2.09641,-3.00568 2.3655,-4.75823 1.23681,-1.24661 0.55673,-4.01932 2.86554,-4.26605 1.90774,-1.10687 2.99039,-0.94594 4.72153,-1.51995 1.6029,-0.0442 2.15052,-1.5911 3.48734,-1.56305 0.99902,-0.42535 1.87873,-1.103018 2.0806,-2.018647 0.60906,0.757306 0.17209,-1.592196 1.05678,-1.632903 1.16874,-1.374825 1.31287,-3.434939 1.1625,-4.689749 0.13984,-2.152775 0.15864,-6.248681 -2.2606,-7.704519 -1.25429,-0.82478 -3.88402,0.05467 -3.88953,-1.879567 -0.14706,-1.400494 -0.99891,-3.601899 -0.29105,-4.695968 0.17049,-0.817113 0.61484,-2.391208 1.47641,-3.032046 -0.21891,-0.88193 1.44054,-0.922695 1.2595,-1.942042 1.26402,-1.542799 -2.41251,-1.783073 -2.05556,-3.432295 -1.58237,-2.328082 1.76368,-4.556837 2.09554,-6.713769 -1.49135,-0.442719 -2.96663,-2.095273 -2.27731,-3.3758 0.48043,-0.684174 0.42662,-1.947593 1.22445,-2.464153 -0.63652,-1.052262 3.05034,-2.634145 0.99437,-3.186369 -0.51957,-0.198484 -2.31674,-0.893499 -2.58706,-0.391982 0.17536,-0.705945 -1.1691,-0.203031 -0.66833,-0.590891 -0.72558,-0.07794 -1.61667,0.08512 -2.27495,-0.26846 z m -14.97656,2.144531 c -0.45018,0.278844 -0.51959,1.217381 -0.52737,1.369711 0.44943,1.166072 1.59433,1.142948 2.44934,1.879137 -0.85107,0.0929 0.96764,0.105281 0.85119,0.55309 1.97087,1.13799 4.24469,0.676951 6.30046,0.57035 -0.5882,-0.972863 -1.50587,-1.289607 -2.38547,-1.197536 -0.40741,0.10551 -1.30051,0.543448 -1.76038,-0.09585 -0.50681,0.04314 -1.30871,-0.521039 -1.03456,0.05309 -2.09241,-0.506734 -1.87831,-3.240796 -3.89321,-3.131998 z m 10.33594,1.724609 c -1.0303,0.657122 -0.16547,1.930505 0.73645,2.180417 0.45103,0.513513 0.60765,-0.146782 1.53395,0.410339 3.42115,0.705802 3.21611,-1.145202 0.56035,-1.533302 -1.17004,-0.534101 -1.51029,-0.782394 -2.83075,-1.057454 z m -49.7793,0.296875 c -1.51692,0.712759 -2.42214,1.802707 -3.76381,2.393325 -1.4964,0.469799 -1.91425,3.472536 -0.73571,3.494189 1.55868,-0.445856 2.54241,-1.798756 4.54312,-2.318949 0.59316,-0.686091 1.70265,-3.739941 -0.0436,-3.568565 z m -13.03906,1.789063 c 0.4959,0.614143 -1.5598,0.457753 -0.94981,1.541941 -0.3479,2.818635 3.10677,3.759771 5.01115,4.082035 1.22373,-2.370519 -1.86085,-1.980369 -3.07438,-3.333993 -0.0385,-1.01453 0.70511,-2.241215 -0.98696,-2.289983 z m 62.41797,6.916016 c -1.64466,1.264656 -2.79703,3.586638 -3.60016,5.353499 0.2605,0.647564 -0.7556,1.432854 -0.39275,2.100173 -0.35335,0.905727 0.59967,2.617447 1.43032,1.245867 0.0673,-1.143298 1.23768,-1.57679 1.41807,-2.345955 -0.70331,0.602648 0.36564,-0.791166 -0.42285,-0.178501 -1.44583,-2.230698 2.46818,-3.580839 1.99906,-5.939652 -0.0245,0.02771 -0.42319,-0.401599 -0.43169,-0.235431 z m -55.43555,1.521484 c -0.6836,0.696162 -0.70047,1.529414 -1.72883,1.781973 -2.02315,2.04388 0.47928,4.825728 2.69023,5.092318 2.05473,-0.506952 -0.94158,-1.38516 -0.67258,-1.834748 -1.17836,-0.383846 -1.48149,-2.07305 -1.18801,-3.077012 0.5558,-0.639464 1.26927,-1.010286 2.20028,-1.147279 0.3776,-1.08458 -0.42339,0.401944 -1.30109,-0.815252 z m 35.91992,4.652344 c -1.80756,0.750621 0.51486,3.239457 1.80447,3.591885 1.35822,0.134376 0.61828,0.770781 2.10196,0.668348 0.49052,0.349018 2.16499,1.447683 2.66135,1.583982 0.36164,-0.300511 2.10026,1.215805 2.76797,0.298806 1.88863,-1.084473 -0.46906,-1.541839 -0.59649,-2.570696 -0.39154,-0.775541 -1.75353,-2.048901 -2.52619,-2.867231 -1.50612,0.01362 -4.10701,-0.394583 -5.13152,-0.564867 -0.34704,-0.122667 -0.72255,-0.112602 -1.08155,-0.140227 z m -21.17969,0.0625 c -2.41669,0.791073 -6.38714,1.377179 -7.35703,4.165917 -0.66939,1.393186 -0.88942,2.15933 -0.17313,3.136762 2.07607,0.165895 3.46354,-2.347871 5.1397,-2.910551 0.85692,-1.03242 2.90349,-1.73987 3.26888,-3.618141 0.43244,-0.04141 -0.41983,-1.098574 -0.87842,-0.773987 z m -15.40625,5.214843 c -1.20096,0.962919 1.28479,2.531391 -0.16302,3.115886 -1.33403,-0.631939 -0.99432,1.442267 -1.19154,2.14114 -0.81345,1.8563 1.02667,3.027545 2.07754,1.491766 1.00837,-0.769607 0.48911,-1.238623 1.4785,-2.133263 -0.44354,-0.513562 0.0406,-1.573457 -0.0422,-1.964045 -0.48286,-1.317108 -0.80433,-2.345524 -2.15924,-2.651484 z m 32.96289,3.195313 c -1.96412,0.602461 0.11428,3.11777 1.17596,4.062626 1.05991,1.456399 2.12147,1.199028 4.00271,1.84204 1.36869,0.526664 3.98818,0.752598 4.99769,0.369448 1.00708,0.876199 1.60785,-2.143048 0.0233,-1.921976 -1.66003,-0.09676 -3.69003,-0.03124 -4.78618,-0.156249 -0.97741,-0.530402 -3.31473,-0.920716 -3.34241,-2.192075 -0.3588,-0.273531 -1.83481,-1.993747 -1.67757,-1.772037 -0.1299,0.0035 -0.20107,-0.353298 -0.3935,-0.231777 z m -16.57421,2.060547 c -1.39158,-0.0202 -1.89235,1.67941 -3.02377,2.174533 0.58029,0.10384 -1.68295,0.786172 -1.3928,1.16699 -0.72249,0.2602 -1.63653,0.347199 -2.46369,0.693833 -1.15658,-0.799447 -2.77823,0.09876 -2.88932,0.124767 -0.95944,1.393362 1.38145,1.884882 1.40445,2.114078 2.22555,0.105888 4.46331,0.584716 5.77616,-1.486696 1.53385,-1.193891 3.02382,-2.841197 2.58897,-4.787505 z m 50.22851,3.783203 c 0.18604,0.180855 -0.50777,0.229559 0,0 z m 0.12695,0.05469 c 2.28789,1.066984 1.9802,2.63248 2.31035,4.976704 0.47109,2.378386 -1.06823,4.902949 -2.26191,6.49311 -0.33629,0.577567 -1.72435,2.348523 -3.2511,2.410376 -1.72648,0.03663 -3.58819,0.592102 -5.15366,0.337782 -0.99449,-1.639778 0.40657,-3.717517 0.58278,-5.221105 0.67726,-2.596135 0.29238,-6.000194 2.89532,-7.844941 0.80101,-1.996503 3.58117,0.222452 4.87822,-1.151926 z m 2.02539,2.632813 c 0.0115,-0.08531 -0.0406,-0.02005 0,0 z m -5.76757,-2.613281 c 0.0179,0.07189 -0.19274,0.09945 0,0 z m -0.33789,0.0078 c 0.0128,0.08599 -0.0859,0.03328 0,0 z m 4.58203,0.01758 0.0254,0.0293 z m -1.53321,0.03906 c 0.23712,0.02329 0.0416,0.0906 0,0 z m -0.16601,0.0059 c 0.0475,0.109928 -0.0219,0.02416 0,0 z m -2.30274,0.03516 c 0.009,0.01678 -0.0291,0.01458 0,0 z m 0.79883,0.03906 c 0.0687,0.02918 -0.002,0.02318 0,0 z m -1.49609,0.0293 c 0.13156,0.08724 -0.28947,0.214414 0,0 z m 0.42187,0.03125 c 0.0195,-3.99e-4 5.2e-4,0.0056 0,0 z m -0.80859,0.195312 c 0.0528,0.02778 -0.18888,0.0043 0,0 z m 5.68555,0.244141 c 0.33621,0.163156 0.009,0.09126 0,0 z m -6.94336,0.929687 c 0.0437,0.01523 -0.0133,0.01075 0,0 z m -70.15235,0.04687 c -1.21476,-0.424581 -0.74944,1.181679 -1.59855,0.859647 0.065,1.165332 -1.91869,0.195597 -1.38922,0.875548 -0.92581,-0.05713 -1.91148,-1.141649 -3.042916,-1.133798 -3.013423,-0.887767 -6.157477,1.525396 -7.9843,3.381456 -0.352518,1.310892 -0.887632,2.95837 -0.99884,4.237072 -0.716778,0.02284 -0.0097,2.779914 -0.7463,3.560831 -0.656461,1.813104 -1.599205,3.724974 -3.41234,4.425514 -0.54466,0.92485 -2.581752,1.00834 -2.85757,2.07248 -0.850063,-0.79652 -1.853486,1.10269 -2.47661,1.94038 -1.694245,1.8441 -2.060535,5.13751 -1.00172,6.94741 0.487197,0.79601 0.962943,1.99421 1.65255,2.74049 -0.712027,-0.21652 0.783625,1.60658 0.65242,1.50655 0.57463,0.29391 0.975755,2.10268 0.4885,2.98093 -0.17789,1.98141 2.383956,6.42009 0.01572,5.90453 -2.311339,-0.98885 -3.366347,-3.03287 -5.13878,-3.95922 -0.87398,0.0933 -0.32385,-0.34666 -1.13907,-0.86403 -0.213591,-0.73162 -1.40756,-0.63714 -1.84204,-1.45259 -1.115324,-0.89513 -1.540367,-1.21067 -2.86149,-2.24999 -0.433745,-0.55686 -1.746853,-0.96139 -2.04313,-0.88864 -1.077055,0.18383 -1.042449,-0.85372 -1.16215,-0.0752 -0.407493,-0.25554 -2.439034,0.48699 -2.36124,0.55888 0.47191,-0.094 -1.289705,0.1847 -0.29676,0.2058 -1.41388,-0.0339 -2.740241,1.32946 -4.22269,1.54705 0.116194,0.71752 -0.705686,0.14106 -0.3198,0.39351 -1.986313,1.20648 -4.079876,2.28046 -5.54733,4.56473 -2.241213,1.63755 -2.170222,4.48862 -3.37957,6.52611 0.357693,0.0713 -0.663693,1.38674 -1.15849,1.58102 -0.04724,-0.57142 -0.919713,1.27613 -1.48118,0.3847 -1.022263,0.56713 -0.798067,-0.39669 -1.99503,0.33499 -0.0835,-0.089 -0.641496,0.0827 -1.02812,-0.0573 -1.085368,-0.44849 -2.49394,0.39071 -3.06126,0.76521 -1.418485,-0.26656 -1.697281,2.08065 -2.5902,3.04343 0.01262,0.18314 -1.031122,2.86597 -0.31209,2.00024 -0.192492,0.9289 0.121212,2.03167 0.25259,2.67111 0.616239,-0.0209 0.791657,1.6718 1.56099,1.38789 0.337643,0.76817 0.10579,-0.54002 0.54361,0.82401 0.354112,0.31857 1.521921,1.35043 1.428,1.25639 0.249459,0.60402 1.39365,1.32752 2.11954,1.51532 0.163585,0.34109 1.703238,1.34065 1.99992,1.29746 0.889271,-0.10797 3.040277,0.97463 4.58451,0.96073 3.036602,0.55286 7.2416,0.92607 9.18374,-1.74779 0.504085,-1.09448 2.358915,-2.09788 2.33798,-3.14116 0.839521,-1.98126 1.47814,-6.35725 4.72077,-6.18164 1.296627,0.11588 2.654233,0.5407 3.86135,0.62037 0.913054,0.24115 3.104542,1.21953 3.73264,0.38769 0.48267,0.0955 0.487302,-0.51432 1.06074,-0.67817 0.291313,-0.45499 1.383796,-0.91257 1.77952,-1.45581 1.470244,-0.99446 3.661936,-3.43589 5.13876,-2.26561 0.68551,1.90919 -0.426011,3.26642 1.04277,5.09825 0.345306,0.75514 0.709371,1.53556 1.0019,1.6e-4 -0.217175,-1.74317 0.271718,-3.29809 -0.3688,-4.91054 0.915609,-1.70882 -0.293137,-3.29516 -0.51563,-4.93819 -0.58434,-1.77086 0.645298,-4.27991 -0.84576,-5.71965 -0.353526,-1.23462 0.06693,-1.55685 -0.25195,-2.71769 -0.179792,-1.57297 0.134726,-2.85695 0.33822,-4.47543 0.711825,0.24333 1.583722,-1.63792 2.75219,-1.29678 0.974592,-0.40663 3.004014,-0.73433 3.37529,-2.25212 1.065518,-0.94247 1.646976,-2.28557 1.77184,-3.77808 0.493245,0.2525 -0.258623,-0.84545 0.72855,-0.93471 -0.892703,-0.30055 1.117103,-1.59279 0.46893,-2.28204 0.394722,-0.71341 0.513591,-1.50495 0.83026,-1.70976 -0.198224,-0.53698 0.759544,-0.64918 0.72093,-1.16305 -0.201823,-0.47344 1.109124,0.073 0.71108,-1.09861 -0.192193,-0.84813 0.777353,-1.26024 1.30441,-1.75932 -0.404177,-0.0793 1.110908,-1.62934 -0.56054,-0.66248 0.788199,0.0947 -1.700721,0.67913 -1.33601,0.96767 -1.232823,0.90812 -2.534496,3.59689 -3.18159,5.53823 -1.236705,1.55052 -0.83944,3.89999 -2.55309,5.40891 -0.656121,0.96674 -0.627323,1.91328 -2.03329,1.72546 -1.571719,-0.18995 -3.048138,1.47454 -4.34576,2.01592 -1.618984,-0.59694 0.227428,-1.95797 -1.4197,-3.02061 -0.889638,-2.77697 0.771257,-5.74948 3.08467,-7.01214 0.156582,-1.18717 2.600398,-1.9284 2.84553,-2.15151 1.854682,-1.32754 2.441591,-4.59789 3.10959,-6.547105 -0.02943,-1.046244 0.571673,-2.818402 0.33595,-3.844473 0.543921,-2.870751 3.126638,-4.213051 5.74237,-4.47904 0.375723,-0.438369 2.377074,0.293946 2.19327,0.369205 2.023006,0.587561 1.783276,2.7262 4.238856,2.799685 1.506,1.39235 3.17055,2.41539 5.15676,2.589877 2.54736,0.667963 5.82479,-0.786206 6.97358,2.070897 0.60746,0.07779 0.0124,0.679902 0.33141,0.611923 0.25402,1.098593 0.82363,2.255091 0.0944,3.286001 0.84573,-0.22077 0.1649,1.33719 0.43363,1.90923 -0.45197,-0.0163 0.71177,2.44071 0.0364,1.6057 0.4746,1.42909 -1.30813,2.40328 -2.18786,2.55539 -1.54516,1.67404 -4.06012,1.38906 -5.85461,0.38516 -0.95253,0.11374 -0.14672,-0.71244 -0.92042,-0.29764 -1.78761,-0.91993 -3.40399,-1.57251 -5.74617,-1.44509 -0.62323,0.28311 -1.57239,1.52628 -1.38857,1.61533 -1.088948,1.52264 -1.98939,4.59617 -1.500396,6.56546 -0.519745,2.03392 -1.911267,4.02866 -4.18196,4.55809 -0.197395,-0.29867 -1.182222,1.05343 -1.69353,0.44699 0.199076,0.36951 -1.027081,0.96448 -0.56076,0.46769 -2.471776,0.61063 1.133909,1.35258 1.93371,0.58947 1.55914,0.12504 2.613093,-1.56439 3.79489,-2.22433 0.619515,-0.44391 0.859632,-1.47148 1.26378,-1.45158 0.353546,-1.41774 0.808046,-2.63935 0.903386,-4.2331 1.23497,-0.11398 0.30237,-2.06536 1.6878,-2.65003 1.09153,-2.31807 4.04584,-0.21666 5.50661,-0.37682 1.33783,-0.20673 1.80276,1.09533 3.06794,0.6114 1.38871,0.46703 0.5727,-0.43681 2.15276,0.0149 1.37463,-0.50951 1.72986,-1.12082 3.0199,-1.39214 0.49086,-0.26474 0.99709,-1.46734 1.63387,-1.55938 0.27588,-1.08197 0.74121,-1.4025 0.6028,-2.37205 -0.77198,-0.0758 -0.0401,-2.64813 -0.0942,-3.44396 0.35474,-1.24468 -0.33299,-0.35412 -0.17919,-1.498884 0.0327,-2.160398 -1.24637,-4.150098 -2.24466,-5.813 0.66672,-0.844552 -1.50037,-2.130303 -0.91556,-2.586482 -1.96576,-0.226054 -0.97287,0.729098 -1.17121,1.973391 -0.11883,1.842705 -2.73567,0.270026 -3.788,0.737492 -2.07769,-0.249581 -4.51181,-1.012398 -5.0529,-2.905689 0.82519,-1.278102 2.99,-1.862539 3.3269,0.125597 1.85286,1.603169 5.93989,0.02217 5.87549,-2.455192 -1.45661,-1.456628 -2.8613,-0.569418 -3.65404,0.533211 -1.63653,0.118722 -1.9164,-2.041825 -3.73073,-1.760736 -0.58555,0.850097 -1.13273,-0.148128 -1.78083,-0.06573 z m 77.82422,0.0039 c 0.0198,0.08602 -0.0215,0.01518 0,0 z m 0.0176,0.21875 c 0.13529,0.07169 -0.0175,0.04254 0,0 z m -7.90039,0.410156 c 0.29076,-0.08948 0.0471,0.09573 0,0 z m 8.20703,0.04492 c 0.3659,0.178419 0.0109,0.116019 0,0 z m -8.24609,0.232422 c -0.14901,0.03681 -0.14901,0.03681 0,0 z m 8.43554,0.43164 c 0.17952,0.01863 -0.0857,0.02418 0,0 z m -5.08398,0.453125 c -1.50902,0.646957 -0.59268,3.891021 -1.69725,4.283948 -1.37476,0.493161 -2.03742,3.251415 -0.0801,2.873516 0.99503,-1.9482 3.86177,-2.760133 3.09785,-5.533631 -0.0643,-0.829889 -0.3897,-1.608406 -1.32048,-1.623833 z m 4.96289,0.0957 c 0.001,0.05935 -0.0323,0.005 0,0 z m 0.0527,0.08789 c 0.62627,-0.03115 0.10183,0.165898 0,0 z m -5.43164,0.101562 c 0.0217,-0.0037 -0.0232,0.02827 0,0 z m 1.42969,0.525391 c 0.0331,-0.001 0.0607,0.07921 0,0 z m 0.16406,0.212891 c 0.0725,0.03314 -0.012,0.246737 0,0 z m 4.04297,0.296875 -0.10156,0.0957 z m -9.78125,0.835937 c -0.0576,0.12738 -0.43359,0.169129 0,0 z m 9.77539,0.472656 c 0.45283,-0.05689 0.10116,0.121664 0,0 z m -6.14062,0.566407 c -0.0143,0.02736 -0.015,0.0026 0,0 z m -0.0684,0.24414 c 0.41318,0.488026 -0.0619,0.2061 0,0 z m -0.82422,1.03711 c 0.0333,-0.008 1.7e-4,0.02174 0,0 z m 1.6582,0.189453 c 0.0597,0.07684 -0.0406,0.01004 0,0 z m -2.33203,0.398437 c 0.01,0.0437 -0.0188,0.01641 0,0 z m -0.18945,1.03711 c 0.12025,-0.03298 0.0313,0.113482 0,0 z m 0.98437,0.453125 c 0.0122,0.007 -0.001,0.02085 0,0 z m -1.39843,0.05078 c 0.23431,0.196671 -0.0621,0.102081 0,0 z m 0.75976,0.316406 c 0.0284,0.0371 -0.004,0.01924 0,0 z m 5.98633,0.09961 c 0.0228,0.08444 -0.002,0.01962 0,0 z m 0.13672,0.226562 c 0.10433,0.05464 -0.006,0.02329 0,0 z m -0.39844,0.03906 c -0.0232,0.04117 -0.0209,0.0062 0,0 z m -9.29687,0.220703 c 0.12209,0.0049 0.0217,0.04337 0,0 z m 8.68554,0.537109 c 0.0279,0.02818 -0.03,0.05 0,0 z m -78.61132,0.683594 c -0.53985,0.398932 -1.53185,0.489632 -1.87817,0.564218 0.38696,0.388576 -0.746911,0.366208 -1.058456,0.887285 -0.815425,0.966926 1.427286,-0.16958 1.113676,0.432236 0.52414,-0.614368 2.17452,-0.998848 1.82295,-1.883739 z m 40.54882,0.863281 c -1.66786,0.02201 -3.02012,1.772538 -4.74708,0.737671 -0.95413,0.351337 -3.34395,-1.184699 -3.03597,0.437047 1.21962,1.77556 3.70145,2.8325 5.78204,1.42774 0.83692,-0.75863 3.29595,-1.16953 2.00101,-2.602458 z m 35.1836,0.794922 c 0.63558,0.129466 -0.16064,0.01902 0,0 z m -1.84571,0.207026 c -0.43272,0.38045 -0.0971,-0.075 0,0 z m -0.59961,0.0488 c -0.009,0.25025 0.3158,-0.245348 1.4e-4,2e-5 z m -0.44531,0.0547 c 0.31219,-0.0417 -0.0991,0.11894 0,0 z m 1.05274,0.0449 c 0.38594,0.24264 -0.26309,0.34695 0,0 z m -1.88086,0.16406 c 0.39448,0.18285 -0.19283,0.0154 0,0 z m 0.60742,0.22461 c 0.008,0.006 -0.0123,0.0207 0,0 z m -17.90625,3.63672 c -1.40252,0.60661 -3.0666,4.31458 -0.44013,3.54677 1.26414,-0.77022 2.52082,-2.82172 0.44013,-3.54677 z m -7.14844,3.59961 c -1.15514,0.13297 -2.116,0.86937 -2.79695,0.92789 -0.1068,0.4025 -1.99968,0.51877 -2.29193,0.88648 -1.53892,1.43904 -4.42244,1.55755 -6.59598,1.22696 -1.72167,-0.77073 -2.25505,-0.33723 -3.58422,-1.06624 -1.56127,-0.70181 -3.53378,-1.51535 -5.15532,-0.66894 -0.58855,0.86418 -0.49068,0.62399 0.89417,1.23236 1.14984,0.072 2.7806,0.98668 3.34483,0.98935 0.87465,0.19654 1.79444,0.91097 3.07344,0.72183 1.46618,0.23321 2.65796,1.66688 4.27596,1.35728 1.84366,-0.72725 4.31193,-1.38736 5.79665,-2.51387 1.04047,0.02 4.53599,-1.31551 3.53692,-3.00621 -0.004,-0.24575 -0.51974,0.0895 -0.49757,-0.0869 z m -27.89062,0.74219 c -0.67853,1.01804 -0.003,0.83959 0.22133,1.94971 0.38563,-0.12162 0.806,1.74997 1.59069,0.59787 0.27483,0.74237 0.21483,-2.42426 -0.71797,-2.22077 -1.10571,-0.55045 -0.69302,-0.1064 -1.09405,-0.32681 z m -53.044916,11.40039 c 1.818515,0.4334 2.770336,1.43538 4.22865,2.15889 1.047396,0.96153 2.613443,2.92921 3.96896,3.59439 0.727532,0.36885 3.072436,2.6296 0.3769,1.83595 -1.294356,0.64517 -0.384874,-0.49267 -1.41232,-7e-4 -2.060575,-0.11263 -4.496527,-0.78513 -6.14485,-0.38414 -0.720065,0.0132 -2.581581,0.57996 -2.97273,1.03468 -0.75796,-0.67285 -1.60138,1.99031 -1.71688,0.89429 -0.137447,1.17874 -0.773004,-0.13934 -0.97486,1.16857 -2.164311,2.21593 -4.674239,5.02849 -6.86607,7.79718 -1.503473,1.05902 0.519446,3.81052 1.15459,1.78916 -0.137994,-0.97433 0.822251,-0.76294 0.74695,-1.32638 0.685382,-0.17641 1.083629,-1.52457 1.52389,-1.45991 0.253661,-0.52948 1.195607,-1.31438 1.10607,-1.62633 0.959687,-1.18263 2.730515,-2.10001 2.25421,-3.82952 0.59573,-0.0116 1.407173,-0.67624 1.00188,-0.64475 0.405351,-0.19713 1.263419,-0.96181 1.03537,-0.38961 1.315129,-0.82337 -0.06583,0.73553 -0.50999,0.82434 -0.542161,0.70193 1.418889,1.27748 1.29323,0.42793 1.241365,-0.43627 3.0189,-1.96453 4.14088,-1.94407 0.15315,-0.41264 1.462342,0.14121 0.99424,-0.44631 2.848417,-0.31599 5.518139,0.80858 8.40265,-0.13393 1.438603,-0.30465 1.244593,1.88623 3.00805,0.95447 0.996184,0.0241 0.818401,2.17871 0.1132,2.11712 -1.195093,0.58286 -1.942182,1.97118 -3.25381,2.43181 0.335742,0.37541 -1.751203,1.91137 -2.25997,2.6283 -0.861595,0.62289 -2.32805,2.245 -3.1545,1.77915 -0.531305,-0.1276 -1.901422,-1.09463 -2.78537,-0.99905 -2.385796,-1.27347 -6.339957,-0.46392 -7.72913,2.29212 -1.409174,1.65435 -0.678677,4.21539 -2.36141,5.75028 -0.426905,0.61941 -1.255041,0.69325 -1.30864,1.57312 -0.814662,0.36557 -1.442549,0.9382 -2.68758,1.12549 -1.959656,0.14387 -3.275286,-0.54721 -5.40919,-0.38113 -1.9455,-0.55773 -3.223235,-0.60355 -5.17647,-1.29952 -1.222592,-0.65436 -2.422585,-2.0791 -3.14117,-3.01444 -0.517607,-0.72842 -2.428401,-2.36206 -1.95064,-3.81234 0.141152,-3.83919 4.452893,-4.50433 7.46887,-4.62453 3.379036,-0.54187 3.892533,-4.11798 5.48424,-6.51085 -0.22881,-0.89221 0.962731,-1.63479 0.99623,-1.94654 0.839029,-1.15936 1.776434,-4.10695 4.09388,-3.11555 0.686825,-1.2339 1.814803,-0.41217 2.40273,-1.99973 0.408571,-0.0931 1.265193,-1.18811 0.89856,-0.79084 1.494126,-1.13223 3.286681,-1.31547 5.12135,-1.49707 z m 86.248036,0.61719 c 0.20003,0.21828 -0.004,0.0876 0,0 z m -0.36719,0.0898 c -0.001,0.1059 -0.33862,0.25176 0,0 z m 0.42969,0.12305 c 1.00939,1.55058 0.11189,4.15221 0.22146,6.04883 -0.21083,3.55785 1.96211,6.83241 4.45193,8.98303 0.99212,1.1652 1.46007,2.75225 3.36228,2.8583 1.35043,0.32395 4.47246,0.70079 2.73263,2.61617 -0.59112,1.91305 -2.84935,2.91017 -2.77066,4.84895 -0.5313,1.10433 -0.85671,1.12317 -1.53562,2.11568 -1.4108,1.10683 -2.21577,2.64616 -4.18666,3.01619 -1.91294,1.22967 -4.95793,1.96671 -6.77886,1.99599 -1.73339,0.85202 -4.86923,-0.70367 -6.95368,0.69343 -1.1368,-0.3239 -3.07514,0.50864 -3.30326,0.47918 -1.79315,-0.42201 -4.72634,0.10004 -5.98684,0.13644 -2.14605,-0.24414 -4.25425,-0.78322 -5.84539,-2.20005 -2.29786,-1.19431 -3.99907,-1.98473 -5.90507,-3.50609 0.0969,-0.32189 -1.49905,-1.10792 -0.90747,-1.17047 -0.63967,-0.89665 -0.84098,-2.26227 -1.20199,-2.44613 -1.4769,-1.30517 -0.15167,-2.30016 1.3872,-2.44733 0.7992,-0.76549 2.37098,-0.58939 3.05898,-2.05088 1.93183,-0.98307 3.73638,-2.20237 5.24281,-3.60588 0.891,-1.68236 1.57575,-3.22314 1.32245,-5.23698 0.19308,-1.77743 1.27817,-4.15562 0.1,-5.96739 -0.0513,-1.46223 -1.45237,-3.83364 1.06115,-2.66184 1.45331,1.09083 3.7627,1.69323 5.06718,1.8256 1.75659,1.09828 3.63292,-0.88865 5.54189,-0.32221 2.75227,-0.45256 4.85183,-1.42162 7.77135,-2.1437 0.42007,-0.81748 2.34699,-0.79476 2.96384,-1.65659 0.39982,-0.0604 0.67034,-0.21613 1.09039,-0.20225 z m -1.9414,0.78906 c -0.0868,-0.0159 -0.0336,0.0389 0,0 z m -22.59961,14.78321 c -0.0687,0.0658 0.0171,0.009 0,0 z m -8.85352,11.57617 c -0.0263,0.0748 0.0105,0.008 0,0 z m 29.45117,5.29883 c 0.002,0.007 0.0181,-0.006 0,0 z m 8.60938,-17.43164 c -0.0101,-0.0265 0.002,0.0159 0,0 z m -4.36133,-14.84961 c 0.006,-0.001 -0.001,0.006 0,0 z m 0.41601,0.34375 c 0.0827,0.008 0.009,0.0244 0,0 z m -0.18359,0.52343 c 0.081,0.056 0.007,0.0165 0,0 z m -4.08789,0.10352 c 0.0219,0.082 0.0111,0.0594 0,0 z m -0.12695,0.0605 c 0.0112,0.0827 -0.10983,0.0804 0,0 z m -19.06055,0.70312 c 0.0682,0.18504 -0.0576,0.0382 0,0 z m -0.84961,0.0371 c 0.0158,0.36656 -0.20399,0.202 0,0 z m -0.68555,0.0293 c 0.0481,0.24451 -0.0749,0.0391 0,0 z m 24.73633,0.11914 c 0.16608,0.24856 -0.0459,0.0481 0,0 z m -22.77734,0.0332 c 0.0264,0.001 -0.062,0.0921 0,0 z m 15.27344,0.27734 c 0.12338,0.009 0.0203,0.0283 0,0 z m -14.64844,0.0527 -0.17188,0.0937 z m -0.084,0.11328 c 0.037,0.59199 -0.11132,0.12534 0,0 z m 14.39258,0.12695 c -0.005,0.036 -0.0389,0.0853 0,0 z m -0.35351,0.0293 c 0.0161,0.0858 0.009,0.0831 0,0 z m -0.13282,0.0137 c 0.0335,0.13049 -0.31804,0.23819 0,0 z m -1.00585,0.16406 c 0.0721,0.11504 -0.28866,0.30243 0,0 z m -15.36719,0.14063 c 0.002,0.0172 -0.0377,0.009 0,0 z m 3.06836,0.0195 c 0.007,-9.2e-4 0.003,0.0109 0,0 z m 0.0195,0.0195 0.0215,0.0215 z m 11.25781,0.23242 c 0.0968,0.16824 -0.44887,0.3876 0,0 z m 10.62695,0.0293 c 0.0308,0.0847 -0.30933,0.008 0,0 z m -20.70117,0.18359 c 0.4763,0.31837 -0.0868,0.17896 0,0 z m 20.71289,0.008 c -0.2827,0.21324 -0.28053,0.15062 0,0 z m -13.17773,0.0488 c 0.005,0.0136 -0.006,0.001 0,0 z m -1.37891,0.082 c 0.33609,0.58914 -0.0906,0.14867 0,0 z m 2.36914,0.041 c 0.003,0.0131 -0.0226,0.0161 0,0 z m -8.30273,0.0332 c 0.0685,-0.0127 0.014,0.013 0,0 z m 6.60351,0.041 c 0.0521,-0.0243 0.0571,0.17608 0,0 z m 0.39649,0.17383 c 0.0133,-5e-4 -0.008,0.007 0,0 z m -2.7168,0.50781 c 0.002,0.0203 -0.0429,0.058 0,0 z m -0.0488,0.0762 c -0.0128,0.0349 -0.11684,0.0899 0,0 z m -1.09765,0.0391 c 0.0135,-0.002 0.002,0.006 0,0 z m 0.25195,0.0137 c -0.007,0.0243 -0.0548,0.005 0,0 z m -7.12695,0.7207 c 0.13433,-0.0215 0.2181,0.34712 0,0 z m 0.17578,0.28906 c 0.12134,0.11497 -0.40545,0.54976 0,0 z m -24.01367,0.89063 c 0.93133,0.15583 0.84848,0.48157 0.59869,1.39558 -0.098,0.70466 -1.04434,1.65376 -0.9939,2.56507 -0.30201,2.09515 -1.21131,5.14698 -2.56607,7.28528 -1.2769,0.942 -3.34636,1.26365 -4.69028,1.85931 -1.266102,1.55494 -3.446823,2.49158 -4.512006,4.35405 -1.802281,0.23959 -0.04814,-2.53008 0.75235,-2.93867 2.835326,-1.29026 4.945606,-3.38552 6.890826,-5.68414 -0.0879,-0.70002 1.56215,-1.57345 1.45686,-2.62387 0.0442,-1.58318 2.38108,-3.58623 2.4599,-5.41393 -0.36117,-0.10498 0.56622,-0.61713 0.60363,-0.79868 z m 47.63281,1.43359 c 0.23772,0.12061 -0.01,0.0458 0,0 z m 0.31055,0.3711 c -0.008,0.0566 -0.0211,0.0183 0,0 z m 0.0664,0.40234 c 0.49712,0.18632 -0.005,0.16768 0,0 z m 0.10742,0.30469 c 0.009,0.0902 -0.0284,0.029 0,0 z m -24.38086,0.0195 c 0.34404,0.0996 -0.11815,0.006 0,0 z m 0.006,1.22851 c 0.10132,0.0102 -0.0721,0.005 0,0 z m -0.22265,0.28907 c 0.0711,-0.0116 0.001,0.0256 0,0 z m 0.0293,0.33984 c 0.45116,-0.0681 -0.0839,0.0892 0,0 z m 0.16407,0.26367 c -0.0276,0.18375 -0.58415,0.1454 0,0 z m -0.33399,0.38867 c 0.0953,-0.0759 0.28859,0.24555 0,0 z m 25.82813,0.1543 c 0.23865,0.0548 0.0229,0.0652 0,0 z m 0.63867,0.87109 c 0.28578,0.14927 -0.0302,0.11214 0,0 z m 0.12695,0.20704 c 0.58737,0.3126 0.12537,0.0991 0,0 z m 0.11914,0.17578 c 0.0347,0.0424 -0.0107,0.0239 0,0 z M 131.514,133.9936 c 0.0282,-0.0123 0.003,0.0192 0,0 z m -0.30664,0.84961 c 0.26945,0.16581 0.005,0.46066 0,0 z m 28,0.0762 c 0.0852,-0.009 0.0118,0.009 0,0 z m -27.64453,0.004 c 0.0212,0.0512 -0.11844,0.0957 0,0 z m -0.0996,0.0957 c 0.0128,0.003 -0.0473,0.012 0,0 z m -0.11524,0.25781 c -0.0916,0.19209 -0.0535,0.10099 0,0 z m 29.21875,0.75391 c 0.12207,0.17819 -0.0212,0.0582 0,0 z m -30.95117,1.80078 c 0.0204,0.003 -0.0157,0.004 0,0 z m -0.0488,0.01 c 0.0173,-0.005 0.003,0.007 0,0 z m 32.42383,0.0312 c -0.009,0.1159 -0.0172,0.0288 0,0 z m -0.0488,0.19532 c 0.054,0.0365 -0.009,0.0201 0,0 z m -34.30664,1.28125 c -0.37035,0.0284 -0.33176,0.0264 0,0 z m 39.03125,0.13671 c 0.0218,0.071 -0.0211,0.0179 0,0 z m -39.71875,0.20899 c 0.15861,-0.0264 0.0316,0.0385 0,0 z m 0.16211,0.0859 c -0.002,0.0268 -0.0705,0.0664 0,0 z m -0.0566,0.0527 c -0.25979,0.0943 -0.51045,-0.0375 0,0 z m 39.8418,0.0137 c 0.11211,0.002 0.0101,0.0351 0,0 z m -0.0684,0.084 c 0.66041,0.23495 -0.10704,0.21337 0,0 z m -41.33203,0.5625 c -0.0252,0.0387 -0.14351,0.0198 0,0 z m -0.33204,0.24804 c 0.1014,-0.0211 0.0232,0.0306 0,0 z m -2.90039,1.87696 0.0156,0.002 z m -17.38281,0.11133 c 2.44532,-0.63439 5.90581,1.55461 3.62137,4.02752 0.0487,0.37104 -1.58106,2.78197 -1.62347,2.30674 -0.55406,0.8013 -0.40324,1.61666 -1.51096,2.08922 -0.84034,2.14377 -3.49363,2.90384 -4.35377,0.80692 -0.61025,-1.04518 -0.74938,-2.46429 -2.033166,-2.38522 0.403693,-0.46597 -1.937466,-1.38538 -0.18753,-1.45737 1.181309,-0.92943 2.673396,-0.85617 3.635726,0.23807 1.08273,0.62519 2.27438,-1.75251 0.54682,-1.49721 -1.07673,-0.70107 -2.29029,-1.10313 -3.805216,-0.85331 -0.839181,-0.53598 1.589986,-0.35719 1.006266,-0.78449 1.53684,-1.0656 3.03471,-1.88186 4.55789,-2.34721 -0.58047,0.0351 0.088,-0.13997 0.14604,-0.14366 z m 16.51953,0.10742 c 0.0571,0.0347 -0.0283,0.20995 0,0 z m 44.04493,0.0156 c 0.28782,0.0194 -0.12339,0.0253 0,0 z m -44.88282,0.0937 c 0.006,-0.003 0.005,0.0172 0,0 z m 0.96875,0.0586 c 0.0714,-0.0239 0.027,0.0264 0,0 z m -1.6914,0.6914 c 0.12389,-0.0137 0.0318,0.0193 0,0 z m -32.972656,0.81055 c -1.378473,0.19331 -0.120476,2.53907 0.1252,3.09804 0.107065,0.18722 0.840386,-0.80546 0.14444,-1.02964 0.150561,-0.62895 0.507506,0.0733 0.01973,-1.16658 -0.29067,0.42013 0.02576,-0.93455 -0.28937,-0.90182 z M 163.85,144.8024 c 0.003,0.0429 -0.0699,0.0263 0,0 z m 30.51954,0.5332 c -1.1689,0.474 0.49669,1.37695 0.7716,2.42647 2.30178,2.9738 4.30073,6.43338 6.11726,9.57063 1.48684,0.74386 2.70781,3.03944 3.60739,3.76374 0.60886,1.38388 1.85783,3.27468 2.32371,4.70757 0.59728,0.96874 1.3845,2.55905 1.69226,3.41837 0.71401,1.026 0.73306,2.15917 1.82061,2.99886 1.91636,1.73168 3.10096,4.73702 5.46218,5.52368 2.28364,1.79916 1.46624,-1.59735 -0.31239,-2.32818 -0.0442,-0.34434 -0.47216,-1.48239 -1.17067,-1.50098 0.0163,-0.79715 -1.55276,-0.95814 -1.90369,-1.86387 -1.88322,-1.07678 -3.46907,-4.15152 -3.8346,-5.98073 -1.15583,-1.63556 -2.02228,-4.03356 -3.6293,-5.35011 -0.49246,-0.84713 -1.81428,-2.72783 -2.07864,-3.85068 -1.22808,-1.07705 -1.58893,-3.1418 -2.74691,-4.20634 -0.58854,-1.80584 -2.25449,-3.00176 -3.51778,-4.14634 0.0528,0.28691 -1.01811,-1.54707 -1.43962,-1.81455 -0.29221,-0.50354 -0.84269,-0.95124 -1.16141,-1.36754 z m -73.49805,0.16016 c 0.008,-6.5e-4 -0.007,0.0303 0,0 z m 42.73047,0.0449 c 0.006,-0.001 -0.001,0.006 0,0 z m -42.41211,0.71289 0.14062,0.043 z m 41.91797,0.83594 c 0.006,-0.001 -0.001,0.006 0,0 z m -0.42578,0.49414 c 0.0634,0.0161 -0.11643,-0.004 0,0 z m -40.75977,0.0469 c 0.11173,0.0199 -0.01,0.35349 0,0 z m 40.59375,0.15625 c 0.31824,-4e-4 -0.34956,0.0866 0,0 z m -40.47266,0.25195 c 0.0176,0.006 -0.0109,0.0298 0,0 z m -34.437496,0.58789 c -1.300206,1.16719 -0.834194,2.97652 -0.5369,4.41596 -0.238815,2.38635 1.307679,4.43083 1.13663,6.75262 -1.385682,0.7755 -3.549394,1.35632 -4.9182,1.73467 -1.450108,0.0252 -2.675324,2.07248 -3.25598,1.72635 -0.410766,0.85624 -2.160809,0.42433 -1.34782,1.88314 3.269069,-1.02709 6.185809,-3.65059 9.85965,-2.8262 0.384715,-0.23887 1.146592,0.90414 0.47835,0.41841 -0.03444,1.11065 -1.879564,0.80051 -1.91424,1.59783 -0.992589,0.65706 -0.616178,2.84239 -2.01576,2.8235 0.107734,2.00342 -1.406466,4.25433 -0.0916,6.22137 1.436741,-2.02834 -0.366371,-5.2004 1.99774,-6.37712 0.833357,-0.73477 1.168747,-0.0349 1.31857,-1.45176 1.1268,-1.19628 1.737051,0.0123 1.95337,0.84821 0.301681,0.13447 -0.05309,1.5152 0.56246,1.46031 0.267409,1.77722 1.454726,3.3398 2.14258,5.09082 0.659834,2.01154 1.748382,3.26588 2.85593,4.80124 1.805616,0.34295 -0.533613,-1.17107 -0.0858,-1.42801 0.678822,0.42046 -0.426385,-0.54095 -0.23632,-0.58918 -0.35614,-0.63475 -0.380841,-2.37146 -1.10571,-2.517 0.16189,-0.9917 -0.917692,-0.68867 -0.22475,-1.22437 -1.378781,-2.04351 -2.737929,-5.2842 -3.3828,-7.75244 -0.279182,-0.88992 -0.746673,-1.73607 -1.2089,-2.28167 1.341323,-1.4504 -1.180515,-2.75998 -0.57975,-4.27462 -0.274877,-2.11329 -0.223266,-4.7798 -0.40028,-6.50528 -0.05859,-0.93751 -1.196384,-1.90939 -1.00047,-2.54678 z m 73.779296,0.0937 c -0.12392,0.62883 -0.24811,-0.0202 0,0 z m -38.50781,0.20508 c 0.0666,0.023 -0.0193,0.26093 0,0 z m -29.572266,0.52148 c 1.136326,0.91653 -1.221611,1.75314 -0.40834,0.17396 l 0.4082,-0.17383 z m 30.406246,0.0703 c 0.11,0.0329 0.0182,0.48814 0,0 z m 36.91211,0.49805 c 0.18135,-0.0732 0.0501,0.142 0,0 z m -0.3125,0.22461 c -0.006,0.0313 -0.005,0.005 0,0 z m -0.8789,0.48047 -0.004,0.0664 z m -33.56446,0.29883 c 0.23315,0.033 -0.0955,0.0249 0,0 z m 0.0762,0.0215 0.0117,0.002 z m 0.11523,0.0234 c 0.21603,-0.0562 0.30235,0.57274 0,0 z m 32.35742,0.0137 c -0.10995,0.39158 -0.11687,0.0425 0,0 z m -32.63867,0.0566 c 0.006,-0.001 -0.001,0.006 0,0 z m 31.86719,0.39063 c 0.001,0.0231 -0.007,0.003 0,0 z m 0.15234,0.21289 c 0.0165,0.0588 -0.0194,0.0119 0,0 z m -0.67969,0.17187 c 0.0166,0.0414 -0.0386,0.0695 0,0 z m -1.26172,0.29297 c -0.009,0.0139 -0.0246,0.004 0,0 z m -0.65429,0.3125 c -0.0588,0.0148 0.003,0.0219 0,0 z m -0.58594,0.30078 c 0.16021,0.008 -0.13219,0.003 0,0 z m -2.66602,0.38281 c 0.0125,-0.002 0.001,0.01 0,0 z m 1.59571,0.0566 c 0.0317,0.20038 -0.14812,0.0505 0,0 z m -23.57422,0.0586 c 0.61413,0.0511 -0.0136,0.27624 0,0 z m 20.82617,0.125 c 0.25342,0.0615 -0.44861,0.15317 0,0 z m 0.91211,0.043 c 0.003,0.10037 -0.0195,0.0174 0,0 z m 0.73047,0.0606 c 0.0417,0.0476 -0.0636,0.0423 0,0 z m -1.16406,0.19726 c 0.0207,0.008 -0.0352,0.10447 0,0 z m -0.0117,0.0625 c 0.005,0.014 -0.0302,0.0386 0,0 z m -20.94141,0.004 c 0.0439,0.0793 -0.0686,0.22905 0,0 z m 19.10742,0.0195 c 0.0158,-0.004 -0.003,0.011 0,0 z m -6.04492,0.13867 c -0.21427,0.61155 -0.19171,0.0513 0,0 z m 1.125,0.0586 c 0.0189,0.003 0.049,0.0435 0,0 z m -12.74219,0.0645 c 0.0864,0.0101 -0.0636,0.0218 0,0 z m 8.17774,0.33789 c 0.58672,0.2695 -0.33592,0.0104 0,0 z m 1.80273,0.0625 c 0.0315,-0.005 0.0726,0.1077 0,0 z m -1.28906,0.0254 c 0.004,-0.003 0.002,0.007 0,0 z m -7.4375,0.004 c -0.0524,-0.17955 0.14735,0.42016 0,0 z m 7.84375,0.01 c 0.005,-0.006 0.0162,0.0104 0,0 z m -4.91797,0.0312 c -0.003,0.2862 -0.22977,0.23503 0,0 z m 2.3086,0.11914 c 0.0369,0.0519 0.01,0.17064 0,0 z m 2.30468,0.0156 c -0.10602,0.27863 -0.0918,0.009 0,0 z m -23.74609,4.36914 c 0.62763,-0.12768 2.05348,0.8503 2.14165,0.18899 0.53204,0.79207 1.91171,0.8508 2.49495,0.98115 0.55996,0.065 1.30749,0.45153 1.26954,0.67174 1.75448,0.89785 2.95642,2.159 4.22107,3.56904 1.09202,0.17257 3.33256,-0.37947 3.82648,-0.43009 1.69946,0.10182 3.5574,-0.19656 4.07981,1.61494 0.0387,2.18603 1.3273,4.85279 -0.3637,6.95266 0.1811,1.73518 -1.99747,1.39181 -3.05236,2.4168 -1.48763,1.58078 -3.37331,-0.11203 -4.88677,-0.10366 -2.41212,-1.40332 -5.19531,0.14896 -7.78477,-0.56403 -0.21328,-0.63791 -1.4227,-0.95629 -1.74094,-1.94604 -0.52333,-0.13061 0.33793,-0.67589 -0.41695,-0.66919 -0.51815,-1.91268 -1.62738,-4.93201 -2.5649,-6.09554 0.13375,0.40372 -0.89562,-0.85632 -0.65216,-0.92384 1.03209,-0.62215 3.41321,-0.78297 4.48333,-0.10464 -0.69577,0.35532 0.88989,0.007 0.77384,0.312 1.14614,0.3253 2.07366,0.35101 2.95631,0.98627 1.75412,-0.32863 3.45655,0.88737 5.0047,1.06769 1.18763,0.26495 0.70571,-1.04116 0.18702,-0.78561 -0.24363,-0.63688 -0.72429,0.45373 -0.94018,-0.73097 -1.70081,-0.31192 -2.63634,-1.0147 -4.14521,-1.1775 -1.53657,-0.47252 -3.72014,-0.27852 -5.35012,-1.26919 -1.59775,-0.39709 -1.7984,-0.37201 -3.29668,-0.33797 -0.46667,-0.0132 -0.42757,0.16458 0.0933,-0.64272 1.00952,-1.32393 2.68801,-1.89254 3.66277,-2.98029 z m -50.300776,16.48828 c -0.835453,2.06907 0.6926,4.46804 -0.02729,6.55175 0.965474,0.61329 -0.791175,0.66281 0.29888,0.99619 0.94787,-2.00024 1.374552,-5.32872 -0.27159,-7.54794 z m 148.300776,2.42969 c -1.05629,0.64371 -2.65833,1.74405 -4.18417,2.13578 -0.62998,0.75657 -1.27648,1.73901 -2.27611,2.19596 -1.20167,0.93428 -2.86049,1.77418 -3.30177,2.99862 2.96868,0.71989 5.61313,-2.16754 7.63173,-3.76683 0.42096,-0.83648 4.43646,-2.15094 2.13032,-3.56353 z m -117.904296,0.41015 c -0.2463,0.49392 1.222111,0.5684 0,0 z m 9.273436,5.19727 c 1.30861,-0.26394 1.13265,1.15698 0.0937,1.04633 0.26679,-0.36461 -0.71709,-0.24582 -0.0937,-1.04633 z m -39.761716,0.0273 c -0.704317,0.0847 0.351706,0.67332 0,0 z m 145.894526,0.0391 c -1.13248,0.0794 -0.54445,2.28354 -0.24111,1.92987 0.31987,3.02249 2.15049,6.4492 3.01219,9.48289 0.69684,1.4372 0.58083,2.75277 2.23726,3.40535 0.42244,0.001 1.43103,2.82144 1.6628,2.07947 1.04062,1.94917 -0.57905,-3.89259 -0.74582,-3.09792 -1.67976,-3.49705 -3.35736,-7.32075 -4.44689,-11.14129 0.53704,0.5367 -1.09656,-2.68623 -0.9001,-2.36929 -0.0918,-0.15663 -0.3751,-0.38697 -0.57833,-0.28908 z M 66.109814,184.1953 c -0.56252,1.27409 0.207439,-0.10252 0,0 z m -0.4375,0.1582 c -0.310204,1.10163 0.869976,0.99388 0,0 z m 138.150386,1.54102 c -0.83489,0.0615 -2.22969,1.06432 -2.42486,1.07772 -1.51814,0.59112 -2.43166,1.3612 -3.62531,1.58258 -2.4002,1.24019 -4.41722,3.15985 -6.63595,4.62276 -1.2134,0.41984 -2.64829,1.77039 -3.9167,2.57546 0.12811,0.89847 -1.2969,0.6223 -1.11955,0.53912 -1.83032,-0.50195 -2.17664,-4.21661 -4.02449,-5.06659 -0.50378,0.96779 0.12966,3.22476 0.80074,4.16458 0.23756,1.07174 1.62726,2.05217 1.57428,2.90306 1.15464,-0.11519 -0.38566,1.40254 -1.08595,0.77317 -3.25291,-0.28985 -6.74389,1.14364 -9.40856,2.97743 -0.91358,0.38112 -2.26556,0.77047 -3.04242,0.97521 0.2812,-0.62659 -0.74128,0.34135 -0.8507,0.12303 -1.17444,0.55203 -2.57559,1.15167 -4.1492,1.60853 -0.45671,0.71675 -1.78266,0.77911 -2.15741,0.62816 -1.05679,1.33153 -1.49156,0.80726 -2.87939,1.66295 -1.56514,0.19763 -2.70908,1.40197 -4.40097,1.4588 -1.5472,0.80717 -3.66788,0.15977 -4.80095,1.1613 -2.36957,0.2809 -4.57125,-0.17159 -6.99657,0.1255 -1.05192,1.00092 -1.67024,-0.99356 -3.02171,-0.87723 -1.27578,-1.68943 -3.66989,-1.18485 -5.27811,-1.906 -0.35316,-0.20161 -1.76736,-0.21788 -1.54449,-1.10542 -0.37702,-0.25951 -1.72819,-0.23453 -2.05448,-1.1021 0.41003,-0.19122 -0.43,-1.49326 0.23073,-2.31888 0.30425,-1.49221 0.54942,-4.9842 -0.72849,-5.41289 -1.69052,1.91284 -0.61145,5.14799 -1.04452,7.25468 0.48823,1.19808 -1.57223,0.72731 -0.14182,2.7074 -0.54869,2.50067 1.65538,5.30928 -1.17032,6.82499 -2.16014,1.31835 -5.21733,0.68633 -7.53094,1.43599 -0.0853,-0.18875 -2.18916,0.63222 -1.47277,0.18479 -1.40057,-0.6388 -0.88985,0.21133 -2.48853,-0.13813 -0.21647,0.86831 -0.44471,-0.84784 -0.76864,0.67394 -0.2528,1.19788 -0.77586,1.91713 -1.78142,2.4869 -1.44245,0.12167 0.31441,1.53 1.38672,0.9191 0.91425,-0.25561 1.2315,0.13621 1.99884,0.38015 -0.16779,-0.73015 1.87817,1.10006 2.43644,0.56638 2.60752,-0.0386 5.14906,-0.51432 7.55407,-0.39163 0.92372,-0.40968 1.0818,-1.4442 0.3301,-1.82659 -1.88517,0.53595 -3.65596,0.30842 -5.33527,0.0229 -1.27657,0.0383 -3.40629,0.75298 -4.19857,-0.78494 0.34285,-0.57636 0.90453,0.10525 1.48958,-0.45917 0.0951,0.63796 1.0927,-0.64773 1.71375,-0.18321 0.71545,-0.14319 1.68405,-0.26667 2.18638,-0.19941 1.88382,0.84839 4.14314,-0.4653 5.96599,-0.42932 0.46562,-0.98469 2.22435,-0.62752 2.69227,-1.95784 1.60214,0.0254 0.16288,-3.44253 0.29477,-4.11364 -0.31091,-0.72298 -2.52379,-2.89406 -0.25784,-1.94669 0.62629,0.33247 0.73351,-0.16202 1.41416,0.52737 1.19068,-0.12938 2.34164,0.84252 3.25481,0.99609 -0.52383,0.85184 0.21803,-0.0889 0.27381,0.51017 0.68712,0.26287 1.75324,0.53294 2.04949,1.36987 0.17322,-0.83362 0.64417,0.45883 1.28634,-0.0528 0.92387,0.37059 2.16009,-0.16528 2.47556,0.31523 1.11733,0.12983 2.29543,-0.14157 3.11892,0.24523 0.58557,-0.80014 2.27846,0.31274 2.39934,-0.31656 1.85728,0.45704 4.16892,-0.74321 6.27123,-1.01367 0.56477,-0.0885 2.82285,-0.44753 3.08234,-0.91785 1.42919,-0.0867 3.17005,-0.29152 4.46372,-0.67636 2.26693,-0.56706 5.08084,-2.50378 7.5707,-3.6003 0.67459,0.0594 1.91019,-0.8969 2.07906,-0.60507 0.70767,-0.26699 1.2556,-0.72536 1.52951,-0.91814 0.64635,1.2321 0.51643,-0.93582 1.18815,-0.42041 1.4571,-0.41042 2.60204,-1.55944 3.81681,-1.72887 2.24671,-0.1919 4.69046,-0.55071 6.91811,-1.33299 0.98135,-0.0944 1.31535,-0.11127 1.61075,0.0215 0.83757,-0.30556 1.25669,-0.37517 2.11853,-0.3506 0.39761,0.26114 1.72554,-0.14827 1.9459,0.19553 0.69589,-0.41137 1.30979,0.55585 2.27099,0.007 -0.69963,-0.5613 0.94805,0.69316 0.9869,-4.8e-4 0.9806,-0.0972 2.78684,0.30029 3.34801,0.73914 0.0493,-0.11579 1.94387,1.00606 1.90944,0.3085 0.36886,0.50985 0.95915,-0.27896 1.46565,0.43527 2.31153,-0.41572 -0.75917,-1.93865 -1.13908,-1.98179 -0.22847,-0.70635 -1.24313,-1.51238 -1.47241,-1.62526 -1.4839,0.38526 -3.74349,-0.36067 -5.3195,-0.77815 -0.53915,0.66894 -2.60206,-0.75096 -2.32279,-0.0618 -1.55905,-0.54257 -3.49284,1.46168 -5.37144,0.62858 -2.13143,0.35878 0.18671,-1.49951 1.01058,-0.90981 1.23341,0.0262 1.85054,-1.92474 3.20232,-1.95266 0.15162,-0.012 2.29769,-1.53798 1.92197,-1.57485 1.18107,-0.51189 2.69033,-1.40033 2.98815,-1.69797 1.53228,-1.01946 3.49804,-2.20673 5.17531,-3.05541 -0.0725,-0.65916 1.67473,-0.61417 1.90268,-1.51008 0.64641,-0.21657 1.44124,-1.4701 0.25822,-1.4148 z m -90.23633,33.11328 c -1.49168,0.84696 -0.16265,2.40142 -0.0679,3.29881 2.2769,-1.15301 4.48722,0.009 6.6356,0.37123 2.48035,0.6061 5.45496,2.04984 7.61741,0.43092 0.60387,-0.16907 -0.0903,-0.78392 -0.20336,-0.38522 -0.71779,-0.63051 -3.37008,-0.28272 -4.82703,-0.81027 -1.70444,-0.10817 -3.22373,-1.05852 -5.23241,-1.54656 -1.29166,0.22564 -2.83191,-0.44877 -3.40593,-1.14493 0.3301,0.12367 -0.63361,-0.38122 -0.51637,-0.21398 z m 47.8086,5.26758 c 1.0327,0.84123 -1.3245,1.73894 -1.8776,1.31285 -0.13528,0.15503 -2.67198,0.0634 -1.72034,0.15149 -1.57033,-1.49265 2.00601,-0.62672 2.7439,-1.11209 -0.24212,-0.74494 0.8939,0.22862 0.85404,-0.35225 z M 98.695754,234.9785 c -0.986211,0.67289 -2.324846,0.63414 -2.51965,1.82637 0.129415,-1.15019 0.410275,0.51398 0.97123,-0.17877 0.707489,0.003 3.272506,-0.0857 2.58187,-1.50427 -0.266842,0.37884 -0.669411,-0.27912 -1.03345,-0.14333 z" />
</svg>
