<?xml version="1.0" encoding="UTF-8" standalone="no"?>
<svg
   width="270"
   height="271"
   viewBox="0 0 270 271"
   fill="none"
   version="1.1"
   id="svg48"
   sodipodi:docname="puzzle_pieces.svg"
   inkscape:version="1.4.2 (ebf0e940, 2025-05-08)"
   xmlns:inkscape="http://www.inkscape.org/namespaces/inkscape"
   xmlns:sodipodi="http://sodipodi.sourceforge.net/DTD/sodipodi-0.dtd"
   xmlns="http://www.w3.org/2000/svg"
   xmlns:svg="http://www.w3.org/2000/svg">
  <defs
     id="defs48" />
  <sodipodi:namedview
     id="namedview48"
     pagecolor="#ffffff"
     bordercolor="#000000"
     borderopacity="0.25"
     inkscape:showpageshadow="2"
     inkscape:pageopacity="0.0"
     inkscape:pagecheckerboard="0"
     inkscape:deskcolor="#d1d1d1"
     inkscape:zoom="3.0814815"
     inkscape:cx="135"
     inkscape:cy="135.48678"
     inkscape:window-width="2560"
     inkscape:window-height="1440"
     inkscape:window-x="0"
     inkscape:window-y="0"
     inkscape:window-maximized="0"
     inkscape:current-layer="svg48" />
  <path
     id="path48"
     d="m 44.6373,241.787 c 3.48047,-1.42314 0.06413,1.75093 0,0 z m 3.9598,-2.229 c -0.399755,1.34803 -3.531616,1.00127 -1.2716,0.642 0.04843,-0.53542 1.087176,-0.19581 1.2716,-0.642 z m 0.9839,-29.964 c 0.249552,-1.47847 0.652184,0.83482 0,0 z m 110.453,-0.852 c 1.87566,-0.7726 1.94654,0.51973 0,0 z M 48.9515,207.339 c 1.236234,-0.97554 1.802536,1.88829 0,0 z M 160.559,207.26 c 0.30151,-1.04654 0.88413,0.62952 0,0 z m -3.318,-2.125 c -0.78862,-0.86325 1.53977,-0.0773 0,0 z m -0.092,-1.153 c 1.66295,0.01 -1.62498,0.23315 0,0 z m 1.6,-0.551 c 2.70076,1.09024 1.15239,5.52132 0.026,1.285 -1.29918,-1.12437 -0.38113,-0.26118 -0.026,-1.285 z m -0.288,-1.141 c 0.0941,-1.60362 4.26325,1.34293 0,0 z m 20.548,-7.252 c -0.49924,-2.27701 1.07193,1.28385 0,0 z m -1.928,-1.626 c 0.93226,-1.00728 0.75546,1.0626 0,0 z m 7.803,-2.426 c -0.92634,-0.77297 1.7075,0.27934 0,0 z m -3.777,-2.609 c -1.40552,-0.13869 0.414,-0.72304 0,0 z m -3.016,-0.289 c 1.51743,-2.12003 2.26744,3.64193 0,0 z M 34.7367,187.826 c 2.089205,-3.2286 7.844817,6.40764 3.1734,2.819 -1.156047,-1.15868 -2.183199,-2.15476 -3.1734,-2.819 z m 43.064,-3.868 c -0.102405,-1.75282 1.27251,-0.544 0,0 z m -0.0917,-1.351 c 2.10594,-2.58175 1.225772,0.56953 0,0 z m 0.7868,-1.666 c -0.338834,-1.44157 1.480943,0.59706 0,0 z m 1.5342,-0.524 c 1.73026,-1.98103 0.243226,1.23879 0,0 z m -0.1967,-1.102 c 3.717616,-0.83147 -5.437071,2.9866 0,0 z M 60.819,178.24 c 2.653813,-0.85028 -2.833841,1.86176 0,0 z m 17.8735,-0.38 c 2.456658,-0.0158 1.164798,2.14134 0,0 z m -25.1776,0.197 c -0.489814,-1.33222 1.313734,-0.0373 0,0 z m -5.8747,-3.502 c 0.511185,-1.1602 1.181683,-0.29227 0,0 z m 128.2868,-1.062 c 1.59209,-1.00424 1.2954,0.33253 0,0 z M 86.7965,173.31 c 2.224447,-1.13586 -0.372551,0.11313 0,0 z m 0.6818,-0.892 c 0.123511,-1.12103 0.891016,-0.85217 0,0 z M 207.491,162.189 c 4.29372,-1.23174 -2.60175,7.88841 -1.01,1.154 0.40832,-0.32502 0.62335,-0.81039 1.01,-1.154 z m -14.87,-1.927 c 1.10304,-0.84874 -1.15592,2.54631 0,0 z m -16.366,-1.875 c 0.66325,-0.74399 1.2057,0.68756 0,0 z m -11.08,-0.394 c 0.81593,-0.99252 0.32665,0.79994 0,0 z m 30.947,-2.032 c 0.26512,-1.11555 2.03739,0.0423 0,0 z m -85.604,-12.72 c 1.56954,-1.65338 -1.32203,1.19164 0,0 z m -31.3797,-6.662 c 5.521756,0.85961 -1.550699,8.67838 -5.1404,9.547 -4.815594,3.72556 -8.94184,-1.16806 -1.7965,-1.417 2.909916,-1.77568 6.632121,-4.35909 6.9369,-8.13 z M 185.894,113.906 c 3.42653,-0.92977 7.42356,4.90232 11.854,4.852 6.23776,-1.66154 17.92141,1.10185 8.209,6.439 -5.34877,1.37684 5.92015,-6.75621 -2.58489,-4.32006 -6.85263,1.07994 -12.94651,-2.65027 -18.37011,-6.11794 l 0.367,-0.394 z m 4.012,-7.251 c 2.98036,0.11891 9.02718,4.33654 12.733,4.786 -4.80855,2.0732 -10.67786,0.09 -12.733,-4.786 z m 39.917,-9.1796 c 2.91938,-1.08797 4.04112,10.1174 -1.311,9.3896 1.9263,-1.90268 0.64875,-6.24255 1.311,-9.3896 z m -23.892,-7.0942 c 4.24942,-1.841069 2.73961,11.92033 -0.853,8.2744 -1.31478,-2.652184 -1.5342,-6.454543 0.853,-8.2744 z m -22.372,-5.7961 c 5.49277,-1.763538 3.83424,7.056904 1.522,9.4153 -3.47654,2.487548 -2.73465,-8.271012 -1.522,-9.4153 z M 204.2,84.0737 c 2.37762,-2.762166 9.02085,2.350417 6.68095,4.122588 -3.22083,-1.855218 -4.1127,-0.262087 -4.98995,-3.047288 -0.50081,-0.356461 -1.79036,-0.117217 -1.691,-1.0753 z m -20.011,-6.5304 c 4.72557,-2.818201 7.26274,7.180328 2.622,1.7047 -2.45584,0.03721 -8.55369,1.261759 -2.622,-1.7047 z m 27.944,-15.3295 c 4.21001,0.284703 -2.04504,13.327213 -2.57,7.3959 2.84817,-1.65968 0.13233,-6.096984 2.57,-7.3959 z m -7.658,-2.0588 c 5.99645,-2.885987 -0.60606,3.515743 -1.141,5.8486 -0.32069,7.802908 -4.81645,3.258344 -1.573,-2.3866 0.71136,-1.291421 1.80053,-2.322396 2.714,-3.462 z m -5.862,-2.2161 c 4.46244,0.847286 -4.74616,6.285099 -2.78,10.4906 -0.15852,8.843539 -4.26004,-2.750826 -0.498,-6.4255 0.53574,-1.70781 1.58025,-3.351623 3.278,-4.0651 z M 167.928,158.387 c 1.09078,-0.97383 0.46647,-0.21503 0,0 z M 218.54688,24.5 c -4.28628,1.629424 -10.58642,1.903481 -12.58985,7.082028 -0.0806,3.066714 -2.6235,6.443175 -3.48828,9.964844 -1.59933,3.267849 -7.99199,3.825744 -11.78906,4.341797 -5.97882,0.03343 -8.24469,5.496023 -11.08008,9.728519 -4.06084,4.507056 -7.52445,10.153347 -7.48837,16.417968 4.96342,3.342904 4.06826,4.960428 3.002,11.082036 -2.37971,8.194874 1.08205,16.254577 1.57428,24.390718 0.27706,2.27731 1.41573,5.50471 1.41701,7.44819 1.34991,3.77507 2.62202,5.1714 4.95712,9.5079 3.70883,5.01516 10.14206,6.1556 15.44936,8.02585 1.45662,4.37385 -2.2361,9.33764 -7.17397,8.34003 -6.75407,1.44075 -13.76453,3.64705 -19.57813,6.0606 -3.84535,3.61349 -6.06642,10.48591 -12.48437,7.60353 -3.87046,-1.12017 -6.70025,0.308 -5.54713,4.68175 -0.32033,4.91528 1.87842,12.13758 -4.9688,11.99829 -5.10854,-0.0206 -7.41536,9.38647 -4.87888,13.74218 1.80348,3.53111 5.61777,7.30202 9.64905,5.47871 -0.54378,4.195 -0.68177,8.54072 -0.508,11.7267 0.21961,4.09298 -0.73493,9.27548 1.68397,12.12914 1.86064,2.29761 1.11623,-0.50391 1.61941,-1.70308 1.43053,1.24053 5.51488,-0.67313 8.78713,0.33989 0.91213,-1.84864 1.05197,1.95963 1.08472,0.0519 0.98777,0.99236 -0.43631,-1.68896 1.12018,-0.26228 4.22055,-0.86833 -2.03257,-5.07835 -1.03708,-9.20508 0.91324,-1.06825 0.31411,-4.16883 3.20121,-6.13863 2.99165,0.91178 5.88382,-2.53608 9.00783,-0.0117 4.21144,2.62109 3.39334,8.56 1.03506,11.91996 -2.99203,1.40953 -1.51409,5.372 2.17782,3.43572 0.71226,-0.37299 3.34802,1.2232 3.67201,0.40595 2.56049,-0.41803 6.51556,0.0638 9.4888,-0.0153 0.63622,-2.25101 0.16366,-5.24448 2.82073,-2.95745 6.16022,2.07589 13.63256,3.66263 16.02968,10.74647 2.98304,1.03758 5.57669,5.34799 8.15657,8.20922 3.08579,3.88844 6.68325,7.42748 10.35722,10.71597 5.01461,2.98728 11.0173,5.41616 17.03734,4.56282 2.61686,3.71445 7.17127,-1.06956 9.90475,-2.69319 7.04772,-4.80143 8.14417,-14.47819 9.59387,-22.31298 0.0551,-8.80121 -0.68861,-18.32673 -0.14462,-27.38086 -1.08531,5.07525 -1.79431,-1.80673 -1.55111,-4.84956 3.18583,3.89042 -1.16627,-3.41088 -0.91401,-5.70722 0.0235,-9.6726 -5.17639,-18.2187 -10.91029,-25.57028 -5.48262,-8.45964 -16.82329,-11.25114 -20.94183,-20.91608 -1.35247,-3.24284 -2.35184,-11.03977 1.92749,-10.465 3.05592,0.93194 2.75993,-3.22367 6.49014,-4.51187 5.20629,-1.14223 -0.33336,-3.35627 -1.08784,-6.26791 -1.28201,-3.2815 -1.54692,-7.27426 1.63825,-9.442 7.98252,-8.322779 3.65007,-20.590026 2.53184,-30.605655 5.29377,-1.213308 6.28164,-5.798628 9.67774,-10.634761 4.82619,-7.215648 1.11835,-16.606963 -3.84156,-22.752186 -2.26822,-4.956019 -3.54148,-2.811892 -0.85356,1.023578 5.70128,6.056499 7.17032,15.944988 2.06052,22.777524 -0.41692,4.424605 -10.01765,6.703849 -8.58583,6.083985 3.43647,2.906542 -4.41268,1.022637 -2.31225,3.98661 1.53019,5.978862 -0.69378,11.449388 -2.54294,17.335937 -1.55305,6.058638 -5.608,-1.248399 -2.55693,-3.777353 -0.56481,-1.309139 1.70251,-2.024634 0.32632,-2.67421 -2.96343,2.55655 0.17956,-0.303056 -0.74644,-0.433996 -5.16021,-1.552763 4.55516,-4.266974 3.64443,-8.195313 -0.3042,-6.497433 -3.55938,6.466641 -5.00972,3.671875 -1.62429,-5.036694 1.93199,-9.176393 1.98051,-13.270523 -2.48579,5.290525 -3.07372,1.590599 -4.47092,-1.744186 -1.17479,-2.496796 -4.12485,-4.544164 -2.15234,-6.712934 -0.73085,-2.183647 -4.75623,1.566553 -7.50006,-1.324263 -3.44204,-2.529776 -11.23528,-2.323893 -5.51953,-7.121091 -0.23334,-4.284101 -2.97473,6.74865 -7.14846,1.624993 -9.81784,-0.202615 4.49577,-6.416376 -2.39105,-5.390805 -3.43145,3.366495 -7.26466,3.664305 -11.3379,1.484377 -1.44187,-0.189007 -0.71949,-0.978267 -2.4455,-0.07455 2.06925,-4.014578 14.12353,-0.499302 11.49805,-3.087935 -3.3514,-0.835588 -1.21617,-6.146014 0.453,-8.37939 -0.10735,-4.822653 5.28418,-9.001976 10.29697,-9.679734 2.3389,-0.636871 6.38533,-0.758268 2.22431,-1.858151 z m 3.70312,0.787109 c -0.82273,2.59699 5.76879,4.201801 7.93945,6.34575 3.09489,2.266429 7.03801,0.758209 10.16426,2.375399 10.96024,1.694292 1.50132,-1.817406 -3.54102,-2.086033 -5.87944,0.157289 -9.4577,-4.85902 -14.56269,-6.635116 z m -1.95312,3.613282 c -5.56364,1.612034 -12.28605,8.066372 -9.16016,14.08984 1.26159,-0.321633 1.18336,-5.714612 2.92411,-8.000272 1.55204,-9.41695 16.25752,0.478196 15.10742,-2.228518 -2.23436,-1.665754 -6.03114,-3.095605 -8.87137,-3.86105 z m 1.64257,8.289062 c -2.18161,0.877492 -3.05926,4.060636 -3.58956,5.801196 0.21563,3.371739 7.05721,11.286312 8.19535,7.998047 -4.72252,-1.835132 -8.60667,-8.548645 -4.02539,-12.457124 0.58988,-0.371639 -0.30936,-1.168293 -0.5804,-1.342119 z m 10.9336,0.841797 c -0.38443,2.430964 7.8309,2.246187 10.52148,5.103567 4.87851,4.372124 8.54075,12.965968 4.60363,18.843797 -8.46704,4.476374 9.20274,0.197719 3.26562,-7.148443 -1.12224,-6.80307 -5.24195,-13.4918 -12.13095,-15.380899 -1.76362,-1.413668 -4.24547,-0.734182 -6.25978,-1.418022 z m -2.73438,4.695312 c -0.20351,3.49039 0.45251,7.257885 0.60156,8.984376 4.15578,1.700402 1.0377,-5.460284 0.0525,-8.025439 l -0.20899,-0.695313 -0.44531,-0.263672 z m 6.60742,2.753907 c 0.5773,3.039445 6.11786,7.186428 4.39453,11.869137 -1.27045,3.691262 -8.89441,4.548513 -0.95703,4.509762 5.49579,-4.158703 1.91029,-13.905641 -3.4375,-16.378899 z M 55.779297,54.660156 c -5.56272,2.618343 -12.385256,0.06356 -18.197451,3.474431 -7.33386,2.984766 -15.396711,5.117829 -20.757859,11.410159 -1.445032,4.149678 0.0938,5.601546 1.87504,6.398525 -0.06249,-1.26828 -1.420913,-7.174116 3.082031,-7.816406 3.79409,-1.160867 7.152049,-4.404218 11.054823,-4.785382 1.907429,-1.340181 5.318152,-2.341295 6.818547,-2.990498 9.422451,-2.086713 18.349939,-3.699104 28.088295,-3.094059 6.834277,0.955818 9.311355,8.256325 14.058593,12.128907 1.733882,4.247278 4.340718,16.142212 3.855561,4.419828 -2.298516,-7.331936 -8.082742,-12.512581 -13.875,-17.099751 -5.020039,-2.087551 -10.8619,-0.243264 -16.00258,-2.045754 z m 132.976563,0.53711 c 0.0951,1.031591 -7.20099,13.259472 -0.69922,14.648481 2.71579,-2.494411 -2.60942,-4.514784 0.32789,-8.457207 0.83444,-2.835892 4.08382,-6.862869 7.27734,-5.193357 6.52241,1.266433 14.04935,1.232827 19.69741,5.336116 4.96449,2.362443 4.52643,7.676359 2.03311,12.052735 2.43114,1.661374 5.39917,-4.999995 4.47086,-7.455169 2.89029,-0.496794 4.43172,3.294581 6.18964,4.372999 1.33876,2.819708 1.88093,5.489211 1.20796,8.640618 2.5779,3.541294 -0.74548,12.495412 -4.06649,10.347699 3.16411,-3.658042 2.14629,-8.985303 2.82045,-12.996234 -1.54555,-12.071345 -2.8638,0.153907 -1.83201,5.390713 0.7337,3.36545 -2.48259,6.293619 -2.91579,8.810585 -3.62522,2.077779 -7.33501,6.077834 -5.75576,10.884855 -1.68618,0.85706 -0.0647,-8.985431 -2.96303,-4.628952 -2.11031,6.444582 5.79632,10.472952 10.94962,7.841692 2.1782,-0.52288 3.24294,-4.56983 -0.19698,-2.30819 -6.31557,3.00154 -7.88951,-6.607514 -2.49224,-8.05079 0.59769,-3.771336 8.67623,-5.132045 2.55865,-0.197222 3.47165,-3.662111 10.31783,-2.879893 10.2539,3.763672 1.12766,5.69559 -0.20034,16.26936 -8.35348,13.5722 -2.86287,-1.37131 -7.40889,-0.0896 -3.90816,0.52588 3.78048,2.84779 11.01397,2.8684 13.34962,-2.42602 0.5548,-9.10139 3.17851,4.28566 0.30284,2.85739 -2.2669,3.67469 7.55036,9.51417 -0.9961,5.53323 -2.10534,-7.02793 -3.1665,1.42141 -1.5352,4.03916 -3.19804,0.33764 -6.36809,-3.02854 -6.95127,-4.98306 -6.14255,-2.14656 5.61728,6.35784 2.45309,9.99219 0.73525,9.6208 7.80759,16.88831 15.13281,22.41047 1.79138,2.29496 3.8676,4.92327 0.11714,6.50405 -4.55779,4.59351 -7.16247,11.58329 -14.26558,12.85161 -5.04234,5.04863 -9.7523,-1.36918 -14.42578,-3.61914 -3.27213,-2.56158 -8.46401,-5.63455 -3.10742,-0.0116 7.29938,0.49435 -1.84151,8.17449 2.49224,7.0412 2.59557,-7.07586 9.38753,1.13085 12.41797,2.79298 -3.44467,2.58871 -2.31171,6.63991 0.75981,2.84566 0.99515,-5.39379 6.88374,1.97919 10.55664,1.95318 1.17372,1.02931 1.2053,8.7545 1.76971,6.0058 1.51888,-0.49585 0.3567,-1.13818 1.32705,-1.95374 -1.14614,-5.3893 11.21814,-3.82994 9.00774,1.04883 0.37822,7.62733 3.56462,-10.03104 7.77536,-1.28515 0.0591,7.3804 1.74867,-6.59644 4.95698,-0.28916 -1.16306,5.84413 -0.94007,8.24876 1.18186,7.10808 0.82701,5.21462 0.87671,10.60554 0.43105,15.67207 -2.71515,8.25239 -2.95374,17.80826 -4.86523,26.48828 1.18327,7.02895 -7.50155,8.5711 -12.43576,9.62136 -5.71572,0.37881 -11.52379,-1.43212 -15.96656,-4.63869 -4.87726,-3.33738 -7.38827,-8.61769 -11.73648,-12.35172 -2.57232,-4.10727 -7.6652,-7.29241 -8.81258,-12.47271 1.90341,-4.93275 -8.90607,0.49519 -11.61914,-4.16989 -8.32363,-2.76752 2.44085,-2.74195 -3.19913,-6.2539 1.89772,-1.9455 4.75277,-2.93982 7.05417,-0.22382 1.81529,1.02543 2.17886,-2.74727 0.27146,-2.45703 -4.87569,-3.15099 3.68037,-0.3306 4.30449,-2.19916 -2.90124,-1.8816 -6.87938,-4.32439 -0.16987,-4.60156 3.82047,1.74523 -0.86134,-4.20037 -2.82096,-2.07238 -3.77411,-5.11453 0.91684,-4.74813 4.23638,-4.20904 -1.21278,-1.69593 -9.8797,-3.2799 -4.95698,-5.04883 3.0106,-1.69956 6.14583,7.16437 6.16242,2.09747 0.79833,1.19959 1.86544,0.97078 2.07396,2.8858 1.44473,2.59355 -1.03346,9.87767 1.41625,9.21884 2.36578,-1.61479 -0.70925,-9.235 2.71476,-7.97291 11.07464,3.91444 19.26061,12.50041 29.09769,18.52966 6.34841,3.35628 11.55567,8.85686 12.73252,16.12895 4.9057,-0.59872 -1.66311,-11.17941 -5.28332,-13.03525 -6.84774,-5.72465 -15.35695,-9.35935 -22.05859,-15.47266 -4.92885,-3.77706 -10.59941,-6.2975 -16.29887,-8.52577 -2.65199,-7.51638 -11.44873,-4.37203 -15.10541,-9.70312 -7.75351,-2.91478 -3.98909,-11.35121 -5.0489,-18.08399 -5.04896,-3.07411 -2.42399,-5.60258 2.42588,-2.08403 7.82405,6.34168 4.06762,-1.75746 -1.29904,-3.19932 -2.29428,-2.43635 -4.7151,-10.1853 1.06255,-10.21522 6.37211,-1.8884 -0.82997,-12.2202 7.1191,-10.42577 7.43721,-1.06117 13.48458,-5.62509 18.17578,-11.25214 2.29447,-3.24161 -1.75198,-3.69209 -1.23258,-0.78692 -1.85546,1.8068 -2.25566,1.61122 -2.8456,2.62393 0.75168,1.1115 -2.46965,2.89856 -4.61524,4.68358 -6.74724,2.89621 -14.64264,4.30454 -21.61133,1.61137 -1.48537,-0.75821 -6.20606,-1.81914 -5.55655,-3.57085 -4.27233,-3.23063 -6.98021,-8.41092 -7.81868,-13.76583 1.2797,-2.9992 -2.20466,-6.59766 -1.76177,-10.42389 -2.58639,-10.769203 1.15856,-21.552129 1.48588,-32.232467 -3.84605,0.984974 -0.14485,-7.991202 0.74585,-9.115422 7.31747,-10.344629 -4.2735,12.798358 4.06644,8.890628 -3.62147,-3.307187 -0.37175,-9.381264 1.62496,-11.214841 0.91182,-0.676841 1.83691,-1.797594 2.9938,-1.989872 z m -12.59961,9.298828 c -1.28098,1.9697 2.63344,10.103816 -1.21258,8.129 -1.93878,-2.156726 -0.009,-6.037462 1.21258,-8.129 z m -104.349609,2.27539 c 0.372793,2.147205 1.857215,5.314306 -0.877193,7.861421 -1.108893,3.313228 -6.348158,4.940732 -5.11524,7.302732 4.328333,-0.175069 6.363844,-4.602091 8.458985,-7.722749 0.673175,-3.084233 0.689207,-6.319465 -2.466552,-7.441404 z m 4.314453,0.347657 c -0.890321,0.567153 0.714811,1.599519 0,0 z M 34.75,70.646484 c -0.986377,1.171455 0.922996,1.659743 0,0 z m 26.841797,0.589844 c -0.610733,3.15782 -1.493251,8.369792 -5.92579,10.044927 0.266799,4.028148 6.22975,-3.200985 6.818322,-5.835845 0.346244,-1.159652 0.686781,-3.790799 -0.892532,-4.209082 z m -26.789063,0.734375 c 0.169153,4.299126 -3.082229,8.057113 -6.609363,10.031513 0.886864,3.959157 9.676153,-4.695081 8.195313,-9.376954 -0.780679,-1.363145 -1.013429,0.714783 -1.58595,-0.654559 z m 16.941407,4.064453 c -2.449765,4.899913 0.680487,11.709061 -2.80668,16.117374 -0.94197,4.859682 -9.476928,2.991911 -10.017624,6.384765 5.155803,0.344589 11.998457,-1.706179 12.693359,-7.722649 0.777942,-4.886016 0.661464,-10.300777 1.048671,-14.765719 -0.541669,-0.103999 -0.598246,0.565857 -0.917726,-0.01377 z m -9.789063,0.328125 c -0.42126,5.125021 -0.936968,13.236836 -7.244369,14.555053 -0.979876,5.042302 10.274777,-2.438087 8.640624,-6.292969 -0.13757,-2.497237 0.833519,-6.55781 -1.396255,-8.262084 z m 32.470703,3.72461 c -1.944525,0.799199 -5.81717,1.65367 -5.843846,4.601749 1.462246,-0.504516 7.254283,-2.786087 5.843846,-4.601749 z m -53.767578,0.03125 c -1.803521,4.631544 0.912003,9.884324 0.408587,14.670197 0.496033,2.980072 1.350265,6.569202 1.619283,10.188192 0.697595,1.30202 -0.0714,2.95835 0.458741,5.15477 0.614414,6.59506 -0.08126,12.76968 -0.393286,19.40647 -0.919321,1.56273 0.431076,4.81732 -1.181354,6.55689 0.670776,0.37509 0.580611,3.32225 1.666192,0.98461 1.983481,-6.71161 2.177949,-13.92233 2.005858,-20.95507 C 26.035653,104.42287 21.344719,93.354317 21.5057,81.675839 21.20322,81.193622 20.925927,80.58437 20.658203,80.119141 Z m 62.113281,0.375 c -1.990876,1.486754 0.368701,3.149533 -0.353738,5.587837 -1.44241,7.088364 4.59757,11.026751 6.795089,16.836402 1.012465,4.38681 -4.471107,6.28144 -6.232335,8.61542 -1.377032,2.81221 -1.021132,7.87768 -2.792978,11.77539 -2.11684,3.86695 -2.75591,8.94277 -7.382821,11.10762 -6.07001,0.21311 -12.882518,-0.53883 -18.345657,-3.12137 -7.870667,-2.87008 -1.723248,3.5018 3.697265,3.51367 2.729287,-0.55619 2.891563,1.88586 1.44367,3.64434 -0.671516,5.83103 -0.05101,13.45687 6.37346,15.93375 -1.002339,4.29301 -0.09303,8.82851 -1.719383,13.04916 -0.307697,1.10702 -2.150515,4.76825 -1.652669,4.22088 -0.871967,-0.5071 -0.371803,3.1671 -2.476845,0.56497 -4.527855,-4.59441 -11.584428,-4.9929 -16.091838,-9.6388 -3.652567,-2.99817 -8.541627,-3.74419 -12.246094,-6.62109 1.779787,-2.29381 4.184218,-3.75546 5.519436,-6.49162 2.997412,-3.12828 3.595271,-7.80478 2.910336,-11.91457 1.024553,-1.28224 -1.562195,-4.735 -0.982253,-6.74849 1.205763,-2.06076 6.402545,-4.55844 5.797206,-8.3048 0.117245,-3.97614 -0.08001,-10.62323 -4.763619,-11.2247 -2.400417,-0.83923 -4.982028,3.05953 -1.255996,3.37471 -6.027936,0.59322 -6.728143,-6.00235 -5.980597,-10.20368 0.285151,-2.55451 0.943801,-6.202548 4.053377,-4.590167 3.379684,2.581957 0.83466,-2.993819 -1.744156,-2.581997 -4.61173,1.542482 -4.465739,8.307584 -4.315099,12.654574 0.108643,3.16343 4.311478,6.3297 3.748091,7.10552 -2.746446,3.7987 -2.531063,10.90578 2.454987,12.6963 0.941415,0.82634 0.713359,4.73892 1.324711,6.16292 2.015776,7.14349 -3.044004,14.71269 -9.101379,18.18989 -4.947573,5.41091 -10.610484,10.03501 -15.342283,15.47269 -2.520223,-0.10369 -3.158793,-2.85378 -6.9628834,-3.82822 -1.213959,-1.94767 -3.0435387,-3.34041 0.8261844,-3.67179 9.158431,-2.93013 10.976298,-14.05736 10.86928,-22.28177 1.208562,-2.17305 -0.558663,-5.95336 0.971601,-8.29964 0.419056,-1.89329 -0.06515,-5.23408 -0.105231,-6.57007 -0.185418,-0.47327 0.749369,-3.76425 -0.476524,-4.68599 -0.239032,-0.0756 0.697613,-1.88492 0.501855,-3.01188 0.183031,-0.73557 -0.540163,-3.38535 0.133428,-2.88504 2.036064,-5.68021 -3.635125,-6.92561 -2.71485,-1.76954 -0.02409,1.61473 0.176512,2.40107 -0.160059,4.01048 1.817996,4.85972 0.668915,11.25006 0.355277,16.1449 0.41343,2.97879 -0.605742,6.85753 -0.378581,9.54706 0.170123,3.45096 -0.777327,8.1458 -2.413782,11.73647 -2.151823,3.49382 -7.3365492,7.89441 -11.1722758,5.75596 -3.6602479,-0.23902 -1.164253,2.12025 -0.4023212,3.89903 1.597578,1.90224 3.1827523,3.12063 4.3124935,4.9656 2.4738527,1.47989 7.4285455,2.39353 2.7773435,5.06458 -2.7149183,1.75013 -3.7279041,3.75236 -5.9140758,6.63496 -1.0596603,1.07092 0.5380785,4.11305 -0.2753536,4.23699 0.3950842,1.84911 1.3758673,3.02505 1.7578045,4.71901 0.7647525,1.28859 2.3292675,2.53343 4.054681,3.92789 1.6356039,1.03099 4.2064579,2.68191 4.9284979,4.53222 0.939875,0.57151 2.349437,3.38133 2.990187,4.0512 0.845873,0.94655 2.033581,3.22778 2.818556,4.23695 -0.295091,1.64355 1.400784,1.76804 1.638737,2.60965 1.682986,2.52133 2.562731,5.69285 3.999816,8.18389 0.796136,1.99955 3.076841,5.42583 3.791534,7.52931 0.884229,0.40344 1.723991,1.82616 0.996426,2.80511 1.970307,0.0747 1.155927,3.65347 2.517997,5.0555 -0.663745,2.2295 2.785115,1.80958 2.884441,4.47893 1.708169,3.11533 4.424878,6.74584 7.068674,8.9294 0.903225,-0.0361 3.235171,1.58674 4.471076,1.12707 1.935898,1.4522 5.098812,-0.5299 6.425828,-0.86569 8.334518,-3.17783 12.534839,-12.55294 18.673831,-18.76571 5.280678,-6.26052 9.066971,-14.16424 16.707032,-18.0957 0.786195,-1.30745 1.749227,1.19858 1.930342,0.004 2.110286,4.64924 5.442682,-5.44044 7.511723,-2.77148 -0.220343,5.04568 -3.847731,13.67847 3.771479,13.60184 6.3478,1.84934 13.68079,-0.96532 20.05469,0.75922 5.38499,-0.97469 16.30007,4.17561 18.13078,-2.40244 1.09694,-5.60606 -1.66797,-11.74268 -0.36102,-17.71312 -0.50911,-2.86693 1.30436,-7.07205 -0.55451,-9.37394 -3.15011,-0.19713 -8.7376,0.49107 -9.54332,-3.41257 -3.11529,-3.34827 -0.76326,-9.15298 0.81242,-12.85214 1.85604,-6.87216 11.45832,0.20952 12.39063,-4.82617 0.86703,-8.77313 1.3183,-17.19193 -9.85938,-15.32813 -11.00213,1.10544 0.28389,-5.63354 -2.68945,-11.16014 -0.64465,-8.94889 -12.90511,-12.148 -18.66038,-5.76934 -6.65267,3.37475 -9.54753,13.74204 -2.96299,18.29315 5.78637,3.37554 -6.2454,2.78515 -8.92969,2.46473 -1.604323,-2.28627 -1.018011,4.1845 -1.298835,7.09373 0.472573,3.71034 -0.06735,7.83654 -0.848767,11.53263 -6.173084,3.40416 -2.317744,-6.23998 -3.085218,-9.70817 0.397941,-5.75388 -0.851785,-12.87478 -7.382815,-14.42578 -1.870585,-0.85532 -4.875268,-1.07299 -2.793156,-3.58049 1.641198,-8.63895 0.65061,-18.04979 0.392586,-26.94727 0.302428,-4.88399 -1.386939,-9.97482 3.343716,-13.13881 4.586124,-5.59406 0.266487,-12.380268 -3.855468,-16.681734 -2.219429,-3.764431 -0.0062,-8.782379 -2.347899,-12.173495 z m 161.712896,1.574218 c -1.21291,6.834741 0.57329,15.650325 -5.48234,20.652341 -3.65173,5.42817 -1.64033,-7.795879 0.85326,-8.418146 2.34801,-3.556564 3.08634,-8.558004 4.62908,-12.234195 z m 0.65429,4.636719 c 0.84201,4.804235 -2.78269,15.180872 0,0 z m -171.994139,0.08398 c -3.037593,-0.729575 -0.344119,7.007597 -1.087893,5.598066 2.295821,11.178146 7.817658,-5.808036 1.087893,-5.598066 z M 36.558594,102.6543 c -5.097679,3.1399 3.22298,12.30137 0.158198,4.0664 -0.936789,-1.18157 2.031988,-3.98961 -0.158198,-4.0664 z m 142.240236,4.65625 c 0.88021,0.68846 -0.32405,1.35032 0,0 z m 59.83984,5.52343 c 2.23874,2.95889 -1.55902,1.62419 0,0 z m -198.824217,0.0723 c 1.222317,0.48745 1.090314,1.8984 0,0 z m 199.857427,2.45508 c 3.29015,1.99731 0.86466,4.48821 0,0 z m -199.847661,1.15429 c 2.645808,2.12251 3.253578,7.78869 -1.021489,9.21872 -0.937048,-0.0866 -4.537528,-11.44068 1.021489,-9.21872 z m 43.988281,0.0273 c -0.369494,10.56816 2.171538,21.62251 -0.46447,31.99623 -3.239264,5.31806 -10.694826,-0.28376 -15.591885,1.24406 -1.857124,-0.38845 -1.065091,4.3463 -2.753726,1.3764 -4.254152,-2.23012 -4.943883,-9.12189 -2.478503,-12.91602 0.02502,-6.56368 10.254966,3.59962 13.755859,-2.22849 2.790118,-3.01564 2.681964,-5.88137 4.328125,-9.4414 2.093257,-3.16863 1.447506,-6.88899 3.2046,-10.03078 z m -17.839844,5.51953 c -3.808965,3.09011 12.12193,8.35932 6.640436,2.80526 -2.493546,0.17538 -4.630777,-1.55502 -6.640436,-2.80526 z m -35.183594,2.36133 c -2.816012,2.20854 0.361812,7.14909 -0.458982,10.38476 0.35315,4.25496 -0.292015,8.01987 -1.939533,12.03965 -6.232935,3.89308 -2.122591,5.39101 1.416019,0.68164 3.18233,-5.82591 1.904899,-13.24763 1.337768,-19.3698 0.04467,-1.10483 0.568609,-2.85178 -0.355272,-3.73625 z m 89.197268,12.08984 c 7.20513,-1.28023 12.15764,7.60888 7.93359,13.17969 -0.54932,1.8251 -5.05527,6.42407 -1.0897,6.51782 4.07858,3.0984 15.16605,-2.69688 14.80668,4.91589 0.44263,2.62528 1.17929,6.65724 -0.4491,8.49192 -4.3264,-0.15954 -9.30382,0.0612 -11.66797,5.14656 -1.48016,4.08243 -3.79774,8.59996 -1.23331,12.77186 0.15735,7.4288 12.55531,2.58532 10.54298,9.5215 -1.16579,6.34689 -0.78092,13.29081 -0.78713,19.01368 -0.66631,-3.83277 -4.03964,2.95144 -8.13088,0.91793 -1.48434,0.34417 -3.33062,-0.64169 -5.04888,5.3e-4 1.12667,0.44439 -3.39013,-0.64954 -4.91615,0.15664 -0.5898,-1.15162 -2.52107,0.66757 -1.31731,-0.0112 0.71726,0.75704 -0.45055,0.0587 -1.76295,-0.40611 -1.12158,0.48646 -1.95177,-1.3251 -1.83875,1.19117 -1.18308,-0.032 -0.13007,-3.13121 -0.75797,-0.78557 -3.12867,0.32667 -7.78738,-1.24896 -11.56699,-1.3124 -0.22001,-3.05154 -1.73113,-6.31153 -0.8018,-9.46205 3.19781,-0.26765 6.63601,0.15979 9.89827,0.75818 3.24184,-0.43178 5.26806,3.63161 8.36881,1.02034 3.50956,-0.6604 1.29323,-4.79056 -1.16587,-5.27058 2.98745,-0.70175 10.53277,-1.06162 9.87304,-7.0547 0.93075,-4.27205 -5.96671,-0.33332 -4.16987,-4.87717 0.71465,-2.97821 -3.56596,-3.59696 -5.93948,-2.8227 0.49146,-3.75835 -4.25652,-4.88715 -7.99623,-3.37703 -3.65127,0.87198 -12.039227,3.81176 -10.91435,-3.022 1.13934,-4.62274 0.48855,-8.94408 1.56061,-13.11328 0.46578,0.22616 -0.10472,-3.01356 -0.025,-3.54144 1.06312,-1.51486 -1.676474,-3.63698 0.78555,-4.06485 2.46348,-1.06849 5.97952,0.0612 7.93393,-0.32764 3.60261,-0.84456 7.9653,-3.25344 1.83608,-5.31047 -3.59114,-2.44127 -3.12885,-7.78001 -3.94532,-4.48437 -0.8977,-1.35154 0.79428,-2.22205 -0.0375,-2.92013 1.66749,-1.47143 -0.0616,-3.22272 2.60575,-5.57849 2.77729,-1.87621 4.51893,-5.86543 9.41724,-5.86153 z m 71.93945,7.05469 c 1.45464,3.64256 2.54322,9.15806 -3.00188,4.77352 -8.07965,-4.72465 -0.71387,-2.78656 3.00188,-4.77352 z m -9.82226,2.34766 c 6.1412,0.53616 1.10117,10.91689 5.66601,4.13091 7.23508,1.44781 -0.23805,7.71963 -4.61537,4.73246 -4.54914,-0.13429 -8.75569,0.67724 -13.52183,-0.16999 -0.51817,-3.94234 4.04912,-6.98305 8.01173,-6.98828 0.86444,-1.2957 3.44346,-0.31927 4.45946,-1.7051 z m -112.312504,5.89062 c 7.580163,0.7176 17.179579,0.31336 22.517853,6.58034 1.38966,7.00452 1.011155,14.35864 0.625386,21.46689 -3.03681,1.91149 1.494911,-1.07626 -0.03877,1.50778 -2.006616,5.07861 -1.874933,-3.50523 -3.611508,0.25807 0.01894,3.45637 -2.696627,7.37312 -6.052735,8.5021 -6.714071,9.01753 -19.362134,9.44617 -27.22461,17.26953 -2.259172,-0.16646 -6.180744,7.39985 -7.027565,2.85971 -0.741655,-1.74443 -0.519702,-2.51314 -1.487862,-3.78919 1.644802,-0.28257 -0.335831,-1.37156 0.425642,-0.53864 -2.432125,-0.79455 -1.472555,-4.20352 -2.776603,-5.84122 -0.590597,-3.43459 -3.582674,-6.97037 -2.730343,-10.18456 -0.130795,-7.47794 -3.968022,-0.54156 -1.33589,2.32037 0.341128,3.57021 2.433528,7.03077 3.211113,10.75414 1.231205,3.22925 2.571757,7.05801 3.21289,9.24418 -1.809187,1.0364 -5.249244,4.75065 -5.04879,8.72074 2.715368,7.62393 2.45216,-2.75686 5.005778,-5.52167 3.889052,-2.45532 7.970119,-5.35097 12.257707,-6.87762 3.54788,-3.32259 3.805122,-2.94125 8.386718,-5.27929 5.238703,-2.05742 9.531955,-5.96759 14.314921,-8.55873 0.85463,0.67473 4.182729,-3.83434 5.433584,-5.34206 1.528336,-0.67533 2.50187,-2.73885 3.855696,-2.75407 1.972034,1.46017 3.762039,2.42326 4.379095,5.54695 0.652339,5.4423 -1.172018,10.84386 -2.792812,15.94751 -1.507548,-0.80328 -3.003729,-2.44056 -5.086218,-1.51974 -4.021893,5.29529 -1.773211,-0.26592 0.45699,-3.01762 2.004021,-2.16185 -0.528763,-0.37613 0.302313,-1.4575 -3.642385,1.66963 -3.912922,6.59046 -7.240368,8.79897 -4.240372,4.9299 -6.747628,10.76024 -10.978243,15.35403 -2.469952,5.69372 -9.065121,8.93993 -11.798314,14.44238 -3.841654,2.16253 -8.005183,4.51099 -12.693493,3.57967 -3.869924,-1.87713 -7.627272,-5.36821 -7.749768,-10.19036 -2.134256,-3.93635 -3.210276,-7.62901 -4.693409,-11.3832 -1.683948,-6.56809 -7.092004,-11.56706 -9.560895,-17.61152 -4.321752,-5.43844 -8.655288,-11.01877 -14.4896296,-14.84478 -2.0547083,-2.45048 -5.1381397,-5.56623 -3.0049678,-9.08415 1.2757181,-5.59013 6.8696204,-8.91914 9.8560924,-12.78523 2.090482,-1.84579 4.418809,-3.72138 6.299532,-5.64024 2.358209,-1.65848 3.407372,-3.64464 6.348331,-5.03797 3.001593,0.19735 4.29874,1.26196 4.011085,3.30802 -0.290227,1.56607 -2.17133,1.85282 -0.642702,3.10733 2.492511,3.42269 3.173138,-4.50402 6.177903,-2.71499 1.931437,1.71641 6.291212,3.49075 1.71675,5.11547 -4.245959,2.8857 3.484428,5.11657 3.121013,0.72075 1.171295,-3.21728 3.494359,1.04883 5.232648,1.59996 -3.981845,4.11002 -0.242103,5.69123 2.033022,1.25986 1.36431,0.90455 -2.099012,1.75332 -0.58608,4.14113 -0.791252,3.67191 2.496786,1.87919 2.355242,-0.44331 0.78828,-3.47188 4.142866,0.80319 6.12309,1.83641 1.198531,3.83723 2.37813,1.51306 5.179635,-0.19734 0.327266,2.26785 3.874522,3.98085 3.17555,2.0293 0.268301,-2.0713 -4.21899,-3.71044 -2.572195,-4.8893 0.851755,-5.75496 1.81892,-2.93116 4.83975,-3.44555 1.685198,-2.45181 -5.136101,-1.75681 -2.820804,-4.64499 -2.792903,-7.66786 10.246256,-3.30359 0.917968,-7.73637 -2.085958,-3.54768 5.646288,-3.01292 3.710742,-4.19737 0.07656,0.32986 -3.465252,-0.15774 -1.439463,-0.74301 z m 181.414064,2.46289 c 1.49337,0.31926 0.51242,1.21125 0,0 z m -1.76758,0.78516 c 0.8317,0.86384 4.03118,2.73113 3.73652,3.6862 4.09128,2.59915 4.28399,8.34671 8.65821,10.79351 4.47069,7.46654 1.53356,14.438 -7.77539,10.33202 -8.70616,0.0544 -17.88527,-2.40546 -24.91613,-7.14637 3.22615,-3.48525 9.98467,-4.2597 11.41035,-9.1917 0.28545,-0.0463 2.96325,-3.06363 4.24848,-4.39238 1.28861,-1.61516 3.03111,-2.78926 4.63796,-4.08128 z m -88.66016,1.4414 c 2.54147,0.64677 9.438,1.43156 8.10942,1.2481 -2.48056,1.01017 -0.59492,0.009 1.35156,0.82987 -0.8753,-2.65707 1.08322,0.33728 2.3846,-0.59412 1.25123,0.12704 -0.81281,-1.72389 0.69554,-0.94568 0.84859,1.63309 2.7005,-0.65997 4.30111,0.73419 -1.04076,2.01003 5.35525,-1.94411 4.74636,-0.0381 8.67781,-1.23368 2.05109,1.73843 10.16398,-0.066 3.70373,2.5625 0.0509,15.87065 1.36327,21.99224 -2.95779,0.19144 -7.81501,-4.32373 -11.8557,-4.81246 -1.26658,-0.20174 -2.72198,-2.15606 -2.68767,-0.73393 -2.48477,-0.2265 -5.73176,-1.70251 -5.4026,0.9711 2.75331,2.30204 -2.76622,0.34702 -1.74464,3.5271 -2.16644,-1.35554 -5.86675,6.23124 -0.10549,6.9238 1.68072,1.66698 0.21102,7.3274 5.8108,6.60943 1.02347,1.83695 5.76752,1.98692 8.87696,3.68357 2.01931,1.63158 5.30783,2.72773 5.93164,5.02758 -1.0449,2.19267 2.62862,8.50516 -0.62164,9.7913 -4.19792,0.20406 -7.59955,-1.77986 -10.32043,-2.55681 3.90895,-3.79965 -1.59358,-11.47277 0.41991,-10.88477 -3.54772,-3.19085 -9.55649,-3.63109 -13.95322,-1.67738 -4.06605,3.10526 -5.88953,9.95075 -2.07044,13.73077 -2.44615,1.6651 -8.29363,1.47146 -9.28515,-0.32812 -2.27742,-0.75969 0.42973,-1.92141 -1.09396,-3.83432 -1.58326,-4.21154 -0.0122,-9.43975 -0.0857,-13.93606 0.046,-5.93099 -8.50503,-0.67965 -9.37693,-6.71289 -0.85899,-0.67957 -0.4274,-3.29114 -0.68225,-3.83032 0.58958,-2.02642 0.41576,-4.87786 2.49223,-5.63867 0.28674,-5.06536 8.5327,0.0632 7.0643,-2.30098 2.73081,-3.76541 -3.06367,-16.05441 3.16412,-15.73061 0.68609,0.19564 1.82631,-0.0556 2.41005,-0.44782 z m 10.86133,0.44727 c 0.69814,0.94867 -1.76833,0.35371 0,0 z M 54.830078,170.7793 c 0.459401,-0.25974 5.487889,3.67139 2.968794,2.17009 -0.391677,-0.21909 -3.462005,-1.9433 -2.968794,-2.17009 z m 141.457032,4.64258 c 7.91929,3.00854 7.63575,13.76708 6.07695,20.59946 -1.56929,2.5147 -4.4636,5.32083 -6.49042,1.96703 -4.26614,-2.00637 -8.31461,-4.53707 -12.72118,-5.96649 -2.29979,-0.89222 -7.50046,-3.3022 -6.72653,-4.72079 -0.31214,0.78828 1.53437,0.12548 1.11382,-0.20934 1.49154,-1.48258 5.21742,2.50282 6.13676,2.36352 3.38302,0.97842 0.70634,-2.96981 -1.24425,-2.70279 -1.54401,-2.18638 -14.15028,-3.93477 -8.03911,-5.03716 4.0356,0.17758 7.81475,2.89125 11.54138,4.48464 1.6874,-3.00954 -2.9084,-2.5895 2.88472,-4.31254 -0.48388,-1.62551 -4.23455,-1.38891 -5.66622,-2.78181 -5.11614,-1.96773 3.32111,-2.03543 4.7208,0.51167 2.57941,1.4002 11.7797,6.05661 9.26173,-0.7677 0.2593,-1.19133 -1.38643,-2.56605 -0.84845,-3.4277 z m -19.44922,3.99804 c 1.67076,-0.53539 10.66721,5.14136 3.98018,2.17822 -0.65392,-0.33254 -5.6775,-1.63286 -3.98018,-2.17822 z m -79.433593,0.73438 c 0.329083,0.66842 -1.00446,3.31792 1.036953,5.27162 0.681137,3.96123 6.19881,2.9126 8.94369,2.26894 1.90687,-1.53441 12.05381,-2.98062 7.43569,0.68146 -1.94405,1.18014 -10.52745,1.36642 -7.13481,5.08805 4.71618,0.61235 9.59871,-3.44293 14.55659,-3.60616 3.30736,3.76657 -6.67066,3.90465 -8.65427,4.78515 -4.0569,-1.03693 -4.70379,3.01225 -0.81639,2.63576 3.61907,0.73121 13.28612,-2.81438 12.40425,2.08781 -2.07946,0.0679 -4.2281,-0.25694 -6.84231,-0.33122 -5.82799,-2.09331 -12.48029,2.57297 -4,4.23625 1.89152,1.06725 4.03252,1.25674 5.29925,3.135 -3.58102,2.23225 -7.34742,-3.28313 -11.42178,-1.71933 -3.73884,-0.47667 -7.17786,-0.405 -10.962887,-0.51146 0.757025,-5.3815 1.631955,-10.99488 -0.773444,-16.39062 -5.15358,-3.97554 -3.460654,-4.71619 0.929468,-7.63125 z m 170.894533,8.98047 c 0.36798,2.15973 -0.0244,0.32054 0,0 z m 0.13086,1.50976 c -1.09504,0.93411 1.19827,0.54628 0,0 z m -88.96485,5.65235 c 1.72316,0.63141 -0.22046,0.90745 0,0 z m -37.57812,10.67578 c -0.25057,0.92018 1.18898,0.91695 0,0 z m 27.25781,5.07226 c -1.37896,1.42372 1.36525,0.95459 0,0 z m 12.44141,0.82031 c -0.97856,0.78695 1.0964,0.63693 0,0 z m -21.07032,0.0723 c -0.58472,1.19256 1.74788,0.72859 0,0 z m 8.78711,0.17383 c -1.03014,0.0384 0.14453,2.57749 0,0 z m 1.20899,0.61328 c -1.15007,-0.0203 1.19973,0.71685 0,0 z M 100.30078,216 c 0.72531,2.04159 -0.939842,0.64306 0,0 z m 166.9375,0.36719 c 1.46063,1.2374 -1.03935,1.54322 0,0 z m -161.61133,1.27148 c 6.50641,1.00695 -2.36061,1.43295 3e-5,-2e-5 z m -1.83203,0.0566 c 1.6065,0.42315 -1.06224,0.45663 0,0 z m 30.47266,0.0937 c 11.81963,2.12589 -12.50868,1.72653 -0.7226,0.19733 l 0.72266,-0.19727 z M 29.279297,218.1171 c 1.186125,0.56219 -0.04225,1.10765 0,0 z m 94.710933,0.1582 c 1.28452,0.64242 -2.43481,0.0193 0,0 z m -2.57617,0.002 c 3.55284,0.10722 -0.98976,0.6827 3e-5,3.6e-4 z m 5.08985,0.0352 c 1.42121,0.92778 -1.70534,0.1027 0,0 z m -96.488285,0.78906 c 1.377436,2.04875 -0.687666,1.04808 4e-6,1.5e-4 z m 235.095705,5.92578 c 0.8571,0.45268 -0.62048,1.02346 0,0 z m -0.49805,1.84375 c 0.8314,1.27036 -2.15338,3.0857 0,0 z"
     style="fill:#000000" />
</svg>
